<?xml version="1.0" encoding="utf-8"?>
<!-- Generator: Adobe Illustrator 22.0.1, SVG Export Plug-In . SVG Version: 6.00 Build 0)  -->
<svg version="1.1" id="Layer_1" xmlns="http://www.w3.org/2000/svg" xmlns:xlink="http://www.w3.org/1999/xlink" x="0px" y="0px"
	 viewBox="0 0 150.9 28.3" enable-background="new 0 0 150.9 28.3" xml:space="preserve">
<g>
	<polygon fill="#FFFFFF" points="10.8,12.7 3.5,12.7 3.5,4.7 0,4.7 0,23.8 3.5,23.8 3.5,16 10.8,16 10.8,23.8 14.3,23.8 14.3,4.7 
		10.8,4.7 	"/>
	<path fill="#FFFFFF" d="M25.5,17.6c0,1.6-1.3,2.9-2.9,2.9s-2.9-1.3-2.9-2.9V9.4h-3.3v8.2c0,3.4,2.8,6.2,6.2,6.2s6.2-2.8,6.2-6.2
		V9.4h-3.3C25.5,9.4,25.5,17.6,25.5,17.6z"/>
	<path fill="#FFFFFF" d="M50,10.3c0-1.7,1.1-2.2,2.3-2.2c1,0,2.3,0.7,3.1,1.6l2.2-2.6c-1.1-1.5-3.3-2.5-5.1-2.5
		c-3.6,0-6.2,2.1-6.2,5.6c0,6.5,7.9,4.4,7.9,8c0,1.1-1.1,2.1-2.3,2.1c-2,0-2.6-1-3.5-2L46,20.9c1.5,1.9,3.4,2.8,5.7,2.8
		c3.4,0,6.2-2.1,6.2-5.5C57.9,11.2,50,13.4,50,10.3z"/>
	<path fill="#FFFFFF" d="M96.3,18.6v-5.7h3V10h-3V6.1L93,7.6v11.7c0,3,2.1,4.5,4.9,4.5c0.4,0,1,0,1.3-0.1l0.8-3
		c-0.4,0-0.8,0.1-1.2,0.1C96.9,20.7,96.3,19.9,96.3,18.6z"/>
	<path fill="#FFFFFF" d="M38.1,9.5c-1.6,0-2.8,0.5-3.9,1.6V4.8h-3.3v11.6c0,4.4,3.2,7.3,6.7,7.3c3.9,0,7.4-3,7.4-7.1
		C44.9,12.6,41.8,9.5,38.1,9.5z M38,20.5c-2.1,0-3.8-1.7-3.8-3.8s1.7-3.8,3.8-3.8s3.8,1.7,3.8,3.8S40.1,20.5,38,20.5z"/>
	<path fill="#FFFFFF" d="M74,16.5c0-4.1-3.5-7.1-7.4-7.1c-3.5,0-6.7,3-6.7,7.3v11.6h3.3V22c1.1,1.1,2.2,1.6,3.9,1.6
		C70.8,23.6,74,20.5,74,16.5z M67.1,20.2c-2.1,0-3.8-1.7-3.8-3.8s1.7-3.8,3.8-3.8s3.8,1.7,3.8,3.8S69.2,20.2,67.1,20.2z"/>
	<path fill="#FFFFFF" d="M84.7,9.2V5.9c0.9-0.4,1.5-1.3,1.5-2.3V3.5c0-1.4-1.2-2.6-2.6-2.6h-0.1c-1.4,0-2.6,1.2-2.6,2.6v0.1
		c0,1,0.6,1.9,1.5,2.3v3.3C81.2,9.4,80,9.9,79,10.7l-9.1-7.1C70,3.4,70,3.1,70,2.9C70,1.3,68.7,0,67.1,0s-2.9,1.3-2.9,2.9
		s1.3,2.9,2.9,2.9c0.5,0,1-0.1,1.4-0.4l9,7c-0.8,1.2-1.2,2.5-1.2,4c0,1.6,0.5,3,1.3,4.2l-2.7,2.7c-0.2-0.1-0.4-0.1-0.7-0.1
		c-1.3,0-2.4,1.1-2.4,2.4s1.1,2.4,2.4,2.4s2.4-1.1,2.4-2.4c0-0.2,0-0.5-0.1-0.7l2.7-2.7c1.2,0.9,2.8,1.5,4.4,1.5
		c4,0,7.3-3.3,7.3-7.3C90.9,12.8,88.2,9.7,84.7,9.2z M83.6,20.1c-2.1,0-3.7-1.7-3.7-3.7c0-2.1,1.7-3.7,3.7-3.7
		c2.1,0,3.7,1.7,3.7,3.7C87.3,18.5,85.7,20.1,83.6,20.1z"/>
</g>
<g>
	<path fill="#FFFFFF" d="M123.1,12.6c-0.2-0.2-0.4-0.3-0.6-0.4S122,12,121.7,12s-0.6,0.1-0.8,0.2c-0.2,0.1-0.5,0.3-0.6,0.4
		c-0.2,0.2-0.3,0.4-0.4,0.7c-0.1,0.3-0.1,0.6-0.1,0.9c0,0.3,0,0.6,0.1,0.9c0.1,0.3,0.2,0.5,0.4,0.7c0.2,0.2,0.4,0.3,0.6,0.5
		c0.2,0.1,0.5,0.2,0.8,0.2s0.6-0.1,0.8-0.2c0.2-0.1,0.5-0.3,0.6-0.5c0.2-0.2,0.3-0.4,0.4-0.7c0.1-0.3,0.2-0.6,0.2-0.9
		c0-0.3,0-0.6-0.2-0.9C123.4,13,123.3,12.8,123.1,12.6z"/>
	<path fill="#FFFFFF" d="M147.5,4.2h-37.6c-1.7,0-3,1.3-3,3v14c0,1.7,1.3,3,3,3h37.6c1.7,0,3-1.3,3-3v-14
		C150.5,5.5,149.2,4.2,147.5,4.2z M117.3,12.1h-2v5.6h-1.7v-5.6h-2v-1.5h5.7V12.1z M125.2,15.7c-0.2,0.5-0.5,0.9-0.8,1.2
		c-0.3,0.3-0.8,0.6-1.2,0.8c-0.5,0.2-1,0.3-1.5,0.3s-1.1-0.1-1.5-0.3c-0.5-0.2-0.9-0.4-1.2-0.8c-0.3-0.3-0.6-0.7-0.8-1.2
		c-0.2-0.5-0.3-1-0.3-1.5c0-0.6,0.1-1.1,0.3-1.5c0.2-0.5,0.5-0.8,0.8-1.2c0.3-0.3,0.8-0.6,1.2-0.7s1-0.3,1.5-0.3s1.1,0.1,1.5,0.3
		s0.9,0.4,1.2,0.7c0.3,0.3,0.6,0.7,0.8,1.2s0.3,1,0.3,1.5C125.5,14.7,125.4,15.2,125.2,15.7z M133.8,15.7c-0.2,0.5-0.5,0.9-0.8,1.2
		c-0.3,0.3-0.8,0.6-1.2,0.8c-0.5,0.2-1,0.3-1.5,0.3s-1.1-0.1-1.5-0.3c-0.5-0.2-0.9-0.4-1.2-0.8c-0.3-0.3-0.6-0.7-0.8-1.2
		c-0.2-0.5-0.3-1-0.3-1.5c0-0.6,0.1-1.1,0.3-1.5c0.2-0.5,0.5-0.8,0.8-1.2c0.3-0.3,0.8-0.6,1.2-0.7s1-0.3,1.5-0.3s1.1,0.1,1.5,0.3
		s0.9,0.4,1.2,0.7c0.3,0.3,0.6,0.7,0.8,1.2s0.3,1,0.3,1.5C134.1,14.7,134,15.2,133.8,15.7z M139.8,17.7h-4.5v-7.1h1.7v5.6h2.7V17.7z
		 M142.5,12.9c0,0.1,0.1,0.1,0.2,0.2s0.2,0.1,0.3,0.2c0.1,0,0.3,0.1,0.4,0.2c0.2,0.1,0.5,0.2,0.8,0.3c0.3,0.1,0.5,0.2,0.7,0.4
		c0.2,0.2,0.4,0.4,0.5,0.6c0.1,0.2,0.2,0.5,0.2,0.9c0,0.4-0.1,0.8-0.2,1.1c-0.2,0.3-0.4,0.5-0.6,0.7c-0.3,0.2-0.5,0.3-0.9,0.4
		c-0.3,0.1-0.7,0.1-1,0.1c-0.5,0-1-0.1-1.5-0.3s-0.9-0.4-1.2-0.8l1.1-1.1c0.2,0.2,0.4,0.4,0.7,0.5c0.3,0.1,0.6,0.2,0.8,0.2
		c0.1,0,0.2,0,0.4,0c0.1,0,0.2-0.1,0.3-0.1c0.1-0.1,0.2-0.1,0.2-0.2c0.1-0.1,0.1-0.2,0.1-0.4c0-0.1,0-0.2-0.1-0.3s-0.2-0.2-0.3-0.3
		c-0.1-0.1-0.3-0.1-0.5-0.2c-0.2-0.1-0.4-0.1-0.6-0.2c-0.2-0.1-0.4-0.2-0.7-0.3c-0.2-0.1-0.4-0.2-0.6-0.4c-0.2-0.2-0.3-0.3-0.4-0.6
		c-0.1-0.2-0.2-0.5-0.2-0.8c0-0.4,0.1-0.7,0.2-1c0.2-0.3,0.4-0.5,0.6-0.7c0.3-0.2,0.6-0.3,0.9-0.4c0.3-0.1,0.7-0.1,1-0.1
		c0.4,0,0.8,0.1,1.2,0.2c0.4,0.1,0.8,0.4,1.1,0.6l-1.1,1.1c-0.1-0.2-0.3-0.3-0.6-0.4c-0.2-0.1-0.5-0.2-0.7-0.2c-0.1,0-0.2,0-0.3,0
		c-0.1,0-0.2,0.1-0.3,0.1c-0.1,0.1-0.2,0.1-0.2,0.2c-0.1,0.1-0.1,0.2-0.1,0.3C142.5,12.7,142.5,12.8,142.5,12.9z"/>
	<path fill="#FFFFFF" d="M131.7,12.6c-0.2-0.2-0.4-0.3-0.6-0.4s-0.5-0.2-0.8-0.2s-0.6,0.1-0.8,0.2c-0.2,0.1-0.5,0.3-0.6,0.4
		c-0.2,0.2-0.3,0.4-0.4,0.7c-0.1,0.3-0.1,0.6-0.1,0.9c0,0.3,0,0.6,0.1,0.9c0.1,0.3,0.2,0.5,0.4,0.7c0.2,0.2,0.4,0.3,0.6,0.5
		c0.2,0.1,0.5,0.2,0.8,0.2s0.6-0.1,0.8-0.2c0.2-0.1,0.5-0.3,0.6-0.5c0.2-0.2,0.3-0.4,0.4-0.7c0.1-0.3,0.2-0.6,0.2-0.9
		c0-0.3,0-0.6-0.2-0.9C132,13,131.9,12.8,131.7,12.6z"/>
</g>
</svg>
