<?xml version="1.0" encoding="utf-8"?>
<!-- Generator: Adobe Illustrator 22.1.0, SVG Export Plug-In . SVG Version: 6.00 Build 0)  -->
<svg version="1.1" id="Layer_1" xmlns="http://www.w3.org/2000/svg" xmlns:xlink="http://www.w3.org/1999/xlink" x="0px" y="0px"
	 viewBox="0 0 308.80136 136.84296" enable-background="new 0 0 308.80136 136.84296" xml:space="preserve">
<g id="Group-10" transform="translate(52.000000, 0.000000)">
	<g id="Group-9">
		
			<g id="Pie-Chart" transform="translate(74.500000, 64.500000) rotate(-30.000000) translate(-74.500000, -64.500000) translate(28.000000, 18.000000)">
			<g id="Pie_Chart">
				<g id="Group">
					<circle id="Oval" fill="#7FDED2" cx="7.31519" cy="2.9733" r="45.36594"/>
					<path id="Shape" fill="#33475B" d="M7.31524,49.37254c-25.58476,0-46.39927-20.81469-46.39926-46.39928
						c0.00001-25.58459,20.81452-46.39927,46.39928-46.39926c25.58442,0,46.3991,20.81469,46.3991,46.39928
						S32.89967,49.37254,7.31524,49.37254z M7.31526-41.35934c-24.44514-0.00001-44.33261,19.88746-44.33261,44.3326
						c-0.00001,24.44514,19.88746,44.33261,44.3326,44.33262c24.44514,0,44.33244-19.88746,44.33245-44.3326
						C51.6477-21.47186,31.7604-41.35933,7.31526-41.35934z"/>
				</g>
				<g id="Group_1_">
					<path id="Shape_1_" fill="#FAE0B5" d="M52.68138,2.9733c0,25.05682-20.31408,45.36619-45.3662,45.36618
						c-25.05683-0.00001-45.3662-20.30938-45.36619-45.3662c0-25.05686,20.30938-45.36622,45.36621-45.36621L7.31519,2.97329
						l9.66868-44.33314C37.39183-36.93171,52.68138-18.76362,52.68138,2.9733z"/>
					<path id="Shape_2_" fill="#33475B" d="M7.31524,49.37288c-25.58476,0-46.3996-20.81485-46.3996-46.39962
						c0-25.58476,20.81486-46.3996,46.39962-46.3996c0.57082,0,1.03333,0.46268,1.03333,1.03333L8.34859-6.61417L15.97447-41.58
						c0.12143-0.55737,0.67241-0.9114,1.22843-0.78963c10.1897,2.21097,19.45304,7.90474,26.0836,16.03249
						c6.72474,8.24346,10.42819,18.65282,10.42819,29.31042C53.71469,28.55804,32.90001,49.37288,7.31524,49.37288z
						 M6.28193-41.34773c-23.97085,0.54979-43.29961,20.2203-43.29962,44.32099c0,24.4453,19.8878,44.33295,44.33293,44.33295
						c24.44514,0,44.33278-19.88763,44.33279-44.33294c0-10.18298-3.53829-20.12848-9.96299-28.00412
						c-6.11691-7.49823-14.577-12.82821-23.914-15.08829L8.32471,3.19342C8.21236,3.70924,7.72798,4.05773,7.20459,4.00071
						C6.67985,3.94403,6.28192,3.50103,6.28192,2.97326L6.28193-41.34773L6.28193-41.34773z"/>
				</g>
				<g id="Group_2_">
					<path id="Shape_3_" fill="#F3A9BD" d="M52.68138,2.9733c0,25.05682-20.30937,45.36619-45.36622,45.36618
						c-25.05212-0.00001-45.36619-20.30938-45.36618-45.3662c0-25.05686,20.31408-45.36622,45.3662-45.36621L7.31517,2.97328
						l32.07705-32.07706h0.00471C47.60522-20.89551,52.68138-9.55515,52.68138,2.9733z"/>
					<path id="Shape_4_" fill="#33475B" d="M7.31524,49.37288c-25.58476,0-46.3996-20.81485-46.3996-46.39962
						c0-25.58476,20.81486-46.3996,46.39962-46.3996c0.57082,0,1.03333,0.46268,1.03333,1.03333L8.34859,0.47856l30.31314-30.31313
						c0.3875-0.3875,1.07841-0.38767,1.46591,0.00017C48.88945-21.07259,53.7147-9.42118,53.71469,2.97327
						C53.71469,28.55804,32.90001,49.37288,7.31524,49.37288z M6.28193-41.34773
						c-23.97085,0.54979-43.29961,20.2203-43.29962,44.32099c0,24.4453,19.8878,44.33295,44.33293,44.33295
						c24.44514,0,44.33278-19.88763,44.33279-44.33294c0-11.49853-4.34626-22.32734-12.26176-30.60982L8.04585,3.70386
						c-0.295,0.29533-0.73833,0.3843-1.12617,0.22402C6.53353,3.76794,6.28192,3.3912,6.28192,2.97327L6.28193-41.34773z"/>
				</g>
				<g id="Group_3_">
					<path id="Shape_5_" fill="#7FD1DE" d="M39.39223,35.05035c-8.20826,8.21296-19.55335,13.28912-32.07705,13.28912
						c-25.05683-0.00001-45.3662-20.30937-45.36619-45.3662c0-25.05686,20.30938-45.36621,45.36621-45.36621L7.31519,2.97328
						L39.39223,35.05035z"/>
					<path id="Shape_6_" fill="#33475B" d="M7.31524,49.37288c-25.58476,0-46.3996-20.81485-46.3996-46.39962
						c0-25.58476,20.81486-46.3996,46.39962-46.3996c0.57082,0,1.03333,0.46268,1.03333,1.03333L8.34859,2.54523l31.77433,31.77451
						c0.40365,0.40331,0.40365,1.05756,0.00034,1.46103C31.36312,44.54578,19.71155,49.37288,7.31524,49.37288z M6.28193-41.34773
						c-23.97085,0.54979-43.29961,20.2203-43.29962,44.32099c0,24.4453,19.8878,44.33295,44.33293,44.33295
						c11.4992,0,22.32701-4.34676,30.60747-12.26394L6.58465,3.70387C6.3909,3.51012,6.28192,3.24741,6.28192,2.97327
						L6.28193-41.34773L6.28193-41.34773z"/>
				</g>
			</g>
		</g>
		
			<g id="Bar-Chart" transform="translate(74.000000, 88.000000) rotate(-15.000000) translate(-74.000000, -88.000000) translate(12.000000, 37.000000)">
			<g id="Bar_Chart">
				<g id="Group_4_">
					<path id="Shape_7_" fill="#FFFFFF" d="M63.11539,69.02859l-100.29405,0.00001c-5.95214,0-10.77732-4.81386-10.77732-10.75206
						l0-78.32144c0-5.9382,4.82518-10.75206,10.77732-10.75206l100.29405-0.00001c5.95215,0,10.77732,4.81386,10.77732,10.75206
						l0.00001,78.32144C73.89272,64.21473,69.06754,69.02859,63.11539,69.02859z"/>
					<path id="Shape_8_" fill="#33475B" d="M63.11537,70.06247l-100.29395,0.00001c-6.5141,0-11.81355-5.28704-11.81355-11.78588
						l-0.00001-78.32156c0-6.49884,5.29945-11.78587,11.81355-11.78588l100.29395-0.00001
						c6.51411,0,11.81356,5.28703,11.81356,11.78587l0.00001,78.32156C74.92892,64.77543,69.62947,70.06247,63.11537,70.06247z
						 M-37.17858-29.76327c-5.3713,0-9.74113,4.35959-9.74113,9.71831l0.00001,78.32156c0,5.35872,4.36983,9.71832,9.74113,9.71832
						L63.11537,67.9949c5.3713,0,9.74113-4.3596,9.74113-9.71832L72.8565-20.04497c0-5.35871-4.36983-9.71831-9.74113-9.71831
						L-37.17858-29.76327z"/>
				</g>
				<path id="Shape_9_" fill="#33475B" d="M57.41689,54.41605l-88.89697,0.00001c-0.57241,0-1.03621-0.46271-1.03621-1.03378
					l-0.00001-68.53309c0-0.5709,0.46379-1.03378,1.03621-1.03378c0.57241,0,1.03621,0.46288,1.03621,1.03378l0.00001,67.49931
					l87.86076-0.00001c0.57241,0,1.03621,0.46272,1.03621,1.03378C58.45309,53.95335,57.9893,54.41605,57.41689,54.41605z"/>
				<g id="Group_5_" transform="translate(27.977716, 59.959459)">
					
						<rect id="Rectangle-path" x="-47.63942" y="-30.52759" transform="matrix(-1 2.625802e-06 -2.625802e-06 -1 -80.07201 -37.10452)" fill="#7FDED2" width="15.20688" height="23.95055"/>
					<path id="Shape_10_" fill="#33475B" d="M-32.43264-5.5434l-15.20687,0c-0.57241,0-1.03621-0.46271-1.03621-1.03378v-23.95033
						c0-0.5709,0.46379-1.03378,1.03621-1.03378h15.20688c0.57241,0,1.03621,0.46288,1.03621,1.03378l0,23.95033
						C-31.39643-6.00611-31.86023-5.5434-32.43264-5.5434z M-46.60331-7.61096l13.13446,0l0-21.88276l-13.13445,0V-7.61096z"/>
				</g>
				<g id="Group_6_" transform="translate(53.192201, 28.256757)">
					
						<rect id="Rectangle-path_1_" x="-47.82726" y="-30.48053" transform="matrix(-1 2.625802e-06 -2.625802e-06 -1 -80.44765 -5.35476)" fill="#7FD1DE" width="15.20688" height="55.6062"/>
					<path id="Shape_11_" fill="#33475B" d="M-32.62053,26.15931h-15.20688c-0.57241,0-1.03621-0.46271-1.03621-1.03378
						l-0.00001-55.60608c0-0.5709,0.4638-1.03378,1.03621-1.03378l15.20688,0c0.57241,0,1.03621,0.46288,1.03621,1.03378l0,55.60608
						C-31.58432,25.69659-32.04812,26.15931-32.62053,26.15931z M-46.79119,24.09174l13.13445,0l0-53.53851H-46.7912
						L-46.79119,24.09174z"/>
				</g>
				<g id="Group_7_" transform="translate(78.752089, 39.972973)">
					
						<rect id="Rectangle-path_2_" x="-47.94718" y="-30.477" transform="matrix(-1 2.625802e-06 -2.625802e-06 -1 -80.6875 -17.06745)" fill="#B4BBE8" width="15.20688" height="43.88645"/>
					<path id="Shape_12_" fill="#33475B" d="M-32.74028,14.44309l-15.20688,0c-0.57241,0-1.03621-0.46271-1.03621-1.03378
						l0-43.88634c0-0.5709,0.4638-1.03378,1.03621-1.03378h15.20688c0.57241,0,1.03621,0.46288,1.03621,1.03378l0,43.88634
						C-31.70407,13.98037-32.16787,14.44309-32.74028,14.44309z M-46.91094,12.37552l13.13445,0l0-41.81877l-13.13445,0
						L-46.91094,12.37552z"/>
				</g>
			</g>
		</g>
	</g>
	<g id="Group-8" transform="translate(168.000000, 0.000000)">
		
			<g id="Pie-Chart_1_" transform="translate(74.500000, 64.500000) rotate(-60.000000) translate(-74.500000, -64.500000) translate(28.000000, 18.000000)">
			<g id="Pie_Chart_1_">
				<g id="Group_8_">
					<circle id="Oval_1_" fill="#7FDED2" cx="34.26467" cy="-10.75086" r="45.36594"/>
					<path id="Shape_13_" fill="#33475B" d="M34.26474,35.64838c-25.58476,0-46.39928-20.81467-46.39928-46.39927
						c-0.00001-25.58459,20.8145-46.39928,46.39926-46.39928c25.58442,0,46.39911,20.81467,46.39912,46.39926
						C80.66384,14.83369,59.84917,35.64838,34.26474,35.64838z M34.26472-55.0835c-24.44514,0-44.3326,19.88747-44.3326,44.33261
						s19.88748,44.3326,44.33261,44.3326c24.44514-0.00001,44.33243-19.88747,44.33243-44.33262
						C78.59717-35.19604,58.70986-55.0835,34.26472-55.0835z"/>
				</g>
				<g id="Group_9_">
					<path id="Shape_14_" fill="#FAE0B5" d="M79.63086-10.75088c0,25.05682-20.31406,45.3662-45.36618,45.3662
						c-25.05683,0-45.3662-20.30936-45.36621-45.36618c0-25.05685,20.30936-45.36623,45.36619-45.36623l0.00001,45.36622
						l9.66866-44.33315C64.34129-50.65588,79.63085-32.4878,79.63086-10.75088z"/>
					<path id="Shape_15_" fill="#33475B" d="M34.26474,35.64872c-25.58476,0-46.39961-20.81483-46.39962-46.3996
						C-12.13488-36.33565,8.67996-57.1505,34.26472-57.1505c0.57082,0,1.03333,0.46268,1.03333,1.03333l0.00001,35.77884
						l7.62587-34.96584c0.12143-0.55737,0.67241-0.9114,1.22843-0.78963c10.1897,2.21097,19.45304,7.90473,26.08361,16.03247
						c6.72474,8.24346,10.4282,18.65281,10.4282,29.31042C80.66418,14.83387,59.84951,35.64871,34.26474,35.64872z
						 M33.23139-55.07189c-23.97085,0.5498-43.29961,20.22031-43.2996,44.32101c0,24.4453,19.88781,44.33294,44.33295,44.33294
						C58.70988,33.58204,78.59751,13.6944,78.59751-10.7509c-0.00001-10.18298-3.5383-20.12848-9.963-28.00411
						c-6.11692-7.49823-14.57701-12.8282-23.91401-15.08828l-9.44631,43.31256c-0.11235,0.51582-0.59672,0.86431-1.12011,0.80729
						c-0.52475-0.05668-0.92267-0.49968-0.92267-1.02745L33.23139-55.07189L33.23139-55.07189z"/>
				</g>
				<g id="Group_10_">
					<path id="Shape_16_" fill="#F3A9BD" d="M79.63086-10.75088c0,25.05682-20.30936,45.3662-45.3662,45.3662
						c-25.05212,0-45.3662-20.30936-45.3662-45.36618c0-25.05685,20.31406-45.36623,45.36618-45.36623l0.00001,45.36622
						l32.07704-32.07707h0.00471C74.5547-34.61968,79.63085-23.27933,79.63086-10.75088z"/>
					<path id="Shape_17_" fill="#33475B" d="M34.26474,35.64872c-25.58476,0-46.39961-20.81483-46.39962-46.3996
						C-12.13488-36.33565,8.67996-57.1505,34.26472-57.1505c0.57082,0,1.03333,0.46268,1.03333,1.03333l0.00001,42.87157
						L65.6112-43.55874c0.3875-0.3875,1.07841-0.38767,1.46591,0.00017c8.76181,8.76181,13.58706,20.41321,13.58707,32.80767
						C80.66418,14.83387,59.84951,35.64871,34.26474,35.64872z M33.23139-55.07189
						c-23.97085,0.5498-43.29961,20.22031-43.2996,44.32101c0,24.4453,19.88781,44.33294,44.33295,44.33294
						C58.70988,33.58204,78.59751,13.6944,78.59751-10.7509c-0.00001-11.49853-4.34627-22.32734-12.26177-30.60982L34.99533-10.0203
						c-0.295,0.29533-0.73833,0.3843-1.12617,0.22402c-0.38616-0.15995-0.63776-0.53668-0.63776-0.95462L33.23139-55.07189z"/>
				</g>
				<g id="Group_11_">
					<path id="Shape_18_" fill="#7FD1DE" d="M66.34173,21.32618c-8.20826,8.21296-19.55334,13.28913-32.07705,13.28913
						c-25.05683,0-45.3662-20.30936-45.36621-45.36618c0-25.05685,20.30936-45.36623,45.36619-45.36623l0.00001,45.36622
						L66.34173,21.32618z"/>
					<path id="Shape_19_" fill="#33475B" d="M34.26474,35.64872c-25.58476,0-46.39961-20.81483-46.39962-46.3996
						C-12.13488-36.33565,8.67996-57.1505,34.26472-57.1505c0.57082,0,1.03333,0.46268,1.03333,1.03333l0.00001,44.93824
						l31.77434,31.7745c0.40365,0.40331,0.40365,1.05756,0.00034,1.46103C58.31262,30.82161,46.66105,35.64871,34.26474,35.64872z
						 M33.23139-55.07189c-23.97085,0.5498-43.29961,20.22031-43.2996,44.32101c0,24.4453,19.88781,44.33294,44.33295,44.33294
						c11.4992,0,22.327-4.34677,30.60746-12.26395L33.53413-10.02029c-0.19375-0.19375-0.30274-0.45646-0.30274-0.7306
						L33.23139-55.07189L33.23139-55.07189z"/>
				</g>
			</g>
		</g>
		
			<g id="Trends-Graph" transform="translate(74.000000, 88.000000) rotate(-345.000000) translate(-74.000000, -88.000000) translate(12.000000, 37.000000)">
			<g id="Trends_Graph">
				<g id="Group_12_">
					<path id="Shape_20_" fill="#FFFFFF" d="M53.76374,97.78909l-100.29406-0.00001c-5.95214,0-10.77731-4.81387-10.77731-10.75206
						l0.00001-78.32146c0-5.9382,4.82517-10.75206,10.77731-10.75206L53.76375-2.03648
						c5.95214,0,10.77731,4.81386,10.77731,10.75206l-0.00001,78.32144C64.54105,92.97523,59.71588,97.78909,53.76374,97.78909z"/>
					<path id="Shape_21_" fill="#33475B" d="M53.76381,98.8229L-46.5303,98.82289
						c-6.51394-0.00001-11.81355-5.28704-11.81355-11.78588l0.00001-78.32139c0-6.49867,5.29962-11.78587,11.81355-11.78587
						L53.76382-3.07024c6.51394,0,11.81339,5.2872,11.81339,11.78588L65.5772,87.03702
						C65.57719,93.53586,60.27774,98.8229,53.76381,98.8229z M-46.53029-1.00269c-5.3713,0-9.74113,4.35959-9.74113,9.71831
						l-0.00001,78.32139c0,5.35872,4.36983,9.71831,9.74113,9.71831l100.29411,0.00001c5.37113,0,9.74096-4.35959,9.74096-9.71831
						l0.00001-78.32139c0-5.35871-4.36983-9.71831-9.74096-9.71831L-46.53029-1.00269z"/>
				</g>
				<path id="Shape_22_" fill="#33475B" d="M48.06532,83.17665l-88.89713-0.00001c-0.57224,0-1.03621-0.46288-1.03621-1.03378
					l0-68.53326c0-0.5709,0.46397-1.03378,1.03621-1.03378c0.57224,0,1.03621,0.46288,1.03621,1.03378l0,67.49947l87.86092,0.00001
					c0.57224,0,1.03621,0.46288,1.03621,1.03378C49.10153,82.71378,48.63757,83.17665,48.06532,83.17665z"/>
				<g id="Group_13_" transform="translate(33.504178, 49.277027)">
					<path id="Shape_23_" fill="none" d="M-57.19149-1.88731l18.20268,11.29006"/>
					<path id="Shape_24_" fill="#33475B" d="M-38.98977,10.43674c-0.1867,0-0.37576-0.05031-0.5461-0.15598L-57.73856-1.00942
						c-0.48606-0.30152-0.63498-0.93889-0.33292-1.42381c0.30206-0.48476,0.94109-0.634,1.42715-0.33214l18.20268,11.29018
						c0.48606,0.30152,0.63498,0.93889,0.33292,1.42381C-38.30504,10.2636-38.64353,10.43674-38.98977,10.43674z"/>
				</g>
				<g id="Group_14_" transform="translate(51.810585, 39.972973)">
					<path id="Shape_25_" fill="none" d="M-39.09253-1.70033L-57.29522,18.7068"/>
					<path id="Shape_26_" fill="#33475B" d="M-57.29551,19.74063c-0.24505,0-0.49112-0.08615-0.68844-0.26148
						c-0.42754-0.37959-0.46582-1.03311-0.08534-1.45948L-39.8666-2.38746c0.38031-0.4267,1.03554-0.4649,1.46291-0.08514
						c0.42754,0.37959,0.46582,1.03311,0.08534,1.45948l-18.20268,20.40713C-56.72579,19.62352-57.00997,19.74063-57.29551,19.74063
						z"/>
				</g>
				<g id="Group_15_" transform="translate(69.771588, 29.979730)">
					<path id="Shape_27_" fill="none" d="M-38.85085-1.94056L-57.05354,8.29291"/>
					<path id="Shape_28_" fill="#33475B" d="M-57.05247,9.3269c-0.36193,0-0.71341-0.18946-0.90382-0.52648
						c-0.28081-0.49737-0.1044-1.12784,0.39415-1.40816l18.20268-10.23352c0.49854-0.28065,1.13032-0.10415,1.41147,0.39322
						c0.28098,0.49737,0.1044,1.12784-0.39414,1.40816L-56.54483,9.19364C-56.70555,9.284-56.88028,9.3269-57.05247,9.3269z"/>
				</g>
				<g id="Group_16_" transform="translate(29.013928, 44.797297)">
					
						<ellipse id="Oval_2_" transform="matrix(8.005623e-06 1 -1 8.005623e-06 -50.1084 55.29364)" fill="#FAE0B5" cx="-52.70124" cy="2.59242" rx="4.55854" ry="4.56924"/>
					<path id="Shape_29_" fill="#33475B" d="M-52.70119,8.18476c-3.09092,0-5.60556-2.50874-5.60556-5.59242
						c0-3.08351,2.51463-5.59226,5.60556-5.59226c3.09076,0,5.60539,2.50874,5.60539,5.59226
						C-47.0958,5.67602-49.61043,8.18476-52.70119,8.18476z M-52.70119-0.93236c-1.94813,0-3.53314,1.58113-3.53314,3.52469
						s1.58501,3.52486,3.53313,3.52486c1.94812,0,3.53297-1.5813,3.53297-3.52486S-50.75307-0.93236-52.70119-0.93236z"/>
				</g>
				<g id="Group_17_" transform="translate(46.974930, 55.824324)">
					
						<ellipse id="Oval_3_" transform="matrix(8.005456e-06 1 -1 8.005456e-06 -49.60369 55.31498)" fill="#F8C7AC" cx="-52.45956" cy="2.85545" rx="4.55854" ry="4.56924"/>
					<path id="Shape_30_" fill="#33475B" d="M-52.45951,8.44774c-3.09093,0-5.60556-2.50874-5.60556-5.59226
						c0-3.08368,2.51464-5.59242,5.60556-5.59242c3.09076,0,5.60539,2.50874,5.60539,5.59243
						C-46.85412,5.939-49.36876,8.44774-52.45951,8.44774z M-52.45951-0.66937c-1.94812,0-3.53313,1.5813-3.53313,3.52486
						s1.58501,3.52469,3.53313,3.52469s3.53297-1.58113,3.53297-3.52469S-50.51139-0.66937-52.45951-0.66937z"/>
				</g>
				<g id="Group_18_" transform="translate(65.281337, 35.493243)">
					
						<ellipse id="Oval_4_" transform="matrix(-3.115946e-06 1 -1 -3.115946e-06 -49.78405 55.34269)" fill="#F4A9AD" cx="-52.56329" cy="2.7794" rx="4.55854" ry="4.56924"/>
					<path id="Shape_31_" fill="#33475B" d="M-52.56324,8.3717c-3.09093,0-5.60556-2.50874-5.60556-5.59226
						c0-3.08368,2.51463-5.59242,5.60556-5.59242c3.09076,0,5.60539,2.50874,5.60539,5.59243
						C-46.95784,5.86296-49.47248,8.3717-52.56324,8.3717z M-52.56324-0.74542c-1.94813,0-3.53314,1.5813-3.53314,3.52486
						s1.58501,3.52469,3.53314,3.52469c1.94812,0,3.53297-1.58113,3.53297-3.52469S-50.61511-0.74542-52.56324-0.74542z"/>
				</g>
				<g id="Group_19_" transform="translate(83.587744, 25.500000)">
					
						<ellipse id="Oval_5_" transform="matrix(2.444542e-06 1 -1 2.444542e-06 -50.12771 55.20617)" fill="#F3A9BD" cx="-52.66701" cy="2.53917" rx="4.55854" ry="4.56924"/>
					<path id="Shape_32_" fill="#33475B" d="M-52.66696,8.13143c-3.09093,0-5.60556-2.50874-5.60556-5.59226
						c0-3.08352,2.51463-5.59226,5.60556-5.59226c3.09076,0,5.60539,2.50874,5.60539,5.59226S-49.57621,8.13143-52.66696,8.13143z
						 M-52.66696-0.98552c-1.94812,0-3.53313,1.58113-3.53313,3.52469s1.58501,3.52469,3.53313,3.52469
						c1.94812,0,3.53297-1.58113,3.53297-3.52469S-50.71884-0.98552-52.66696-0.98552z"/>
				</g>
			</g>
		</g>
	</g>
	<g id="Avatar-6-Thinking" transform="translate(97.000000, 23.000000)">
		<g id="Avatar_6_Thinking">
			<ellipse id="Avatar_6_1_" fill="#B4BBE8" cx="5.42691" cy="43.07088" rx="60.98811" ry="61.13702"/>
			<g id="Clipped">
				<g id="SVGID_1_">
				</g>
				<defs>
					
						<filter id="Adobe_OpacityMaskFilter" filterUnits="userSpaceOnUse" x="-30.03732" y="49.891" width="70.98531" height="56.30037">
						<feColorMatrix  type="matrix" values="1 0 0 0 0  0 1 0 0 0  0 0 1 0 0  0 0 0 1 0"/>
					</filter>
				</defs>
				<mask maskUnits="userSpaceOnUse" x="-30.03732" y="49.891" width="70.98531" height="56.30037" id="mask-2_1_">
					<g filter="url(#Adobe_OpacityMaskFilter)">
						<ellipse id="path-1_1_" fill="#FFFFFF" cx="5.42691" cy="43.14102" rx="60.98811" ry="61.13702"/>
					</g>
				</mask>
				<g id="Group_20_" mask="url(#mask-2_1_)">
					<g id="Shape_33_" transform="translate(25.469729, 67.914894)">
						<path fill="#F5C26B" d="M-25.46547-17.00263h10.90217c16.02887,0,29.02284,13.02569,29.02284,29.0937v20.8999
							c0,2.35509-1.90453,4.26427-4.25389,4.26427h-61.15958c-1.95198,0-3.53437-1.58625-3.53437-3.543V12.09106
							C-54.4883-3.97694-41.49434-17.00263-25.46547-17.00263z"/>
						<path fill="#33475B" d="M10.20572,38.27647h-61.15968c-2.51053,0-4.55309-2.04754-4.55309-4.56433V12.09105
							c0-16.60547,13.47657-30.11495,30.04159-30.11495h10.90211c16.56503,0,30.0416,13.50948,30.0416,30.11495v20.90001
							C15.47825,35.90554,13.1131,38.27647,10.20572,38.27647z M-25.46546-15.98134
							c-15.44152,0-28.00401,12.59317-28.00401,28.07239v21.62109c0,1.39054,1.12848,2.52177,2.51551,2.52177h61.15968
							c1.78387,0,3.23495-1.45462,3.23495-3.24285V12.09105c0-15.47922-12.5625-28.07239-28.00402-28.07239H-25.46546z"/>
					</g>
				</g>
			</g>
			<g id="Avatar_6" transform="translate(31.327766, 19.148936)">
				<g id="Group_21_" transform="translate(46.354906, 24.000000)">
					<ellipse id="Oval_6_" fill="#8B6556" cx="-49.02762" cy="-11.60403" rx="5.32822" ry="5.34123"/>
					<path id="Shape_34_" fill="#33475B" d="M-49.02757-5.24149c-3.49985,0-6.34703-2.85426-6.34703-6.36253
						s2.84719-6.36253,6.34703-6.36253c3.49985,0,6.34704,2.85426,6.34704,6.36253S-45.52772-5.24149-49.02757-5.24149z
						 M-49.02757-15.924c-2.37634,0-4.30946,1.93796-4.30946,4.31998s1.93311,4.31998,4.30946,4.31998
						c2.37635,0,4.30946-1.93796,4.30946-4.31998S-46.65122-15.924-49.02757-15.924z"/>
				</g>
				<g id="Group_22_" transform="translate(0.000000, 24.000000)">
					<ellipse id="Oval_7_" fill="#8B6556" cx="-49.12899" cy="-11.60403" rx="5.32822" ry="5.34123"/>
					<path id="Shape_35_" fill="#33475B" d="M-49.12905-5.24149c-3.49973,0-6.34691-2.85426-6.34691-6.36253
						s2.84718-6.36253,6.34691-6.36253c3.49973,0,6.34703,2.85426,6.34703,6.36253S-45.62933-5.24149-49.12905-5.24149z
						 M-49.12905-15.924c-2.37622,0-4.30933,1.93796-4.30933,4.31998s1.93311,4.31998,4.30933,4.31998
						c2.37622,0,4.30946-1.93796,4.30946-4.31998S-46.75283-15.924-49.12905-15.924z"/>
				</g>
				<g id="Group_23_" transform="translate(5.348643, 0.000000)">
					<path id="Shape_36_" fill="#AE7E6B" d="M-31.22104,41.63921h-0.00005c-12.84424,0-23.25655-10.43773-23.25655-23.31333V6.46605
						c0-12.8756,10.41231-23.31333,23.25655-23.31333h0.00005c12.84424,0,23.25654,10.43773,23.25654,23.31333v11.85984
						C-7.96449,31.20149-18.3768,41.63921-31.22104,41.63921z"/>
					<path id="Shape_37_" fill="#33475B" d="M-31.22102,42.66053c-13.38554,0-24.27546-10.91639-24.27546-24.33461V6.46605
						c0-13.41809,10.88992-24.33461,24.27534-24.33461c13.38554,0,24.27534,10.91652,24.27534,24.33461v11.85987
						C-6.94581,31.74414-17.83561,42.66053-31.22102,42.66053z M-31.22102-15.82601
						c-12.26203,0-22.23788,10.00021-22.23788,22.29206v11.85987c0,12.29198,9.97585,22.29206,22.23776,22.29206h0.00013
						c12.26191,0,22.23763-10.00008,22.23763-22.29206V6.46605C-8.98339-5.8258-18.95911-15.82601-31.22102-15.82601z"/>
				</g>
				<path id="Shape_38_" fill="#33475B" d="M-34.28072,12.39024c0,1.57885-1.28759,2.86959-2.86259,2.86959
					s-2.85115-1.29073-2.85115-2.86959c0-1.57885,1.27615-2.85812,2.85115-2.85812c0.26439,0,0.52879,0.03461,0.78175,0.11529
					c-0.32193,0.24197-0.51735,0.63383-0.51735,1.07177c0,0.78366,0.63229,1.40595,1.40253,1.40595
					c0.44838,0,0.83929-0.1959,1.09217-0.51862C-34.31524,11.84855-34.28072,12.11359-34.28072,12.39024z"/>
				<path id="Shape_39_" fill="#33475B" d="M-11.75037,12.39024c0,1.57885-1.28759,2.86959-2.86259,2.86959
					s-2.85115-1.29073-2.85115-2.86959c0-1.57885,1.27615-2.85812,2.85115-2.85812c0.2644,0,0.52879,0.03461,0.78175,0.11529
					c-0.32193,0.24197-0.51735,0.63383-0.51735,1.07177c0,0.78366,0.63228,1.40595,1.40252,1.40595
					c0.44838,0,0.83929-0.1959,1.09217-0.51862C-11.7849,11.84855-11.75037,12.11359-11.75037,12.39024z"/>
				<g id="Group_24_" transform="translate(24.960334, 29.361702)">
					<path id="Shape_40_" fill="#AE7E6B" d="M-52.44804-16.96574l-1.83635,6.01932
						c-0.36692,1.20272,0.53052,2.41862,1.78517,2.41862h2.52639"/>
					<path id="Shape_41_" fill="#33475B" d="M-49.97273-7.50657h-2.52645c-0.92439,0-1.76995-0.42724-2.31963-1.17212
						c-0.54981-0.74489-0.71012-1.68027-0.43988-2.56641l1.83636-6.01932c0.16454-0.53931,0.73425-0.843,1.27224-0.67794
						c0.538,0.16494,0.84083,0.73591,0.67629,1.27535l-1.83636,6.01932c-0.07947,0.26031-0.03233,0.5352,0.12921,0.75411
						c0.16155,0.21892,0.41003,0.34446,0.68176,0.34446h2.52645c0.56262,0,1.01879,0.45728,1.01879,1.02128
						C-48.95395-7.96385-49.41011-7.50657-49.97273-7.50657z"/>
				</g>
				<g id="Group_25_" transform="translate(4.584551, 33.446809)">
					<path id="Shape_42_" fill="#33475B" d="M-7.20312-16.83187l-0.05416,0.02045l-2.13315,5.75101
						c-1.64005,4.42155-6.94513,6.18037-10.89164,3.61096c-1.19165-0.77584-2.5821-1.18874-4.00303-1.18874h-6.17187h-0.05929
						h-6.17187c-1.42092,0-2.81137,0.4129-4.00303,1.18874c-3.9465,2.5694-9.25159,0.81059-10.89164-3.61096l-2.13315-5.75101
						c-0.53486,2.25701-0.82012,4.61616-0.82012,7.04169c0,14.64,10.33564,26.8749,24.08419,29.78554
						C-16.69821,17.10517-6.37787,4.87026-6.37787-9.76974C-6.37787-12.20038-6.66317-14.56464-7.20312-16.83187z"/>
					<path id="Shape_43_" fill="#33475B" d="M-30.45183,21.03719c-0.07051,0-0.14115-0.00723-0.21055-0.02194
						c-6.93627-1.46858-13.24874-5.32031-17.77459-10.84558c-4.59002-5.60356-7.11784-12.68492-7.11784-19.93946
						c0-2.45583,0.28517-4.90442,0.84766-7.27759c0.10372-0.43771,0.48079-0.75573,0.92875-0.78341
						c0.4497-0.02568,0.8611,0.24198,1.0173,0.66348l2.13321,5.75091c0.67343,1.81541,2.11158,3.20533,3.94595,3.81346
						c1.83437,0.60838,3.81536,0.35206,5.43582-0.703c1.36004-0.88551,2.93623-1.35352,4.55794-1.35352h12.40306
						c1.62171,0,3.19789,0.468,4.55794,1.35352c1.62046,1.05494,3.60208,1.31113,5.43595,0.703
						c1.83437-0.60813,3.27251-1.99805,3.94582-3.81346l2.13334-5.75091c0.10247-0.27651,0.31937-0.49518,0.59471-0.5994
						l0.05397-0.02044c0.27385-0.10398,0.57904-0.08428,0.83747,0.05311c0.25843,0.13738,0.44572,0.37974,0.51363,0.6651
						c0.5661,2.37679,0.85313,4.83261,0.85313,7.29916c0,7.25603-2.52533,14.33714-7.11038,19.93921
						c-4.52311,5.52576-10.83458,9.37749-17.77185,10.84583C-30.3108,21.02996-30.38131,21.03719-30.45183,21.03719z
						 M-53.35183-12.89944c-0.11006,1.03761-0.1654,2.08294-0.1654,3.12965c0,6.78304,2.36341,13.40414,6.65496,18.64317
						c4.18746,5.11237,10.00806,8.69232,16.41044,10.09782c6.403-1.40525,12.22249-4.98521,16.40683-10.09732
						C-9.75767,3.63609-7.39675-2.985-7.39675-9.76979c0-1.08934-0.0597-2.17595-0.17859-3.2537l-0.86035,2.31894
						c-0.88995,2.3996-2.79098,4.23695-5.21558,5.04081c-2.42509,0.80424-5.0437,0.46539-7.18575-0.92927
						c-1.02899-0.66984-2.22114-1.02389-3.44812-1.02389h-12.40306c-1.22685,0-2.41925,0.35406-3.44811,1.02389
						c-2.1418,1.39441-4.76115,1.73276-7.18538,0.9294c-2.42485-0.80386-4.326-2.64121-5.21595-5.04093L-53.35183-12.89944z"/>
				</g>
				<path id="Shape_44_" fill="#D9A896" d="M-35.13264-9.32073c-0.36103,0-0.71087-0.19286-0.89567-0.5332
					c-0.269-0.49543-0.08656-1.11565,0.40767-1.38531c1.68252-0.91818,3.4843-1.58527,5.35523-1.98284
					c0.55105-0.11706,1.09129,0.23562,1.20795,0.78728c0.11665,0.55178-0.23492,1.09396-0.78548,1.2109
					c-1.67792,0.35655-3.29415,0.95495-4.80343,1.77863C-34.80108-9.36087-34.96798-9.32073-35.13264-9.32073z"/>
				<path id="Shape_45_" fill="#D9A896" d="M-44.22065,1.92777c-0.09564,0-0.19301-0.01359-0.28952-0.04226
					c-0.53949-0.16007-0.84742-0.72831-0.68773-1.26911c1.03309-3.49879,3.01284-6.65014,5.72522-9.11332
					c0.41712-0.37862,1.06145-0.34658,1.43901,0.07119c0.37782,0.41801,0.34598,1.06391-0.07101,1.44253
					c-2.4353,2.2116-4.21246,5.03994-5.13947,8.17931C-43.37523,1.64017-43.7809,1.92777-44.22065,1.92777z"/>
				<path id="Shape_46_" fill="#516F90" d="M-42.31478,37.14449c-0.42184,0-0.8162-0.26455-0.96245-0.68642
					c-0.63712-1.8396-1.06518-3.7667-1.27212-5.72822c-0.05907-0.561,0.34648-1.06366,0.90599-1.123
					c0.55889-0.06159,1.0612,0.34732,1.12039,0.90808c0.19053,1.80668,0.58439,3.5807,1.17064,5.27294
					c0.18456,0.53283-0.09676,1.11478-0.62829,1.29978C-42.09117,37.12629-42.20397,37.14449-42.31478,37.14449z"/>
				<path id="Shape_47_" fill="#516F90" d="M-37.60225,45.18555c-0.2792,0-0.55728-0.1142-0.75837-0.33885
					c-1.28816-1.43816-2.40868-3.04039-3.33059-4.76205c-0.26614-0.49693-0.07996-1.11602,0.41587-1.38282
					c0.49509-0.26679,1.11319-0.08028,1.37945,0.41689c0.84518,1.57829,1.8718,3.04638,3.05127,4.36312
					c0.37595,0.41988,0.34125,1.06541-0.07735,1.4424C-37.11649,45.09928-37.35987,45.18555-37.60225,45.18555z"/>
				<path id="Shape_48_" fill="#516F90" d="M-10.21136,40.58656c-0.12835,0-0.25843-0.02444-0.38453-0.0758
					c-0.52084-0.21318-0.77106-0.80909-0.55864-1.33145c1.13445-2.78856,1.70975-5.76014,1.70975-8.83219
					c0-0.564,0.45617-1.02128,1.01879-1.02128c0.56262,0,1.01879,0.45728,1.01879,1.02128
					c0,3.33785-0.62605,6.56898-1.86049,9.60364C-9.42885,40.3467-9.80966,40.58656-10.21136,40.58656z"/>
				<path id="Shape_49_" fill="#516F90" d="M-35.43435,41.36698c-0.37595,0-0.73735-0.20944-0.9147-0.57023
					c-0.92266-1.87774-1.61512-3.90409-2.05822-6.02294c-0.11541-0.55202,0.23741-1.09333,0.7881-1.20902
					c0.55106-0.1147,1.09079,0.23811,1.2062,0.79014c0.40804,1.9513,1.04453,3.81483,1.89182,5.53923
					c0.2486,0.5059,0.04092,1.11827-0.46375,1.36735C-35.12965,41.33307-35.28324,41.36698-35.43435,41.36698z"/>
				<path id="Shape_50_" fill="#516F90" d="M-17.04415,45.80838c-0.14451,0-0.29126-0.03092-0.4308-0.09624
					c-0.50964-0.23886-0.72977-0.84674-0.49149-1.35788c0.57829-1.23994,1.03993-2.57663,1.37223-3.97316
					c0.13033-0.54854,0.68027-0.88663,1.22722-0.75648c0.5472,0.13065,0.88522,0.68168,0.75464,1.23022
					c-0.36414,1.53092-0.87154,2.99925-1.50803,4.36461C-16.2935,45.59047-16.66086,45.80838-17.04415,45.80838z"/>
				<path id="Shape_51_" fill="#516F90" d="M-15.03593,37.57758c-0.02885,0-0.05795-0.00125-0.0873-0.00374
					c-0.56063-0.04762-0.9765-0.54181-0.929-1.10381c0.05696-0.67595,0.08606-1.36461,0.08606-2.04729
					c0-0.564,0.45617-1.02128,1.01879-1.02128c0.56262,0,1.01879,0.45728,1.01879,1.02128
					c0,0.74003-0.03134,1.48679-0.09352,2.21983C-14.06713,37.17516-14.51235,37.57758-15.03593,37.57758z"/>
				<path id="Shape_52_" fill="#33475B" d="M-41.07325,8.16589c-0.31116,0-0.61846-0.1425-0.81844-0.41215
					c-0.33566-0.45279-0.24164-1.09246,0.20993-1.42894c2.64485-1.9705,6.27689-2.08083,9.03753-0.27427
					c0.47121,0.3083,0.60379,0.94124,0.29623,1.41348c-0.3073,0.47237-0.93832,0.60538-1.41003,0.29696
					c-2.04952-1.3413-4.74523-1.25964-6.70819,0.20321C-40.64892,8.10019-40.86196,8.16576-41.07325,8.16589z"/>
				<path id="Shape_53_" fill="#33475B" d="M-10.6715,8.16589c-0.21142,0-0.42433-0.0657-0.6069-0.20171
					c-1.96371-1.4631-4.65992-1.54438-6.70844-0.20321c-0.47134,0.30855-1.10236,0.17541-1.41004-0.29696
					c-0.30743-0.47224-0.17485-1.10518,0.29623-1.41348c2.76063-1.80618,6.39256-1.69623,9.03753,0.27427
					c0.45169,0.33648,0.54571,0.97614,0.21018,1.42881C-10.05292,8.02339-10.36034,8.16576-10.6715,8.16589z"/>
				<path id="Shape_54_" fill="#AE7E6B" d="M-28.02723,33.36407c-0.95188,0-1.90426-0.12317-2.82965-0.36927
					c-0.54384-0.14462-0.86781-0.70362-0.72355-1.24892c0.14426-0.5453,0.70166-0.86968,1.24588-0.72532
					c1.48005,0.3937,3.04455,0.40143,4.52436,0.02244c1.5007-0.38398,2.86821-1.14121,3.95465-2.18916
					c0.40518-0.39108,1.05038-0.37899,1.44038,0.02768c0.39025,0.40642,0.37782,1.05294-0.02761,1.4439
					c-1.3399,1.2928-3.02155,2.22532-4.86338,2.69681C-26.19634,33.25012-27.11154,33.36407-28.02723,33.36407z"/>
			</g>
			<g id="Avatar_6_3_" transform="translate(25.469729, 73.021277)">
				<g id="Group_26_" transform="translate(27.507307, 28.851064)">
					<g id="Shape_55_" transform="translate(18.592902, 2.042553)">
						<path fill="#F5C26B" d="M-42.40997-12.68459h-9.43204c-1.42351,0-2.5775,1.15681-2.5775,2.58379V6.32284
							c0,1.42699,1.15399,2.5838,2.5775,2.5838h9.43204c5.94773,0,10.76932-4.83336,10.76932-10.79561v-0.00002v-15.10933"/>
						<path fill="#33475B" d="M-42.40992,9.92781h-9.43201c-1.98311,0-3.59636-1.61718-3.59636-3.60488v-16.4237
							c0-1.98795,1.61325-3.60514,3.59636-3.60514h9.43201c0.56262,0,1.01879,0.45728,1.01879,1.02128
							c0,0.564-0.45617,1.02128-1.01879,1.02128h-9.43201c-0.8596,0-1.55878,0.70088-1.55878,1.56258v16.4237
							c0,0.86145,0.69917,1.56233,1.55878,1.56233h9.43201c5.37626,0,9.75038-4.38456,9.75038-9.77419v-15.10946
							c0-0.564,0.45617-1.02128,1.01879-1.02128c0.56262,0,1.01879,0.45728,1.01879,1.02128v15.10946
							C-30.62196,4.62695-35.90991,9.92781-42.40992,9.92781z"/>
					</g>
					<g id="Shape_56_">
						<g>
							<path fill="#AE7E6B" d="M-48.37127,10.9492h11.49647c4.20871,0,7.62-3.41963,7.62-7.63862v-9.415
								c-0.01108-2.82011-1.50626-5.41808-3.9429-6.82814l-6.37955-3.69719c-1.36227-0.78825-3.1344-0.24423-3.79891,1.24349
								c-0.58704,1.28794,0.02217,2.80899,1.24046,3.51957l2.0933,1.21015h-8.58355c-1.40662,0-2.69136,1.01038-2.83535,2.42037
								c-0.15508,1.62101,1.10756,2.97549,2.68028,2.97549h-2.85317c-1.5838,0-2.84644,1.36567-2.68027,2.98661
								c0.14399,1.41005,1.42872,2.42043,2.83535,2.42043h0.93704c-1.5838,0-2.84643,1.3656-2.68027,2.97549
								c0.1329,1.40999,1.41771,2.43148,2.83535,2.43148h1.86066c-1.57272,0-2.83535,1.35449-2.68028,2.97549
								C-51.06263,9.93881-49.77789,10.9492-48.37127,10.9492z"/>
							<path fill="#33475B" d="M-36.87473,11.97036H-48.3713c-1.96706,0-3.65767-1.46608-3.84881-3.33759
								c-0.07723-0.8066,0.10534-1.60721,0.5079-2.2859c-1.3634-0.48346-2.38841-1.68625-2.52446-3.1289
								c-0.09601-0.92977,0.16714-1.86702,0.72728-2.61204c-0.99329-0.59367-1.69906-1.60547-1.81857-2.7761
								c-0.10795-1.05195,0.23306-2.10289,0.93534-2.88306c0.60329-0.66996,1.42907-1.09483,2.31466-1.20204
								c-0.32459-0.63256-0.46661-1.35464-0.39746-2.07846c0.19164-1.87799,1.88225-3.34408,3.84943-3.34408h5.10079
								c-1.0556-1.10854-1.40631-2.75366-0.77777-4.13273c0.42781-0.9577,1.24612-1.69648,2.24203-2.01986
								c0.99665-0.32314,2.08707-0.20819,2.99294,0.31591l6.38012,3.69789c2.73327,1.58153,4.43929,4.53516,4.45198,7.70819v9.41888
								C-28.23591,8.08548-32.11134,11.97036-36.87473,11.97036z M-48.52638,6.57451c-0.46997,0-0.92129,0.20047-1.23804,0.55003
								c-0.3226,0.3558-0.4747,0.81981-0.42806,1.30677c0.08544,0.83627,0.88559,1.49651,1.82118,1.49651h11.49657
								c3.63988,0,6.60123-2.96858,6.60123-6.61735v-9.41489c-0.0097-2.44473-1.32547-4.72365-3.43369-5.94365l-6.37987-3.69764
								c-0.40667-0.23537-0.89766-0.28674-1.34612-0.14137c-0.45492,0.14761-0.81458,0.47374-1.01332,0.9183
								c-0.35245,0.77369,0.0102,1.74535,0.82279,2.21908l2.09006,1.20853c0.39971,0.23089,0.59446,0.70213,0.47532,1.14869
								c-0.11939,0.44656-0.52308,0.75723-0.98422,0.75723H-48.626c-0.93559,0-1.73575,0.66024-1.82181,1.50299
								c-0.04589,0.48047,0.10608,0.94473,0.42868,1.30053c0.31675,0.34932,0.76795,0.54978,1.23804,0.54978
								c0.56262,0,1.01879,0.45728,1.01879,1.02128c0,0.564-0.45617,1.02128-1.01879,1.02128h-2.85316
								c-0.47432,0-0.92838,0.20221-1.24575,0.55477c-0.32123,0.3568-0.47084,0.82056-0.4211,1.30602
								c0.08619,0.8435,0.88634,1.50374,1.82193,1.50374h0.93708c0.56262,0,1.01879,0.45728,1.01879,1.02128
								c0,0.56399-0.45617,1.02128-1.01879,1.02128c-0.47532,0-0.93037,0.20271-1.24837,0.55627
								c-0.31937,0.3548-0.46798,0.81408-0.41848,1.2928c0.08046,0.85372,0.88037,1.51521,1.82193,1.51521h1.86061
								c0.56262,0,1.01879,0.45728,1.01879,1.02128S-47.96376,6.57451-48.52638,6.57451z"/>
						</g>
						<g transform="translate(4.584551, 11.744681)">
							<path fill="#D19781" d="M-54.30845-17.00015h4.89463"/>
							<path fill="#33475B" d="M-49.41384-15.97885h-4.89459c-0.56262,0-1.01879-0.45728-1.01879-1.02128
								c0-0.564,0.45617-1.02128,1.01879-1.02128h4.89459c0.56262,0,1.01879,0.45728,1.01879,1.02128
								C-48.39505-16.43613-48.85122-15.97885-49.41384-15.97885z"/>
						</g>
						<g transform="translate(3.820459, 17.106383)">
							<path fill="#D19781" d="M-54.36563-16.95905h5.7159"/>
							<path fill="#33475B" d="M-48.64975-15.93771h-5.71589c-0.56262,0-1.01879-0.45728-1.01879-1.02128
								c0-0.56399,0.45617-1.02128,1.01879-1.02128h5.71589c0.56262,0,1.01879,0.45728,1.01879,1.02128
								C-47.63096-16.39499-48.08713-15.93771-48.64975-15.93771z"/>
						</g>
						<g transform="translate(5.858038, 22.468085)">
							<path fill="#D19781" d="M-54.38233-16.91801h3.69503"/>
							<path fill="#33475B" d="M-50.68733-15.89682h-3.69498c-0.56262,0-1.01879-0.45728-1.01879-1.02128
								c0-0.564,0.45617-1.02128,1.01879-1.02128h3.69498c0.56262,0,1.01879,0.45728,1.01879,1.02128
								C-49.66854-16.3541-50.12471-15.89682-50.68733-15.89682z"/>
						</g>
					</g>
				</g>
				<g id="Group_27_">
					<g id="Shape_57_" transform="translate(0.000000, 17.872340)">
						<path fill="#F5C26B" d="M-51.33403,3.49865l19.57969-19.62749c1.00657-1.00903,2.63856-1.00903,3.64513,0l11.58499,11.61327
							c1.00658,1.00904,1.00658,2.645,0,3.65404l-19.57969,19.62749c-4.20568,4.21595-11.02443,4.21595-15.2301,0l-0.00002-0.00002
							C-55.53971,14.54999-55.53971,7.7146-51.33403,3.49865z"/>
						<path fill="#33475B" d="M-43.71897,22.94934c-3.14864,0-6.10888-1.22921-8.33549-3.46126
							c-4.59612-4.60721-4.59612-12.10422,0-16.71144l19.57973-19.62766c1.40233-1.40575,3.68353-1.4055,5.08586-0.00025
							L-15.804-5.23774c0.67928,0.68093,1.05336,1.58627,1.05336,2.5492s-0.37408,1.86827-1.05336,2.5492l-19.57948,19.62741
							C-37.60997,21.72012-40.5702,22.94934-43.71897,22.94934z M-29.93174-15.86366c-0.39921,0-0.79829,0.15234-1.10224,0.45678
							l-19.5796,19.62766c-3.80181,3.81109-3.80181,10.01205,0,13.82314c1.84158,1.84608,4.29018,2.86287,6.89461,2.86287
							c2.60455,0,5.05303-1.01679,6.89461-2.86287l19.57973-19.62766c0.29424-0.29521,0.45641-0.68742,0.45641-1.1048
							c0-0.41739-0.16217-0.80984-0.45641-1.10505l-11.585-11.61328C-29.13345-15.71131-29.53266-15.86366-29.93174-15.86366z
							 M-51.33402,3.49871h0.00249H-51.33402z"/>
					</g>
					<g id="Shape_58_" transform="translate(25.469729, 0.000000)">
						<g>
							<path fill="#AE7E6B" d="M-26.654,1.6334l-8.12923,8.14907c-2.97601,2.98327-7.80031,2.98327-10.77632,0l-6.6412-6.65741
								c-1.98143-2.00198-2.75675-4.89886-2.02841-7.62309l1.90308-7.13634c0.40725-1.52299,2.04409-2.39447,3.56337-1.81352
								c1.32359,0.49459,1.96575,2.00197,1.60552,3.36799l-0.62657,2.3395l8.41899-8.43954
								c0.99463-0.99706,2.61578-1.19328,3.71218-0.29834c1.25309,1.03631,1.31571,2.88907,0.20363,4.00386l2.49829-2.50439
								c1.11991-1.12265,2.97605-1.05197,4.00194,0.21199c0.89282,1.09912,0.69708,2.72424-0.29755,3.72129l-1.14339,1.14618
								c1.11991-1.12265,2.976-1.05201,3.9941,0.20413c0.90061,1.09122,0.71266,2.72424-0.28976,3.7291l-3.6652,3.67415
								c1.11208-1.11479,2.96033-1.05202,3.99411,0.20412C-25.46363-0.98878-25.65937,0.63634-26.654,1.6334z"/>
							<path fill="#33475B" d="M-40.17136,13.03703c-2.21219,0-4.42437-0.84425-6.10863-2.5325l-6.64116-6.6575
								c-2.23196-2.25499-3.10922-5.55294-2.29215-8.60929l1.90302-7.13597c0.27098-1.01355,0.96121-1.86802,1.89356-2.3455
								c0.93211-0.47748,2.03186-0.53507,3.01719-0.15833c1.41166,0.52734,2.32324,1.93933,2.35868,3.47025l5.95579-5.97008
								c1.39089-1.39428,3.62048-1.5566,5.07579-0.36827c0.55516,0.45902,0.96133,1.06067,1.18096,1.72714l0.15744-0.15783
								c0.74221-0.74427,1.76821-1.13921,2.81684-1.08635c1.0469,0.05361,2.02937,0.55502,2.69546,1.37583
								c0.8611,1.05992,1.01133,2.53,0.49522,3.78964c0.80265,0.18301,1.53117,0.63207,2.05847,1.28258
								c1.19663,1.44963,1.04093,3.69066-0.36016,5.09516l-1.32423,1.32746c0.6646,0.21966,1.26354,0.62583,1.71871,1.17886
								c1.18917,1.4636,1.02799,3.69888-0.36314,5.09317l-8.12917,8.14902C-35.74699,12.19278-37.95918,13.03703-40.17136,13.03703z
								 M-49.73743-12.60759c-0.25967,0-0.51512,0.06134-0.7524,0.18276c-0.41985,0.21493-0.73039,0.5994-0.85214,1.05494
								L-53.245-4.23417c-0.63028,2.35771,0.04701,4.90168,1.76746,6.63979l6.6383,6.65475
								c2.57409,2.57987,6.76167,2.57987,9.33575,0l8.12917-8.14902c0.66137-0.66323,0.7616-1.69748,0.22783-2.35422
								c-0.30643-0.37251-0.74121-0.59292-1.22026-0.61586c-0.47283-0.02344-0.92875,0.15484-1.26055,0.4862l-0.00299,0.00274
								c-0.39747,0.39894-1.04267,0.39894-1.44063,0c-0.39796-0.39869-0.39796-1.04521-0.00025-1.44415
								c0.00025,0,0.00025,0,0.00025,0l3.66525-3.6742c0.66585-0.66747,0.76459-1.70221,0.2251-2.35597
								c-0.30867-0.38073-0.73748-0.60015-1.21354-0.62458c-0.47756-0.02468-0.93895,0.15459-1.27523,0.49144
								c-0.39747,0.39894-1.04317,0.39894-1.44063,0c-0.19898-0.19922-0.29848-0.46077-0.29848-0.72207
								c0-0.2613,0.09949-0.52285,0.29848-0.72207l1.1434-1.14619c0.66137-0.66323,0.7616-1.69747,0.22783-2.35422
								c-0.30743-0.37899-0.74047-0.60115-1.21951-0.62558c-0.47159-0.02443-0.93671,0.15459-1.27174,0.49069l-2.49474,2.50058
								c-0.00124,0.00125-0.00274,0.00249-0.00398,0.00374c-0.39796,0.39894-1.04316,0.39894-1.44063,0
								c-0.39796-0.39869-0.39796-1.04546,0-1.44415c0.3323-0.33336,0.51014-0.79513,0.48751-1.26687
								c-0.02288-0.48022-0.24276-0.91581-0.61884-1.22698c-0.65067-0.53133-1.68215-0.43035-2.34377,0.23263l-8.41894,8.4395
								c-0.32621,0.32713-0.83075,0.39345-1.23008,0.16232c-0.39933-0.23138-0.59384-0.70263-0.47432-1.14919l0.62667-2.33951
								c0.23927-0.90758-0.18953-1.85206-0.97725-2.14628C-49.32256-12.56894-49.53136-12.60759-49.73743-12.60759z"/>
						</g>
						<g transform="translate(13.753653, 4.340426)">
							<path fill="#D19781" d="M-49.20276-16.8073l-5.13999,5.15254"/>
							<path fill="#33475B" d="M-54.34263-10.6336c-0.26067,0-0.52158-0.09973-0.72031-0.2992
								c-0.39796-0.39869-0.39796-1.04546,0-1.44415l5.13996-5.15251c0.39747-0.39894,1.04316-0.39894,1.44063,0
								c0.39796,0.39869,0.39796,1.04546,0,1.44415l-5.13996,5.15251C-53.82105-10.73334-54.08197-10.6336-54.34263-10.6336z"/>
						</g>
						<g transform="translate(17.574113, 6.893617)">
							<path fill="#D19781" d="M-47.96089-16.79445l-6.39127,6.40686"/>
							<path fill="#33475B" d="M-54.35209-9.36623c-0.26067,0-0.52158-0.09973-0.72031-0.2992
								c-0.39796-0.39869-0.39796-1.04546,0-1.44415l6.39131-6.40691c0.39746-0.39894,1.04316-0.39894,1.44063,0
								c0.39796,0.39869,0.39796,1.04546,0,1.44415l-6.39131,6.40692C-53.8305-9.46597-54.09142-9.36623-54.35209-9.36623z"/>
						</g>
						<g transform="translate(21.394572, 14.553191)">
							<path fill="#D19781" d="M-51.74882-16.84601l-2.61279,2.61916"/>
							<path fill="#33475B" d="M-54.36154-13.20549c-0.26067,0-0.52133-0.09973-0.72031-0.2992
								c-0.39796-0.39869-0.39796-1.04546,0-1.44415l2.61264-2.61926c0.39747-0.39894,1.04267-0.39894,1.44063,0
								c0.39796,0.39869,0.39796,1.04546,0,1.44415l-2.61264,2.61926C-53.83995-13.30523-54.10087-13.20549-54.36154-13.20549z"/>
						</g>
					</g>
				</g>
				<g id="Group_28_" transform="translate(0.000000, 23.744681)">
					<path id="Shape_59_" fill="#7BDED2" d="M-54.48829,4.60586v-21.62118"/>
					<path id="Shape_60_" fill="#33475B" d="M-54.48826,5.62704c-0.56262,0-1.01879-0.45728-1.01879-1.02128v-21.62109
						c0-0.564,0.45617-1.02128,1.01879-1.02128s1.01879,0.45728,1.01879,1.02128V4.60576
						C-53.46947,5.16976-53.92564,5.62704-54.48826,5.62704z"/>
				</g>
			</g>
		</g>
	</g>
</g>
</svg>
