<?xml version="1.0" encoding="utf-8"?>
<!-- Generator: Adobe Illustrator 22.1.0, SVG Export Plug-In . SVG Version: 6.00 Build 0)  -->
<svg version="1.1" id="Layer_1" xmlns="http://www.w3.org/2000/svg" xmlns:xlink="http://www.w3.org/1999/xlink" x="0px" y="0px"
	 viewBox="0 0 288.97623 142.97623" enable-background="new 0 0 288.97623 142.97623" xml:space="preserve">
<g id="Group-6" transform="translate(66.000000, 0.000000)">
	<g id="Avatar-5" transform="translate(167.000000, 21.000000)">
		<g id="Avatar_5_Idle">
			<circle id="Avatar_5_1_" fill="#F9AABE" cx="-5.01189" cy="60.98811" r="60.98811"/>
			<g id="Idle_5_">
				<g id="Clipped">
					<g id="SVGID_1_">
					</g>
					<defs>
						
							<filter id="Adobe_OpacityMaskFilter" filterUnits="userSpaceOnUse" x="-41.92031" y="69.81768" width="73.81682" height="58.53262">
							<feColorMatrix  type="matrix" values="1 0 0 0 0  0 1 0 0 0  0 0 1 0 0  0 0 0 1 0"/>
						</filter>
					</defs>
					<mask maskUnits="userSpaceOnUse" x="-41.92031" y="69.81768" width="73.81682" height="58.53262" id="mask-2_1_">
						<g filter="url(#Adobe_OpacityMaskFilter)">
							<circle id="path-1_1_" fill="#FFFFFF" cx="-5.01189" cy="60.98811" r="60.98811"/>
						</g>
					</mask>
					<g id="Group" mask="url(#mask-2_1_)">
						<g transform="translate(23.941545, 69.787056)">
							<g>
								<path id="Shape" fill="#B4BBE8" d="M-32.85913,1.04934h7.8114c17.66421,0,31.98388,14.31967,31.98388,31.98388v24.51129
									h-71.77915V33.03322C-64.84301,15.36902-50.52334,1.04934-32.85913,1.04934z"/>
								<path id="Shape_1_" fill="#33475B" d="M6.93617,58.56324h-71.77924c-0.56262,0-1.01879-0.45617-1.01879-1.01879V33.03333
									c0-18.19767,14.8049-33.0027,33.0027-33.0027h7.81142c18.19767,0,33.0027,14.80503,33.0027,33.0027v24.51113
									C7.95496,58.10708,7.49879,58.56324,6.93617,58.56324z M-63.82428,56.52567H5.91738V33.03333
									c0-17.07417-13.89095-30.96512-30.96512-30.96512h-7.81142c-17.07417,0-30.96512,13.89095-30.96512,30.96512
									L-63.82428,56.52567z"/>
							</g>
							<g transform="translate(18.083507, 39.478079)">
								<g id="Shape_2_">
									<path fill="#7FDED2" d="M-64.95384,18.06643V1.03598"/>
									<path fill="#33475B" d="M-64.95388,19.08517c-0.56262,0-1.01879-0.45617-1.01879-1.01879V1.03598
										c0-0.56262,0.45617-1.01879,1.01879-1.01879s1.01879,0.45617,1.01879,1.01879v17.03039
										C-63.93509,18.629-64.39126,19.08517-64.95388,19.08517z"/>
								</g>
								<g id="Shape_3_" transform="translate(35.657620, 0.000000)">
									<path fill="#7FDED2" d="M-64.77766,18.06643V1.03598"/>
									<path fill="#33475B" d="M-64.77778,19.08517c-0.56262,0-1.01879-0.45617-1.01879-1.01879V1.03598
										c0-0.56262,0.45617-1.01879,1.01879-1.01879s1.01879,0.45617,1.01879,1.01879v17.03039
										C-63.75899,18.629-64.21516,19.08517-64.77778,19.08517z"/>
								</g>
							</g>
						</g>
					</g>
				</g>
			</g>
			<g id="Avatar_5" transform="translate(31.327766, 19.356994)">
				<g id="Group_1_" transform="translate(1.528184, 7.640919)">
					<path id="Shape_4_" fill="#EAF0F6" d="M-17.89489,26.46232h-39.88904c-3.96068,0-7.17145-3.21077-7.17145-7.17145v-5.67579
						c0-6.95612,5.63905-12.59517,12.59517-12.59517h29.04159c6.95612,0,12.59517,5.63905,12.59517,12.59517v5.67579
						C-10.72344,23.25155-13.9342,26.46232-17.89489,26.46232z"/>
					<path id="Shape_5_" fill="#33475B" d="M-17.89483,27.4811h-39.8891c-4.51615,0-8.19023-3.67408-8.19023-8.19024v-5.67572
						c0-7.50673,6.10726-13.61399,13.61399-13.61399h29.04158c7.50661,0,13.61387,6.10726,13.61387,13.61399v5.67572
						C-9.70472,23.80701-13.37868,27.4811-17.89483,27.4811z M-52.36017,2.03873c-6.38323,0-11.57642,5.19319-11.57642,11.57641
						v5.67572c0,3.39252,2.76001,6.15265,6.15266,6.15265h39.8891c3.3924,0,6.15253-2.76013,6.15253-6.15265v-5.67572
						c0-6.38323-5.19319-11.57641-11.57629-11.57641H-52.36017z"/>
				</g>
				<g id="Group_2_" transform="translate(46.354906, 23.686848)">
					<circle id="Oval" fill="#D19781" cx="-59.46643" cy="6.52062" r="5.32822"/>
					<path id="Shape_6_" fill="#33475B" d="M-59.46645,12.86759c-3.49985,0-6.34703-2.84719-6.34703-6.34691
						s2.84719-6.34704,6.34703-6.34704c3.49985,0,6.34704,2.84731,6.34704,6.34704S-55.9666,12.86759-59.46645,12.86759z
						 M-59.46645,2.21122c-2.37635,0-4.30946,1.93324-4.30946,4.30946s1.93311,4.30933,4.30946,4.30933
						s4.30946-1.93311,4.30946-4.30933S-57.0901,2.21122-59.46645,2.21122z"/>
				</g>
				<g id="Group_3_" transform="translate(0.000000, 23.686848)">
					<circle id="Oval_1_" fill="#D19781" cx="-59.56779" cy="6.52062" r="5.32822"/>
					<path id="Shape_7_" fill="#33475B" d="M-59.56781,12.86759c-3.49973,0-6.34703-2.84719-6.34703-6.34691
						s2.84731-6.34704,6.34703-6.34704s6.34704,2.84731,6.34704,6.34704S-56.06808,12.86759-59.56781,12.86759z M-59.56781,2.21122
						c-2.37622,0-4.30946,1.93324-4.30946,4.30946s1.93324,4.30933,4.30946,4.30933s4.30946-1.93311,4.30946-4.30933
						S-57.19159,2.21122-59.56781,2.21122z"/>
				</g>
				<g id="Group_4_" transform="translate(5.348643, 0.000000)">
					<path id="Shape_8_" fill="#D19781" d="M-41.65984,59.37949h-0.00005c-12.84424,0-23.25655-10.41231-23.25655-23.25655V24.29199
						c0-12.84423,10.41231-23.25654,23.25655-23.25654h0.00005c12.84424,0,23.25654,10.41231,23.25654,23.25654v11.83095
						C-18.4033,48.96718-28.8156,59.37949-41.65984,59.37949z"/>
					<path id="Shape_9_" fill="#33475B" d="M-41.6599,60.39836c-13.38541,0-24.27534-10.89005-24.27534-24.27546V24.29203
						c0-13.38541,10.88992-24.27534,24.27534-24.27534s24.27546,10.88993,24.27546,24.27534v11.83086
						C-17.38444,49.50831-28.27449,60.39836-41.6599,60.39836z M-41.6599,2.05427c-12.26191,0-22.23776,9.97585-22.23776,22.23776
						v11.83086c0,12.26191,9.97585,22.23789,22.23776,22.23789s22.23788-9.97598,22.23788-22.23789V24.29203
						C-19.42202,12.03012-29.39799,2.05427-41.6599,2.05427z"/>
				</g>
				<path id="Shape_10_" fill="#33475B" d="M-44.71952,30.20175c0,1.575-1.28759,2.8626-2.86259,2.8626
					c-1.575,0-2.85116-1.28759-2.85116-2.8626c0-1.575,1.27615-2.85115,2.85116-2.85115c0.26439,0,0.52879,0.03452,0.78174,0.11501
					c-0.32193,0.24138-0.51735,0.63229-0.51735,1.06915c0,0.78175,0.63229,1.40253,1.40252,1.40253
					c0.44838,0,0.83929-0.19542,1.09217-0.51735C-44.75404,29.66138-44.71952,29.92578-44.71952,30.20175z"/>
				<path id="Shape_11_" fill="#33475B" d="M-22.18917,30.20175c0,1.575-1.28759,2.8626-2.86259,2.8626
					s-2.85115-1.28759-2.85115-2.8626c0-1.575,1.27615-2.85115,2.85115-2.85115c0.2644,0,0.52879,0.03452,0.78175,0.11501
					c-0.32193,0.24138-0.51735,0.63229-0.51735,1.06915c0,0.78175,0.63228,1.40253,1.40252,1.40253
					c0.44838,0,0.83929-0.19542,1.09217-0.51735C-22.2237,29.66138-22.18917,29.92578-22.18917,30.20175z"/>
				<path id="Shape_12_" fill="#33475B" d="M-35.45128,39.64364h-2.52645c-0.92427,0-1.7697-0.4262-2.31951-1.16914
					c-0.54981-0.74308-0.71012-1.6763-0.43988-2.56028l1.83636-6.00466c0.16454-0.53812,0.73449-0.84082,1.27224-0.67629
					c0.538,0.16453,0.84082,0.73412,0.67629,1.27224l-1.83636,6.00454c-0.07947,0.2598-0.03233,0.53402,0.12922,0.7524
					c0.16167,0.21838,0.41003,0.34362,0.68164,0.34362h2.52645c0.56262,0,1.01879,0.45617,1.01879,1.01879
					S-34.88866,39.64364-35.45128,39.64364z"/>
				<path id="Shape_13_" fill="#AE7E6B" d="M-47.57639,37.78452c-2.15846,0-4.17054-0.96743-5.52052-2.65417
					c-0.35157-0.43938-0.28044-1.08047,0.15881-1.43205c0.4395-0.35157,1.08072-0.28019,1.43205,0.15882
					c0.96121,1.20098,2.39351,1.88983,3.92965,1.88983c1.55716,0,3.00165-0.70427,3.96311-1.93212
					c0.34685-0.44286,0.98708-0.52108,1.43018-0.17411c0.44311,0.34686,0.52096,0.9872,0.17411,1.43019
					C-43.35921,36.79546-45.38845,37.78452-47.57639,37.78452z"/>
				<path id="Shape_14_" fill="#AE7E6B" d="M-25.06615,37.78452c-2.15821,0-4.17042-0.96743-5.52051-2.65417
					c-0.35145-0.43925-0.28057-1.08035,0.15869-1.43205c0.44-0.35183,1.08072-0.28044,1.43217,0.15882
					c0.96133,1.20098,2.39351,1.88983,3.92965,1.88983c1.55729,0,3.00165-0.70427,3.96323-1.93224
					c0.34673-0.44286,0.9872-0.52096,1.43019-0.17398c0.44298,0.34685,0.52108,0.9872,0.17411,1.43031
					C-20.84896,36.79546-22.87834,37.78452-25.06615,37.78452z"/>
				<path id="Shape_15_" fill="#FFFFFF" d="M-45.31869,8.58574c-0.36103,0-0.71087-0.19239-0.89567-0.5319
					c-0.269-0.49422-0.08656-1.11293,0.40767-1.38193c1.68252-0.91594,3.48431-1.58141,5.35524-1.97801
					c0.55168-0.11703,1.09117,0.23492,1.20795,0.78536c0.11665,0.55043-0.23492,1.09129-0.78536,1.20795
					c-1.67804,0.35568-3.29427,0.95263-4.80355,1.7743C-44.98713,8.5457-45.15403,8.58574-45.31869,8.58574z"/>
				<path id="Shape_16_" fill="#FFFFFF" d="M-54.4067,19.80685c-0.09563,0-0.19301-0.01356-0.28952-0.04216
					c-0.53949-0.15968-0.84742-0.72653-0.68773-1.26602c1.03309-3.49027,3.01284-6.63395,5.72522-9.09113
					c0.41724-0.37794,1.06132-0.34586,1.43901,0.07101c0.37782,0.41699,0.34598,1.06132-0.07101,1.43901
					c-2.43529,2.20622-4.21245,5.02766-5.13946,8.15939C-53.56128,19.51994-53.96695,19.80685-54.4067,19.80685z"/>
				<g id="Group_5_" transform="translate(36.167015, 10.442589)">
					<circle id="Oval_2_" fill="#AE7E6B" cx="-62.46432" cy="1.08811" r="1.03774"/>
					<circle id="Oval_3_" fill="#AE7E6B" cx="-64.92051" cy="3.61394" r="1.03774"/>
					<circle id="Oval_4_" fill="#AE7E6B" cx="-61.42658" cy="4.20132" r="1.03774"/>
				</g>
				<path id="Shape_17_" fill="#EAF0F6" d="M-51.39735,26.82383c-0.23753,0-0.47594-0.08245-0.66895-0.25072
					c-0.42421-0.36973-0.46835-1.01332-0.09874-1.4374c2.16518-2.48442,5.69052-3.36591,8.77151-2.19341
					c0.52594,0.2001,0.78996,0.78859,0.58986,1.3144c-0.20023,0.52581-0.78846,0.78996-1.3144,0.58986
					c-2.28755-0.8703-4.90379-0.21627-6.51083,1.6278C-50.83037,26.70556-51.11317,26.82383-51.39735,26.82383z"/>
				<path id="Shape_18_" fill="#EAF0F6" d="M-21.22504,26.82383c-0.2843,0-0.5671-0.11827-0.76857-0.34946
					c-1.60678-1.84382-4.2229-2.49772-6.5107-1.6278c-0.52681,0.19998-1.11455-0.06404-1.31453-0.58986
					c-0.20023-0.52581,0.06392-1.1143,0.58973-1.3144c3.08174-1.1725,6.60646-0.29101,8.77164,2.19341
					c0.36961,0.42408,0.32558,1.06766-0.09875,1.4374C-20.74923,26.74126-20.98776,26.82383-21.22504,26.82383z"/>
				<g id="Group_6_" transform="translate(23.686848, 43.298539)">
					<path id="Shape_19_" fill="#D19781" d="M-55.11964,1.11833c-1.43908,0.81679-3.1116,1.27053-4.8748,1.27053
						c-1.77618,0-3.43563-0.46672-4.87479-1.27053"/>
					<path id="Shape_20_" fill="#33475B" d="M-59.9945,3.4076c-1.87466,0-3.73203-0.48402-5.37152-1.39984
						c-0.49124-0.27435-0.66697-0.89505-0.39262-1.38628c0.27447-0.49124,0.89529-0.66659,1.38628-0.39262
						c1.33641,0.74656,2.8503,1.14116,4.37786,1.14116c1.54883,0,3.0606-0.39336,4.37189-1.13768
						c0.489-0.2777,1.11131-0.10621,1.38889,0.38304c0.27783,0.48937,0.1062,1.11132-0.38304,1.3889
						C-56.23423,2.92233-58.09372,3.4076-59.9945,3.4076z"/>
				</g>
			</g>
		</g>
	</g>
	<g id="Avatar-13" transform="translate(0.000000, 21.000000)">
		<g id="Avatar_13_Idle">
			<circle id="Avatar_13_1_" fill="#7FDED2" cx="-5.01189" cy="60.98811" r="60.98811"/>
			<g id="Idle_13_">
				<g id="Clipped_1_">
					<g id="SVGID_2_">
					</g>
					<defs>
						
							<filter id="Adobe_OpacityMaskFilter_1_" filterUnits="userSpaceOnUse" x="-41.92031" y="69.81768" width="73.81682" height="58.53262">
							<feColorMatrix  type="matrix" values="1 0 0 0 0  0 1 0 0 0  0 0 1 0 0  0 0 0 1 0"/>
						</filter>
					</defs>
					<mask maskUnits="userSpaceOnUse" x="-41.92031" y="69.81768" width="73.81682" height="58.53262" id="mask-4_1_">
						<g filter="url(#Adobe_OpacityMaskFilter_1_)">
							<circle id="path-3_1_" fill="#FFFFFF" cx="-5.01189" cy="60.98811" r="60.98811"/>
						</g>
					</mask>
					<g id="Group_7_" mask="url(#mask-4_1_)">
						<g transform="translate(23.941545, 69.787056)">
							<g>
								<path id="Shape_21_" fill="#B4BBE8" d="M-32.85913,1.04934h7.8114c17.66421,0,31.98388,14.31967,31.98388,31.98388v24.51129
									h-71.77915V33.03322C-64.84301,15.36902-50.52334,1.04934-32.85913,1.04934z"/>
								<path id="Shape_22_" fill="#33475B" d="M6.93617,58.56324h-71.77924c-0.56262,0-1.01879-0.45617-1.01879-1.01879V33.03333
									c0-18.19767,14.8049-33.0027,33.0027-33.0027h7.81142c18.19767,0,33.0027,14.80503,33.0027,33.0027v24.51113
									C7.95496,58.10708,7.49879,58.56324,6.93617,58.56324z M-63.82428,56.52567H5.91738V33.03333
									c0-17.07417-13.89095-30.96512-30.96512-30.96512h-7.81142c-17.07417,0-30.96512,13.89095-30.96512,30.96512
									L-63.82428,56.52567z"/>
							</g>
							<g transform="translate(18.083507, 39.478079)">
								<g id="Shape_23_">
									<path fill="#7FDED2" d="M-64.95384,18.06643V1.03598"/>
									<path fill="#33475B" d="M-64.95388,19.08517c-0.56262,0-1.01879-0.45617-1.01879-1.01879V1.03598
										c0-0.56262,0.45617-1.01879,1.01879-1.01879s1.01879,0.45617,1.01879,1.01879v17.03039
										C-63.93509,18.629-64.39126,19.08517-64.95388,19.08517z"/>
								</g>
								<g id="Shape_24_" transform="translate(35.657620, 0.000000)">
									<path fill="#7FDED2" d="M-64.77766,18.06643V1.03598"/>
									<path fill="#33475B" d="M-64.77778,19.08517c-0.56262,0-1.01879-0.45617-1.01879-1.01879V1.03598
										c0-0.56262,0.45617-1.01879,1.01879-1.01879s1.01879,0.45617,1.01879,1.01879v17.03039
										C-63.75899,18.629-64.21516,19.08517-64.77778,19.08517z"/>
								</g>
							</g>
						</g>
					</g>
				</g>
			</g>
			<g id="Avatar_13" transform="translate(31.327766, 15.536534)">
				<g id="Group_8_">
					<g>
						<path id="Shape_25_" fill="#CBD6E2" d="M-62.79024,33.91186v38.0474c0,2.32296,2.30723,3.94042,4.49098,3.14837
							l5.02739-1.82346c3.53693-1.28287,5.89232-4.64271,5.89232-8.40511V33.9105L-62.79024,33.91186z"/>
						<path id="Shape_26_" fill="#CBD6E2" d="M-25.24489,33.91186v30.96719c0,3.76241,2.35539,7.12224,5.89232,8.40511
							l5.02739,1.82346c2.18375,0.79205,4.49098-0.82541,4.49098-3.14837V33.9105L-25.24489,33.91186z"/>
						<path id="Shape_27_" fill="#9AACC2" d="M-13.05102,34.52919v13.04559c0,9.1895-4.39098,17.25319-10.99274,21.77152
							c-0.76919-1.32951-1.19707-2.8628-1.19707-4.46741V33.91278h12.18471C-13.05102,34.12165-13.05102,34.32032-13.05102,34.52919
							z"/>
						<path id="Shape_28_" fill="#9AACC2" d="M-47.37912,33.91278v30.96611c0,1.60461-0.4279,3.13279-1.19199,4.4623
							c-6.60173-4.51323-10.99271-12.57692-10.99271-21.76642V34.52919c0-0.20887,0-0.40754,0.0051-0.61641H-47.37912z"/>
						<path id="Shape_29_" fill="#33475B" d="M-59.43971,76.32664c-0.88622,0-1.76447-0.26912-2.50879-0.79095
							c-1.16492-0.81682-1.86049-2.15373-1.86049-3.57645v-38.0474c0-0.56262,0.45604-1.01879,1.01867-1.01879l15.41068-0.00137
							c0.27024,0,0.52942,0.10733,0.72044,0.29835c0.19115,0.19102,0.29847,0.4502,0.29847,0.72044v30.96848
							c0,4.17614-2.63776,7.9389-6.5638,9.36311l-5.02741,1.82343C-58.43497,76.24058-58.93865,76.32664-59.43971,76.32664z
							 M-61.77141,34.9305v37.02873c0,0.77031,0.36177,1.46575,0.99255,1.90799c0.6309,0.44224,1.4083,0.54546,2.13222,0.28255
							l5.02741-1.82343c3.12278-1.13271,5.22092-4.12565,5.22092-7.4474V34.92938L-61.77141,34.9305z"/>
						<path id="Shape_30_" fill="#33475B" d="M-13.18467,76.32664c-0.50119,0-1.00461-0.08606-1.48789-0.26116l-5.02753-1.82343
							c-3.92592-1.42422-6.56368-5.18697-6.56368-9.36311V33.91183c0-0.56262,0.45617-1.01879,1.01879-1.01879l15.41068-0.00137
							c0.27012,0,0.52929,0.10733,0.72031,0.29835c0.19102,0.19102,0.29848,0.4502,0.29848,0.72044v38.04877
							c0,1.42272-0.69544,2.75964-1.86049,3.57645C-11.42019,76.05727-12.2987,76.32664-13.18467,76.32664z M-24.22619,34.9305
							v29.94844c0,3.32176,2.09827,6.3147,5.22104,7.44741l5.02754,1.82343c0.72404,0.2634,1.50132,0.15968,2.13184-0.28255
							c0.63078-0.44224,0.99268-1.13769,0.99268-1.908V34.92937L-24.22619,34.9305z"/>
						<g id="Shape_31_" transform="translate(50.939457, 37.695198)">
							<path fill="#F4A9AD" d="M-61.83981,1.02397c-0.69781,0.33112-1.47719,0.51959-2.30247,0.51959
								c-0.2649,0-0.52457-0.02037-0.77927-0.05603c0.2547-0.07132,0.51437-0.13755,0.77927-0.18847
								C-63.39846,1.14115-62.62927,1.04437-61.83981,1.02397z"/>
							<path fill="#33475B" d="M-64.14228,2.5623c-0.29922,0-0.60889-0.02214-0.92055-0.06579
								c-0.47781-0.06691-0.84293-0.45952-0.87527-0.94069s0.27733-0.91917,0.74171-1.04926
								c0.32732-0.09178,0.60092-0.15782,0.86159-0.20794c0.80936-0.17199,1.64633-0.27186,2.46862-0.29313
								c0.48975-0.01617,0.90562,0.31365,1.0173,0.78175c0.11193,0.46823-0.11939,0.95076-0.55416,1.15708
								C-62.26712,2.35436-63.18891,2.5623-64.14228,2.5623z"/>
						</g>
						<g transform="translate(46.354906, 27.507307)">
							<circle id="Oval_5_" fill="#936E63" cx="-59.46626" cy="6.40455" r="5.32822"/>
							<path id="Shape_32_" fill="#33475B" d="M-59.4662,12.75156c-3.49985,0-6.34703-2.84731-6.34703-6.34703
								s2.84718-6.34691,6.34703-6.34691c3.49985,0,6.34703,2.84719,6.34703,6.34691S-55.96635,12.75156-59.4662,12.75156z
								 M-59.4662,2.09519c-2.37635,0-4.30946,1.93311-4.30946,4.30933s1.93311,4.30946,4.30946,4.30946
								s4.30946-1.93324,4.30946-4.30946S-57.08985,2.09519-59.4662,2.09519z"/>
						</g>
						<g id="Shape_33_" transform="translate(5.348643, 3.565762)">
							<path fill="#936E63" d="M-18.40372,24.43065v11.83326c0,12.84181-10.41199,23.25384-23.25381,23.25384
								c-12.84692,0-23.25904-10.41203-23.25904-23.25384V24.43065c0-12.84182,10.41212-23.25894,23.25904-23.25894
								c6.4234,0,12.23567,2.603,16.44327,6.8157C-21.00666,12.19502-18.40372,18.0072-18.40372,24.43065z"/>
							<path fill="#33475B" d="M-41.65754,60.53665c-13.38678,0-24.27783-10.88881-24.27783-24.27272V24.4307
								c0-13.38678,10.89105-24.27782,24.27783-24.27782c6.48608,0,12.58165,2.5267,17.16396,7.11461
								c4.58381,4.5838,7.10864,10.67925,7.10864,17.16321v11.83323C-17.38494,49.64784-28.27349,60.53665-41.65754,60.53665z
								 M-41.65754,2.19045c-12.26328,0-22.24025,9.97697-22.24025,22.24025v11.83323
								c0,12.26042,9.97697,22.23515,22.24025,22.23515c12.26054,0,22.23502-9.97474,22.23502-22.23515V24.4307
								c0-5.93962-2.31267-11.52356-6.51219-15.72283C-30.13248,4.50486-35.71618,2.19045-41.65754,2.19045z"/>
						</g>
						<path id="Shape_34_" fill="#33475B" d="M-44.71935,33.90615c0,1.575-1.28759,2.86259-2.86259,2.86259
							c-1.575,0-2.85115-1.28759-2.85115-2.86259c0-1.575,1.27615-2.85116,2.85115-2.85116
							c0.26439,0,0.52879,0.03452,0.78175,0.11501c-0.32194,0.24138-0.51736,0.63229-0.51736,1.06915
							c0,0.78175,0.63229,1.40253,1.40253,1.40253c0.44837,0,0.83929-0.19542,1.09217-0.51735
							C-44.75388,33.36578-44.71935,33.63017-44.71935,33.90615z"/>
						<path id="Shape_35_" fill="#33475B" d="M-22.18901,33.90615c0,1.575-1.28759,2.86259-2.86259,2.86259
							c-1.57501,0-2.85116-1.28759-2.85116-2.86259c0-1.575,1.27615-2.85116,2.85116-2.85116
							c0.26439,0,0.52879,0.03452,0.78174,0.11501c-0.32193,0.24138-0.51735,0.63229-0.51735,1.06915
							c0,0.78175,0.63229,1.40253,1.40253,1.40253c0.44838,0,0.83928-0.19542,1.09217-0.51735
							C-22.22353,33.36578-22.18901,33.63017-22.18901,33.90615z"/>
						<path id="Shape_36_" fill="#33475B" d="M-35.45103,43.34807h-2.52645c-0.9244,0-1.76982-0.4262-2.31964-1.16915
							c-0.54981-0.7432-0.71012-1.6763-0.43987-2.56028l1.83636-6.00479c0.16453-0.53812,0.73362-0.84045,1.27224-0.67629
							c0.53799,0.16454,0.84082,0.73412,0.67629,1.27224l-1.83636,6.00466c-0.07947,0.2598-0.03233,0.53402,0.12922,0.7524
							c0.16167,0.21838,0.41015,0.34362,0.68176,0.34362h2.52645c0.56262,0,1.01879,0.45617,1.01879,1.01879
							S-34.88841,43.34807-35.45103,43.34807z"/>
						<g id="Shape_37_" transform="translate(0.000000, 27.507307)">
							<path fill="#936E63" d="M-59.56793,1.07493v10.65653c-2.94419,0-5.32825-2.38396-5.32825-5.32825
								C-64.89618,3.46399-62.51212,1.07493-59.56793,1.07493z"/>
							<path fill="#33475B" d="M-59.56793,12.75019c-3.49972,0-6.34703-2.84731-6.34703-6.34704s2.84731-6.34704,6.34703-6.34704
								c0.56262,0,1.01879,0.45617,1.01879,1.01879V11.7314C-58.54914,12.29403-59.00531,12.75019-59.56793,12.75019z
								 M-60.58672,2.21533c-1.88623,0.4589-3.29067,2.16244-3.29067,4.18783s1.40444,3.72893,3.29067,4.18783V2.21533z"/>
						</g>
						<g id="Shape_38_" transform="translate(2.037578, 0.000000)">
							<path fill="#CBD6E2" d="M-61.60397,28.58272c4.68643-4.6915,8.85328-7.01437,15.60276-7.05h0.20884
								c13.13731,0,23.83966-5.67467,23.83966-10.03001c0,14.21212,6.80554,17.08002,6.80554,17.08002l3.19898,1.07488
								c0.05096-0.66734,0.07642-1.33977,0.07642-2.01725c0-4.11079-0.9373-8.00767-2.6081-11.47661
								c-0.6877-1.43143-1.76252-2.58776-3.06147-3.38755c-1.29895-0.79972-2.83736-1.26839-4.41137-1.27349v-0.12225
								c0-3.14292-1.75739-6.03115-4.56416-7.43709c-3.56576-1.78288-7.58489-2.78134-11.83323-2.78134
								c-14.96601,0-27.03357,12.41394-26.45795,27.50731c0.01017,0.31582,0.03056,0.63164,0.05602,0.94747
								C-63.87078,28.96476-62.78067,28.58272-61.60397,28.58272"/>
							<path fill="#33475B" d="M-11.94824,30.67638c-0.10919,0-0.21864-0.01754-0.32459-0.0531l-3.19889-1.07488
								c-0.02388-0.00808-0.04776-0.01704-0.07114-0.02686c-0.27485-0.11591-6.159-2.73501-7.25415-14.19552
								c-1.29612,1.33729-3.23769,2.62047-5.72746,3.75243c-4.92606,2.23967-11.05856,3.47311-17.26793,3.47311h-0.20881
								c-5.96238,0.03147-9.99724,1.86123-14.88201,6.75122c-0.19115,0.19127-0.45045,0.29872-0.72081,0.29872
								c-0.92539,0-1.8044,0.28852-2.542,0.83423c-0.29723,0.22-0.6906,0.26166-1.02763,0.10857
								c-0.33678-0.15309-0.56411-0.47681-0.59383-0.84555c-0.02998-0.37123-0.04925-0.69731-0.05882-0.9969
								c-0.28778-7.5459,2.43305-14.69646,7.66156-20.1283c5.23299-5.43632,12.26999-8.43025,19.81466-8.43025
								c4.32053,0,8.45488,0.9719,12.28877,2.88885c2.91186,1.45854,4.80791,4.28533,5.09047,7.50698
								c1.38989,0.15259,2.74372,0.61846,3.96348,1.36949c1.49883,0.92278,2.69049,2.24154,3.44587,3.81387
								c1.79706,3.73129,2.7084,7.7414,2.7084,11.91792c0,0.70116-0.02662,1.40593-0.07935,2.09479
								c-0.02388,0.3134-0.19102,0.59806-0.45318,0.77168C-11.55426,30.6188-11.7505,30.67638-11.94824,30.67638z
								 M-14.77578,27.6327l1.87764,0.6309c0.00497-0.20756,0.00747-0.4155,0.00747-0.62319
								c0-3.86796-0.84344-7.58048-2.50693-11.03456c-0.5865-1.22051-1.51227-2.24452-2.6778-2.9621
								c-0.88149-0.54272-1.84954-0.89641-2.84445-1.04391C-20.6072,24.62284-15.18842,27.4367-14.77578,27.6327z
								 M-38.35008,2.18088c-6.98577,0-13.50132,2.77207-18.34666,7.8057c-4.68516,4.86735-7.19545,11.22546-7.11038,17.96971
								c0.56412-0.20943,1.15796-0.3369,1.76858-0.37782c2.50954-2.47211,4.68839-4.07914,7.02594-5.18722
								c2.66263-1.26242,5.52437-1.85887,9.00606-1.87727h0.21415c12.59707,0,22.82078-5.45273,22.82078-9.01128v-0.12225
								c0-2.78911-1.53341-5.28982-4.00153-6.52612C-30.521,3.0804-34.34892,2.18088-38.35008,2.18088z"/>
						</g>
						<path id="Shape_39_" fill="#FFFFFF" d="M-55.69275,17.81255c-0.16951,0-0.34138-0.04228-0.49969-0.13158
							c-0.48999-0.27658-0.66311-0.89791-0.38665-1.38803c3.61501-6.40698,10.11477-10.76929,17.38657-11.66907
							c0.56013-0.06852,1.06717,0.32757,1.13619,0.88597c0.06915,0.55839-0.32758,1.06704-0.88597,1.13619
							c-6.63345,0.8208-12.56324,4.80144-15.86212,10.64829C-54.99171,17.62613-55.33707,17.81255-55.69275,17.81255z"/>
					</g>
					<path id="Shape_40_" fill="#826156" d="M-47.58261,41.4203c-2.15833,0-4.17042-0.96743-5.52051-2.65418
						c-0.35158-0.43925-0.28044-1.08047,0.15881-1.43205c0.43925-0.35145,1.08047-0.28082,1.43205,0.15881
						c0.96121,1.20098,2.39351,1.88984,3.92965,1.88984c1.55716,0,3.00165-0.70428,3.9631-1.93212
						c0.34697-0.44311,0.98732-0.52121,1.43018-0.17411c0.44311,0.34685,0.52096,0.9872,0.17411,1.43018
						C-43.36555,40.43124-45.39479,41.4203-47.58261,41.4203z"/>
					<path id="Shape_41_" fill="#826156" d="M-25.07237,41.4203c-2.15846,0-4.17067-0.96743-5.52051-2.65418
						c-0.35145-0.43938-0.28056-1.08047,0.15894-1.43205c0.4395-0.35195,1.08047-0.28032,1.43193,0.15881
						c0.96109,1.20098,2.39351,1.88984,3.92965,1.88984c1.55704,0,3.00165-0.70428,3.96298-1.93212
						c0.34673-0.44311,0.9872-0.52121,1.43018-0.17411c0.44299,0.34685,0.52108,0.9872,0.17411,1.43018
						C-20.85519,40.43124-22.88456,41.4203-25.07237,41.4203z"/>
				</g>
				<path id="Shape_42_" fill="#33475B" d="M-51.39722,30.52814c-0.23754,0-0.47594-0.08245-0.66895-0.25072
					c-0.42421-0.36973-0.46835-1.01332-0.09875-1.43752c2.16555-2.48429,5.69064-3.36578,8.77164-2.19316
					c0.52581,0.2001,0.78983,0.78859,0.58973,1.31453c-0.19998,0.52569-0.78859,0.78959-1.31453,0.58974
					c-2.28755-0.87042-4.90379-0.21602-6.5107,1.62767C-50.83025,30.40987-51.11305,30.52814-51.39722,30.52814z"/>
				<path id="Shape_43_" fill="#33475B" d="M-21.2248,30.52814c-0.28429,0-0.5671-0.11827-0.76857-0.34946
					c-1.60728-1.84407-4.22389-2.49797-6.5107-1.62767c-0.52706,0.19973-1.11455-0.06405-1.31453-0.58973
					c-0.20023-0.52594,0.06392-1.11443,0.58973-1.31453c3.08074-1.17275,6.60621-0.29114,8.77163,2.19316
					c0.36961,0.42421,0.32558,1.06779-0.09875,1.43752C-20.74898,30.44556-20.98751,30.52814-21.2248,30.52814z"/>
				<path id="Shape_44_" fill="#33475B" d="M-36.3074,50.41069c-1.87429,0-3.73179-0.48402-5.37152-1.39984
					c-0.49136-0.27447-0.66709-0.89505-0.39274-1.38628c0.27435-0.49136,0.8948-0.66721,1.38616-0.39274
					c1.33691,0.74668,2.85079,1.14128,4.37811,1.14128c1.54833,0,3.0601-0.39349,4.37189-1.13793
					c0.49024-0.27758,1.11132-0.10608,1.3889,0.38329c0.27783,0.48937,0.1062,1.11119-0.38304,1.3889
					C-32.54763,49.92543-34.40712,50.41069-36.3074,50.41069z"/>
			</g>
		</g>
	</g>
	<g id="Avatar-12" transform="translate(83.500000, 0.000000)">
		<g id="Avatar_12_Idle">
			<ellipse id="Avatar_12_1_" fill="#FD7A59" cx="-5.01189" cy="80.74761" rx="60.98811" ry="61.04554"/>
			<g id="Idle_12_" transform="translate(0.000000, 19.630162)">
				<g id="Clipped_2_">
					<g id="SVGID_3_">
					</g>
					<defs>
						
							<filter id="Adobe_OpacityMaskFilter_2_" filterUnits="userSpaceOnUse" x="-41.92031" y="69.95534" width="73.81682" height="58.58775">
							<feColorMatrix  type="matrix" values="1 0 0 0 0  0 1 0 0 0  0 0 1 0 0  0 0 0 1 0"/>
						</filter>
					</defs>
					<mask maskUnits="userSpaceOnUse" x="-41.92031" y="69.95534" width="73.81682" height="58.58775" id="mask-6_1_">
						<g filter="url(#Adobe_OpacityMaskFilter_2_)">
							<ellipse id="path-5_1_" fill="#FFFFFF" cx="-5.01189" cy="61.11745" rx="60.98811" ry="61.04554"/>
						</g>
					</mask>
					<g id="Group_9_" mask="url(#mask-6_1_)">
						<g transform="translate(23.941545, 69.852783)">
							<g>
								<path id="Shape_45_" fill="#F5C26B" d="M-32.85913,1.12224h7.8114c17.66421,0,31.98388,14.33316,31.98388,32.014V57.6706
									h-71.77915V33.13624C-64.84301,15.4554-50.52334,1.12224-32.85913,1.12224z"/>
								<path id="Shape_46_" fill="#33475B" d="M6.93617,58.6903h-71.77924c-0.56262,0-1.01879-0.4566-1.01879-1.01975V33.13634
									c0-18.21481,14.8049-33.03378,33.0027-33.03378h7.81142c18.19767,0,33.0027,14.81897,33.0027,33.03378v24.53422
									C7.95496,58.23371,7.49879,58.6903,6.93617,58.6903z M-63.82428,56.65081H5.91738V33.13634
									c0-17.09025-13.89095-30.99428-30.96512-30.99428h-7.81142c-17.07417,0-30.96512,13.90403-30.96512,30.99428
									L-63.82428,56.65081z"/>
							</g>
							<g transform="translate(18.083507, 39.515260)">
								<g id="Shape_47_">
									<path fill="#7FDED2" d="M-64.95384,18.15534V1.10886"/>
									<path fill="#33475B" d="M-64.95388,19.17504c-0.56262,0-1.01879-0.4566-1.01879-1.01975V1.10886
										c0-0.56315,0.45617-1.01975,1.01879-1.01975s1.01879,0.4566,1.01879,1.01975v17.04643
										C-63.93509,18.71845-64.39126,19.17504-64.95388,19.17504z"/>
								</g>
								<g id="Shape_48_" transform="translate(35.657620, 0.000000)">
									<path fill="#7FDED2" d="M-64.77766,18.15534V1.10886"/>
									<path fill="#33475B" d="M-64.77778,19.17504c-0.56262,0-1.01879-0.4566-1.01879-1.01975V1.10886
										c0-0.56315,0.45617-1.01975,1.01879-1.01975s1.01879,0.4566,1.01879,1.01975v17.04643
										C-63.75899,18.71845-64.21516,19.17504-64.77778,19.17504z"/>
								</g>
							</g>
						</g>
					</g>
				</g>
			</g>
			<g id="Avatar_12" transform="translate(22.668058, 0.000000)">
				<g id="Group_10_">
					<path id="Shape_49_" fill="#7FDED2" d="M-20.88345,17.381c-0.24783-2.16112-1.9194-3.80744-3.9691-4.12075
						c0.55309-0.87724,0.82431-1.94086,0.69693-3.05165c-0.29682-2.58827-2.63375-4.44558-5.21946-4.1485
						c-0.49273,0.05661-0.95832,0.18823-1.38816,0.38064c-0.00208-0.15889-0.01208-0.31925-0.03057-0.48052
						c-0.29681-2.58827-2.63363-4.44566-5.21946-4.14856c-1.28656,0.14782-2.39178,0.80162-3.14169,1.73968
						c-0.87753-1.67791-2.71774-2.73062-4.71002-2.50172c-1.99229,0.2289-3.54633,1.67159-4.0212,3.50488
						c-0.94276-0.74359-2.16712-1.12973-3.45367-0.98191c-2.58583,0.2971-4.4414,2.63617-4.14459,5.22444
						c0.01849,0.16126,0.04493,0.31974,0.07888,0.47497c-0.46221-0.08992-0.9455-0.11252-1.4381-0.05592
						c-2.58583,0.2971-4.44141,2.63611-4.1446,5.22437c0.12738,1.11079,0.6322,2.08525,1.36949,2.81423
						c-1.92535,0.77002-3.18075,2.75264-2.93292,4.91375s1.9194,3.80744,3.96898,4.12076
						c-0.55308,0.87736-0.82419,1.94084-0.6968,3.05164c0.29682,2.58827,2.63363,4.44559,5.21946,4.1485
						c0.4926-0.0566,0.95821-0.18816,1.38803-0.38063c0.00208,0.15895,0.0122,0.31924,0.0307,0.48057
						c0.29681,2.58821,2.63363,4.44559,5.21946,4.1485c1.28656-0.14782,2.39166-0.80161,3.14157-1.73967
						c0.87753,1.67791,2.71774,2.73062,4.71002,2.50172c1.99228-0.2289,3.54632-1.67159,4.0212-3.50488
						c0.94276,0.74358,2.16724,1.12971,3.45379,0.9819c2.58583-0.2971,4.4414-2.63617,4.1446-5.22437
						c-0.01851-0.16133-0.04506-0.31972-0.07901-0.47501c0.46222,0.08998,0.9455,0.11252,1.43822,0.05591
						c2.5857-0.29708,4.44141-2.63611,4.14459-5.22437c-0.12738-1.11079-0.6323-2.08512-1.36961-2.81421
						C-21.89102,21.52473-20.63562,19.54211-20.88345,17.381z"/>
					<path id="Shape_50_" fill="#54BEA6" d="M-24.02367,23.29817c0.69344,0.77224,1.13829,1.77465,1.1986,2.89186
						c0.13916,2.60323-1.85197,4.82262-4.45313,4.96706c-0.49148,0.02653-0.97297-0.02808-1.43043-0.14247
						c0.02631,0.15485,0.04226,0.31413,0.04772,0.47789c0.14455,2.59851-1.85198,4.82269-4.44761,4.96228
						c-1.29546,0.07-2.49276-0.38532-3.38874-1.18512c-0.58286,1.79865-2.22044,3.14535-4.2274,3.25417
						c-2.00188,0.10914-3.77439-1.05006-4.54812-2.77729c-0.80383,0.89142-1.9464,1.47634-3.24173,1.54629
						c-2.60085,0.13935-4.81802-1.85366-4.96239-4.45727c-0.00547-0.16382-0.00615-0.32218-0.00174-0.48022
						c-0.4388,0.16757-0.90913,0.2669-1.4057,0.29319c-2.47312,0.13682-4.59488-1.66143-4.92461-4.06677
						c0.89513-0.9676,2.20044-1.5427,3.6191-1.45712c0.40668,0.02453,0.78988,0.10383,1.15989,0.22828
						c-0.07899-0.38275-0.11126-0.77802-0.08706-1.18005c0.15139-2.51425,2.30785-4.42736,4.81967-4.27584
						c0.87456,0.05276,1.67315,0.35122,2.34364,0.82589c-0.00282-0.12276-0.00552-0.24551,0.00214-0.37274
						c0.15107-2.50916,2.31281-4.42706,4.81967-4.27584c1.15424,0.06963,2.18034,0.57081,2.94116,1.32672
						c0.50467-2.10984,2.45811-3.61631,4.69534-3.48135c1.59655,0.09631,2.9452,1.00516,3.68403,2.29611
						c0.77639-1.62349,2.47439-2.70104,4.38116-2.58601c1.90168,0.11472,3.46306,1.38888,4.03917,3.09396
						c0.56136-0.76301,1.35637-1.33822,2.27182-1.62525c0.18146,0.46045,0.29474,0.95252,0.31965,1.46993
						C-20.68024,20.74147-22.05549,22.64559-24.02367,23.29817z"/>
					<path id="Shape_51_" fill="#33475B" d="M-40.09503,39.5496c-1.66125,0-3.25025-0.73556-4.33408-1.97688
						c-0.82366,0.64693-1.81161,1.05572-2.87641,1.17821c-2.89009,0.33037-5.5327-1.55925-6.21584-4.31302
						c-0.13979,0.02664-0.28069,0.04817-0.42246,0.06461c-3.13882,0.361-5.98725-1.90269-6.3479-5.04547
						c-0.09726-0.84883-0.00075-1.70925,0.27397-2.51203c-1.9106-0.77477-3.30373-2.54726-3.54611-4.66032
						c-0.24226-2.11294,0.71335-4.1553,2.39886-5.34322c-0.44933-0.71962-0.7381-1.53584-0.83548-2.38481
						c-0.17461-1.5224,0.25358-3.02165,1.20571-4.22177c0.952-1.2,2.31392-1.95722,3.83501-2.13199
						c0.14177-0.01618,0.28392-0.02714,0.42607-0.03286c0.04216-2.83717,2.18768-5.27849,5.07765-5.61061
						c1.06543-0.12187,2.11991,0.05191,3.06843,0.49518c0.8739-1.64116,2.51949-2.80132,4.40646-3.01817
						c1.88672-0.21598,3.75231,0.54,4.97505,1.94029c0.82367-0.64705,1.81173-1.05585,2.87666-1.17821
						c1.52259-0.17415,3.01906,0.25394,4.2178,1.20684c1.00299,0.79718,1.69632,1.88166,1.9984,3.10605
						c0.13954-0.02664,0.28019-0.04817,0.42184-0.06448c3.14056-0.35876,5.98725,1.90244,6.34791,5.04522
						c0.0975,0.84896,0.00074,1.70937-0.2741,2.51228c1.91072,0.77477,3.30385,2.54726,3.54611,4.66032
						c0.24251,2.11282-0.7131,4.1553-2.39898,5.34335c0.4497,0.71962,0.73847,1.53572,0.83573,2.38456
						c0.3604,3.14277-1.90103,5.99302-5.04072,6.35389c-0.14177,0.01618-0.2838,0.02714-0.42607,0.03286
						c-0.04179,2.8373-2.18756,5.2785-5.07766,5.61061c-1.06456,0.12211-2.11978-0.05203-3.06855-0.49519
						c-0.87391,1.64116-2.51962,2.80132-4.40646,3.01817C-39.66833,39.53753-39.88237,39.5496-40.09503,39.5496z
						 M-44.28037,34.97841c0.03258,0,0.06529,0.0015,0.09812,0.00473c0.34237,0.03311,0.64507,0.23701,0.80463,0.54211
						c0.71497,1.36705,2.16294,2.13784,3.69112,1.96144c1.52731-0.17539,2.76436-1.25402,3.15126-2.74767
						c0.08643-0.33336,0.33503-0.60062,0.66099-0.71054c0.32621-0.10967,0.68549-0.0478,0.95573,0.16556
						c0.77131,0.60822,1.73314,0.88232,2.70703,0.76967c2.02353-0.23241,3.48095-2.0695,3.24863-4.09506
						c-0.01418-0.12411-0.03507-0.24971-0.06206-0.37307c-0.07338-0.33535,0.02674-0.68502,0.26626-0.93062
						c0.23965-0.24548,0.586-0.35415,0.92315-0.28855c0.37185,0.07232,0.75091,0.08726,1.12798,0.04382
						c2.0234-0.23253,3.4807-2.0695,3.24863-4.09505c-0.09676-0.84361-0.46811-1.60605-1.07376-2.20506
						c-0.2445-0.24174-0.35071-0.59041-0.28256-0.92751c0.06815-0.33722,0.30146-0.61718,0.62057-0.74477
						c1.54286-0.61705,2.48827-2.20045,2.29899-3.85045c0-0.00013,0-0.00013,0-0.00013
						c-0.18928-1.65012-1.46824-2.97796-3.11059-3.22904c-0.33976-0.05191-0.63053-0.27174-0.77305-0.58456
						c-0.14277-0.31295-0.11814-0.67668,0.06517-0.96759c0.45418-0.72062,0.64321-1.54755,0.54646-2.39128
						c-0.23256-2.02543-2.06792-3.48547-4.09132-3.25157c-0.37658,0.04319-0.7427,0.14365-1.08831,0.29838
						c-0.31303,0.14029-0.67554,0.11328-0.96444-0.07145s-0.46574-0.50265-0.47022-0.84585
						c-0.00174-0.1266-0.00983-0.25357-0.024-0.37755c-0.11255-0.98141-0.60006-1.86012-1.37286-2.47431
						c-0.77255-0.61406-1.73749-0.89029-2.71835-0.77763c-0.97427,0.11191-1.84879,0.59614-2.46241,1.36369
						c-0.21502,0.26863-0.55068,0.41079-0.89343,0.3778C-39.59534,4.5332-39.89804,4.3293-40.0576,4.0242
						c-0.71497-1.36717-2.16381-2.13858-3.69125-1.96145c-1.52731,0.17539-2.76424,1.25402-3.15113,2.74767
						c-0.08631,0.33336-0.33491,0.6005-0.66099,0.71041c-0.32621,0.10992-0.68537,0.04768-0.95573-0.16531
						c-0.77156-0.60834-1.73277-0.88182-2.70703-0.76979c-2.02353,0.23253-3.48082,2.0695-3.24851,4.09505
						c0.01443,0.12572,0.03519,0.25133,0.06181,0.37307c0.07338,0.33535-0.02674,0.68502-0.26626,0.93062
						c-0.23978,0.24535-0.58662,0.35402-0.92315,0.28855c-0.37172-0.07232-0.75091-0.08689-1.12773-0.04382
						c-0.98011,0.11253-1.858,0.60062-2.47161,1.37402c-0.61349,0.7734-0.88945,1.73975-0.7769,2.72091
						c0.09675,0.84398,0.46785,1.60643,1.07326,2.20506c0.2445,0.24174,0.3507,0.59054,0.28255,0.92763
						c-0.06803,0.3371-0.30133,0.61718-0.62045,0.74477c-1.54273,0.61705-2.48802,2.20045-2.29874,3.85057
						c0.18916,1.65012,1.46836,2.97796,3.11059,3.22904c0.33964,0.05191,0.63028,0.27174,0.77292,0.58469
						c0.14277,0.31282,0.11827,0.67668-0.06517,0.96746c-0.45405,0.7205-0.64296,1.5473-0.54621,2.39116
						c0.23231,2.02555,2.0673,3.48585,4.09107,3.25169c0.37645-0.04319,0.74258-0.14365,1.08818-0.29838
						c0.31302-0.14029,0.67554-0.11328,0.96444,0.07145s0.46574,0.50266,0.47022,0.84585
						c0.00174,0.12473,0.00982,0.25208,0.02425,0.37854c0.23231,2.02493,2.06705,3.48323,4.0912,3.25095
						c0.97427-0.1119,1.84867-0.59626,2.46228-1.36369C-44.8813,35.11795-44.58792,34.97841-44.28037,34.97841z"/>
					<g id="Shape_52_" transform="translate(0.000000, 19.120287)">
						<path fill="#7FDED2" d="M9.61506,33.81334c0-1.99043-1.27651-3.6784-3.05315-4.30024
							c1.00822-0.83628,1.65068-2.09883,1.65068-3.51183c0-2.36256-1.7954-4.30511-4.09492-4.53598
							c0.4874-0.72584,0.77216-1.59936,0.77216-2.53965c0-2.518-2.03928-4.55921-4.55492-4.55921
							c-0.40531,0-0.7962,0.05811-1.17025,0.15749c0.09928-0.37417,0.15733-0.76518,0.15733-1.17063
							c0-2.518-2.0394-4.55921-4.55503-4.55921c-0.87697,0-1.69311,0.25241-2.3881,0.68223
							c0.00974-0.12152,0.01863-0.24333,0.01863-0.36737c0-2.51794-2.03941-4.5592-4.55492-4.5592
							c-1.15619,0-2.2084,0.43469-3.01169,1.14507c-0.3797-2.13403-2.23869-3.75565-4.4799-3.75565
							c-1.59672,0-2.99931,0.82395-3.81257,2.0687c-0.67756-1.6668-2.30973-2.84308-4.21836-2.84308
							s-3.5408,1.17629-4.21836,2.84308c-0.81326-1.24474-2.21574-2.0687-3.81257-2.0687
							c-2.24121,0-4.10008,1.62162-4.47991,3.75565c-0.80317-0.71038-1.8555-1.14507-3.01157-1.14507
							c-2.51563,0-4.55492,2.04127-4.55492,4.5592c0,0.12404,0.00877,0.24586,0.01851,0.36737
							c-0.69499-0.42981-1.51114-0.68223-2.3881-0.68223c-2.51563,0-4.55492,2.04121-4.55492,4.55921
							c0,0.40545,0.05806,0.79646,0.15722,1.17063c-0.37405-0.09938-0.76494-0.15749-1.17025-0.15749
							c-2.51563,0-4.55491,2.04121-4.55491,4.55921c0,0.94029,0.28487,1.81382,0.77215,2.53965
							c-2.29951,0.23088-4.09491,2.17343-4.09491,4.53598c0,1.413,0.64258,2.67549,1.65068,3.51177
							c-1.77665,0.62183-3.05316,2.30986-3.05316,4.30029c0,1.99055,1.27651,3.67852,3.05316,4.3003
							c-1.0081,0.83628-1.65068,2.09883-1.65068,3.51189c0,2.36244,1.7954,4.30505,4.09491,4.53592
							c-0.48729,0.72584-0.77215,1.59937-0.77215,2.53966c0,2.51799,2.03928,4.55926,4.55491,4.55926
							c0.40531,0,0.7962-0.05811,1.17025-0.1576c-0.09916,0.37423-0.15722,0.76518-0.15722,1.17063
							c0,2.518,2.03929,4.55927,4.55492,4.55927c0.87697,0,1.69311-0.25235,2.3881-0.68222
							c-0.00974,0.12151-0.01851,0.24333-0.01851,0.36731c0,2.51799,2.03928,4.5592,4.55492,4.5592
							c1.15607,0,2.2084-0.43457,3.01157-1.14501c0.37983,2.13409,2.23882,3.75565,4.47991,3.75565
							c1.59683,0,2.99931-0.82401,3.81257-2.06869c0.67756,1.66685,2.30973,2.84301,4.21836,2.84301
							s3.54081-1.17616,4.21836-2.84301c0.81326,1.24468,2.21585,2.06869,3.81257,2.06869c2.24121,0,4.1002-1.62156,4.4799-3.75565
							c0.80329,0.71044,1.8555,1.14501,3.01169,1.14501c2.51551,0,4.55492-2.04121,4.55492-4.5592
							c0-0.12399-0.00889-0.2458-0.01863-0.36731c0.69499,0.42987,1.51114,0.68222,2.3881,0.68222
							c2.51562,0,4.55503-2.04126,4.55503-4.55927c0-0.40545-0.05805-0.7964-0.15733-1.17063
							c0.37405,0.09949,0.76494,0.1576,1.17025,0.1576c2.51563,0,4.55492-2.04126,4.55492-4.55926
							c0-0.9403-0.28475-1.81382-0.77216-2.53966c2.29951-0.23087,4.09492-2.17348,4.09492-4.53592
							c0-1.41306-0.64246-2.67561-1.65068-3.51189C8.33855,37.49186,9.61506,35.80389,9.61506,33.81334z"/>
						<path fill="#33475B" d="M-27.6799,67.48165c-1.74769,0-3.34787-0.80464-4.38557-2.1341
							c-0.99976,0.86813-2.28569,1.35983-3.64536,1.35983c-2.19701,0-4.13174-1.27718-5.03363-3.18547
							c-0.75974,0.37543-1.59957,0.57485-2.45793,0.57485c-2.68439,0-4.93177-1.90954-5.45746-4.44273
							c-0.47631,0.13095-0.96941,0.19842-1.467,0.19842c-3.07117,0-5.57013-2.49908-5.57374-5.57239
							c-3.07066-0.00311-5.56789-2.50456-5.56789-5.57899c0-0.63311,0.10583-1.25402,0.31116-1.84132
							c-2.14441-0.78896-3.63391-2.84178-3.63391-5.23418c0-1.16701,0.36115-2.2851,1.01841-3.21609
							c-1.48864-1.02323-2.42086-2.73174-2.42086-4.59609s0.93223-3.57298,2.42086-4.59621
							c-0.65738-0.931-1.01841-2.04883-1.01841-3.21597c0-2.3924,1.4895-4.44522,3.63391-5.2343
							c-0.20533-0.5873-0.31116-1.20821-0.31116-1.84132c0-3.07431,2.49723-5.57576,5.56789-5.57887
							c0.00361-3.07319,2.50257-5.57239,5.57374-5.57239c0.49758,0,0.99056,0.06734,1.467,0.19855
							c0.52568-2.53331,2.77307-4.44285,5.45746-4.44285c0.85836,0,1.69819,0.19942,2.45793,0.57485
							c0.90189-1.90829,2.83662-3.18547,5.03363-3.18547c1.35979,0,2.64572,0.4917,3.64536,1.35983
							C-31.02766,0.94964-29.42759,0.145-27.6799,0.145s3.34775,0.80465,4.38544,2.13423
							c0.99989-0.86813,2.28581-1.35983,3.64536-1.35983c2.19701,0,4.13187,1.27718,5.03375,3.1856
							c0.75961-0.37556,1.59957-0.57498,2.45793-0.57498c2.68452,0,4.93177,1.90954,5.45758,4.44273
							c0.47631-0.13108,0.96929-0.19842,1.46675-0.19842c3.07129,0,5.57026,2.49921,5.57399,5.57239
							c3.07055,0.00336,5.56777,2.50468,5.56777,5.57887c0,0.63324-0.10596,1.25402-0.31116,1.84145
							c2.14453,0.78896,3.63392,2.84178,3.63392,5.23418c0,1.16713-0.36115,2.28522-1.01854,3.21609
							c1.48863,1.02323,2.42087,2.73174,2.42087,4.59609s-0.93224,3.57285-2.42087,4.59609
							c0.65739,0.931,1.01854,2.04896,1.01854,3.21609c0,2.3924-1.48939,4.44522-3.63392,5.23418
							c0.2052,0.5873,0.31116,1.20821,0.31116,1.84133c0,3.07418-2.49722,5.57563-5.56777,5.57899
							c-0.00373,3.07331-2.5027,5.57239-5.57399,5.57239c-0.49746,0-0.99044-0.06722-1.46675-0.19842
							c-0.52581,2.53319-2.77307,4.44273-5.45758,4.44273c-0.85836,0-1.69831-0.19942-2.45793-0.57485
							c-0.90189,1.90829-2.83674,3.18547-5.03375,3.18547c-1.35955,0-2.64547-0.4917-3.64536-1.35983
							C-24.33215,66.67701-25.93222,67.48165-27.6799,67.48165z M-31.89858,62.59926c0.03271,0,0.06542,0.00149,0.09825,0.00473
							c0.3772,0.0366,0.70291,0.27934,0.84567,0.63062c0.54509,1.34116,1.83051,2.20755,3.27475,2.20755
							c1.44424,0,2.72942-0.86639,3.27463-2.20755c0.14277-0.35129,0.4686-0.59402,0.84567-0.63062
							c0.37583-0.03759,0.7432,0.13942,0.95064,0.45684c0.65763,1.00631,1.76398,1.60705,2.95986,1.60705
							c1.71423,0,3.1765-1.22588,3.47697-2.9146c0.06467-0.36299,0.31986-0.66273,0.66783-0.78423
							c0.34797-0.12125,0.734-0.04506,1.00983,0.19892c0.64843,0.57336,1.47844,0.88929,2.33705,0.88929
							c1.94978,0,3.53616-1.58788,3.53616-3.53949c0-0.0966-0.00796-0.19145-0.01542-0.28631
							c-0.03059-0.38315,0.1567-0.75112,0.48452-0.95128c0.32733-0.20066,0.73997-0.19942,1.0668,0.00274
							c0.56039,0.34681,1.20086,0.53004,1.85228,0.53004c1.95003,0,3.53641-1.58788,3.53641-3.53962
							c0-0.29452-0.04153-0.60037-0.12337-0.90908c-0.09327-0.35141,0.00771-0.72585,0.2644-0.98278
							c0.25719-0.25705,0.63152-0.35751,0.98223-0.26427c0.30743,0.08191,0.61311,0.12336,0.90836,0.12336
							c1.94978,0,3.53616-1.58776,3.53616-3.53949c0-0.70581-0.20719-1.38722-0.59894-1.97079
							c-0.19998-0.29751-0.22908-0.6783-0.07661-1.00282c0.15247-0.32439,0.46387-0.54498,0.8203-0.5807
							c1.81173-0.18187,3.17799-1.69568,3.17799-3.5212c0-1.05709-0.46736-2.05095-1.2822-2.72675
							c-0.2828-0.23465-0.41761-0.60361-0.35245-0.9656c0.06492-0.36199,0.31962-0.66087,0.66634-0.78224
							c1.418-0.49618,2.37063-1.83746,2.37063-3.33759s-0.95263-2.84141-2.37063-3.33771
							c-0.34697-0.12137-0.60143-0.42037-0.66634-0.78236c-0.06516-0.36187,0.06965-0.73083,0.3527-0.96548
							c0.81458-0.67568,1.28194-1.66954,1.28194-2.72663c0-1.82551-1.36626-3.33933-3.17799-3.52132
							c-0.35643-0.03573-0.66784-0.25631-0.8203-0.58083c-0.15247-0.3244-0.12337-0.70518,0.07661-1.0027
							c0.39175-0.58357,0.59894-1.26498,0.59894-1.97079c0-1.95161-1.58639-3.53937-3.53616-3.53937
							c-0.29499,0-0.60068,0.04145-0.9091,0.12336c-0.35095,0.09286-0.72479-0.0076-0.98173-0.26465
							c-0.25669-0.25705-0.35717-0.63137-0.26415-0.98265c0.08183-0.30859,0.12337-0.61444,0.12337-0.90896
							c0-1.95174-1.58639-3.53949-3.53642-3.53949c-0.65142,0-1.29189,0.18324-1.85253,0.53004
							c-0.32633,0.20203-0.73897,0.20315-1.06679,0.00261c-0.32758-0.20041-0.51487-0.56813-0.48428-0.95129
							c0.00746-0.09473,0.01542-0.18958,0.01542-0.28631c0-1.95161-1.58639-3.53937-3.53616-3.53937
							c-0.85861,0-1.68861,0.31593-2.33705,0.88942c-0.27608,0.24436-0.66261,0.31992-1.00983,0.19867
							c-0.34797-0.12125-0.60316-0.42112-0.66783-0.78398c-0.30046-1.68896-1.76274-2.91472-3.47697-2.91472
							c-1.19588,0-2.30223,0.60075-2.95986,1.60717c-0.20744,0.31718-0.57506,0.49369-0.95064,0.45684
							c-0.37707-0.03647-0.7029-0.27946-0.84567-0.63074c-0.54521-1.34116-1.83064-2.20767-3.27463-2.20767
							c-1.44424,0-2.72954,0.86651-3.27475,2.20767c-0.14277,0.35129-0.4686,0.59427-0.84567,0.63074
							c-0.3772,0.03697-0.74332-0.13954-0.95064-0.45697c-0.65739-1.00631-1.76398-1.60705-2.95986-1.60705
							c-1.71411,0-3.17638,1.22577-3.47697,2.91472c-0.06454,0.36286-0.31987,0.66274-0.66758,0.78398
							c-0.34772,0.12137-0.73388,0.04543-1.00996-0.19867C-41.5139,5.88543-42.3439,5.5695-43.20238,5.5695
							c-1.94978,0-3.53604,1.58776-3.53604,3.53937c0,0.09672,0.00759,0.19158,0.01517,0.28631
							c0.03059,0.38315-0.1567,0.75087-0.4844,0.95129c-0.32757,0.20054-0.74009,0.19942-1.06667-0.00261
							c-0.56063-0.3468-1.20123-0.53004-1.85253-0.53004c-1.9499,0-3.53616,1.58776-3.53616,3.53949
							c0,0.29477,0.04142,0.60075,0.12312,0.90934c0.09315,0.35116-0.00771,0.72547-0.2644,0.98241
							c-0.25681,0.25705-0.63115,0.35776-0.9816,0.26452c-0.30817-0.08191-0.61398-0.12336-0.90898-0.12336
							c-1.94978,0-3.53604,1.58776-3.53604,3.53937c0,0.70581,0.20707,1.38722,0.59894,1.97079
							c0.19985,0.29763,0.22883,0.6783,0.07636,1.00282c-0.15235,0.3244-0.46375,0.54498-0.82018,0.5807
							c-1.81173,0.18187-3.17787,1.69581-3.17787,3.52132c0,1.05697,0.46724,2.05082,1.28194,2.72676
							c0.28293,0.23465,0.41762,0.60361,0.3527,0.96548c-0.06504,0.36199-0.31974,0.66087-0.66647,0.78224
							c-1.418,0.49618-2.37062,1.83759-2.37062,3.33771s0.95263,2.8414,2.37062,3.33759
							c0.34673,0.12137,0.60143,0.42025,0.66647,0.78224c0.06492,0.36186-0.06977,0.73083-0.35257,0.96547
							c-0.81483,0.67593-1.28207,1.66991-1.28207,2.72688c0,1.82564,1.36614,3.33933,3.17775,3.52119
							c0.35643,0.03572,0.66796,0.25631,0.8203,0.5807c0.15247,0.3244,0.12349,0.70518-0.07636,1.00282
							c-0.39187,0.58356-0.59894,1.26497-0.59894,1.97078c0,1.95174,1.58627,3.53949,3.53604,3.53949
							c0.29549,0,0.60105-0.04145,0.90836-0.12336c0.35083-0.09361,0.72517,0.00722,0.98198,0.26415
							c0.25694,0.25693,0.3578,0.63124,0.26477,0.98265c-0.08183,0.30871-0.12325,0.61469-0.12325,0.90933
							c0,1.95174,1.58627,3.53962,3.53616,3.53962c0.65129,0,1.2919-0.18324,1.8524-0.53004
							c0.32658-0.20216,0.7391-0.2034,1.06667-0.00274c0.3277,0.20017,0.51512,0.56813,0.48452,0.95129
							c-0.00759,0.09486-0.01517,0.18971-0.01517,0.28631c0,1.95161,1.58626,3.53949,3.53604,3.53949
							c0.85848,0,1.68849-0.31593,2.33704-0.88929c0.27597-0.24398,0.66199-0.31967,1.00996-0.19892
							c0.34772,0.12149,0.60304,0.42124,0.66758,0.78423c0.30059,1.68871,1.76286,2.9146,3.47697,2.9146
							c1.19588,0,2.30235-0.60075,2.95986-1.60705C-32.56168,62.77104-32.23996,62.59926-31.89858,62.59926z"/>
					</g>
					<g transform="translate(8.659708, 38.750449)">
						<g transform="translate(46.354906, 29.062837)">
							<ellipse id="Oval_6_" fill="#D19781" cx="-59.46643" cy="6.42895" rx="5.32822" ry="5.33323"/>
							<path id="Shape_53_" fill="#33475B" d="M-59.46645,12.78195c-3.49985,0-6.34703-2.84987-6.34703-6.35301
								c0-3.50302,2.84719-6.35301,6.34703-6.35301c3.49985,0,6.34704,2.84999,6.34704,6.35301
								C-53.11941,9.93208-55.9666,12.78195-59.46645,12.78195z M-59.46645,2.11541c-2.37635,0-4.30946,1.93506-4.30946,4.31352
								c0,2.37858,1.93311,4.31352,4.30946,4.31352s4.30946-1.93493,4.30946-4.31352
								C-55.15699,4.05047-57.0901,2.11541-59.46645,2.11541z"/>
						</g>
						<g transform="translate(0.000000, 29.062837)">
							<ellipse id="Oval_7_" fill="#D19781" cx="-59.56779" cy="6.42895" rx="5.32822" ry="5.33323"/>
							<path id="Shape_54_" fill="#33475B" d="M-59.56781,12.78195c-3.49973,0-6.34703-2.84987-6.34703-6.35301
								c0-3.50302,2.84731-6.35301,6.34703-6.35301s6.34704,2.84999,6.34704,6.35301
								C-53.22077,9.93208-56.06808,12.78195-59.56781,12.78195z M-59.56781,2.11541c-2.37622,0-4.30946,1.93506-4.30946,4.31352
								c0,2.37858,1.93324,4.31352,4.30946,4.31352s4.30946-1.93493,4.30946-4.31352
								C-55.25835,4.05047-57.19159,2.11541-59.56781,2.11541z"/>
						</g>
						<g id="Shape_55_" transform="translate(5.348643, 0.000000)">
							<path fill="#E0BAAB" d="M-41.65984,59.57206h-0.00005c-12.84424,0-23.25655-10.42211-23.25655-23.27844v-11.8421
								c0-12.85633,10.41231-23.27845,23.25655-23.27845h0.00005c12.84424,0,23.25654,10.42212,23.25654,23.27845v11.8421
								C-18.4033,49.14995-28.8156,59.57206-41.65984,59.57206z"/>
							<path fill="#33475B" d="M-41.6599,60.59188c-13.38541,0-24.27534-10.90006-24.27534-24.2982V24.45155
								c0-13.39802,10.88992-24.2982,24.27534-24.2982s24.27546,10.90018,24.27546,24.2982v11.84213
								C-17.38444,49.69182-28.27449,60.59188-41.6599,60.59188z M-41.6599,2.19284c-12.26191,0-22.23776,9.98525-22.23776,22.2587
								v11.84213c0,12.27358,9.97585,22.25871,22.23776,22.25871s22.23788-9.98512,22.23788-22.25871V24.45155
								C-19.42202,12.17809-29.39799,2.19284-41.6599,2.19284z"/>
						</g>
						<path id="Shape_56_" fill="#33475B" d="M-44.71952,30.36685c0,1.57648-1.28759,2.86529-2.86259,2.86529
							c-1.575,0-2.85116-1.28881-2.85116-2.86529c0-1.57648,1.27615-2.85384,2.85116-2.85384
							c0.26439,0,0.52879,0.03455,0.78174,0.11511c-0.32193,0.2416-0.51735,0.63288-0.51735,1.07016
							c0,0.78248,0.63229,1.40385,1.40252,1.40385c0.44838,0,0.83929-0.19561,1.09217-0.51784
							C-44.75404,29.82597-44.71952,30.09061-44.71952,30.36685z"/>
						<path id="Shape_57_" fill="#33475B" d="M-22.18917,30.36685c0,1.57648-1.28759,2.86529-2.86259,2.86529
							s-2.85115-1.28881-2.85115-2.86529c0-1.57648,1.27615-2.85384,2.85115-2.85384c0.2644,0,0.52879,0.03455,0.78175,0.11511
							c-0.32193,0.2416-0.51735,0.63288-0.51735,1.07016c0,0.78248,0.63228,1.40385,1.40252,1.40385
							c0.44838,0,0.83929-0.19561,1.09217-0.51784C-22.2237,29.82597-22.18917,30.09061-22.18917,30.36685z"/>
						<g id="Shape_58_" transform="translate(24.960334, 29.317774)">
							<path fill="#E0BAAB" d="M-62.88685,1.0548l-1.83635,6.01031c-0.36692,1.20092,0.53053,2.415,1.78517,2.415h2.52639"/>
							<path fill="#33475B" d="M-60.41161,10.49996h-2.52645c-0.92427,0-1.7697-0.42647-2.31951-1.17037
								c-0.54981-0.74365-0.71024-1.67775-0.43987-2.56281l1.83635-6.01019c0.16454-0.53863,0.73449-0.84149,1.27224-0.67693
								c0.538,0.16469,0.84082,0.73481,0.67629,1.27344l-1.83636,6.01019c-0.07947,0.25992-0.03233,0.53452,0.12934,0.75336
								c0.16155,0.21859,0.4099,0.34382,0.68151,0.34382h2.52645c0.56262,0,1.01879,0.4566,1.01879,1.01975
								S-59.84899,10.49996-60.41161,10.49996z"/>
						</g>
						<g id="Oval_8_" transform="translate(11.716075, 35.436266)">
							<ellipse fill="#D19781" cx="-64.91792" cy="1.09424" rx="1.03774" ry="1.03871"/>
							<ellipse fill="#D19781" cx="-62.84245" cy="3.55157" rx="1.03774" ry="1.03871"/>
						</g>
						<g id="Oval_9_" transform="translate(10.697286, 36.201077)">
							<ellipse fill="#D19781" cx="-32.17724" cy="1.03873" rx="1.03773" ry="1.03871"/>
							<ellipse fill="#D19781" cx="-34.63342" cy="3.56694" rx="1.03774" ry="1.03871"/>
							<ellipse fill="#D19781" cx="-31.1395" cy="4.15487" rx="1.03773" ry="1.03871"/>
							<ellipse fill="#D19781" cx="-64.93686" cy="3.56694" rx="1.03774" ry="1.03871"/>
						</g>
					</g>
					<g id="Shape_59_" transform="translate(11.716075, 29.062837)">
						<path fill="#7FDED2" d="M-12.18413,11.85866c0,2.518-2.03928,4.55927-4.55492,4.55927
							c-0.40531,0-0.79619-0.05811-1.17025-0.15761c0.09928,0.37423,0.15734,0.76518,0.15734,1.17063
							c0,2.518-2.03941,4.55926-4.55503,4.55926c-0.87697,0-1.69311-0.25235-2.3881-0.68223
							c0.00973,0.12152,0.01862,0.24333,0.01862,0.36731c0,2.518-2.0394,4.5592-4.55492,4.5592
							c-1.15619,0-2.2084-0.43456-3.01169-1.145c-0.3797,2.13408-2.23869,3.75564-4.4799,3.75564
							c-1.59671,0-2.99931-0.82401-3.81257-2.0687c-0.67756,1.66685-2.30973,2.84302-4.21836,2.84302
							c-1.90863,0-3.54081-1.17617-4.21836-2.84302c-0.81326,1.24468-2.21573,2.0687-3.81257,2.0687
							c-2.2411,0-4.10008-1.62156-4.47991-3.75564c-0.80317,0.71044-1.8555,1.145-3.01157,1.145
							c-2.51563,0-4.55492-2.04121-4.55492-4.5592c0-0.12398,0.00877-0.2458,0.01851-0.36731l-0.01851-11.17686l14.41886-10.03151
							l26.53912,1.29813L-12.18413,11.85866z"/>
						<g transform="translate(0.000000, 10.707361)">
							<path fill="#7FDED2" d="M-64.81271,10.60063c-0.00974,0.12152-0.01851,0.24333-0.01851,0.36731
								c0,2.518,2.03928,4.55921,4.55491,4.55921c1.15607,0,2.2084-0.43456,3.01157-1.145
								c0.37983,2.13408,2.23882,3.75564,4.47991,3.75564c1.59684,0,2.99931-0.82401,3.81257-2.0687
								c0.67756,1.66685,2.30973,2.84302,4.21836,2.84302s3.5408-1.17617,4.21836-2.84302
								c0.81326,1.24468,2.21585,2.0687,3.81257,2.0687c2.24122,0,4.1002-1.62156,4.47991-3.75564
								c0.80329,0.71044,1.8555,1.145,3.01169,1.145c2.51552,0,4.55491-2.04121,4.55491-4.55921
								c0-0.12398-0.00889-0.24579-0.01862-0.36731c0.69498,0.42987,1.51113,0.68223,2.3881,0.68223
								c2.51562,0,4.55503-2.04126,4.55503-4.55926c0-0.40545-0.05806-0.7964-0.15734-1.17063
								c0.37406,0.09949,0.76494,0.15761,1.17025,0.15761c2.51563,0,4.55492-2.04127,4.55492-4.55927"/>
							<path fill="#33475B" d="M-44.75395,19.93189c-1.74769,0-3.34775-0.80452-4.38544-2.1341
								c-0.99976,0.86801-2.28568,1.35971-3.64548,1.35971c-2.19701,0-4.13162-1.27718-5.0335-3.18547
								c-0.75974,0.37544-1.59945,0.57485-2.45793,0.57485c-3.07341,0-5.57375-2.50269-5.57375-5.57899
								c0-0.1622,0.0107-0.31046,0.02177-0.44851c0.0449-0.56129,0.53339-0.98128,1.09676-0.93523
								c0.56088,0.04481,0.97912,0.53639,0.93435,1.0978c-0.00759,0.0946-0.0153,0.18934-0.0153,0.28593
								c0,1.95174,1.58626,3.53949,3.53616,3.53949c0.8586,0,1.68861-0.31581,2.33692-0.88942
								c0.27596-0.24398,0.66236-0.31992,1.00996-0.1988c0.34785,0.12137,0.60316,0.42124,0.66771,0.78411
								c0.30059,1.68896,1.76286,2.91472,3.47684,2.91472c1.19601,0,2.3026-0.60075,2.95998-1.60705
								c0.20744-0.31743,0.57605-0.49357,0.95064-0.45685c0.3772,0.03647,0.7029,0.27946,0.84567,0.63075
								c0.54509,1.34103,1.83051,2.20755,3.27463,2.20755c1.44424,0,2.72966-0.86651,3.27475-2.20755
								c0.14277-0.35129,0.46848-0.59427,0.84567-0.63075c0.37658-0.03734,0.7432,0.13942,0.95064,0.45685
								c0.65739,1.00631,1.76398,1.60705,2.95986,1.60705c1.71423,0,3.1765-1.22577,3.47697-2.91472
								c0.06467-0.36286,0.32011-0.66274,0.66784-0.78411c0.34722-0.12075,0.73375-0.04531,1.00983,0.1988
								c0.64843,0.57361,1.47844,0.88942,2.33704,0.88942c1.94978,0,3.53616-1.58776,3.53616-3.53949
								c0-0.0966-0.00796-0.19133-0.01542-0.28593c-0.03059-0.38315,0.1567-0.75099,0.48427-0.95141
								c0.32808-0.20041,0.73996-0.1993,1.0668,0.00261c0.56063,0.34668,1.20111,0.52991,1.85252,0.52991
								c1.94978,0,3.53616-1.58776,3.53616-3.53949c0-0.29514-0.04154-0.60099-0.12312-0.90896
								c-0.09327-0.35141,0.00746-0.72572,0.2644-0.98278c0.25694-0.25718,0.63077-0.35788,0.98198-0.2644
								c0.30793,0.08178,0.61361,0.12336,0.9086,0.12336c1.94978,0,3.53616-1.58776,3.53616-3.53949
								c0-0.56315,0.45617-1.01975,1.01879-1.01975c0.56262,0,1.01879,0.4566,1.01879,1.01975
								c0,3.07443-2.49723,5.57588-5.56802,5.57899c-0.00373,3.07319-2.5027,5.57227-5.57374,5.57227
								c-0.49745,0-0.99043-0.06734-1.46675-0.19842c-0.52581,2.53331-2.77307,4.44273-5.45758,4.44273
								c-0.85861,0-1.69831-0.19942-2.45793-0.57485c-0.90189,1.90829-2.83674,3.18547-5.03375,3.18547
								c-1.35979,0-2.6456-0.4917-3.64536-1.35971C-41.40607,19.12737-43.00626,19.93189-44.75395,19.93189z"/>
						</g>
					</g>
					<path id="Shape_60_" fill="#FFFFFF" d="M-52.17587,42.68179c-0.37981,0-0.74444-0.21361-0.91954-0.57933
						c-0.44112-0.92153-0.59632-1.94415-0.44871-2.95729c0.40306-2.76784,2.95364-4.70227,5.71502-4.35509
						c0.21814-1.31514,0.92353-2.47456,1.99454-3.27373c1.09875-0.81996,2.45072-1.1624,3.8069-0.9646
						c0.41861,0.06112,0.82615,0.17402,1.21416,0.33498c0.8458-2.18228,3.11357-3.57609,5.52412-3.22406
						c1.23518,0.18025,2.36167,0.80738,3.17202,1.76589c0.36352,0.42996,0.31004,1.0734-0.11951,1.43714
						c-0.42955,0.36373-1.07239,0.31008-1.43578-0.11963c-0.48912-0.57846-1.16765-0.95676-1.91072-1.06531
						c-1.6865-0.24448-3.26107,0.92776-3.50731,2.61734c-0.01194,0.0829-0.01729,0.16618-0.02264,0.24921
						c-0.02475,0.38366-0.26303,0.72075-0.6161,0.87187c-0.35294,0.151-0.76098,0.09087-1.05547-0.15647
						c-0.44162-0.37096-0.97315-0.61058-1.53677-0.69286c-0.81769-0.11913-1.6324,0.08739-2.29514,0.58158
						c-0.66236,0.49431-1.09278,1.2173-1.21205,2.03576c-0.03706,0.25494-0.03967,0.52506-0.00784,0.80253
						c0.04154,0.36112-0.11205,0.71701-0.40319,0.93423s-0.67604,0.26291-1.00959,0.12
						c-0.25656-0.10992-0.51611-0.18448-0.77143-0.22182c-0.81694-0.11913-1.6324,0.08738-2.29501,0.58157
						c-0.66236,0.49431-1.09279,1.2173-1.21205,2.03576c-0.08892,0.61071,0.00448,1.22689,0.27012,1.7817
						c0.24313,0.50788,0.02885,1.11684-0.47855,1.36033C-51.87838,42.64955-52.02824,42.68179-52.17587,42.68179z"/>
					<path id="Shape_61_" fill="#FFFFFF" d="M-50.76035,13.45837c-0.05833,0-0.1174-0.00498-0.17685-0.01544
						c-0.55429-0.09697-0.9249-0.62539-0.82789-1.1802c0.07835-0.44863,0.2103-0.8761,0.39225-1.27058
						c1.18618-2.57128,4.24106-3.69684,6.80942-2.50979c0.38366,0.17726,0.74208,0.40095,1.06816,0.6651
						c0.58339-0.75834,1.36912-1.33879,2.2883-1.67763c1.28605-0.47365,2.67979-0.41813,3.92381,0.15685
						c1.13308,0.52357,2.03547,1.44498,2.54088,2.59431c0.22659,0.51548-0.00709,1.11722-0.52208,1.34415
						c-0.51524,0.22693-1.11629-0.00709-1.34288-0.52257c-0.30506-0.69373-0.84841-1.24929-1.53005-1.56423
						c-1.54821-0.71614-3.39016-0.0371-4.10525,1.51294c-0.03532,0.0768-0.06392,0.1551-0.09278,0.2334
						c-0.13282,0.3605-0.45679,0.61581-0.83821,0.66012c-0.38018,0.04469-0.75514-0.12946-0.96718-0.45012
						c-0.31824-0.48112-0.75974-0.86178-1.27684-1.10066c-1.54833-0.71626-3.39029-0.03697-4.10538,1.51282
						c-0.10795,0.23415-0.18704,0.49245-0.23517,0.76742C-49.84466,13.10958-50.27484,13.45837-50.76035,13.45837z"/>
					<path id="Shape_62_" fill="#54BEA6" d="M-23.64616,51.20053c-0.24923,0-0.50019-0.01805-0.75116-0.05477
						c-1.23493-0.18012-2.36142-0.80714-3.1719-1.76577c-0.36351-0.42995-0.31004-1.0734,0.11951-1.43713
						c0.42905-0.36411,1.07177-0.31046,1.43591,0.11963c0.489,0.57846,1.16753,0.95676,1.91048,1.06518
						c0.81682,0.1195,1.63315-0.08714,2.29526-0.58157c0.66236-0.49431,1.09291-1.2173,1.21205-2.03576
						c0.01219-0.08403,0.01741-0.1673,0.02288-0.25033c0.02512-0.3834,0.2634-0.72,0.6166-0.87087
						c0.3527-0.151,0.76086-0.09025,1.05486,0.15672c0.44149,0.37095,0.97302,0.61045,1.53664,0.69274
						c0.81732,0.11888,1.6329-0.08727,2.29526-0.58158c0.66236-0.49431,1.09291-1.21717,1.21205-2.03564
						c0.03706-0.25506,0.03979-0.52494,0.00771-0.80215c-0.06442-0.55954,0.33628-1.06543,0.89517-1.13004
						c0.55889-0.06523,1.0643,0.33647,1.12897,0.89602c0.05223,0.45286,0.04701,0.90037-0.01567,1.33033
						c-0.19774,1.35759-0.91159,2.55671-2.01046,3.37667c-1.09888,0.81983-2.45196,1.1624-3.80703,0.96448
						c-0.41811-0.06099-0.82528-0.17365-1.2128-0.33423c-0.34424,0.89278-0.93298,1.67265-1.71846,2.25871
						C-21.48546,50.84937-22.54927,51.20053-23.64616,51.20053z"/>
				</g>
				<path id="Shape_63_" fill="#33475B" d="M-42.73764,65.73618c-0.23754,0-0.47594-0.08253-0.66895-0.25096
					c-0.42421-0.37008-0.46836-1.01427-0.09875-1.43875c2.16542-2.48688,5.69052-3.36895,8.77151-2.19547
					c0.52593,0.20029,0.78996,0.78933,0.58986,1.31564c-0.20023,0.52643-0.78847,0.79045-1.3144,0.59041
					c-2.28755-0.87112-4.90392-0.21635-6.51082,1.62933C-42.17066,65.6178-42.45346,65.73618-42.73764,65.73618z"/>
				<path id="Shape_64_" fill="#33475B" d="M-12.56534,65.73618c-0.28429,0-0.5671-0.11839-0.76857-0.34979
					c-1.60678-1.84543-4.2229-2.50008-6.5107-1.62933c-0.52681,0.19992-1.11455-0.06411-1.31453-0.59042
					c-0.20023-0.5263,0.06392-1.11535,0.58973-1.31564c3.08174-1.17348,6.60646-0.29116,8.77163,2.19547
					c0.36961,0.42448,0.32558,1.06866-0.09875,1.43875C-12.08952,65.65353-12.32805,65.73618-12.56534,65.73618z"/>
				<path id="Shape_65_" fill="#33475B" d="M-27.64794,85.63721c-1.87466,0-3.73204-0.48448-5.37152-1.40116
					c-0.49124-0.2746-0.66697-0.89601-0.39262-1.38747c0.27447-0.49194,0.89529-0.66747,1.38628-0.3931
					c1.33641,0.74738,2.8503,1.14223,4.37786,1.14223c1.54883,0,3.0606-0.39386,4.37189-1.13876
					c0.489-0.27834,1.11132-0.1063,1.38889,0.38341c0.27783,0.48996,0.10621,1.11236-0.38304,1.3902
					C-23.88768,85.15149-25.74717,85.63721-27.64794,85.63721z"/>
			</g>
		</g>
	</g>
</g>
</svg>
