<svg version="1.1" id="Layer_1___IHwhaZg0" xmlns="http://www.w3.org/2000/svg" xmlns:xlink="http://www.w3.org/1999/xlink" x="0px" y="0px" viewBox="0 0 858.56 307.42334" enable-background="new 0 0 858.56 307.42334" xml:space="preserve">
<g data-svg-origin="-0.0000013382939414441353 0" transform="matrix(1,0,0,1,0,0)">
	<defs>
		<rect id="SVGID_1____IHwhaZg0" width="858.56" height="307.42334"></rect>
	</defs>
	<clipPath id="SVGID_2____IHwhaZg0">
		<use xlink:href="#SVGID_1____IHwhaZg0" overflow="visible"></use>
	</clipPath>
	<g clip-path="url(#SVGID_2____IHwhaZg0)" data-svg-origin="-0.0000013382939414441353 0" transform="matrix(1,0,0,1,0,0)">
		<g data-svg-origin="32.963871002197266 129.92333984375" transform="matrix(1,0,0,1,0,0)">
			<path fill="#54BEA6" d="M68.6591,131.42297c-21.50233,49.93506-34.19531,111.46962-34.19531,178.03241h68.38039
				C102.84418,242.89259,90.15127,181.35803,68.6591,131.42297z"></path>
			<path fill="#33475B" d="M102.84424,310.95557H34.46387c-0.82861,0-1.5-0.67188-1.5-1.5
				c0-64.7207,11.8667-126.48828,34.31738-178.625c0.2373-0.55078,0.77881-0.90723,1.37793-0.90723l0,0
				c0.59912,0,1.14111,0.35645,1.37793,0.90723c22.44385,52.14551,34.30713,113.91309,34.30713,178.625
				C104.34424,310.28369,103.67285,310.95557,102.84424,310.95557z M35.96582,307.95557h65.37646
				c-0.17773-62.42578-11.46143-122.01465-32.68359-172.69434C47.43018,185.93213,36.14355,245.521,35.96582,307.95557z"></path>
		</g>
		<g data-svg-origin="-0.0000013382939414441353 189.79248046875" transform="matrix(1,0,0,1,0,0)">
			<path fill="#7FDED2" d="M229.55951,262.03519c-0.14667,18.33591-7.32657,35.00031-18.98087,47.4202H9.47014
				C4.43128,301.75967,1.50239,292.56573,1.5,282.67914c-0.00649-26.88211,21.98279-48.92303,48.86485-48.97664
				c6.12755-0.01222,11.9938,1.10136,17.40353,3.14558c11.66832,4.40916,24.75243-0.10809,31.0684-10.86444
				c12.19952-20.77625,34.78725-34.71733,60.62537-34.69086C198.55891,191.33287,229.87219,222.93967,229.55951,262.03519z"></path>
			<path fill="#33475B" d="M210.57861,310.95557H9.47022c-0.50586,0-0.97803-0.25488-1.25488-0.67871
				C2.84326,302.07275,0.00244,292.52881,0,282.6792c-0.00635-27.77734,22.58545-50.4209,50.36182-50.47656
				c6.15527-0.00879,12.20947,1.07812,17.93701,3.24219c11.02148,4.16602,23.3208-0.13281,29.24463-10.2207
				c12.83545-21.85938,36.52979-35.43164,61.84766-35.43164c0.0249,0,0.04736,0,0.07227,0
				c19.30859,0.01953,37.38037,7.53613,50.88623,21.16504c13.50928,13.63086,20.86426,31.77539,20.70996,51.08984l-1.5-0.01172
				l1.5,0.01172c-0.14453,18.06445-7.0293,35.26562-19.38721,48.43457C211.38867,310.78369,210.99316,310.95557,210.57861,310.95557
				z M10.28906,307.95557H209.9248c11.56348-12.55469,17.99805-28.83984,18.13477-45.93164
				c0.14795-18.50977-6.89844-35.89551-19.84082-48.95508c-12.93945-13.05664-30.25537-20.25781-48.7583-20.27637
				c-0.02246,0-0.04688,0-0.06934,0c-24.26025,0-46.96094,13.00391-59.26074,33.95117
				c-6.66553,11.35156-20.49854,16.19043-32.89209,11.50781c-5.35449-2.02344-10.99609-3.04883-16.76953-3.04883
				c-0.03369,0-0.06738,0-0.10107,0C24.24268,235.25439,2.99365,256.55225,3,282.6792
				C3.00244,291.67334,5.52002,300.39502,10.28906,307.95557z"></path>
		</g>
		<g data-svg-origin="663.5038452148438 208.52685546875" transform="matrix(1,0,0,1,0,0)">
			<path fill="#7FDED2" d="M665.00543,269.60205c0.12354,15.44147,6.17004,29.47534,15.98462,39.93469h169.36267
				c4.24347-6.48093,6.71002-14.22354,6.71204-22.5495c0.00543-22.63864-18.5127-41.20032-41.15131-41.24547
				c-5.16028-0.0103-10.10052,0.92752-14.65631,2.64903c-9.82642,3.71317-20.84515-0.09102-26.16412-9.14943
				c-10.2738-17.49663-29.29596-29.23706-51.05542-29.21475C691.11243,210.06038,664.74213,236.6779,665.00543,269.60205z"></path>
			<path fill="#33475B" d="M850.35254,311.03662h-169.3623c-0.41406,0-0.81055-0.17188-1.09375-0.47363
				c-10.44824-11.13379-16.26855-25.67676-16.39062-40.94922l0,0c-0.13086-16.3291,6.08691-31.66895,17.50879-43.19336
				c11.41895-11.52246,26.69824-17.87695,43.02148-17.89355c0.02051,0,0.04297,0,0.0625,0
				c21.40625,0,41.43555,11.47266,52.28809,29.95508c4.92871,8.39453,15.16602,11.97168,24.33984,8.50586
				c4.82227-1.82227,9.9043-2.74609,15.10645-2.74609c0.02734,0,0.05469,0,0.08301,0
				c23.52246,0.04688,42.6543,19.22266,42.64844,42.74512c-0.00195,8.34375-2.40723,16.4248-6.95703,23.37207
				C851.33008,310.78174,850.8584,311.03662,850.35254,311.03662z M681.64453,308.03662h167.8877
				c3.94727-6.30273,6.03027-13.5625,6.03223-21.0498c0.00586-21.87207-17.7832-39.70215-39.6543-39.74512
				c-4.9043,0.02148-9.61719,0.84863-14.12305,2.55273c-10.54297,3.98145-22.31445-0.13477-27.9873-9.79297
				c-10.31543-17.56738-29.35547-28.47461-49.70117-28.47461c-0.02051,0-0.03906,0-0.05859,0
				c-15.51953,0.01562-30.04199,6.05469-40.89453,17.00488c-10.85449,10.95312-16.76367,25.53418-16.63965,41.05859l0,0
				C666.62012,283.89014,671.99023,297.51709,681.64453,308.03662z"></path>
		</g>
		<g data-svg-origin="770.1005859375 168.32958984375" transform="matrix(1,0,0,1,0,0)">
			<path fill="#54BEA6" d="M798.43512,169.8299c-16.87354,39.18564-26.83411,87.47379-26.83411,139.70773h53.66028
				C825.26129,257.30368,815.30072,209.01553,798.43512,169.8299z"></path>
			<path fill="#33475B" d="M825.26172,311.0376h-53.66113c-0.82812,0-1.5-0.67188-1.5-1.5
				c0-50.83203,9.32129-99.34668,26.95703-140.30078c0.2373-0.55078,0.7793-0.90723,1.37793-0.90723l0,0
				c0.59961,0,1.14062,0.35645,1.37793,0.90723c17.62988,40.96191,26.94824,89.47656,26.94824,140.30078
				C826.76172,310.36572,826.08984,311.0376,825.26172,311.0376z M773.10352,308.0376h50.65527
				c-0.17676-48.53125-8.91504-94.87012-25.32324-134.3584C782.02148,213.16064,773.28027,259.49951,773.10352,308.0376z"></path>
		</g>
		<g data-svg-origin="101.34406280517578 0" transform="matrix(1,0,0,1,0,0)">
			<g data-svg-origin="119.82968139648438 1.499940037727356" transform="matrix(1,0,0,1,0,0)">
				<rect x="119.82968" y="39.41388" fill="#CBD6E2" width="605.67902" height="37.91394"></rect>
				<rect x="119.82968" y="1.49994" fill="#CBD6E2" width="605.67902" height="37.91394"></rect>
				<rect x="119.82968" y="77.32781" fill="#CBD6E2" width="605.67902" height="37.91394"></rect>
				<rect x="119.82968" y="115.24174" fill="#CBD6E2" width="605.67902" height="37.91394"></rect>
				<rect x="540.0542" y="153.15569" fill="#CBD6E2" width="185.45448" height="37.91394"></rect>
				<rect x="540.0542" y="191.06961" fill="#CBD6E2" width="185.45448" height="37.91394"></rect>
				<rect x="540.0542" y="228.98355" fill="#CBD6E2" width="185.45448" height="37.91394"></rect>
			</g>
			<g data-svg-origin="184.17138671875 151.65576171875" transform="matrix(1,0,0,1,0,0)">
				<rect x="185.6713" y="153.15569" fill="#7C98B6" width="354.38293" height="113.74181"></rect>
				<path fill="#33475B" d="M540.05469,268.39795h-354.3833c-0.82861,0-1.5-0.67188-1.5-1.5V153.15576
					c0-0.82812,0.67139-1.5,1.5-1.5h354.3833c0.82812,0,1.5,0.67188,1.5,1.5v113.74219
					C541.55469,267.72607,540.88281,268.39795,540.05469,268.39795z M187.17139,265.39795h351.3833V154.65576h-351.3833V265.39795z"></path>
			</g>
			<g data-svg-origin="184.17138671875 151.65576171875" transform="matrix(1,0,0,1,0,0)">
				<rect x="185.6713" y="153.15569" fill="#516F90" width="354.38293" height="18.95697"></rect>
				<path fill="#33475B" d="M540.05469,173.61279h-354.3833c-0.82861,0-1.5-0.67188-1.5-1.5v-18.95703
					c0-0.82812,0.67139-1.5,1.5-1.5h354.3833c0.82812,0,1.5,0.67188,1.5,1.5v18.95703
					C541.55469,172.94092,540.88281,173.61279,540.05469,173.61279z M187.17139,170.61279h351.3833v-15.95703h-351.3833V170.61279z"></path>
			</g>
			<g data-svg-origin="225.0361328125 151.65576171875" transform="matrix(1,0,0,1,0,0)">
				<rect x="226.53625" y="153.15569" fill="#CBD6E2" width="35.15334" height="113.74181"></rect>
				<rect x="247.58499" y="153.15569" fill="#9AACC2" width="14.10461" height="113.74181"></rect>
				<path fill="#33475B" d="M261.68945,268.39795h-35.15332c-0.82861,0-1.5-0.67188-1.5-1.5V153.15576
					c0-0.82812,0.67139-1.5,1.5-1.5h35.15332c0.82861,0,1.5,0.67188,1.5,1.5v113.74219
					C263.18945,267.72607,262.51807,268.39795,261.68945,268.39795z M228.03613,265.39795h32.15332V154.65576h-32.15332V265.39795z"></path>
			</g>
			<g data-svg-origin="304.20263671875 151.65576171875" transform="matrix(1,0,0,1,0,0)">
				<rect x="305.70282" y="153.15569" fill="#CBD6E2" width="35.15334" height="113.74181"></rect>
				<rect x="326.75156" y="153.15569" fill="#9AACC2" width="14.10461" height="113.74181"></rect>
				<path fill="#33475B" d="M340.85596,268.39795h-35.15332c-0.82861,0-1.5-0.67188-1.5-1.5V153.15576
					c0-0.82812,0.67139-1.5,1.5-1.5h35.15332c0.82861,0,1.5,0.67188,1.5,1.5v113.74219
					C342.35596,267.72607,341.68457,268.39795,340.85596,268.39795z M307.20264,265.39795h32.15332V154.65576h-32.15332V265.39795z"></path>
			</g>
			<g data-svg-origin="383.369140625 151.65576171875" transform="matrix(1,0,0,1,0,0)">
				<rect x="384.86938" y="153.15569" fill="#CBD6E2" width="35.15334" height="113.74181"></rect>
				<rect x="405.91809" y="153.15569" fill="#9AACC2" width="14.10461" height="113.74181"></rect>
				<path fill="#33475B" d="M420.02295,268.39795h-35.15381c-0.82861,0-1.5-0.67188-1.5-1.5V153.15576
					c0-0.82812,0.67139-1.5,1.5-1.5h35.15381c0.82861,0,1.5,0.67188,1.5,1.5v113.74219
					C421.52295,267.72607,420.85156,268.39795,420.02295,268.39795z M386.36914,265.39795h32.15381V154.65576h-32.15381V265.39795z"></path>
			</g>
			<g data-svg-origin="462.5361328125 151.65576171875" transform="matrix(1,0,0,1,0,0)">
				<rect x="464.03592" y="153.15569" fill="#CBD6E2" width="35.15334" height="113.74181"></rect>
				<rect x="485.08466" y="153.15569" fill="#9AACC2" width="14.10461" height="113.74181"></rect>
				<path fill="#33475B" d="M499.18945,268.39795h-35.15332c-0.82812,0-1.5-0.67188-1.5-1.5V153.15576
					c0-0.82812,0.67188-1.5,1.5-1.5h35.15332c0.82812,0,1.5,0.67188,1.5,1.5v113.74219
					C500.68945,267.72607,500.01758,268.39795,499.18945,268.39795z M465.53613,265.39795h32.15332V154.65576h-32.15332V265.39795z"></path>
			</g>
			<g data-svg-origin="101.34406280517578 239.93798828125" transform="matrix(1,0,0,1,0,0)">
				<g data-svg-origin="101.34423828125 239.93798828125" transform="matrix(1,0,0,1,0,0)">
					<polygon fill="#9AACC2" points="206.43427,241.43753 206.43427,309.53763 102.84418,309.53763 102.84418,284.07767 
						158.54413,241.43753 					"></polygon>
					<path fill="#33475B" d="M206.43408,311.0376H102.84424c-0.82861,0-1.5-0.67188-1.5-1.5v-25.45996
						c0-0.4668,0.21729-0.90723,0.58838-1.19141l55.69971-42.63965c0.26172-0.2002,0.58203-0.30859,0.91162-0.30859h47.89014
						c0.82861,0,1.5,0.67188,1.5,1.5v68.09961C207.93408,310.36572,207.2627,311.0376,206.43408,311.0376z M104.34424,308.0376
						h100.58984v-65.09961h-45.88184l-54.70801,41.88086V308.0376z"></path>
				</g>
				<g data-svg-origin="130.64306640625 239.93798828125" transform="matrix(1,0,0,1,0,0)">
					<polygon fill="#9AACC2" points="226.53625,241.43753 226.53625,309.53763 132.14296,309.53763 132.14296,284.07767 
						187.84291,241.43753 					"></polygon>
					<path fill="#33475B" d="M226.53613,311.0376h-94.39307c-0.82861,0-1.5-0.67188-1.5-1.5v-25.45996
						c0-0.4668,0.21729-0.90723,0.58838-1.19141l55.69971-42.63965c0.26172-0.2002,0.58203-0.30859,0.91162-0.30859h38.69336
						c0.82861,0,1.5,0.67188,1.5,1.5v68.09961C228.03613,310.36572,227.36475,311.0376,226.53613,311.0376z M133.64307,308.0376
						h91.39307v-65.09961h-36.68506l-54.70801,41.88086V308.0376z"></path>
				</g>
				<g data-svg-origin="101.34406280517578 239.93798828125" transform="matrix(1,0,0,1,0,0)">
					<polygon fill="#CBD6E2" points="132.14296,284.07767 102.84418,284.07767 158.54413,241.43753 187.84291,241.43753 					"></polygon>
					<path fill="#33475B" d="M132.14307,285.57764h-29.29883c-0.64307,0-1.21436-0.41016-1.4209-1.01855
						c-0.20605-0.60938-0.00146-1.28125,0.50928-1.67285l55.69971-42.63965c0.26172-0.2002,0.58203-0.30859,0.91162-0.30859
						h29.29883c0.64307,0,1.21436,0.41016,1.4209,1.01855c0.20605,0.60938,0.00146,1.28125-0.50928,1.67285l-55.69971,42.63965
						C132.79297,285.46924,132.47266,285.57764,132.14307,285.57764z M107.27148,282.57764h24.36328l51.78076-39.63965h-24.36328
						L107.27148,282.57764z"></path>
				</g>
			</g>
			<g data-svg-origin="143.84356689453125 265.39794921875" transform="matrix(1,0,0,1,0,0)">
				<polygon fill="#9AACC2" points="145.34355,309.53763 201.0435,266.89749 503.83594,266.89749 460.07809,309.53763 				"></polygon>
				<path fill="#33475B" d="M460.07812,311.0376H145.34375c-0.64307,0-1.21436-0.41016-1.4209-1.01855
					c-0.20605-0.60938-0.00146-1.28125,0.50928-1.67285l55.69971-42.63965c0.26172-0.2002,0.58203-0.30859,0.91162-0.30859
					h302.79248c0.61035,0,1.15918,0.37012,1.38965,0.93457c0.22949,0.56543,0.09473,1.21387-0.34277,1.63965L461.125,310.61182
					C460.84473,310.88525,460.46973,311.0376,460.07812,311.0376z M149.771,308.0376h309.69678l40.67969-39.63965h-298.5957
					L149.771,308.0376z"></path>
			</g>
			<g data-svg-origin="180.97705078125 279.61083984375" transform="matrix(1,0,0,1,0,0)">
				<line fill="#9AACC2" x1="182.47685" y1="281.11087" x2="495.02066" y2="281.11087"></line>
				<path fill="#33475B" d="M495.02051,282.61084H182.47705c-0.82861,0-1.5-0.67188-1.5-1.5s0.67139-1.5,1.5-1.5h312.54346
					c0.82812,0,1.5,0.67188,1.5,1.5S495.84863,282.61084,495.02051,282.61084z"></path>
			</g>
			<g data-svg-origin="162.41015625 293.82470703125" transform="matrix(1,0,0,1,0,0)">
				<line fill="#9AACC2" x1="163.9102" y1="295.32425" x2="495.02066" y2="295.32425"></line>
				<path fill="#33475B" d="M495.02051,296.82471H163.91016c-0.82861,0-1.5-0.67188-1.5-1.5s0.67139-1.5,1.5-1.5h331.11035
					c0.82812,0,1.5,0.67188,1.5,1.5S495.84863,296.82471,495.02051,296.82471z"></path>
			</g>
			<g data-svg-origin="405.66534423828125 239.93798828125" transform="matrix(1,0,0,1,0,0)">
				<g data-svg-origin="405.66552734375 239.93798828125" transform="matrix(1,0,0,1,0,0)">
					<polygon fill="#9AACC2" points="510.75543,241.43753 510.75543,309.53763 407.16534,309.53763 407.16534,284.07767 
						462.8653,241.43753 					"></polygon>
					<path fill="#33475B" d="M510.75586,311.0376H407.16553c-0.82861,0-1.5-0.67188-1.5-1.5v-25.45996
						c0-0.4668,0.21729-0.90723,0.58838-1.19141l55.69922-42.63965c0.26172-0.2002,0.58203-0.30859,0.91211-0.30859h47.89062
						c0.82812,0,1.5,0.67188,1.5,1.5v68.09961C512.25586,310.36572,511.58398,311.0376,510.75586,311.0376z M408.66553,308.0376
						h100.59033v-65.09961h-45.88281l-54.70752,41.88086V308.0376z"></path>
				</g>
				<g data-svg-origin="434.9638671875 239.93798828125" transform="matrix(1,0,0,1,0,0)">
					<polygon fill="#9AACC2" points="540.0542,241.43753 540.0542,309.53763 436.46414,309.53763 436.46414,284.07767 
						492.16409,241.43753 					"></polygon>
					<path fill="#33475B" d="M540.05469,311.0376H436.46387c-0.82812,0-1.5-0.67188-1.5-1.5v-25.45996
						c0-0.4668,0.21777-0.90723,0.58789-1.19141l55.7002-42.63965c0.26172-0.2002,0.58203-0.30859,0.91211-0.30859h47.89062
						c0.82812,0,1.5,0.67188,1.5,1.5v68.09961C541.55469,310.36572,540.88281,311.0376,540.05469,311.0376z M437.96387,308.0376
						h100.59082v-65.09961h-45.88281l-54.70801,41.88086V308.0376z"></path>
				</g>
				<g data-svg-origin="405.66534423828125 239.93798828125" transform="matrix(1,0,0,1,0,0)">
					<polygon fill="#CBD6E2" points="436.46414,284.07767 407.16534,284.07767 462.8653,241.43753 492.16409,241.43753 					"></polygon>
					<path fill="#33475B" d="M436.46387,285.57764h-29.29834c-0.64307,0-1.21436-0.41016-1.4209-1.01855
						c-0.20605-0.60938-0.00146-1.28125,0.50928-1.67285l55.69922-42.63965c0.26172-0.2002,0.58203-0.30859,0.91211-0.30859
						h29.29883c0.64258,0,1.21387,0.41016,1.4209,1.01855c0.20605,0.60938,0.00098,1.28125-0.50879,1.67285l-55.7002,42.63965
						C437.11426,285.46924,436.79395,285.57764,436.46387,285.57764z M411.59277,282.57764h24.36328l51.78125-39.63965h-24.36426
						L411.59277,282.57764z"></path>
				</g>
			</g>
			<g data-svg-origin="253.50323486328125 239.93798828125" transform="matrix(1,0,0,1,0,0)">
				<g data-svg-origin="253.50323486328125 239.93798828125" transform="matrix(1,0,0,1,0,0)">
					<g data-svg-origin="282.80517578125 239.93798828125" transform="matrix(1,0,0,1,0,0)">
						<polygon fill="#9AACC2" points="384.86938,241.43753 384.86938,266.89749 353.20523,266.89749 297.50528,309.53763 
							284.30533,309.53763 284.30533,284.07767 340.00528,241.43753 						"></polygon>
						<path fill="#33475B" d="M297.50537,311.0376h-13.2002c-0.82861,0-1.5-0.67188-1.5-1.5v-25.45996
							c0-0.4668,0.21729-0.90723,0.58838-1.19141l55.7002-42.63965c0.26172-0.2002,0.58203-0.30859,0.91162-0.30859h44.86377
							c0.82861,0,1.5,0.67188,1.5,1.5v25.45996c0,0.82812-0.67139,1.5-1.5,1.5h-31.15576L298.41699,310.729
							C298.15527,310.9292,297.83496,311.0376,297.50537,311.0376z M285.80518,308.0376h11.19189l55.29639-42.33105
							c0.26172-0.2002,0.58203-0.30859,0.91162-0.30859h30.16406v-22.45996h-42.85547l-54.7085,41.88086V308.0376z"></path>
					</g>
					<g data-svg-origin="253.50323486328125 239.94091796875" transform="matrix(1,0,0,1,0,0)">
						<polygon fill="#CBD6E2" points="284.302,284.08063 255.00322,284.08063 310.70316,241.44049 340.00195,241.44049 						"></polygon>
						<path fill="#33475B" d="M284.30176,285.58057h-29.29834c-0.64307,0-1.21436-0.41016-1.4209-1.01855
							c-0.20605-0.60938-0.00146-1.28125,0.50928-1.67285l55.69971-42.63965c0.26172-0.2002,0.58203-0.30859,0.91162-0.30859
							h29.29883c0.64307,0,1.21436,0.41016,1.4209,1.01855c0.20605,0.60938,0.00146,1.28125-0.50928,1.67285l-55.7002,42.63965
							C284.95166,285.47217,284.63135,285.58057,284.30176,285.58057z M259.43066,282.58057h24.36279l51.78125-39.63965h-24.36328
							L259.43066,282.58057z"></path>
					</g>
				</g>
				<g data-svg-origin="253.50341796875 282.58056640625" transform="matrix(1,0,0,1,0,0)">
					<rect x="255.00322" y="284.08063" fill="#9AACC2" width="29.30212" height="25.457"></rect>
					<path fill="#33475B" d="M284.30518,311.0376h-29.30176c-0.82861,0-1.5-0.67188-1.5-1.5v-25.45703
						c0-0.82812,0.67139-1.5,1.5-1.5h29.30176c0.82861,0,1.5,0.67188,1.5,1.5v25.45703
						C285.80518,310.36572,285.13379,311.0376,284.30518,311.0376z M256.50342,308.0376h26.30176v-22.45703h-26.30176V308.0376z"></path>
				</g>
			</g>
			<g data-svg-origin="538.5546875 265.39794921875" transform="matrix(1,0,0,1,0,0)">
				<rect x="540.0542" y="266.89749" fill="#7C98B6" width="170.07118" height="42.64014"></rect>
				<path fill="#33475B" d="M710.125,311.0376H540.05469c-0.82812,0-1.5-0.67188-1.5-1.5v-42.63965c0-0.82812,0.67188-1.5,1.5-1.5
					H710.125c0.82812,0,1.5,0.67188,1.5,1.5v42.63965C711.625,310.36572,710.95312,311.0376,710.125,311.0376z M541.55469,308.0376
					H708.625v-39.63965H541.55469V308.0376z"></path>
			</g>
			<polygon fill="#EAF0F6" points="186.09912,39.40988 148.1792,77.32992 119.8291,105.67989 119.8291,1.49996 224.00928,1.49996 
							"></polygon>
			<polygon fill="#EAF0F6" points="331.04932,1.49996 592.63916,1.49996 554.72949,39.40988 516.80908,77.32992 
				478.89941,115.23995 440.97949,153.15988 179.38916,153.15988 			"></polygon>
			<polygon fill="#EAF0F6" points="725.50928,136.50998 725.50928,266.89987 595.10938,266.89987 633.03906,228.97995 
				670.94922,191.06992 708.85938,153.15988 			"></polygon>
			<g data-svg-origin="118.32958984375 0" transform="matrix(1,0,0,1,0,0)">
				<path fill="#33475B" d="M725.50879,78.82764h-605.6792c-0.82861,0-1.5-0.67188-1.5-1.5V39.41406c0-0.82861,0.67139-1.5,1.5-1.5
					h605.6792c0.82812,0,1.5,0.67139,1.5,1.5v37.91357C727.00879,78.15576,726.33691,78.82764,725.50879,78.82764z
					 M121.32959,75.82764h602.6792V40.91406h-602.6792V75.82764z"></path>
				<path fill="#33475B" d="M725.50879,40.91406h-605.6792c-0.82861,0-1.5-0.67139-1.5-1.5V1.5c0-0.82861,0.67139-1.5,1.5-1.5
					h605.6792c0.82812,0,1.5,0.67139,1.5,1.5v37.91406C727.00879,40.24268,726.33691,40.91406,725.50879,40.91406z
					 M121.32959,37.91406h602.6792V3h-602.6792V37.91406z"></path>
				<path fill="#33475B" d="M725.50879,116.7417h-605.6792c-0.82861,0-1.5-0.67188-1.5-1.5V77.32764c0-0.82812,0.67139-1.5,1.5-1.5
					h605.6792c0.82812,0,1.5,0.67188,1.5,1.5v37.91406C727.00879,116.06982,726.33691,116.7417,725.50879,116.7417z
					 M121.32959,113.7417h602.6792V78.82764h-602.6792V113.7417z"></path>
				<path fill="#33475B" d="M725.50879,154.65576h-605.6792c-0.82861,0-1.5-0.67188-1.5-1.5V115.2417c0-0.82812,0.67139-1.5,1.5-1.5
					h605.6792c0.82812,0,1.5,0.67188,1.5,1.5v37.91406C727.00879,153.98389,726.33691,154.65576,725.50879,154.65576z
					 M121.32959,151.65576h602.6792V116.7417h-602.6792V151.65576z"></path>
				<path fill="#33475B" d="M725.50879,192.56982h-185.4541c-0.82812,0-1.5-0.67188-1.5-1.5v-37.91406
					c0-0.82812,0.67188-1.5,1.5-1.5h185.4541c0.82812,0,1.5,0.67188,1.5,1.5v37.91406
					C727.00879,191.89795,726.33691,192.56982,725.50879,192.56982z M541.55469,189.56982h182.4541v-34.91406h-182.4541V189.56982z"></path>
				<path fill="#33475B" d="M725.50879,230.48389h-185.4541c-0.82812,0-1.5-0.67188-1.5-1.5v-37.91406
					c0-0.82812,0.67188-1.5,1.5-1.5h185.4541c0.82812,0,1.5,0.67188,1.5,1.5v37.91406
					C727.00879,229.81201,726.33691,230.48389,725.50879,230.48389z M541.55469,227.48389h182.4541v-34.91406h-182.4541V227.48389z"></path>
				<path fill="#33475B" d="M725.50879,268.39795h-185.4541c-0.82812,0-1.5-0.67188-1.5-1.5v-37.91406
					c0-0.82812,0.67188-1.5,1.5-1.5h185.4541c0.82812,0,1.5,0.67188,1.5,1.5v37.91406
					C727.00879,267.72607,726.33691,268.39795,725.50879,268.39795z M541.55469,265.39795h182.4541v-34.91406h-182.4541V265.39795z"></path>
			</g>
		</g>
		<g data-svg-origin="282.80517578125 59.646480560302734" transform="matrix(1,0,0,1,0,0)">
			<path fill="#FFFFFF" d="M435.15356,61.14659H291.98474c-4.24121,0-7.67941,3.43818-7.67941,7.67939v54.91761
				c0,4.24121,3.4382,7.67939,7.67941,7.67939h143.16882c4.24118,0,7.67938-3.43818,7.67938-7.67939V68.82597
				C442.83295,64.58476,439.39474,61.14659,435.15356,61.14659z"></path>
			<path fill="#33475B" d="M435.15332,132.92334H291.98486c-5.06152,0-9.17969-4.11816-9.17969-9.17969V68.82617
				c0-5.06152,4.11816-9.17969,9.17969-9.17969h143.16846c5.06152,0,9.17969,4.11816,9.17969,9.17969v54.91748
				C444.33301,128.80518,440.21484,132.92334,435.15332,132.92334z M291.98486,62.64648c-3.40771,0-6.17969,2.77197-6.17969,6.17969
				v54.91748c0,3.40723,2.77197,6.17969,6.17969,6.17969h143.16846c3.40723,0,6.17969-2.77246,6.17969-6.17969V68.82617
				c0-3.40771-2.77246-6.17969-6.17969-6.17969H291.98486z"></path>
		</g>
	</g>
</g>
</svg>