<svg version="1.1" id="Layer_1___Q8z2Pspn" xmlns="http://www.w3.org/2000/svg" xmlns:xlink="http://www.w3.org/1999/xlink" x="0px" y="0px" viewBox="0 0 772.83002 316.73901" enable-background="new 0 0 772.83002 316.73901" xml:space="preserve">
<g data-svg-origin="-0.0000011326060302963015 0.49987006187438965" transform="matrix(1,0,0,1,0,0)">
	<defs>
		<rect id="SVGID_1____Q8z2Pspn" width="772.83002" height="316.73901"></rect>
	</defs>
	<clipPath id="SVGID_2____Q8z2Pspn">
		<use xlink:href="#SVGID_1____Q8z2Pspn" overflow="visible"></use>
	</clipPath>
	<g clip-path="url(#SVGID_2____Q8z2Pspn)" data-svg-origin="-0.0000011326060302963015 0.49987006187438965" transform="matrix(1,0,0,1,0,0)">
		<g data-svg-origin="576.98046875 66.7557373046875" transform="matrix(1,0,0,1,0,0)">
			<path fill="#54BEA6" d="M626.70947,68.25583c-30.32684,70.42828-48.22894,157.21648-48.22894,251.09647h96.44348
				C674.92401,225.47231,657.02197,138.68411,626.70947,68.25583z"></path>
			<path fill="#33475B" d="M674.92383,320.85242h-96.44336c-0.82812,0-1.5-0.67188-1.5-1.5
				c0-91.19824,16.71973-178.23047,48.35156-251.68994c0.2373-0.55029,0.7793-0.90674,1.37793-0.90674l0,0
				c0.59961,0,1.14062,0.35645,1.37793,0.90723c31.62207,73.47266,48.33594,160.50586,48.33594,251.68945
				C676.42383,320.18054,675.75195,320.85242,674.92383,320.85242z M579.98242,317.85242h93.43945
				c-0.17871-88.90039-16.31348-173.75977-46.71191-245.77197C596.30176,144.07898,580.16113,228.93835,579.98242,317.85242z"></path>
		</g>
		<g data-svg-origin="54.184078216552734 134.8543701171875" transform="matrix(1,0,0,1,0,0)">
			<path fill="#54BEA6" d="M90.83338,136.35448c-22.10217,51.32808-35.14924,114.57925-35.14924,182.99895h70.28796
				C125.97211,250.93373,112.92511,187.68256,90.83338,136.35448z"></path>
			<path fill="#33475B" d="M125.97217,320.85339H55.68408c-0.82861,0-1.5-0.67188-1.5-1.5
				c0-66.51953,12.19678-130.00488,35.27148-183.5918c0.2373-0.55078,0.77881-0.90723,1.37793-0.90723l0,0
				c0.59912,0,1.14111,0.35645,1.37793,0.90723c23.06787,53.5957,35.26074,117.08105,35.26074,183.5918
				C127.47217,320.18152,126.80078,320.85339,125.97217,320.85339z M57.18604,317.85339h67.28418
				c-0.17822-64.22168-11.79248-125.53418-33.63721-177.66309C68.98193,192.3114,57.36426,253.6239,57.18604,317.85339z"></path>
		</g>
		<g data-svg-origin="479.1359558105469 183.9412841796875" transform="matrix(1,0,0,1,0,0)">
			<path fill="#7FDED2" d="M480.63885,265.61209c0.1662,20.77963,8.30301,39.66507,21.51056,53.7402h227.9118
				c5.71039-8.72137,9.02966-19.14062,9.03235-30.34488c0.00739-30.4649-24.9126-55.44339-55.37744-55.50415
				c-6.94421-0.01385-13.59229,1.24817-19.72302,3.56482c-13.22345,4.99681-28.05139-0.1225-35.20911-12.31242
				c-13.82544-23.54526-39.42365-39.34438-68.70538-39.31436C515.77112,185.48672,480.28448,221.306,480.63885,265.61209z"></path>
			<path fill="#33475B" d="M730.06152,320.85242H502.14941c-0.41406,0-0.81055-0.17188-1.09375-0.47363
				c-13.96973-14.8877-21.75391-34.33301-21.91699-54.75488c-0.1748-21.83398,8.13965-42.3457,23.41113-57.75586
				c15.26855-15.40625,35.69824-23.9043,57.52637-23.92676c0.02637,0,0.05664,0,0.08301,0
				c28.62402,0,55.40723,15.34082,69.91895,40.05469c6.76172,11.51562,20.7998,16.42383,33.38477,11.66895
				c6.43262-2.42969,13.20801-3.66211,20.14062-3.66211c0.03809,0,0.07617,0,0.11523,0
				c31.36816,0.06348,56.88184,25.63574,56.875,57.00488c-0.00293,11.12305-3.21094,21.90039-9.27734,31.16602
				C731.03906,320.59753,730.56738,320.85242,730.06152,320.85242z M502.80273,317.85242h226.44043
				c5.46387-8.62207,8.34766-18.57715,8.35059-28.84473c0.00684-29.71875-24.16406-53.94531-53.88086-54.00488
				c-0.03613,0-0.07324,0-0.10938,0c-6.56934,0-12.9873,1.16699-19.08008,3.46875
				c-13.95215,5.27246-29.52832-0.17578-37.0332-12.95605c-13.97363-23.79883-39.76855-38.57422-67.33105-38.57422
				c-0.02637,0-0.05273,0-0.0791,0c-21.02344,0.02148-40.69824,8.2041-55.39941,23.03906
				c-14.70508,14.83789-22.70996,34.59082-22.54199,55.62012l0,0C482.29395,285.04968,489.62793,303.57898,502.80273,317.85242z"></path>
		</g>
		<g data-svg-origin="-0.0000011326060302963015 218.5643310546875" transform="matrix(1,0,0,1,0,0)">
			<path fill="#7FDED2" d="M193.13232,279.50751c-0.12323,15.40717-6.15631,29.40982-15.9491,39.84592H8.19714
				c-4.23402-6.46652-6.69508-14.19189-6.69709-22.49936c-0.00545-22.58832,18.47155-41.1087,41.05982-41.15376
				c5.14882-0.01027,10.07807,0.92546,14.62372,2.64314c9.80458,3.70493,20.7988-0.09082,26.10595-9.12909
				c10.25093-17.45772,29.23079-29.17204,50.94187-29.14978C167.08337,220.09825,193.39508,246.65659,193.13232,279.50751z"></path>
			<path fill="#33475B" d="M177.18311,320.85339H8.19727c-0.50586,0-0.97754-0.25488-1.25488-0.67871
				C2.40234,313.24207,0.00195,305.17761,0,296.85437c-0.00537-23.47266,19.08545-42.60742,42.55713-42.6543
				c5.25537-0.03711,10.31934,0.91211,15.15674,2.74023c9.1499,3.45508,19.36377-0.11035,24.28223-8.48535
				c10.82861-18.44141,30.81689-29.89062,52.1748-29.89062c0.021,0,0.04102,0,0.06201,0
				c16.28906,0.0166,31.53467,6.3584,42.92871,17.85547c11.39648,11.5,17.60107,26.80664,17.4707,43.09961l-1.5-0.01172l1.5,0.01172
				c-0.12158,15.23926-5.93018,29.75-16.35547,40.86035C177.99316,320.68152,177.59766,320.85339,177.18311,320.85339z
				 M9.01758,317.85339h167.51123c9.63086-10.49512,14.98975-24.09082,15.10352-38.35742
				c0.12402-15.48828-5.77197-30.03613-16.60156-40.96387c-10.82715-10.92578-25.31738-16.95117-40.80078-16.96777
				c-0.01855,0-0.04004,0-0.05908,0c-20.30029,0-39.29541,10.88086-49.58789,28.41016
				c-5.65967,9.63965-17.40332,13.74902-27.92969,9.77246c-4.47217-1.69043-9.18652-2.54688-14.01318-2.54688
				c-0.02588,0-0.05127,0-0.07715,0C20.74268,257.24304,2.99463,275.0321,3,296.85437
				C3.00195,304.32214,5.08008,311.56433,9.01758,317.85339z"></path>
		</g>
		<g data-svg-origin="193.8127899169922 0.49987006187438965" transform="matrix(1,0,0,1,0,0)">
			<g data-svg-origin="193.8127899169922 0.49987006187438965" transform="matrix(1,0,0,1,0,0)">
				<polygon fill="#F8C7AC" points="250.01248,174.00565 195.31303,174.00565 207.3373,1.9997 237.98825,1.9997 				"></polygon>
				<path fill="#33475B" d="M250.0127,175.50574h-54.69971c-0.41602,0-0.81348-0.17285-1.09717-0.47656
					c-0.28369-0.30469-0.42822-0.71289-0.39941-1.12793L205.84082,1.89538c0.05518-0.78613,0.70898-1.39551,1.49658-1.39551
					h30.65088c0.7876,0,1.44141,0.60938,1.49658,1.39551l12.02441,172.00586c0.02881,0.41504-0.11572,0.82324-0.39941,1.12793
					C250.82617,175.33289,250.42871,175.50574,250.0127,175.50574z M196.92139,172.50574h51.48291L236.58936,3.49987h-27.85303
					L196.92139,172.50574z"></path>
			</g>
			<path fill="#F28D57" d="M205.52777,174.00565C237.7511,119.46395,225.39351,1.9997,225.39351,1.9997h12.59474l12.02423,172.00595
				H205.52777z"></path>
			<path fill="#33475B" d="M250.0127,175.50574h-54.69971c-0.41602,0-0.81348-0.17285-1.09717-0.47656
				c-0.28369-0.30469-0.42822-0.71289-0.39941-1.12793L205.84082,1.89538c0.05518-0.78613,0.70898-1.39551,1.49658-1.39551h30.65088
				c0.7876,0,1.44141,0.60938,1.49658,1.39551l12.02441,172.00586c0.02881,0.41504-0.11572,0.82324-0.39941,1.12793
				C250.82617,175.33289,250.42871,175.50574,250.0127,175.50574z M196.92139,172.50574h51.48291L236.58936,3.49987h-27.85303
				L196.92139,172.50574z"></path>
		</g>
		<g data-svg-origin="273.04815673828125 0.49987006187438965" transform="matrix(1,0,0,1,0,0)">
			<g data-svg-origin="273.04815673828125 0.49987006187438965" transform="matrix(1,0,0,1,0,0)">
				<polygon fill="#F8C7AC" points="329.24768,174.00565 274.54825,174.00565 286.57251,1.9997 317.22345,1.9997 				"></polygon>
				<path fill="#33475B" d="M329.24756,175.50574h-54.69922c-0.41602,0-0.81348-0.17285-1.09717-0.47656
					c-0.28369-0.30469-0.42822-0.71289-0.39941-1.12793L285.07568,1.89538c0.05518-0.78613,0.70898-1.39551,1.49658-1.39551
					h30.65137c0.7876,0,1.44141,0.60938,1.49658,1.39551l12.02393,172.00586c0.02881,0.41504-0.11572,0.82324-0.39941,1.12793
					C330.06104,175.33289,329.66357,175.50574,329.24756,175.50574z M276.15674,172.50574h51.48242L315.82471,3.49987h-27.85352
					L276.15674,172.50574z"></path>
			</g>
			<path fill="#F28D57" d="M284.76297,174.00565C316.9863,119.46395,304.62872,1.9997,304.62872,1.9997h12.59473l12.02423,172.00595
				H284.76297z"></path>
			<path fill="#33475B" d="M329.24756,175.50574h-54.69922c-0.41602,0-0.81348-0.17285-1.09717-0.47656
				c-0.28369-0.30469-0.42822-0.71289-0.39941-1.12793L285.07568,1.89538c0.05518-0.78613,0.70898-1.39551,1.49658-1.39551h30.65137
				c0.7876,0,1.44141,0.60938,1.49658,1.39551l12.02393,172.00586c0.02881,0.41504-0.11572,0.82324-0.39941,1.12793
				C330.06104,175.33289,329.66357,175.50574,329.24756,175.50574z M276.15674,172.50574h51.48242L315.82471,3.49987h-27.85352
				L276.15674,172.50574z"></path>
		</g>
		<g data-svg-origin="165.33778381347656 97.5906982421875" transform="matrix(1,0,0,1,0,0)">
			<g data-svg-origin="284.1728515625 97.59085845947266" transform="matrix(1,0,0,1,0,0)">
				<polygon fill="#F28D57" points="376.68747,154.35008 376.68747,99.09117 467.70215,154.35008 467.70215,99.09117 
					558.7168,154.35008 558.7168,319.35342 285.67279,319.35342 285.67279,154.35008 285.67279,99.09117 				"></polygon>
				<path fill="#33475B" d="M558.7168,320.85339H285.67285c-0.82861,0-1.5-0.67188-1.5-1.5V99.09069
					c0-0.54199,0.29199-1.04199,0.76416-1.30762c0.47266-0.26465,1.05127-0.25586,1.51416,0.02539l88.73633,53.87598V99.09069
					c0-0.54199,0.29199-1.04199,0.76416-1.30762c0.47266-0.26465,1.05078-0.25586,1.51416,0.02539l88.73633,53.87598V99.09069
					c0-0.54199,0.29199-1.04199,0.76465-1.30762c0.47266-0.26367,1.05078-0.25488,1.51367,0.02539l91.01465,55.25977
					c0.44824,0.27246,0.72168,0.75781,0.72168,1.28223v165.00293C560.2168,320.18152,559.54492,320.85339,558.7168,320.85339z
					 M287.17285,317.85339H557.2168V155.19421l-88.01465-53.43751v52.59376c0,0.54199-0.29199,1.04199-0.76465,1.30762
					c-0.47168,0.26367-1.05176,0.25391-1.51367-0.02539l-88.73633-53.87598v52.59376c0,0.54199-0.29199,1.04199-0.76416,1.30762
					c-0.47363,0.26367-1.05176,0.25391-1.51416-0.02539l-88.73633-53.87598V317.85339z"></path>
			</g>
			<g data-svg-origin="165.33778381347656 97.5906982421875" transform="matrix(1,0,0,1,0,0)">
				<polygon fill="#516F90" points="166.83813,99.09117 376.7702,99.09117 467.78488,154.35008 257.85281,154.35008 				"></polygon>
				<path fill="#33475B" d="M467.78516,155.85046H257.85303c-0.27441,0-0.54395-0.0752-0.77832-0.21777l-91.01514-55.25977
					c-0.5752-0.34961-0.84766-1.03809-0.66602-1.68652c0.18115-0.64746,0.77148-1.0957,1.44434-1.0957h209.93213
					c0.27441,0,0.54395,0.0752,0.77832,0.21777l91.01514,55.25977c0.5752,0.34961,0.84766,1.03809,0.66602,1.68652
					C469.04883,155.40222,468.45801,155.85046,467.78516,155.85046z M258.27246,152.85046H462.4248l-86.07422-52.25977H172.19873
					L258.27246,152.85046z"></path>
			</g>
			<g data-svg-origin="165.337890625 97.59085845947266" transform="matrix(1,0,0,1,0,0)">
				<polygon fill="#F8C7AC" points="257.85281,154.35008 257.85281,99.09117 348.86746,154.35008 348.86746,99.09117 
					439.88214,154.35008 439.88214,319.35342 166.83813,319.35342 166.83813,154.35008 166.83813,99.09117 				"></polygon>
				<path fill="#33475B" d="M439.88184,320.85339H166.83789c-0.82861,0-1.5-0.67188-1.5-1.5V99.09069
					c0-0.54199,0.29199-1.04199,0.76416-1.30762c0.47217-0.26465,1.05078-0.25586,1.51416,0.02539l88.73682,53.87598V99.09069
					c0-0.54199,0.29199-1.04199,0.76416-1.30762c0.47266-0.26465,1.05029-0.25586,1.51416,0.02539l88.73633,53.87598V99.09069
					c0-0.54199,0.29199-1.04199,0.76416-1.30762c0.47266-0.26465,1.05127-0.25586,1.51416,0.02539l91.01416,55.25977
					c0.44824,0.27246,0.72168,0.75781,0.72168,1.28223v165.00293C441.38184,320.18152,440.70996,320.85339,439.88184,320.85339z
					 M168.33789,317.85339h270.04395V155.19421l-88.01416-53.43751v52.59376c0,0.54199-0.29199,1.04199-0.76416,1.30762
					c-0.47363,0.26367-1.05225,0.25391-1.51416-0.02539l-88.73633-53.87598v52.59376c0,0.54199-0.29199,1.04199-0.76416,1.30762
					c-0.47363,0.26367-1.05176,0.25391-1.51416-0.02539l-88.73682-53.87598V317.85339z"></path>
			</g>
			<g data-svg-origin="347.3675842285156 97.5906982421875" transform="matrix(1,0,0,1,0,0)">
				<polygon fill="#516F90" points="348.86746,99.09117 467.70215,99.09117 558.7168,154.35008 439.88214,154.35008 				"></polygon>
				<path fill="#33475B" d="M558.7168,155.85046H439.88184c-0.27441,0-0.54395-0.0752-0.77832-0.21777l-91.01416-55.25977
					c-0.5752-0.34961-0.84766-1.03809-0.66602-1.68652c0.18115-0.64746,0.77148-1.0957,1.44434-1.0957h118.83447
					c0.27441,0,0.54395,0.0752,0.77832,0.21777l91.01465,55.25977c0.5752,0.34961,0.84766,1.03809,0.66602,1.68652
					C559.98047,155.40222,559.38965,155.85046,558.7168,155.85046z M440.30176,152.85046h113.05469l-86.07422-52.25977H354.22852
					L440.30176,152.85046z"></path>
			</g>
		</g>
		<g data-svg-origin="199.01611328125 183.7635498046875" transform="matrix(1,0,0,1,0,0)">
			<g data-svg-origin="199.01611328125 183.7635498046875" transform="matrix(1,0,0,1,0,0)">
				<g data-svg-origin="199.01611328125 183.7635498046875" transform="matrix(1,0,0,1,0,0)">
					<g data-svg-origin="199.01611328125 183.7635498046875" transform="matrix(1,0,0,1,0,0)">
						<path fill="#425B76" d="M222.76685,216.45491h-22.2506v-20.06604c0-6.14433,4.98096-11.12529,11.12529-11.12529h0.00002
							c6.14433,0,11.12529,4.98096,11.12529,11.12529V216.45491z"></path>
						<path fill="#33475B" d="M222.7666,217.95496h-22.25049c-0.82861,0-1.5-0.67188-1.5-1.5v-20.06641
							c0-6.96191,5.66357-12.625,12.62549-12.625c6.96143,0,12.625,5.66309,12.625,12.625v20.06641
							C224.2666,217.28308,223.59521,217.95496,222.7666,217.95496z M202.01611,214.95496h19.25049v-18.56641
							c0-5.30762-4.31787-9.625-9.625-9.625c-5.30762,0-9.62549,4.31738-9.62549,9.625V214.95496z"></path>
					</g>
					<g data-svg-origin="199.01611328125 214.9549560546875" transform="matrix(1,0,0,1,0,0)">
						<rect x="200.51625" y="216.45491" fill="#9AACC2" width="22.2506" height="11.55228"></rect>
						<path fill="#33475B" d="M222.7666,229.50671h-22.25049c-0.82861,0-1.5-0.67188-1.5-1.5v-11.55176
							c0-0.82812,0.67139-1.5,1.5-1.5h22.25049c0.82861,0,1.5,0.67188,1.5,1.5v11.55176
							C224.2666,228.83484,223.59521,229.50671,222.7666,229.50671z M202.01611,226.50671h19.25049v-8.55176h-19.25049V226.50671z"></path>
					</g>
				</g>
				<g data-svg-origin="244.87548828125 183.7635498046875" transform="matrix(1,0,0,1,0,0)">
					<g data-svg-origin="244.87548828125 183.7635498046875" transform="matrix(1,0,0,1,0,0)">
						<path fill="#425B76" d="M268.62613,216.45491h-22.2506v-20.06604c0-6.14433,4.98097-11.12529,11.12529-11.12529h0.00003
							c6.14432,0,11.12527,4.98096,11.12527,11.12529V216.45491z"></path>
						<path fill="#33475B" d="M268.62598,217.95496h-22.25049c-0.82861,0-1.5-0.67188-1.5-1.5v-20.06641
							c0-6.96191,5.66357-12.625,12.62549-12.625c6.96143,0,12.625,5.66309,12.625,12.625v20.06641
							C270.12598,217.28308,269.45459,217.95496,268.62598,217.95496z M247.87549,214.95496h19.25049v-18.56641
							c0-5.30762-4.31787-9.625-9.625-9.625c-5.30762,0-9.62549,4.31738-9.62549,9.625V214.95496z"></path>
					</g>
					<g data-svg-origin="244.87548828125 214.9549560546875" transform="matrix(1,0,0,1,0,0)">
						<rect x="246.37553" y="216.45491" fill="#9AACC2" width="22.2506" height="11.55228"></rect>
						<path fill="#33475B" d="M268.62598,229.50671h-22.25049c-0.82861,0-1.5-0.67188-1.5-1.5v-11.55176
							c0-0.82812,0.67139-1.5,1.5-1.5h22.25049c0.82861,0,1.5,0.67188,1.5,1.5v11.55176
							C270.12598,228.83484,269.45459,229.50671,268.62598,229.50671z M247.87549,226.50671h19.25049v-8.55176h-19.25049V226.50671z
							"></path>
					</g>
				</g>
				<g data-svg-origin="290.73486328125 183.7635498046875" transform="matrix(1,0,0,1,0,0)">
					<g data-svg-origin="290.73486328125 183.7635498046875" transform="matrix(1,0,0,1,0,0)">
						<path fill="#425B76" d="M314.48544,216.45491h-22.25061v-20.06604c0-6.14433,4.98096-11.12529,11.12531-11.12529l0,0
							c6.14435,0,11.12531,4.98096,11.12531,11.12529V216.45491z"></path>
						<path fill="#33475B" d="M314.48535,217.95496h-22.25049c-0.82861,0-1.5-0.67188-1.5-1.5v-20.06641
							c0-6.96191,5.66357-12.625,12.62549-12.625c6.96143,0,12.625,5.66309,12.625,12.625v20.06641
							C315.98535,217.28308,315.31396,217.95496,314.48535,217.95496z M293.73486,214.95496h19.25049v-18.56641
							c0-5.30762-4.31787-9.625-9.625-9.625c-5.30762,0-9.62549,4.31738-9.62549,9.625V214.95496z"></path>
					</g>
					<g data-svg-origin="290.73486328125 214.9549560546875" transform="matrix(1,0,0,1,0,0)">
						<rect x="292.23483" y="216.45491" fill="#9AACC2" width="22.2506" height="11.55228"></rect>
						<path fill="#33475B" d="M314.48535,229.50671h-22.25049c-0.82861,0-1.5-0.67188-1.5-1.5v-11.55176
							c0-0.82812,0.67139-1.5,1.5-1.5h22.25049c0.82861,0,1.5,0.67188,1.5,1.5v11.55176
							C315.98535,228.83484,315.31396,229.50671,314.48535,229.50671z M293.73486,226.50671h19.25049v-8.55176h-19.25049V226.50671z
							"></path>
					</g>
				</g>
				<g data-svg-origin="336.59423828125 183.7635498046875" transform="matrix(1,0,0,1,0,0)">
					<g data-svg-origin="336.59423828125 183.7635498046875" transform="matrix(1,0,0,1,0,0)">
						<path fill="#425B76" d="M360.34473,216.45491h-22.25058v-20.06604c0-6.14433,4.98096-11.12529,11.12527-11.12529h0.00003
							c6.14432,0,11.12527,4.98096,11.12527,11.12529V216.45491z"></path>
						<path fill="#33475B" d="M360.34473,217.95496h-22.25049c-0.82861,0-1.5-0.67188-1.5-1.5v-20.06641
							c0-6.96191,5.66357-12.625,12.625-12.625c6.96191,0,12.62549,5.66309,12.62549,12.625v20.06641
							C361.84473,217.28308,361.17334,217.95496,360.34473,217.95496z M339.59424,214.95496h19.25049v-18.56641
							c0-5.30762-4.31787-9.625-9.62549-9.625c-5.30713,0-9.625,4.31738-9.625,9.625V214.95496z"></path>
					</g>
					<g data-svg-origin="336.59423828125 214.9549560546875" transform="matrix(1,0,0,1,0,0)">
						<rect x="338.09415" y="216.45491" fill="#9AACC2" width="22.2506" height="11.55228"></rect>
						<path fill="#33475B" d="M360.34473,229.50671h-22.25049c-0.82861,0-1.5-0.67188-1.5-1.5v-11.55176
							c0-0.82812,0.67139-1.5,1.5-1.5h22.25049c0.82861,0,1.5,0.67188,1.5,1.5v11.55176
							C361.84473,228.83484,361.17334,229.50671,360.34473,229.50671z M339.59424,226.50671h19.25049v-8.55176h-19.25049V226.50671z
							"></path>
					</g>
				</g>
				<g data-svg-origin="382.45361328125 183.7635498046875" transform="matrix(1,0,0,1,0,0)">
					<g data-svg-origin="382.45361328125 183.7635498046875" transform="matrix(1,0,0,1,0,0)">
						<path fill="#425B76" d="M406.20404,216.45491h-22.25061v-20.06604c0-6.14433,4.98096-11.12529,11.12531-11.12529l0,0
							c6.14435,0,11.12531,4.98096,11.12531,11.12529V216.45491z"></path>
						<path fill="#33475B" d="M406.2041,217.95496h-22.25049c-0.82861,0-1.5-0.67188-1.5-1.5v-20.06641
							c0-6.96191,5.66357-12.625,12.62549-12.625s12.625,5.66309,12.625,12.625v20.06641
							C407.7041,217.28308,407.03223,217.95496,406.2041,217.95496z M385.45361,214.95496h19.25049v-18.56641
							c0-5.30762-4.31738-9.625-9.625-9.625s-9.62549,4.31738-9.62549,9.625V214.95496z"></path>
					</g>
					<g data-svg-origin="382.45361328125 214.9549560546875" transform="matrix(1,0,0,1,0,0)">
						<rect x="383.95343" y="216.45491" fill="#9AACC2" width="22.2506" height="11.55228"></rect>
						<path fill="#33475B" d="M406.2041,229.50671h-22.25049c-0.82861,0-1.5-0.67188-1.5-1.5v-11.55176
							c0-0.82812,0.67139-1.5,1.5-1.5h22.25049c0.82812,0,1.5,0.67188,1.5,1.5v11.55176
							C407.7041,228.83484,407.03223,229.50671,406.2041,229.50671z M385.45361,226.50671h19.25049v-8.55176h-19.25049V226.50671z"></path>
					</g>
				</g>
			</g>
			<g data-svg-origin="199.01611328125 246.0701904296875" transform="matrix(1,0,0,1,0,0)">
				<g data-svg-origin="199.01611328125 246.0701904296875" transform="matrix(1,0,0,1,0,0)">
					<g data-svg-origin="199.01611328125 246.0701904296875" transform="matrix(1,0,0,1,0,0)">
						<path fill="#425B76" d="M222.76685,278.76196h-22.2506v-20.06604c0-6.14432,4.98096-11.12529,11.12529-11.12529h0.00002
							c6.14433,0,11.12529,4.98097,11.12529,11.12529V278.76196z"></path>
						<path fill="#33475B" d="M222.7666,280.2616h-22.25049c-0.82861,0-1.5-0.67188-1.5-1.5v-20.06543
							c0-6.96191,5.66357-12.62598,12.62549-12.62598c6.96143,0,12.625,5.66406,12.625,12.62598v20.06543
							C224.2666,279.58972,223.59521,280.2616,222.7666,280.2616z M202.01611,277.2616h19.25049v-18.56543
							c0-5.30762-4.31787-9.62598-9.625-9.62598c-5.30762,0-9.62549,4.31836-9.62549,9.62598V277.2616z"></path>
					</g>
					<g data-svg-origin="199.01611328125 277.2615966796875" transform="matrix(1,0,0,1,0,0)">
						<rect x="200.51625" y="278.76196" fill="#9AACC2" width="22.2506" height="11.55228"></rect>
						<path fill="#33475B" d="M222.7666,291.81433h-22.25049c-0.82861,0-1.5-0.67188-1.5-1.5V278.7616
							c0-0.82812,0.67139-1.5,1.5-1.5h22.25049c0.82861,0,1.5,0.67188,1.5,1.5v11.55273
							C224.2666,291.14246,223.59521,291.81433,222.7666,291.81433z M202.01611,288.81433h19.25049v-8.55273h-19.25049V288.81433z"></path>
					</g>
				</g>
				<g data-svg-origin="244.87548828125 246.0701904296875" transform="matrix(1,0,0,1,0,0)">
					<g data-svg-origin="244.87548828125 246.0701904296875" transform="matrix(1,0,0,1,0,0)">
						<path fill="#425B76" d="M268.62613,278.76196h-22.2506v-20.06604c0-6.14432,4.98097-11.12529,11.12529-11.12529h0.00003
							c6.14432,0,11.12527,4.98097,11.12527,11.12529V278.76196z"></path>
						<path fill="#33475B" d="M268.62598,280.2616h-22.25049c-0.82861,0-1.5-0.67188-1.5-1.5v-20.06543
							c0-6.96191,5.66357-12.62598,12.62549-12.62598c6.96143,0,12.625,5.66406,12.625,12.62598v20.06543
							C270.12598,279.58972,269.45459,280.2616,268.62598,280.2616z M247.87549,277.2616h19.25049v-18.56543
							c0-5.30762-4.31787-9.62598-9.625-9.62598c-5.30762,0-9.62549,4.31836-9.62549,9.62598V277.2616z"></path>
					</g>
					<g data-svg-origin="244.87548828125 277.2615966796875" transform="matrix(1,0,0,1,0,0)">
						<rect x="246.37553" y="278.76196" fill="#9AACC2" width="22.2506" height="11.55228"></rect>
						<path fill="#33475B" d="M268.62598,291.81433h-22.25049c-0.82861,0-1.5-0.67188-1.5-1.5V278.7616
							c0-0.82812,0.67139-1.5,1.5-1.5h22.25049c0.82861,0,1.5,0.67188,1.5,1.5v11.55273
							C270.12598,291.14246,269.45459,291.81433,268.62598,291.81433z M247.87549,288.81433h19.25049v-8.55273h-19.25049V288.81433z
							"></path>
					</g>
				</g>
				<g data-svg-origin="290.73486328125 246.0701904296875" transform="matrix(1,0,0,1,0,0)">
					<g data-svg-origin="290.73486328125 246.0701904296875" transform="matrix(1,0,0,1,0,0)">
						<path fill="#425B76" d="M314.48544,278.76196h-22.25061v-20.06604c0-6.14432,4.98096-11.12529,11.12531-11.12529l0,0
							c6.14435,0,11.12531,4.98097,11.12531,11.12529V278.76196z"></path>
						<path fill="#33475B" d="M314.48535,280.2616h-22.25049c-0.82861,0-1.5-0.67188-1.5-1.5v-20.06543
							c0-6.96191,5.66357-12.62598,12.62549-12.62598c6.96143,0,12.625,5.66406,12.625,12.62598v20.06543
							C315.98535,279.58972,315.31396,280.2616,314.48535,280.2616z M293.73486,277.2616h19.25049v-18.56543
							c0-5.30762-4.31787-9.62598-9.625-9.62598c-5.30762,0-9.62549,4.31836-9.62549,9.62598V277.2616z"></path>
					</g>
					<g data-svg-origin="290.73486328125 277.2615966796875" transform="matrix(1,0,0,1,0,0)">
						<rect x="292.23483" y="278.76196" fill="#9AACC2" width="22.2506" height="11.55228"></rect>
						<path fill="#33475B" d="M314.48535,291.81433h-22.25049c-0.82861,0-1.5-0.67188-1.5-1.5V278.7616
							c0-0.82812,0.67139-1.5,1.5-1.5h22.25049c0.82861,0,1.5,0.67188,1.5,1.5v11.55273
							C315.98535,291.14246,315.31396,291.81433,314.48535,291.81433z M293.73486,288.81433h19.25049v-8.55273h-19.25049V288.81433z
							"></path>
					</g>
				</g>
				<g data-svg-origin="336.59423828125 246.0701904296875" transform="matrix(1,0,0,1,0,0)">
					<g data-svg-origin="336.59423828125 246.0701904296875" transform="matrix(1,0,0,1,0,0)">
						<path fill="#425B76" d="M360.34473,278.76196h-22.25058v-20.06604c0-6.14432,4.98096-11.12529,11.12527-11.12529h0.00003
							c6.14432,0,11.12527,4.98097,11.12527,11.12529V278.76196z"></path>
						<path fill="#33475B" d="M360.34473,280.2616h-22.25049c-0.82861,0-1.5-0.67188-1.5-1.5v-20.06543
							c0-6.96191,5.66357-12.62598,12.625-12.62598c6.96191,0,12.62549,5.66406,12.62549,12.62598v20.06543
							C361.84473,279.58972,361.17334,280.2616,360.34473,280.2616z M339.59424,277.2616h19.25049v-18.56543
							c0-5.30762-4.31787-9.62598-9.62549-9.62598c-5.30713,0-9.625,4.31836-9.625,9.62598V277.2616z"></path>
					</g>
					<g data-svg-origin="336.59423828125 277.2615966796875" transform="matrix(1,0,0,1,0,0)">
						<rect x="338.09415" y="278.76196" fill="#9AACC2" width="22.2506" height="11.55228"></rect>
						<path fill="#33475B" d="M360.34473,291.81433h-22.25049c-0.82861,0-1.5-0.67188-1.5-1.5V278.7616
							c0-0.82812,0.67139-1.5,1.5-1.5h22.25049c0.82861,0,1.5,0.67188,1.5,1.5v11.55273
							C361.84473,291.14246,361.17334,291.81433,360.34473,291.81433z M339.59424,288.81433h19.25049v-8.55273h-19.25049V288.81433z
							"></path>
					</g>
				</g>
				<g data-svg-origin="382.45361328125 246.0701904296875" transform="matrix(1,0,0,1,0,0)">
					<g data-svg-origin="382.45361328125 246.0701904296875" transform="matrix(1,0,0,1,0,0)">
						<path fill="#425B76" d="M406.20404,278.76196h-22.25061v-20.06604c0-6.14432,4.98096-11.12529,11.12531-11.12529l0,0
							c6.14435,0,11.12531,4.98097,11.12531,11.12529V278.76196z"></path>
						<path fill="#33475B" d="M406.2041,280.2616h-22.25049c-0.82861,0-1.5-0.67188-1.5-1.5v-20.06543
							c0-6.96191,5.66357-12.62598,12.62549-12.62598s12.625,5.66406,12.625,12.62598v20.06543
							C407.7041,279.58972,407.03223,280.2616,406.2041,280.2616z M385.45361,277.2616h19.25049v-18.56543
							c0-5.30762-4.31738-9.62598-9.625-9.62598s-9.62549,4.31836-9.62549,9.62598V277.2616z"></path>
					</g>
					<g data-svg-origin="382.45361328125 277.2615966796875" transform="matrix(1,0,0,1,0,0)">
						<rect x="383.95343" y="278.76196" fill="#9AACC2" width="22.2506" height="11.55228"></rect>
						<path fill="#33475B" d="M406.2041,291.81433h-22.25049c-0.82861,0-1.5-0.67188-1.5-1.5V278.7616
							c0-0.82812,0.67139-1.5,1.5-1.5h22.25049c0.82812,0,1.5,0.67188,1.5,1.5v11.55273
							C407.7041,291.14246,407.03223,291.81433,406.2041,291.81433z M385.45361,288.81433h19.25049v-8.55273h-19.25049V288.81433z"></path>
					</g>
				</g>
			</g>
		</g>
		<g data-svg-origin="473.7353515625 231.3250732421875" transform="matrix(1,0,0,1,0,0)">
			<g data-svg-origin="473.7353515625 231.3250732421875" transform="matrix(1,0,0,1,0,0)">
				<path fill="#F8C7AC" d="M594.46552,264.03766v55.31555H475.23553v-55.31555c0-17.23856,13.97372-31.21234,31.21231-31.21234
					h56.80527C580.4917,232.82532,594.46552,246.7991,594.46552,264.03766z"></path>
				<path fill="#33475B" d="M594.46582,320.85339H475.23535c-0.82812,0-1.5-0.67188-1.5-1.5v-55.31543
					c0-18.03809,14.6748-32.71289,32.71289-32.71289h56.80469c18.03809,0,32.71289,14.6748,32.71289,32.71289v55.31543
					C595.96582,320.18152,595.29395,320.85339,594.46582,320.85339z M476.73535,317.85339h116.23047v-53.81543
					c0-16.38379-13.3291-29.71289-29.71289-29.71289h-56.80469c-16.38379,0-29.71289,13.3291-29.71289,29.71289V317.85339z"></path>
			</g>
			<g data-svg-origin="530.5439453125 231.3250732421875" transform="matrix(1,0,0,1,0,0)">
				<path fill="#F28D57" d="M563.25488,232.82512h-0.00006c-17.23712,0-31.21057,13.97346-31.21057,31.21062v55.31769h62.42126
					v-55.31769C594.46552,246.79858,580.49207,232.82512,563.25488,232.82512z"></path>
				<path fill="#33475B" d="M594.46582,320.85339h-62.42188c-0.82812,0-1.5-0.67188-1.5-1.5v-55.31738
					c0-18.03711,14.67383-32.71094,32.71094-32.71094s32.71094,14.67383,32.71094,32.71094v55.31738
					C595.96582,320.18152,595.29395,320.85339,594.46582,320.85339z M533.54395,317.85339h59.42188v-53.81738
					c0-16.38281-13.32812-29.71094-29.71094-29.71094s-29.71094,13.32812-29.71094,29.71094V317.85339z"></path>
			</g>
			<g data-svg-origin="543.8603515625 244.6522216796875" transform="matrix(1,0,0,1,0,0)">
				<path fill="#516F90" d="M563.25488,246.15253L563.25488,246.15253c-9.88293,0-17.89465,8.0117-17.89465,17.89462v55.30515
					h35.78931v-55.30515C581.14954,254.16423,573.13782,246.15253,563.25488,246.15253z"></path>
				<path fill="#33475B" d="M581.14941,320.85242h-35.78906c-0.82812,0-1.5-0.67188-1.5-1.5v-55.30566
					c0-10.69434,8.7002-19.39453,19.39453-19.39453s19.39453,8.7002,19.39453,19.39453v55.30566
					C582.64941,320.18054,581.97754,320.85242,581.14941,320.85242z M546.86035,317.85242h32.78906v-53.80566
					c0-9.04004-7.35449-16.39453-16.39453-16.39453s-16.39453,7.35449-16.39453,16.39453V317.85242z"></path>
			</g>
			<g data-svg-origin="543.8603515625 246.4739990234375" transform="matrix(1,0,0,1,0,0)">
				<path fill="#425B76" d="M565.39679,264.04578v55.30652h-20.03656v-55.30652c0-7.0567,4.08429-13.15982,10.01825-16.07101
					C561.3125,250.88956,565.39679,256.98907,565.39679,264.04578z"></path>
				<path fill="#33475B" d="M565.39648,320.85242h-20.03613c-0.82812,0-1.5-0.67188-1.5-1.5v-55.30664
					c0-7.45801,4.16016-14.13281,10.8584-17.41797c0.41602-0.20508,0.90527-0.20508,1.32129,0
					c6.69629,3.29004,10.85645,9.96387,10.85645,17.41797v55.30664C566.89648,320.18054,566.22461,320.85242,565.39648,320.85242z
					 M546.86035,317.85242h17.03613v-53.80664c0-6.05273-3.24414-11.49707-8.51758-14.38184
					c-5.27441,2.88184-8.51855,8.32617-8.51855,14.38184V317.85242z"></path>
			</g>
		</g>
		<g data-svg-origin="705.3564453125 149.9920654296875" transform="matrix(1,0,0,1,0,0)">
			<path fill="#54BEA6" d="M739.09839,151.49168c-20.2738,47.08205-32.24158,105.10085-32.24158,167.86061h64.47351
				C771.33032,256.59253,759.36261,198.57373,739.09839,151.49168z"></path>
			<path fill="#33475B" d="M771.33008,320.85242h-64.47363c-0.82812,0-1.5-0.67188-1.5-1.5
				c0-61.03418,11.19141-119.28516,32.36426-168.45312c0.2373-0.55078,0.7793-0.90723,1.37793-0.90723l0,0
				c0.59961,0,1.14062,0.35645,1.37793,0.90723c21.16602,49.17773,32.35352,107.42871,32.35352,168.45312
				C772.83008,320.18054,772.1582,320.85242,771.33008,320.85242z M708.3584,317.85242h61.46973
				c-0.17773-58.73633-10.78613-114.80957-30.72949-162.52051C719.14746,203.03406,708.53613,259.10632,708.3584,317.85242z"></path>
		</g>
	</g>
</g>
</svg>