<svg version="1.1" id="Layer_1___AQVNIKnh" xmlns="http://www.w3.org/2000/svg" xmlns:xlink="http://www.w3.org/1999/xlink" x="0px" y="0px" viewBox="0 0 856.65997 296.46411" enable-background="new 0 0 856.65997 296.46411" xml:space="preserve">
<g data-svg-origin="0.00004825277210329659 -0.00022983551025390625" transform="matrix(1,0,0,1,0,0)">
	<defs>
		<rect id="SVGID_1____AQVNIKnh" width="856.65997" height="296.46411"></rect>
	</defs>
	<clipPath id="SVGID_2____AQVNIKnh">
		<use xlink:href="#SVGID_1____AQVNIKnh" overflow="visible"></use>
	</clipPath>
	<g clip-path="url(#SVGID_2____AQVNIKnh)" data-svg-origin="0.00004825277210329659 -0.00022983551025390625" transform="matrix(1,0,0,1,0,0)">
		<g data-svg-origin="40.718299865722656 118.78833770751953" transform="matrix(1,0,0,1,0,0)">
			<rect x="46.49593" y="133.62999" fill="#F8C7AC" width="125.76132" height="124.76697"></rect>
			<g data-svg-origin="170.7573699951172 118.78834533691406" transform="matrix(1,0,0,1,0,0)">
				<path fill="#DFE3EB" d="M237.45259,133.62999h-65.19534v-13.34136h65.19534c1.08409,0,1.96291,0.87883,1.96291,1.96291v9.41553
					C239.4155,132.75116,238.53668,133.62999,237.45259,133.62999z"></path>
				<path fill="#33475B" d="M237.45268,135.13014h-65.19531c-0.82861,0-1.5-0.67188-1.5-1.5v-13.3418c0-0.82812,0.67139-1.5,1.5-1.5
					h65.19531c1.90967,0,3.46289,1.55371,3.46289,3.46289v9.41602C240.91557,133.57643,239.36235,135.13014,237.45268,135.13014z
					 M173.75737,132.13014h63.69531c0.25537,0,0.46289-0.20801,0.46289-0.46289v-9.41602c0-0.25488-0.20752-0.46289-0.46289-0.46289
					h-63.69531V132.13014z"></path>
			</g>
			<g data-svg-origin="40.718299865722656 118.78833770751953" transform="matrix(1,0,0,1,0,0)">
				<path fill="#F4F8FA" d="M174.347,133.62999H44.19229c-1.09019,0-1.97396-0.88377-1.97396-1.97397v-9.39343
					c0-1.09019,0.88377-1.97396,1.97396-1.97396H174.347c1.09019,0,1.97397,0.88377,1.97397,1.97396v9.39343
					C176.32097,132.74622,175.43719,133.62999,174.347,133.62999z"></path>
				<path fill="#33475B" d="M174.34721,135.13014H44.19242c-1.91553,0-3.47412-1.55859-3.47412-3.47363v-9.39356
					c0-1.91602,1.55859-3.47461,3.47412-3.47461h130.15479c1.91553,0,3.47363,1.55859,3.47363,3.47461v9.39356
					C177.82085,133.57155,176.26274,135.13014,174.34721,135.13014z M44.19242,121.78834
					c-0.26123,0-0.47412,0.21289-0.47412,0.47461v9.39356c0,0.26074,0.21289,0.47363,0.47412,0.47363h130.15479
					c0.26123,0,0.47363-0.21289,0.47363-0.47363v-9.39356c0-0.26172-0.2124-0.47461-0.47363-0.47461H44.19242z"></path>
			</g>
			<rect x="172.25725" y="133.62999" fill="#F28D57" width="62.88066" height="124.76697"></rect>
			<rect x="46.49593" y="133.62999" fill="#F28D57" width="125.76132" height="11.31904"></rect>
			<rect x="172.25725" y="133.62999" fill="#E68250" width="62.88066" height="4.46666"></rect>
			<path fill="#33475B" d="M172.25737,259.89673H46.49614c-0.82861,0-1.5-0.67188-1.5-1.5V133.63014c0-0.82812,0.67139-1.5,1.5-1.5
				h125.76123c0.82861,0,1.5,0.67188,1.5,1.5v124.76659C173.75737,259.22485,173.08598,259.89673,172.25737,259.89673z
				 M47.99614,256.89673h122.76123V135.13014H47.99614V256.89673z"></path>
			<path fill="#33475B" d="M235.13774,259.89673h-62.88037c-0.82861,0-1.5-0.67188-1.5-1.5V133.63014c0-0.82812,0.67139-1.5,1.5-1.5
				h62.88037c0.82861,0,1.5,0.67188,1.5,1.5v124.76659C236.63774,259.22485,235.96635,259.89673,235.13774,259.89673z
				 M173.75737,256.89673h59.88037V135.13014h-59.88037V256.89673z"></path>
		</g>
		<g data-svg-origin="620.3858032226562 118.78833770751953" transform="matrix(1,0,0,1,0,0)">
			<rect x="626.16357" y="133.62999" fill="#F8C7AC" width="125.76132" height="124.76697"></rect>
			<g data-svg-origin="750.4248657226562 118.78834533691406" transform="matrix(1,0,0,1,0,0)">
				<path fill="#DFE3EB" d="M817.12024,133.62999h-65.19537v-13.34136h65.19537c1.08405,0,1.96289,0.87883,1.96289,1.96291v9.41553
					C819.08313,132.75116,818.20428,133.62999,817.12024,133.62999z"></path>
				<path fill="#33475B" d="M817.12018,135.13014h-65.19531c-0.82812,0-1.5-0.67188-1.5-1.5v-13.3418c0-0.82812,0.67188-1.5,1.5-1.5
					h65.19531c1.90918,0,3.46289,1.55371,3.46289,3.46289v9.41602C820.58307,133.57643,819.02936,135.13014,817.12018,135.13014z
					 M753.42487,132.13014h63.69531c0.25488,0,0.46289-0.20801,0.46289-0.46289v-9.41602c0-0.25488-0.20801-0.46289-0.46289-0.46289
					h-63.69531V132.13014z"></path>
			</g>
			<g data-svg-origin="620.3858032226562 118.78833770751953" transform="matrix(1,0,0,1,0,0)">
				<path fill="#F4F8FA" d="M754.01465,133.62999H623.85992c-1.09021,0-1.97394-0.88377-1.97394-1.97397v-9.39343
					c0-1.09019,0.88373-1.97396,1.97394-1.97396h130.15472c1.09015,0,1.97394,0.88377,1.97394,1.97396v9.39343
					C755.98859,132.74622,755.1048,133.62999,754.01465,133.62999z"></path>
				<path fill="#33475B" d="M754.01471,135.13014h-130.1543c-1.91602,0-3.47461-1.55859-3.47461-3.47363v-9.39356
					c0-1.91602,1.55859-3.47461,3.47461-3.47461h130.1543c1.91504,0,3.47363,1.55859,3.47363,3.47461v9.39356
					C757.48834,133.57155,755.92975,135.13014,754.01471,135.13014z M623.86041,121.78834
					c-0.26172,0-0.47461,0.21289-0.47461,0.47461v9.39356c0,0.26074,0.21289,0.47363,0.47461,0.47363h130.1543
					c0.26074,0,0.47363-0.21289,0.47363-0.47363v-9.39356c0-0.26172-0.21289-0.47461-0.47363-0.47461H623.86041z"></path>
			</g>
			<rect x="751.92487" y="133.62999" fill="#F28D57" width="62.88066" height="124.76697"></rect>
			<rect x="626.16357" y="133.62999" fill="#F28D57" width="125.76132" height="11.31904"></rect>
			<rect x="751.92487" y="133.62999" fill="#E68250" width="62.88066" height="4.46666"></rect>
			<path fill="#33475B" d="M751.92487,259.89673H626.16315c-0.82812,0-1.5-0.67188-1.5-1.5V133.63014c0-0.82812,0.67188-1.5,1.5-1.5
				h125.76172c0.82812,0,1.5,0.67188,1.5,1.5v124.76659C753.42487,259.22485,752.75299,259.89673,751.92487,259.89673z
				 M627.66315,256.89673h122.76172V135.13014H627.66315V256.89673z"></path>
			<path fill="#33475B" d="M814.80573,259.89673h-62.88086c-0.82812,0-1.5-0.67188-1.5-1.5V133.63014c0-0.82812,0.67188-1.5,1.5-1.5
				h62.88086c0.82812,0,1.5,0.67188,1.5,1.5v124.76659C816.30573,259.22485,815.63385,259.89673,814.80573,259.89673z
				 M753.42487,256.89673h59.88086V135.13014h-59.88086V256.89673z"></path>
		</g>
		<g data-svg-origin="0.00004825277210329659 179.83326721191406" transform="matrix(1,0,0,1,0,0)">
			<path fill="#7FDED2" d="M229.55949,252.07599c-0.14665,18.33588-7.32655,35.00031-18.98085,47.42017H9.47013
				C4.43128,291.80045,1.50239,282.60654,1.5,272.71994c-0.00649-26.88213,21.98279-48.92305,48.86485-48.97667
				c6.12755-0.01222,11.9938,1.10138,17.40353,3.14558c11.66832,4.40918,24.75243-0.10809,31.0684-10.86444
				c12.19952-20.77625,34.78725-34.71733,60.62537-34.69084C198.55891,181.37364,229.87219,212.98045,229.55949,252.07599z"></path>
			<path fill="#33475B" d="M210.57866,300.99634H9.47026c-0.50586,0-0.97803-0.25488-1.25488-0.67871
				c-5.37207-8.2041-8.21289-17.74805-8.21533-27.59766c-0.00635-27.77733,22.58545-50.42088,50.36182-50.47655
				c6.19141-0.03906,12.2085,1.0791,17.93702,3.24219c11.02051,4.16602,23.32031-0.13281,29.24463-10.2207
				c12.83545-21.85938,36.52979-35.43164,61.84766-35.43164c0.0249,0,0.04736,0,0.07227,0
				c19.30859,0.01953,37.38037,7.53613,50.88623,21.16504c13.50928,13.63086,20.86426,31.77539,20.70996,51.08984l0,0
				c-0.14502,18.06444-7.02979,35.26561-19.38721,48.43456C211.38872,300.82446,210.99321,300.99634,210.57866,300.99634z
				 M10.2891,297.99634h199.63574c11.56299-12.55469,17.99756-28.83984,18.13477-45.93163
				c0.14795-18.50977-6.89844-35.89551-19.84082-48.95508c-12.93945-13.05664-30.25537-20.25781-48.7583-20.27637
				c-0.02246,0-0.04688,0-0.06934,0c-24.26025,0-46.96094,13.00391-59.26074,33.95117
				c-6.66602,11.35156-20.49707,16.19141-32.89209,11.50781c-5.38623-2.03516-11.07471-3.03906-16.87061-3.04883
				c-26.125,0.05176-47.37402,21.34961-47.36768,47.47655C3.00248,281.71411,5.52006,290.43579,10.2891,297.99634z
				 M229.55962,252.07643h0.01025H229.55962z"></path>
		</g>
		<g data-svg-origin="710.22412109375 223.76100158691406" transform="matrix(1,0,0,1,0,0)">
			<path fill="#7FDED2" d="M711.72552,269.75369c0.09222,11.53229,4.60797,22.01331,11.93793,29.82471h126.48627
				c3.16919-4.84018,5.01129-10.62265,5.01276-16.84079c0.00409-16.90738-13.82593-30.76991-30.73334-30.80363
				c-3.85388-0.00769-7.5434,0.6927-10.94586,1.97841c-7.33875,2.77313-15.56793-0.06799-19.54028-6.83315
				c-7.67285-13.06712-21.87933-21.83531-38.13007-21.81865C731.22321,225.2858,711.52887,245.16475,711.72552,269.75369z"></path>
			<path fill="#33475B" d="M850.14948,301.07837H723.66315c-0.41406,0-0.81055-0.17188-1.09375-0.47363
				c-7.86816-8.38477-12.25195-19.33691-12.34375-30.83887l0,0c-0.09863-12.29688,4.58398-23.84959,13.18652-32.52928
				c8.59961-8.67773,20.10547-13.46289,32.39844-13.47559c0.01562,0,0.03223,0,0.04688,0
				c16.12207,0,31.20703,8.64062,39.37988,22.55859c3.58789,6.11035,11.03906,8.71387,17.71582,6.18945
				c3.64355-1.37695,7.48242-2.0752,11.41113-2.0752c0.02246,0,0.04492,0,0.06738,0
				c17.77734,0.03613,32.23535,14.52733,32.23047,32.3037c-0.00098,6.30273-1.81934,12.41113-5.25781,17.66211
				C851.12701,300.82349,850.65533,301.07837,850.14948,301.07837z M724.3194,298.07837h125.00586
				c2.83887-4.60645,4.33594-9.89258,4.33691-15.34082c0.00488-16.12598-13.11035-29.27147-29.23633-29.3037
				c-0.02051,0-0.04102,0-0.06152,0c-3.56543,0-7.04688,0.63281-10.35059,1.88184c-8.04688,3.041-17.0332-0.10156-21.36426-7.47656
				c-7.63477-13.00391-21.73047-21.07812-36.79199-21.07812c-0.01465,0-0.02832,0-0.04297,0
				c-11.48828,0.01172-22.23926,4.48145-30.27148,12.58691c-8.03516,8.1084-12.40918,18.90233-12.31738,30.39452l0,0
				C713.30963,280.27173,717.2442,290.30884,724.3194,298.07837z"></path>
		</g>
		<g data-svg-origin="72.61576843261719 164.70533752441406" transform="matrix(1,0,0,1,0,0)">
			<path fill="#54BEA6" d="M99.7173,166.20573c-16.0985,37.3857-25.60155,83.45578-25.60155,133.29045h51.19546
				C125.3112,249.66151,115.8082,203.59143,99.7173,166.20573z"></path>
			<path fill="#33475B" d="M125.31108,300.99634H74.11577c-0.82861,0-1.5-0.67188-1.5-1.5
				c0-48.50682,8.89502-94.80272,25.72363-133.88377c0.2373-0.55078,0.77881-0.90723,1.37793-0.90723l0,0
				c0.59912,0,1.14111,0.35645,1.37793,0.90723c16.82324,39.08789,25.71582,85.38379,25.71582,133.88377
				C126.81108,300.32446,126.13969,300.99634,125.31108,300.99634z M75.6187,297.99634h48.18945
				c-0.17578-46.20995-8.4873-90.32225-24.09131-127.93846C84.1104,207.66628,75.79448,251.78249,75.6187,297.99634z"></path>
		</g>
		<g data-svg-origin="574.2139282226562 89.093994140625" transform="matrix(1,0,0,1,0,0)">
			<path fill="#54BEA6" d="M615.85437,90.5939c-25.24054,58.61633-40.1402,130.84877-40.1402,208.98361h80.26837
				C655.98254,221.44267,641.08301,149.21024,615.85437,90.5939z"></path>
			<path fill="#33475B" d="M655.98248,301.07739h-80.26855c-0.82812,0-1.5-0.67188-1.5-1.5
				c0-75.93553,13.92285-148.40623,40.2627-209.57666c0.2373-0.55029,0.7793-0.90674,1.37793-0.90674l0,0
				c0.59961,0,1.14062,0.35645,1.37793,0.90723c26.33203,61.1797,40.25,133.64941,40.25,209.57617
				C657.48248,300.40552,656.81061,301.07739,655.98248,301.07739z M577.21588,298.07739h77.26465
				c-0.17969-73.63768-13.51855-143.93846-38.62598-203.65234C590.73639,154.13405,577.39362,224.42604,577.21588,298.07739z"></path>
		</g>
		<g data-svg-origin="492.780029296875 186.62525939941406" transform="matrix(1,0,0,1,0,0)">
			<path fill="#7FDED2" d="M494.2821,254.85037c0.13834,17.29459,6.91049,33.0126,17.90289,44.72714h189.68738
				c4.75269-7.25867,7.51526-15.93045,7.51752-25.25558c0.0061-25.35545-20.73438-46.14464-46.08978-46.19522
				c-5.77954-0.01152-11.31268,1.03883-16.41516,2.96695c-11.00568,4.15877-23.34674-0.10196-29.30402-10.24744
				c-11.50665-19.59634-32.81165-32.7457-57.18237-32.72072C523.52216,188.1633,493.98718,217.97513,494.2821,254.85037z"></path>
			<path fill="#33475B" d="M701.87213,301.07739h-189.6875c-0.41409,0-0.81058-0.17188-1.09378-0.47363
				c-11.6709-12.4375-18.17285-28.68262-18.30859-45.7412l0,0c-0.14551-18.24023,6.7998-35.375,19.55765-48.24902
				c12.75586-12.87109,29.82227-19.96973,48.05664-19.98828c0.02246,0,0.0459,0,0.06738,0
				c23.91211,0,46.28809,12.81641,58.41113,33.46094c5.56445,9.47852,17.12109,13.52051,27.47949,9.60449
				c5.37988-2.0332,11.05176-3.06445,16.85645-3.06445c0.03125,0,0.06055,0,0.0918,0
				c26.24609,0.05273,47.59277,21.44922,47.58691,47.6953c-0.00195,9.30762-2.68652,18.32422-7.7627,26.07715
				C702.84967,300.82251,702.37799,301.07739,701.87213,301.07739z M512.83893,298.07739H701.0528
				c4.47363-7.1084,6.83496-15.30371,6.83691-23.75586c0.00586-24.59569-19.99902-44.64647-44.59277-44.6953
				c-0.02832,0-0.05664,0-0.08594,0c-5.44141,0-10.75586,0.96582-15.7959,2.87109
				c-11.72852,4.42871-24.82031-0.15039-31.12793-10.8916c-11.58496-19.72949-32.97266-31.98047-55.82324-31.98047
				c-0.02246,0-0.04199,0-0.06348,0c-17.42969,0.01758-33.74121,6.80078-45.92969,19.09961
				c-12.19046,12.30176-18.82816,28.67871-18.68851,46.11426l0,0C495.91019,270.92505,501.96292,286.25415,512.83893,298.07739z"></path>
		</g>
		<g data-svg-origin="683.3936157226562 158.37037658691406" transform="matrix(1,0,0,1,0,0)">
			<path fill="#54BEA6" d="M711.72809,159.87067c-16.8736,39.18564-26.83417,87.47379-26.83417,139.70773h53.66028
				C738.5542,247.34445,728.59363,199.0563,711.72809,159.87067z"></path>
			<path fill="#33475B" d="M738.55377,301.07837h-53.66016c-0.82812,0-1.5-0.67188-1.5-1.5
				c0-50.83104,9.32129-99.34666,26.95605-140.30077c0.2373-0.55078,0.7793-0.90723,1.37793-0.90723l0,0
				c0.59961,0,1.14062,0.35645,1.37793,0.90723c17.62988,40.95898,26.94824,89.47461,26.94824,140.30077
				C740.05377,300.40649,739.3819,301.07837,738.55377,301.07837z M686.39655,298.07837h50.6543
				c-0.17676-48.53319-8.91504-94.87206-25.32324-134.35838C695.31451,203.20241,686.5733,249.5403,686.39655,298.07837z"></path>
		</g>
		<g data-svg-origin="203.8965301513672 40.07007598876953" transform="matrix(1,0,0,1,0,0)">
			<g data-svg-origin="207.7866668701172 51.7409782409668" transform="matrix(1,0,0,1,0,0)">
				<rect x="209.2869" y="53.24085" fill="#EAF0F6" width="212.02078" height="246.25533"></rect>
				<rect x="421.30768" y="53.24085" fill="#CBD6E2" width="135.38208" height="246.25533"></rect>
				<rect x="208.1198" y="53.24085" fill="#CBD6E2" width="213.18787" height="11.6709"></rect>
				<rect x="421.30768" y="53.24085" fill="#9AACC2" width="135.38208" height="11.6709"></rect>
				<path fill="#33475B" d="M421.30765,300.99634H209.28667c-0.82861,0-1.5-0.67188-1.5-1.5V53.24098c0-0.82861,0.67139-1.5,1.5-1.5
					h212.02098c0.82861,0,1.5,0.67139,1.5,1.5v246.25536C422.80765,300.32446,422.13626,300.99634,421.30765,300.99634z
					 M210.78667,297.99634h209.02098V54.74098H210.78667V297.99634z"></path>
				<path fill="#33475B" d="M556.68951,300.99634H421.30765c-0.82861,0-1.5-0.67188-1.5-1.5V53.24098c0-0.82861,0.67139-1.5,1.5-1.5
					h135.38187c0.82812,0,1.5,0.67139,1.5,1.5v246.25536C558.18951,300.32446,557.51764,300.99634,556.68951,300.99634z
					 M422.80765,297.99634h132.38187V54.74098H422.80765V297.99634z"></path>
			</g>
			<g data-svg-origin="419.8076477050781 40.07007598876953" transform="matrix(1,0,0,1,0,0)">
				<path fill="#EAF0F6" d="M557.93671,41.56998H421.30768v11.67087h136.62903c1.45984,0,2.64331-1.18346,2.64331-2.64333v-6.3842
					C560.58002,42.75344,559.39655,41.56998,557.93671,41.56998z"></path>
				<path fill="#33475B" d="M557.93658,54.74098H421.30765c-0.82861,0-1.5-0.67139-1.5-1.5v-11.6709c0-0.82861,0.67139-1.5,1.5-1.5
					h136.62894c2.28516,0,4.14355,1.8584,4.14355,4.14307v6.38428C562.08014,52.88209,560.22174,54.74098,557.93658,54.74098z
					 M422.80765,51.74098h135.12894c0.63086,0,1.14355-0.51318,1.14355-1.14355v-6.38428c0-0.63037-0.5127-1.14307-1.14355-1.14307
					H422.80765V51.74098z"></path>
			</g>
			<g data-svg-origin="203.8965301513672 40.07007598876953" transform="matrix(1,0,0,1,0,0)">
				<path fill="#FFFFFF" d="M422.55463,41.56998H208.03993c-1.45987,0-2.64334,1.18346-2.64334,2.64333v6.3842
					c0,1.45987,1.18347,2.64333,2.64334,2.64333h214.51469c1.45987,0,2.64334-1.18346,2.64334-2.64333v-6.3842
					C425.19797,42.75344,424.0145,41.56998,422.55463,41.56998z"></path>
				<path fill="#33475B" d="M422.55472,54.74098H208.04008c-2.28467,0-4.14355-1.85889-4.14355-4.14355v-6.38428
					c0-2.28467,1.85889-4.14307,4.14355-4.14307h214.51463c2.28467,0,4.14307,1.8584,4.14307,4.14307v6.38428
					C426.69778,52.88209,424.83939,54.74098,422.55472,54.74098z M208.04008,43.07008c-0.63037,0-1.14355,0.5127-1.14355,1.14307
					v6.38428c0,0.63037,0.51318,1.14355,1.14355,1.14355h214.51463c0.63037,0,1.14307-0.51318,1.14307-1.14355v-6.38428
					c0-0.63037-0.5127-1.14307-1.14307-1.14307H208.04008z"></path>
			</g>
		</g>
		<g data-svg-origin="238.3257293701172 240.42018127441406" transform="matrix(1,0,0,1,0,0)">
			<g data-svg-origin="239.82565307617188 241.91989135742188" transform="matrix(1,0,0,1,0,0)">
				<rect x="239.82565" y="241.91989" fill="#516F90" width="149.1926" height="57.57629"></rect>
				<polygon fill="#7C98B6" points="331.05295,241.91989 273.47665,299.49619 251.1075,299.49619 308.68378,241.91989 				"></polygon>
				<polygon fill="#7C98B6" points="389.01825,241.91989 389.01825,299.49619 289.23233,299.49619 346.80862,241.91989 				"></polygon>
			</g>
			<path fill="#33475B" d="M389.0181,300.99634H239.82573c-0.82861,0-1.5-0.67188-1.5-1.5v-57.57616c0-0.82812,0.67139-1.5,1.5-1.5
				H389.0181c0.82861,0,1.5,0.67188,1.5,1.5v57.57616C390.5181,300.32446,389.84671,300.99634,389.0181,300.99634z
				 M241.32573,297.99634H387.5181v-54.57616H241.32573V297.99634z"></path>
		</g>
		<g data-svg-origin="164.2158660888672 225.63697814941406" transform="matrix(1,0,0,1,0,0)">
			<rect x="165.71565" y="227.1368" fill="#FFFFFF" width="24.11979" height="72.35938"></rect>
			<path fill="#DFE3EB" d="M177.77554,227.1368c3.50127,18.67339,3.89029,52.90794-6.61349,72.35939h18.67339V227.1368H177.77554z"></path>
			<path fill="#33475B" d="M189.83549,300.99634h-24.11963c-0.82861,0-1.5-0.67188-1.5-1.5v-72.35936c0-0.82812,0.67139-1.5,1.5-1.5
				h24.11963c0.82861,0,1.5,0.67188,1.5,1.5v72.35936C191.33549,300.32446,190.66411,300.99634,189.83549,300.99634z
				 M167.21587,297.99634h21.11963v-69.35936h-21.11963V297.99634z"></path>
		</g>
		<g data-svg-origin="324.1064758300781 225.63697814941406" transform="matrix(1,0,0,1,0,0)">
			<rect x="325.60654" y="227.1368" fill="#FFFFFF" width="24.11979" height="72.35938"></rect>
			<path fill="#DFE3EB" d="M337.66644,227.1368c3.50125,18.67339,3.89029,52.90794-6.61349,72.35939h18.6734V227.1368H337.66644z"></path>
			<path fill="#33475B" d="M349.7261,300.99634h-24.11963c-0.82861,0-1.5-0.67188-1.5-1.5v-72.35936c0-0.82812,0.67139-1.5,1.5-1.5
				h24.11963c0.82861,0,1.5,0.67188,1.5,1.5v72.35936C351.2261,300.32446,350.55472,300.99634,349.7261,300.99634z
				 M327.10648,297.99634h21.11963v-69.35936h-21.11963V297.99634z"></path>
		</g>
		<g data-svg-origin="149.4326629638672 207.35279846191406" transform="matrix(1,0,0,1,0,0)">
			<g data-svg-origin="149.4326629638672 207.35279846191406" transform="matrix(1,0,0,1,0,0)">
				<path fill="#F3A9BD" d="M371.12292,227.1368h-217.3596c-1.5634,0-2.83078-1.26738-2.83078-2.83078V211.6832
					c0-1.56339,1.26738-2.83076,2.83078-2.83076h217.3596V227.1368z"></path>
				<path fill="#33475B" d="M371.12308,228.63698H153.76323c-2.3877,0-4.33057-1.94336-4.33057-4.33105v-12.62305
					c0-2.3877,1.94287-4.33008,4.33057-4.33008h217.35985c0.82861,0,1.5,0.67188,1.5,1.5v18.28418
					C372.62308,227.9651,371.95169,228.63698,371.12308,228.63698z M153.76323,210.3528c-0.73389,0-1.33057,0.59668-1.33057,1.33008
					v12.62305c0,0.73438,0.59668,1.33105,1.33057,1.33105h215.85985V210.3528H153.76323z"></path>
			</g>
			<g data-svg-origin="361.4531555175781 207.35279846191406" transform="matrix(1,0,0,1,0,0)">
				<path fill="#ED537D" d="M421.30768,227.1368h-55.52359c-1.56339,0-2.83078-1.26738-2.83078-2.83078V211.6832
					c0-1.56339,1.2674-2.83076,2.83078-2.83076h55.52359V227.1368z"></path>
				<path fill="#33475B" d="M421.30765,228.63698h-55.52344c-2.38818,0-4.33105-1.94336-4.33105-4.33105v-12.62305
					c0-2.3877,1.94287-4.33008,4.33105-4.33008h55.52344c0.82861,0,1.5,0.67188,1.5,1.5v18.28418
					C422.80765,227.9651,422.13626,228.63698,421.30765,228.63698z M365.78421,210.3528c-0.73389,0-1.33105,0.59668-1.33105,1.33008
					v12.62305c0,0.73438,0.59717,1.33105,1.33105,1.33105h54.02344V210.3528H365.78421z"></path>
			</g>
		</g>
		<g data-svg-origin="239.8818817138672 81.69605255126953" transform="matrix(1,0,0,1,0,0)">
			<g data-svg-origin="239.8818817138672 81.69605255126953" transform="matrix(1,0,0,1,0,0)">
				<g data-svg-origin="239.8818817138672 81.69605255126953" transform="matrix(1,0,0,1,0,0)">
					<g data-svg-origin="239.8818817138672 81.69605255126953" transform="matrix(1,0,0,1,0,0)">
						<rect x="241.38177" y="83.19608" fill="#516F90" width="17.11727" height="21.78562"></rect>
						<path fill="#33475B" d="M258.49905,106.4817h-17.11717c-0.82861,0-1.5-0.67188-1.5-1.5V83.19605
							c0-0.82861,0.67139-1.5,1.5-1.5h17.11717c0.82861,0,1.5,0.67139,1.5,1.5v21.78564
							C259.99905,105.80982,259.32767,106.4817,258.49905,106.4817z M242.88188,103.4817h14.11717V84.69605h-14.11717V103.4817z"></path>
					</g>
					<g data-svg-origin="239.8818817138672 81.69605255126953" transform="matrix(1,0,0,1,0,0)">
						<rect x="241.38177" y="83.19608" fill="#3F5A78" width="5.05738" height="21.78562"></rect>
						<path fill="#33475B" d="M246.43901,106.4817h-5.05713c-0.82861,0-1.5-0.67188-1.5-1.5V83.19605c0-0.82861,0.67139-1.5,1.5-1.5
							h5.05713c0.82861,0,1.5,0.67139,1.5,1.5v21.78564C247.93901,105.80982,247.26762,106.4817,246.43901,106.4817z
							 M242.88188,103.4817h2.05713V84.69605h-2.05713V103.4817z"></path>
					</g>
				</g>
				<g data-svg-origin="272.5600891113281 81.69605255126953" transform="matrix(1,0,0,1,0,0)">
					<g data-svg-origin="272.5600891113281 81.69605255126953" transform="matrix(1,0,0,1,0,0)">
						<rect x="274.06021" y="83.19608" fill="#516F90" width="17.11727" height="21.78562"></rect>
						<path fill="#33475B" d="M291.17728,106.4817h-17.11719c-0.82861,0-1.5-0.67188-1.5-1.5V83.19605
							c0-0.82861,0.67139-1.5,1.5-1.5h17.11719c0.82861,0,1.5,0.67139,1.5,1.5v21.78564
							C292.67728,105.80982,292.00589,106.4817,291.17728,106.4817z M275.56009,103.4817h14.11719V84.69605h-14.11719V103.4817z"></path>
					</g>
					<g data-svg-origin="272.5600891113281 81.69605255126953" transform="matrix(1,0,0,1,0,0)">
						<rect x="274.06021" y="83.19608" fill="#3F5A78" width="5.05738" height="21.78562"></rect>
						<path fill="#33475B" d="M279.11771,106.4817h-5.05762c-0.82861,0-1.5-0.67188-1.5-1.5V83.19605c0-0.82861,0.67139-1.5,1.5-1.5
							h5.05762c0.82861,0,1.5,0.67139,1.5,1.5v21.78564C280.61771,105.80982,279.94632,106.4817,279.11771,106.4817z
							 M275.56009,103.4817h2.05762V84.69605h-2.05762V103.4817z"></path>
					</g>
				</g>
				<g data-svg-origin="305.2388000488281 81.69605255126953" transform="matrix(1,0,0,1,0,0)">
					<g data-svg-origin="305.2388000488281 81.69605255126953" transform="matrix(1,0,0,1,0,0)">
						<rect x="306.73865" y="83.19608" fill="#516F90" width="17.11727" height="21.78562"></rect>
						<path fill="#33475B" d="M323.85599,106.4817H306.7388c-0.82861,0-1.5-0.67188-1.5-1.5V83.19605c0-0.82861,0.67139-1.5,1.5-1.5
							h17.11719c0.82861,0,1.5,0.67139,1.5,1.5v21.78564C325.35599,105.80982,324.6846,106.4817,323.85599,106.4817z
							 M308.2388,103.4817h14.11719V84.69605H308.2388V103.4817z"></path>
					</g>
					<g data-svg-origin="305.2388000488281 81.69605255126953" transform="matrix(1,0,0,1,0,0)">
						<rect x="306.73865" y="83.19608" fill="#3F5A78" width="5.05738" height="21.78562"></rect>
						<path fill="#33475B" d="M311.79593,106.4817h-5.05713c-0.82861,0-1.5-0.67188-1.5-1.5V83.19605c0-0.82861,0.67139-1.5,1.5-1.5
							h5.05713c0.82861,0,1.5,0.67139,1.5,1.5v21.78564C313.29593,105.80982,312.62454,106.4817,311.79593,106.4817z
							 M308.2388,103.4817h2.05713V84.69605h-2.05713V103.4817z"></path>
					</g>
				</g>
				<g data-svg-origin="337.9170227050781 81.69605255126953" transform="matrix(1,0,0,1,0,0)">
					<g data-svg-origin="337.9170227050781 81.69605255126953" transform="matrix(1,0,0,1,0,0)">
						<rect x="339.41708" y="83.19608" fill="#516F90" width="17.11727" height="21.78562"></rect>
						<path fill="#33475B" d="M356.53421,106.4817h-17.11719c-0.82861,0-1.5-0.67188-1.5-1.5V83.19605
							c0-0.82861,0.67139-1.5,1.5-1.5h17.11719c0.82861,0,1.5,0.67139,1.5,1.5v21.78564
							C358.03421,105.80982,357.36282,106.4817,356.53421,106.4817z M340.91702,103.4817h14.11719V84.69605h-14.11719V103.4817z"></path>
					</g>
					<g data-svg-origin="337.9170227050781 81.69605255126953" transform="matrix(1,0,0,1,0,0)">
						<rect x="339.41708" y="83.19608" fill="#3F5A78" width="5.05738" height="21.78562"></rect>
						<path fill="#33475B" d="M344.47464,106.4817h-5.05762c-0.82861,0-1.5-0.67188-1.5-1.5V83.19605c0-0.82861,0.67139-1.5,1.5-1.5
							h5.05762c0.82861,0,1.5,0.67139,1.5,1.5v21.78564C345.97464,105.80982,345.30325,106.4817,344.47464,106.4817z
							 M340.91702,103.4817h2.05762V84.69605h-2.05762V103.4817z"></path>
					</g>
				</g>
				<g data-svg-origin="370.5957336425781 81.69605255126953" transform="matrix(1,0,0,1,0,0)">
					<g data-svg-origin="370.5957336425781 81.69605255126953" transform="matrix(1,0,0,1,0,0)">
						<rect x="372.09549" y="83.19608" fill="#516F90" width="17.11727" height="21.78562"></rect>
						<path fill="#33475B" d="M389.21292,106.4817h-17.11719c-0.82861,0-1.5-0.67188-1.5-1.5V83.19605
							c0-0.82861,0.67139-1.5,1.5-1.5h17.11719c0.82861,0,1.5,0.67139,1.5,1.5v21.78564
							C390.71292,105.80982,390.04153,106.4817,389.21292,106.4817z M373.59573,103.4817h14.11719V84.69605h-14.11719V103.4817z"></path>
					</g>
					<g data-svg-origin="370.5957336425781 81.69605255126953" transform="matrix(1,0,0,1,0,0)">
						<rect x="372.09549" y="83.19608" fill="#3F5A78" width="5.05738" height="21.78562"></rect>
						<path fill="#33475B" d="M377.15286,106.4817h-5.05713c-0.82861,0-1.5-0.67188-1.5-1.5V83.19605c0-0.82861,0.67139-1.5,1.5-1.5
							h5.05713c0.82861,0,1.5,0.67139,1.5,1.5v21.78564C378.65286,105.80982,377.98148,106.4817,377.15286,106.4817z
							 M373.59573,103.4817h2.05713V84.69605h-2.05713V103.4817z"></path>
					</g>
				</g>
			</g>
			<g data-svg-origin="239.8818817138672 123.20044708251953" transform="matrix(1,0,0,1,0,0)">
				<g data-svg-origin="239.8818817138672 123.20044708251953" transform="matrix(1,0,0,1,0,0)">
					<g data-svg-origin="239.8818817138672 123.20044708251953" transform="matrix(1,0,0,1,0,0)">
						<rect x="241.38177" y="124.7009" fill="#516F90" width="17.11727" height="21.78562"></rect>
						<path fill="#33475B" d="M258.49905,147.98659h-17.11717c-0.82861,0-1.5-0.67188-1.5-1.5v-21.78614
							c0-0.82812,0.67139-1.5,1.5-1.5h17.11717c0.82861,0,1.5,0.67188,1.5,1.5v21.78614
							C259.99905,147.31471,259.32767,147.98659,258.49905,147.98659z M242.88188,144.98659h14.11717v-18.78614h-14.11717V144.98659
							z"></path>
					</g>
					<g data-svg-origin="239.8818817138672 123.20044708251953" transform="matrix(1,0,0,1,0,0)">
						<rect x="241.38177" y="124.7009" fill="#3F5A78" width="5.05738" height="21.78562"></rect>
						<path fill="#33475B" d="M246.43901,147.98659h-5.05713c-0.82861,0-1.5-0.67188-1.5-1.5v-21.78614
							c0-0.82812,0.67139-1.5,1.5-1.5h5.05713c0.82861,0,1.5,0.67188,1.5,1.5v21.78614
							C247.93901,147.31471,247.26762,147.98659,246.43901,147.98659z M242.88188,144.98659h2.05713v-18.78614h-2.05713V144.98659z"></path>
					</g>
				</g>
				<g data-svg-origin="272.5600891113281 123.20044708251953" transform="matrix(1,0,0,1,0,0)">
					<g data-svg-origin="272.5600891113281 123.20044708251953" transform="matrix(1,0,0,1,0,0)">
						<rect x="274.06021" y="124.7009" fill="#516F90" width="17.11727" height="21.78562"></rect>
						<path fill="#33475B" d="M291.17728,147.98659h-17.11719c-0.82861,0-1.5-0.67188-1.5-1.5v-21.78614
							c0-0.82812,0.67139-1.5,1.5-1.5h17.11719c0.82861,0,1.5,0.67188,1.5,1.5v21.78614
							C292.67728,147.31471,292.00589,147.98659,291.17728,147.98659z M275.56009,144.98659h14.11719v-18.78614h-14.11719V144.98659
							z"></path>
					</g>
					<g data-svg-origin="272.5600891113281 123.20044708251953" transform="matrix(1,0,0,1,0,0)">
						<rect x="274.06021" y="124.7009" fill="#3F5A78" width="5.05738" height="21.78562"></rect>
						<path fill="#33475B" d="M279.11771,147.98659h-5.05762c-0.82861,0-1.5-0.67188-1.5-1.5v-21.78614
							c0-0.82812,0.67139-1.5,1.5-1.5h5.05762c0.82861,0,1.5,0.67188,1.5,1.5v21.78614
							C280.61771,147.31471,279.94632,147.98659,279.11771,147.98659z M275.56009,144.98659h2.05762v-18.78614h-2.05762V144.98659z"></path>
					</g>
				</g>
				<g data-svg-origin="305.2388000488281 123.20044708251953" transform="matrix(1,0,0,1,0,0)">
					<g data-svg-origin="305.2388000488281 123.20044708251953" transform="matrix(1,0,0,1,0,0)">
						<rect x="306.73865" y="124.7009" fill="#516F90" width="17.11727" height="21.78562"></rect>
						<path fill="#33475B" d="M323.85599,147.98659H306.7388c-0.82861,0-1.5-0.67188-1.5-1.5v-21.78614
							c0-0.82812,0.67139-1.5,1.5-1.5h17.11719c0.82861,0,1.5,0.67188,1.5,1.5v21.78614
							C325.35599,147.31471,324.6846,147.98659,323.85599,147.98659z M308.2388,144.98659h14.11719v-18.78614H308.2388V144.98659z"></path>
					</g>
					<g data-svg-origin="305.2388000488281 123.20044708251953" transform="matrix(1,0,0,1,0,0)">
						<rect x="306.73865" y="124.7009" fill="#3F5A78" width="5.05738" height="21.78562"></rect>
						<path fill="#33475B" d="M311.79593,147.98659h-5.05713c-0.82861,0-1.5-0.67188-1.5-1.5v-21.78614
							c0-0.82812,0.67139-1.5,1.5-1.5h5.05713c0.82861,0,1.5,0.67188,1.5,1.5v21.78614
							C313.29593,147.31471,312.62454,147.98659,311.79593,147.98659z M308.2388,144.98659h2.05713v-18.78614h-2.05713V144.98659z"></path>
					</g>
				</g>
				<g data-svg-origin="337.9170227050781 123.20044708251953" transform="matrix(1,0,0,1,0,0)">
					<g data-svg-origin="337.9170227050781 123.20044708251953" transform="matrix(1,0,0,1,0,0)">
						<rect x="339.41708" y="124.7009" fill="#516F90" width="17.11727" height="21.78562"></rect>
						<path fill="#33475B" d="M356.53421,147.98659h-17.11719c-0.82861,0-1.5-0.67188-1.5-1.5v-21.78614
							c0-0.82812,0.67139-1.5,1.5-1.5h17.11719c0.82861,0,1.5,0.67188,1.5,1.5v21.78614
							C358.03421,147.31471,357.36282,147.98659,356.53421,147.98659z M340.91702,144.98659h14.11719v-18.78614h-14.11719V144.98659
							z"></path>
					</g>
					<g data-svg-origin="337.9170227050781 123.20044708251953" transform="matrix(1,0,0,1,0,0)">
						<rect x="339.41708" y="124.7009" fill="#3F5A78" width="5.05738" height="21.78562"></rect>
						<path fill="#33475B" d="M344.47464,147.98659h-5.05762c-0.82861,0-1.5-0.67188-1.5-1.5v-21.78614
							c0-0.82812,0.67139-1.5,1.5-1.5h5.05762c0.82861,0,1.5,0.67188,1.5,1.5v21.78614
							C345.97464,147.31471,345.30325,147.98659,344.47464,147.98659z M340.91702,144.98659h2.05762v-18.78614h-2.05762V144.98659z"></path>
					</g>
				</g>
				<g data-svg-origin="370.5957336425781 123.20044708251953" transform="matrix(1,0,0,1,0,0)">
					<g data-svg-origin="370.5957336425781 123.20044708251953" transform="matrix(1,0,0,1,0,0)">
						<rect x="372.09549" y="124.7009" fill="#516F90" width="17.11727" height="21.78562"></rect>
						<path fill="#33475B" d="M389.21292,147.98659h-17.11719c-0.82861,0-1.5-0.67188-1.5-1.5v-21.78614
							c0-0.82812,0.67139-1.5,1.5-1.5h17.11719c0.82861,0,1.5,0.67188,1.5,1.5v21.78614
							C390.71292,147.31471,390.04153,147.98659,389.21292,147.98659z M373.59573,144.98659h14.11719v-18.78614h-14.11719V144.98659
							z"></path>
					</g>
					<g data-svg-origin="370.5957336425781 123.20044708251953" transform="matrix(1,0,0,1,0,0)">
						<rect x="372.09549" y="124.7009" fill="#3F5A78" width="5.05738" height="21.78562"></rect>
						<path fill="#33475B" d="M377.15286,147.98659h-5.05713c-0.82861,0-1.5-0.67188-1.5-1.5v-21.78614
							c0-0.82812,0.67139-1.5,1.5-1.5h5.05713c0.82861,0,1.5,0.67188,1.5,1.5v21.78614
							C378.65286,147.31471,377.98148,147.98659,377.15286,147.98659z M373.59573,144.98659h2.05713v-18.78614h-2.05713V144.98659z"></path>
					</g>
				</g>
			</g>
			<g data-svg-origin="239.8818817138672 164.70533752441406" transform="matrix(1,0,0,1,0,0)">
				<g data-svg-origin="239.8818817138672 164.70533752441406" transform="matrix(1,0,0,1,0,0)">
					<g data-svg-origin="239.8818817138672 164.70533752441406" transform="matrix(1,0,0,1,0,0)">
						<rect x="241.38177" y="166.20573" fill="#516F90" width="17.11727" height="21.78562"></rect>
						<path fill="#33475B" d="M258.49905,189.49147h-17.11717c-0.82861,0-1.5-0.67188-1.5-1.5v-21.78613
							c0-0.82812,0.67139-1.5,1.5-1.5h17.11717c0.82861,0,1.5,0.67188,1.5,1.5v21.78613
							C259.99905,188.8196,259.32767,189.49147,258.49905,189.49147z M242.88188,186.49147h14.11717v-18.78613h-14.11717V186.49147z
							"></path>
					</g>
					<g data-svg-origin="239.8818817138672 164.70533752441406" transform="matrix(1,0,0,1,0,0)">
						<rect x="241.38177" y="166.20573" fill="#3F5A78" width="5.05738" height="21.78562"></rect>
						<path fill="#33475B" d="M246.43901,189.49147h-5.05713c-0.82861,0-1.5-0.67188-1.5-1.5v-21.78613
							c0-0.82812,0.67139-1.5,1.5-1.5h5.05713c0.82861,0,1.5,0.67188,1.5,1.5v21.78613
							C247.93901,188.8196,247.26762,189.49147,246.43901,189.49147z M242.88188,186.49147h2.05713v-18.78613h-2.05713V186.49147z"></path>
					</g>
				</g>
				<g data-svg-origin="272.5600891113281 164.70533752441406" transform="matrix(1,0,0,1,0,0)">
					<g data-svg-origin="272.5600891113281 164.70533752441406" transform="matrix(1,0,0,1,0,0)">
						<rect x="274.06021" y="166.20573" fill="#516F90" width="17.11727" height="21.78562"></rect>
						<path fill="#33475B" d="M291.17728,189.49147h-17.11719c-0.82861,0-1.5-0.67188-1.5-1.5v-21.78613
							c0-0.82812,0.67139-1.5,1.5-1.5h17.11719c0.82861,0,1.5,0.67188,1.5,1.5v21.78613
							C292.67728,188.8196,292.00589,189.49147,291.17728,189.49147z M275.56009,186.49147h14.11719v-18.78613h-14.11719V186.49147z
							"></path>
					</g>
					<g data-svg-origin="272.5600891113281 164.70533752441406" transform="matrix(1,0,0,1,0,0)">
						<rect x="274.06021" y="166.20573" fill="#3F5A78" width="5.05738" height="21.78562"></rect>
						<path fill="#33475B" d="M279.11771,189.49147h-5.05762c-0.82861,0-1.5-0.67188-1.5-1.5v-21.78613
							c0-0.82812,0.67139-1.5,1.5-1.5h5.05762c0.82861,0,1.5,0.67188,1.5,1.5v21.78613
							C280.61771,188.8196,279.94632,189.49147,279.11771,189.49147z M275.56009,186.49147h2.05762v-18.78613h-2.05762V186.49147z"></path>
					</g>
				</g>
				<g data-svg-origin="305.2388000488281 164.70533752441406" transform="matrix(1,0,0,1,0,0)">
					<g data-svg-origin="305.2388000488281 164.70533752441406" transform="matrix(1,0,0,1,0,0)">
						<rect x="306.73865" y="166.20573" fill="#516F90" width="17.11727" height="21.78562"></rect>
						<path fill="#33475B" d="M323.85599,189.49147H306.7388c-0.82861,0-1.5-0.67188-1.5-1.5v-21.78613
							c0-0.82812,0.67139-1.5,1.5-1.5h17.11719c0.82861,0,1.5,0.67188,1.5,1.5v21.78613
							C325.35599,188.8196,324.6846,189.49147,323.85599,189.49147z M308.2388,186.49147h14.11719v-18.78613H308.2388V186.49147z"></path>
					</g>
					<g data-svg-origin="305.2388000488281 164.70533752441406" transform="matrix(1,0,0,1,0,0)">
						<rect x="306.73865" y="166.20573" fill="#3F5A78" width="5.05738" height="21.78562"></rect>
						<path fill="#33475B" d="M311.79593,189.49147h-5.05713c-0.82861,0-1.5-0.67188-1.5-1.5v-21.78613
							c0-0.82812,0.67139-1.5,1.5-1.5h5.05713c0.82861,0,1.5,0.67188,1.5,1.5v21.78613
							C313.29593,188.8196,312.62454,189.49147,311.79593,189.49147z M308.2388,186.49147h2.05713v-18.78613h-2.05713V186.49147z"></path>
					</g>
				</g>
				<g data-svg-origin="337.9170227050781 164.70533752441406" transform="matrix(1,0,0,1,0,0)">
					<g data-svg-origin="337.9170227050781 164.70533752441406" transform="matrix(1,0,0,1,0,0)">
						<rect x="339.41708" y="166.20573" fill="#516F90" width="17.11727" height="21.78562"></rect>
						<path fill="#33475B" d="M356.53421,189.49147h-17.11719c-0.82861,0-1.5-0.67188-1.5-1.5v-21.78613
							c0-0.82812,0.67139-1.5,1.5-1.5h17.11719c0.82861,0,1.5,0.67188,1.5,1.5v21.78613
							C358.03421,188.8196,357.36282,189.49147,356.53421,189.49147z M340.91702,186.49147h14.11719v-18.78613h-14.11719V186.49147z
							"></path>
					</g>
					<g data-svg-origin="337.9170227050781 164.70533752441406" transform="matrix(1,0,0,1,0,0)">
						<rect x="339.41708" y="166.20573" fill="#3F5A78" width="5.05738" height="21.78562"></rect>
						<path fill="#33475B" d="M344.47464,189.49147h-5.05762c-0.82861,0-1.5-0.67188-1.5-1.5v-21.78613
							c0-0.82812,0.67139-1.5,1.5-1.5h5.05762c0.82861,0,1.5,0.67188,1.5,1.5v21.78613
							C345.97464,188.8196,345.30325,189.49147,344.47464,189.49147z M340.91702,186.49147h2.05762v-18.78613h-2.05762V186.49147z"></path>
					</g>
				</g>
				<g data-svg-origin="370.5957336425781 164.70533752441406" transform="matrix(1,0,0,1,0,0)">
					<g data-svg-origin="370.5957336425781 164.70533752441406" transform="matrix(1,0,0,1,0,0)">
						<rect x="372.09549" y="166.20573" fill="#516F90" width="17.11727" height="21.78562"></rect>
						<path fill="#33475B" d="M389.21292,189.49147h-17.11719c-0.82861,0-1.5-0.67188-1.5-1.5v-21.78613
							c0-0.82812,0.67139-1.5,1.5-1.5h17.11719c0.82861,0,1.5,0.67188,1.5,1.5v21.78613
							C390.71292,188.8196,390.04153,189.49147,389.21292,189.49147z M373.59573,186.49147h14.11719v-18.78613h-14.11719V186.49147z
							"></path>
					</g>
					<g data-svg-origin="370.5957336425781 164.70533752441406" transform="matrix(1,0,0,1,0,0)">
						<rect x="372.09549" y="166.20573" fill="#3F5A78" width="5.05738" height="21.78562"></rect>
						<path fill="#33475B" d="M377.15286,189.49147h-5.05713c-0.82861,0-1.5-0.67188-1.5-1.5v-21.78613
							c0-0.82812,0.67139-1.5,1.5-1.5h5.05713c0.82861,0,1.5,0.67188,1.5,1.5v21.78613
							C378.65286,188.8196,377.98148,189.49147,377.15286,189.49147z M373.59573,186.49147h2.05713v-18.78613h-2.05713V186.49147z"></path>
					</g>
				</g>
			</g>
		</g>
		<g data-svg-origin="446.2617492675781 81.69605255126953" transform="matrix(1,0,0,1,0,0)">
			<g data-svg-origin="446.2617492675781 81.69605255126953" transform="matrix(1,0,0,1,0,0)">
				<g data-svg-origin="446.2617492675781 81.69605255126953" transform="matrix(1,0,0,1,0,0)">
					<g data-svg-origin="446.2617492675781 81.69605255126953" transform="matrix(1,0,0,1,0,0)">
						<rect x="447.76163" y="83.19608" fill="#516F90" width="17.11727" height="21.78562"></rect>
						<path fill="#33475B" d="M464.87894,106.4817h-17.11719c-0.82812,0-1.5-0.67188-1.5-1.5V83.19605
							c0-0.82861,0.67188-1.5,1.5-1.5h17.11719c0.82812,0,1.5,0.67139,1.5,1.5v21.78564
							C466.37894,105.80982,465.70706,106.4817,464.87894,106.4817z M449.26175,103.4817h14.11719V84.69605h-14.11719V103.4817z"></path>
					</g>
					<g data-svg-origin="446.2617492675781 81.69605255126953" transform="matrix(1,0,0,1,0,0)">
						<rect x="447.76163" y="83.19608" fill="#3F5A78" width="5.05738" height="21.78562"></rect>
						<path fill="#33475B" d="M452.81937,106.4817h-5.05762c-0.82812,0-1.5-0.67188-1.5-1.5V83.19605c0-0.82861,0.67188-1.5,1.5-1.5
							h5.05762c0.82812,0,1.5,0.67139,1.5,1.5v21.78564C454.31937,105.80982,453.64749,106.4817,452.81937,106.4817z
							 M449.26175,103.4817h2.05762V84.69605h-2.05762V103.4817z"></path>
					</g>
				</g>
				<g data-svg-origin="478.9404602050781 81.69605255126953" transform="matrix(1,0,0,1,0,0)">
					<g data-svg-origin="478.9404602050781 81.69605255126953" transform="matrix(1,0,0,1,0,0)">
						<rect x="480.44006" y="83.19608" fill="#516F90" width="17.11727" height="21.78562"></rect>
						<path fill="#33475B" d="M497.55765,106.4817h-17.11719c-0.82812,0-1.5-0.67188-1.5-1.5V83.19605
							c0-0.82861,0.67188-1.5,1.5-1.5h17.11719c0.82812,0,1.5,0.67139,1.5,1.5v21.78564
							C499.05765,105.80982,498.38577,106.4817,497.55765,106.4817z M481.94046,103.4817h14.11719V84.69605h-14.11719V103.4817z"></path>
					</g>
					<g data-svg-origin="478.9404602050781 81.69605255126953" transform="matrix(1,0,0,1,0,0)">
						<rect x="480.44006" y="83.19608" fill="#3F5A78" width="5.05738" height="21.78562"></rect>
						<path fill="#33475B" d="M485.4971,106.4817h-5.05664c-0.82812,0-1.5-0.67188-1.5-1.5V83.19605c0-0.82861,0.67188-1.5,1.5-1.5
							h5.05664c0.82812,0,1.5,0.67139,1.5,1.5v21.78564C486.9971,105.80982,486.32523,106.4817,485.4971,106.4817z
							 M481.94046,103.4817h2.05664V84.69605h-2.05664V103.4817z"></path>
					</g>
				</g>
				<g data-svg-origin="511.6181945800781 81.69605255126953" transform="matrix(1,0,0,1,0,0)">
					<g data-svg-origin="511.6181945800781 81.69605255126953" transform="matrix(1,0,0,1,0,0)">
						<rect x="513.11847" y="83.19608" fill="#516F90" width="17.11727" height="21.78562"></rect>
						<path fill="#33475B" d="M530.23541,106.4817h-17.11719c-0.82812,0-1.50003-0.67188-1.50003-1.5V83.19605
							c0-0.82861,0.67191-1.5,1.50003-1.5h17.11719c0.82812,0,1.5,0.67139,1.5,1.5v21.78564
							C531.73541,105.80982,531.06354,106.4817,530.23541,106.4817z M514.61823,103.4817h14.11719V84.69605h-14.11719V103.4817z"></path>
					</g>
					<g data-svg-origin="511.6181945800781 81.69605255126953" transform="matrix(1,0,0,1,0,0)">
						<rect x="513.11847" y="83.19608" fill="#3F5A78" width="5.05738" height="21.78562"></rect>
						<path fill="#33475B" d="M518.17584,106.4817h-5.05762c-0.82812,0-1.50003-0.67188-1.50003-1.5V83.19605
							c0-0.82861,0.67191-1.5,1.50003-1.5h5.05762c0.82812,0,1.5,0.67139,1.5,1.5v21.78564
							C519.67584,105.80982,519.00397,106.4817,518.17584,106.4817z M514.61823,103.4817h2.05762V84.69605h-2.05762V103.4817z"></path>
					</g>
				</g>
			</g>
			<g data-svg-origin="446.2617492675781 123.20044708251953" transform="matrix(1,0,0,1,0,0)">
				<g data-svg-origin="446.2617492675781 123.20044708251953" transform="matrix(1,0,0,1,0,0)">
					<g data-svg-origin="446.2617492675781 123.20044708251953" transform="matrix(1,0,0,1,0,0)">
						<rect x="447.76163" y="124.7009" fill="#516F90" width="17.11727" height="21.78562"></rect>
						<path fill="#33475B" d="M464.87894,147.98659h-17.11719c-0.82812,0-1.5-0.67188-1.5-1.5v-21.78614
							c0-0.82812,0.67188-1.5,1.5-1.5h17.11719c0.82812,0,1.5,0.67188,1.5,1.5v21.78614
							C466.37894,147.31471,465.70706,147.98659,464.87894,147.98659z M449.26175,144.98659h14.11719v-18.78614h-14.11719V144.98659
							z"></path>
					</g>
					<g data-svg-origin="446.2617492675781 123.20044708251953" transform="matrix(1,0,0,1,0,0)">
						<rect x="447.76163" y="124.7009" fill="#3F5A78" width="5.05738" height="21.78562"></rect>
						<path fill="#33475B" d="M452.81937,147.98659h-5.05762c-0.82812,0-1.5-0.67188-1.5-1.5v-21.78614
							c0-0.82812,0.67188-1.5,1.5-1.5h5.05762c0.82812,0,1.5,0.67188,1.5,1.5v21.78614
							C454.31937,147.31471,453.64749,147.98659,452.81937,147.98659z M449.26175,144.98659h2.05762v-18.78614h-2.05762V144.98659z"></path>
					</g>
				</g>
				<g data-svg-origin="478.9404602050781 123.20044708251953" transform="matrix(1,0,0,1,0,0)">
					<g data-svg-origin="478.9404602050781 123.20044708251953" transform="matrix(1,0,0,1,0,0)">
						<rect x="480.44006" y="124.7009" fill="#516F90" width="17.11727" height="21.78562"></rect>
						<path fill="#33475B" d="M497.55765,147.98659h-17.11719c-0.82812,0-1.5-0.67188-1.5-1.5v-21.78614
							c0-0.82812,0.67188-1.5,1.5-1.5h17.11719c0.82812,0,1.5,0.67188,1.5,1.5v21.78614
							C499.05765,147.31471,498.38577,147.98659,497.55765,147.98659z M481.94046,144.98659h14.11719v-18.78614h-14.11719V144.98659
							z"></path>
					</g>
					<g data-svg-origin="478.9404602050781 123.20044708251953" transform="matrix(1,0,0,1,0,0)">
						<rect x="480.44006" y="124.7009" fill="#3F5A78" width="5.05738" height="21.78562"></rect>
						<path fill="#33475B" d="M485.4971,147.98659h-5.05664c-0.82812,0-1.5-0.67188-1.5-1.5v-21.78614
							c0-0.82812,0.67188-1.5,1.5-1.5h5.05664c0.82812,0,1.5,0.67188,1.5,1.5v21.78614
							C486.9971,147.31471,486.32523,147.98659,485.4971,147.98659z M481.94046,144.98659h2.05664v-18.78614h-2.05664V144.98659z"></path>
					</g>
				</g>
				<g data-svg-origin="511.6181945800781 123.20044708251953" transform="matrix(1,0,0,1,0,0)">
					<g data-svg-origin="511.6181945800781 123.20044708251953" transform="matrix(1,0,0,1,0,0)">
						<rect x="513.11847" y="124.7009" fill="#516F90" width="17.11727" height="21.78562"></rect>
						<path fill="#33475B" d="M530.23541,147.98659h-17.11719c-0.82812,0-1.50003-0.67188-1.50003-1.5v-21.78614
							c0-0.82812,0.67191-1.5,1.50003-1.5h17.11719c0.82812,0,1.5,0.67188,1.5,1.5v21.78614
							C531.73541,147.31471,531.06354,147.98659,530.23541,147.98659z M514.61823,144.98659h14.11719v-18.78614h-14.11719V144.98659
							z"></path>
					</g>
					<g data-svg-origin="511.6181945800781 123.20044708251953" transform="matrix(1,0,0,1,0,0)">
						<rect x="513.11847" y="124.7009" fill="#3F5A78" width="5.05738" height="21.78562"></rect>
						<path fill="#33475B" d="M518.17584,147.98659h-5.05762c-0.82812,0-1.50003-0.67188-1.50003-1.5v-21.78614
							c0-0.82812,0.67191-1.5,1.50003-1.5h5.05762c0.82812,0,1.5,0.67188,1.5,1.5v21.78614
							C519.67584,147.31471,519.00397,147.98659,518.17584,147.98659z M514.61823,144.98659h2.05762v-18.78614h-2.05762V144.98659z"></path>
					</g>
				</g>
			</g>
			<g data-svg-origin="446.2617492675781 164.70533752441406" transform="matrix(1,0,0,1,0,0)">
				<g data-svg-origin="446.2617492675781 164.70533752441406" transform="matrix(1,0,0,1,0,0)">
					<g data-svg-origin="446.2617492675781 164.70533752441406" transform="matrix(1,0,0,1,0,0)">
						<rect x="447.76163" y="166.20573" fill="#516F90" width="17.11727" height="21.78562"></rect>
						<path fill="#33475B" d="M464.87894,189.49147h-17.11719c-0.82812,0-1.5-0.67188-1.5-1.5v-21.78613
							c0-0.82812,0.67188-1.5,1.5-1.5h17.11719c0.82812,0,1.5,0.67188,1.5,1.5v21.78613
							C466.37894,188.8196,465.70706,189.49147,464.87894,189.49147z M449.26175,186.49147h14.11719v-18.78613h-14.11719V186.49147z
							"></path>
					</g>
					<g data-svg-origin="446.2617492675781 164.70533752441406" transform="matrix(1,0,0,1,0,0)">
						<rect x="447.76163" y="166.20573" fill="#3F5A78" width="5.05738" height="21.78562"></rect>
						<path fill="#33475B" d="M452.81937,189.49147h-5.05762c-0.82812,0-1.5-0.67188-1.5-1.5v-21.78613
							c0-0.82812,0.67188-1.5,1.5-1.5h5.05762c0.82812,0,1.5,0.67188,1.5,1.5v21.78613
							C454.31937,188.8196,453.64749,189.49147,452.81937,189.49147z M449.26175,186.49147h2.05762v-18.78613h-2.05762V186.49147z"></path>
					</g>
				</g>
				<g data-svg-origin="478.9404602050781 164.70533752441406" transform="matrix(1,0,0,1,0,0)">
					<g data-svg-origin="478.9404602050781 164.70533752441406" transform="matrix(1,0,0,1,0,0)">
						<rect x="480.44006" y="166.20573" fill="#516F90" width="17.11727" height="21.78562"></rect>
						<path fill="#33475B" d="M497.55765,189.49147h-17.11719c-0.82812,0-1.5-0.67188-1.5-1.5v-21.78613
							c0-0.82812,0.67188-1.5,1.5-1.5h17.11719c0.82812,0,1.5,0.67188,1.5,1.5v21.78613
							C499.05765,188.8196,498.38577,189.49147,497.55765,189.49147z M481.94046,186.49147h14.11719v-18.78613h-14.11719V186.49147z
							"></path>
					</g>
					<g data-svg-origin="478.9404602050781 164.70533752441406" transform="matrix(1,0,0,1,0,0)">
						<rect x="480.44006" y="166.20573" fill="#3F5A78" width="5.05738" height="21.78562"></rect>
						<path fill="#33475B" d="M485.4971,189.49147h-5.05664c-0.82812,0-1.5-0.67188-1.5-1.5v-21.78613
							c0-0.82812,0.67188-1.5,1.5-1.5h5.05664c0.82812,0,1.5,0.67188,1.5,1.5v21.78613
							C486.9971,188.8196,486.32523,189.49147,485.4971,189.49147z M481.94046,186.49147h2.05664v-18.78613h-2.05664V186.49147z"></path>
					</g>
				</g>
				<g data-svg-origin="511.6181945800781 164.70533752441406" transform="matrix(1,0,0,1,0,0)">
					<g data-svg-origin="511.6181945800781 164.70533752441406" transform="matrix(1,0,0,1,0,0)">
						<rect x="513.11847" y="166.20573" fill="#516F90" width="17.11727" height="21.78562"></rect>
						<path fill="#33475B" d="M530.23541,189.49147h-17.11719c-0.82812,0-1.50003-0.67188-1.50003-1.5v-21.78613
							c0-0.82812,0.67191-1.5,1.50003-1.5h17.11719c0.82812,0,1.5,0.67188,1.5,1.5v21.78613
							C531.73541,188.8196,531.06354,189.49147,530.23541,189.49147z M514.61823,186.49147h14.11719v-18.78613h-14.11719V186.49147z
							"></path>
					</g>
					<g data-svg-origin="511.6181945800781 164.70533752441406" transform="matrix(1,0,0,1,0,0)">
						<rect x="513.11847" y="166.20573" fill="#3F5A78" width="5.05738" height="21.78562"></rect>
						<path fill="#33475B" d="M518.17584,189.49147h-5.05762c-0.82812,0-1.50003-0.67188-1.50003-1.5v-21.78613
							c0-0.82812,0.67191-1.5,1.50003-1.5h5.05762c0.82812,0,1.5,0.67188,1.5,1.5v21.78613
							C519.67584,188.8196,519.00397,189.49147,518.17584,189.49147z M514.61823,186.49147h2.05762v-18.78613h-2.05762V186.49147z"></path>
					</g>
				</g>
			</g>
			<g data-svg-origin="446.2617492675781 206.21022033691406" transform="matrix(1,0,0,1,0,0)">
				<g data-svg-origin="446.2617492675781 206.21022033691406" transform="matrix(1,0,0,1,0,0)">
					<g data-svg-origin="446.2617492675781 206.21022033691406" transform="matrix(1,0,0,1,0,0)">
						<rect x="447.76163" y="207.71056" fill="#516F90" width="17.11727" height="21.78562"></rect>
						<path fill="#33475B" d="M464.87894,230.99635h-17.11719c-0.82812,0-1.5-0.67188-1.5-1.5v-21.78613
							c0-0.82812,0.67188-1.5,1.5-1.5h17.11719c0.82812,0,1.5,0.67188,1.5,1.5v21.78613
							C466.37894,230.32448,465.70706,230.99635,464.87894,230.99635z M449.26175,227.99635h14.11719v-18.78613h-14.11719V227.99635
							z"></path>
					</g>
					<g data-svg-origin="446.2617492675781 206.21022033691406" transform="matrix(1,0,0,1,0,0)">
						<rect x="447.76163" y="207.71056" fill="#3F5A78" width="5.05738" height="21.78562"></rect>
						<path fill="#33475B" d="M452.81937,230.99635h-5.05762c-0.82812,0-1.5-0.67188-1.5-1.5v-21.78613
							c0-0.82812,0.67188-1.5,1.5-1.5h5.05762c0.82812,0,1.5,0.67188,1.5,1.5v21.78613
							C454.31937,230.32448,453.64749,230.99635,452.81937,230.99635z M449.26175,227.99635h2.05762v-18.78613h-2.05762V227.99635z"></path>
					</g>
				</g>
				<g data-svg-origin="478.9404602050781 206.21022033691406" transform="matrix(1,0,0,1,0,0)">
					<g data-svg-origin="478.9404602050781 206.21022033691406" transform="matrix(1,0,0,1,0,0)">
						<rect x="480.44006" y="207.71056" fill="#516F90" width="17.11727" height="21.78562"></rect>
						<path fill="#33475B" d="M497.55765,230.99635h-17.11719c-0.82812,0-1.5-0.67188-1.5-1.5v-21.78613
							c0-0.82812,0.67188-1.5,1.5-1.5h17.11719c0.82812,0,1.5,0.67188,1.5,1.5v21.78613
							C499.05765,230.32448,498.38577,230.99635,497.55765,230.99635z M481.94046,227.99635h14.11719v-18.78613h-14.11719V227.99635
							z"></path>
					</g>
					<g data-svg-origin="478.9404602050781 206.21022033691406" transform="matrix(1,0,0,1,0,0)">
						<rect x="480.44006" y="207.71056" fill="#3F5A78" width="5.05738" height="21.78562"></rect>
						<path fill="#33475B" d="M485.4971,230.99635h-5.05664c-0.82812,0-1.5-0.67188-1.5-1.5v-21.78613
							c0-0.82812,0.67188-1.5,1.5-1.5h5.05664c0.82812,0,1.5,0.67188,1.5,1.5v21.78613
							C486.9971,230.32448,486.32523,230.99635,485.4971,230.99635z M481.94046,227.99635h2.05664v-18.78613h-2.05664V227.99635z"></path>
					</g>
				</g>
				<g data-svg-origin="511.6181945800781 206.21022033691406" transform="matrix(1,0,0,1,0,0)">
					<g data-svg-origin="511.6181945800781 206.21022033691406" transform="matrix(1,0,0,1,0,0)">
						<rect x="513.11847" y="207.71056" fill="#516F90" width="17.11727" height="21.78562"></rect>
						<path fill="#33475B" d="M530.23541,230.99635h-17.11719c-0.82812,0-1.50003-0.67188-1.50003-1.5v-21.78613
							c0-0.82812,0.67191-1.5,1.50003-1.5h17.11719c0.82812,0,1.5,0.67188,1.5,1.5v21.78613
							C531.73541,230.32448,531.06354,230.99635,530.23541,230.99635z M514.61823,227.99635h14.11719v-18.78613h-14.11719V227.99635
							z"></path>
					</g>
					<g data-svg-origin="511.6181945800781 206.21022033691406" transform="matrix(1,0,0,1,0,0)">
						<rect x="513.11847" y="207.71056" fill="#3F5A78" width="5.05738" height="21.78562"></rect>
						<path fill="#33475B" d="M518.17584,230.99635h-5.05762c-0.82812,0-1.50003-0.67188-1.50003-1.5v-21.78613
							c0-0.82812,0.67191-1.5,1.50003-1.5h5.05762c0.82812,0,1.5,0.67188,1.5,1.5v21.78613
							C519.67584,230.32448,519.00397,230.99635,518.17584,230.99635z M514.61823,227.99635h2.05762v-18.78613h-2.05762V227.99635z"></path>
					</g>
				</g>
			</g>
			<g data-svg-origin="446.2617492675781 247.71510314941406" transform="matrix(1,0,0,1,0,0)">
				<g data-svg-origin="446.2617492675781 247.71510314941406" transform="matrix(1,0,0,1,0,0)">
					<g data-svg-origin="446.2617492675781 247.71510314941406" transform="matrix(1,0,0,1,0,0)">
						<rect x="447.76163" y="249.21538" fill="#516F90" width="17.11727" height="21.78562"></rect>
						<path fill="#33475B" d="M464.87894,272.50122h-17.11719c-0.82812,0-1.5-0.67188-1.5-1.5V249.2151
							c0-0.82812,0.67188-1.5,1.5-1.5h17.11719c0.82812,0,1.5,0.67188,1.5,1.5v21.78612
							C466.37894,271.82935,465.70706,272.50122,464.87894,272.50122z M449.26175,269.50122h14.11719V250.7151h-14.11719V269.50122z
							"></path>
					</g>
					<g data-svg-origin="446.2617492675781 247.71510314941406" transform="matrix(1,0,0,1,0,0)">
						<rect x="447.76163" y="249.21538" fill="#3F5A78" width="5.05738" height="21.78562"></rect>
						<path fill="#33475B" d="M452.81937,272.50122h-5.05762c-0.82812,0-1.5-0.67188-1.5-1.5V249.2151
							c0-0.82812,0.67188-1.5,1.5-1.5h5.05762c0.82812,0,1.5,0.67188,1.5,1.5v21.78612
							C454.31937,271.82935,453.64749,272.50122,452.81937,272.50122z M449.26175,269.50122h2.05762V250.7151h-2.05762V269.50122z"></path>
					</g>
				</g>
				<g data-svg-origin="478.9404602050781 247.71510314941406" transform="matrix(1,0,0,1,0,0)">
					<g data-svg-origin="478.9404602050781 247.71510314941406" transform="matrix(1,0,0,1,0,0)">
						<rect x="480.44006" y="249.21538" fill="#516F90" width="17.11727" height="21.78562"></rect>
						<path fill="#33475B" d="M497.55765,272.50122h-17.11719c-0.82812,0-1.5-0.67188-1.5-1.5V249.2151
							c0-0.82812,0.67188-1.5,1.5-1.5h17.11719c0.82812,0,1.5,0.67188,1.5,1.5v21.78612
							C499.05765,271.82935,498.38577,272.50122,497.55765,272.50122z M481.94046,269.50122h14.11719V250.7151h-14.11719V269.50122z
							"></path>
					</g>
					<g data-svg-origin="478.9404602050781 247.71510314941406" transform="matrix(1,0,0,1,0,0)">
						<rect x="480.44006" y="249.21538" fill="#3F5A78" width="5.05738" height="21.78562"></rect>
						<path fill="#33475B" d="M485.4971,272.50122h-5.05664c-0.82812,0-1.5-0.67188-1.5-1.5V249.2151c0-0.82812,0.67188-1.5,1.5-1.5
							h5.05664c0.82812,0,1.5,0.67188,1.5,1.5v21.78612C486.9971,271.82935,486.32523,272.50122,485.4971,272.50122z
							 M481.94046,269.50122h2.05664V250.7151h-2.05664V269.50122z"></path>
					</g>
				</g>
				<g data-svg-origin="511.6181945800781 247.71510314941406" transform="matrix(1,0,0,1,0,0)">
					<g data-svg-origin="511.6181945800781 247.71510314941406" transform="matrix(1,0,0,1,0,0)">
						<rect x="513.11847" y="249.21538" fill="#516F90" width="17.11727" height="21.78562"></rect>
						<path fill="#33475B" d="M530.23541,272.50122h-17.11719c-0.82812,0-1.50003-0.67188-1.50003-1.5V249.2151
							c0-0.82812,0.67191-1.5,1.50003-1.5h17.11719c0.82812,0,1.5,0.67188,1.5,1.5v21.78612
							C531.73541,271.82935,531.06354,272.50122,530.23541,272.50122z M514.61823,269.50122h14.11719V250.7151h-14.11719V269.50122z
							"></path>
					</g>
					<g data-svg-origin="511.6181945800781 247.71510314941406" transform="matrix(1,0,0,1,0,0)">
						<rect x="513.11847" y="249.21538" fill="#3F5A78" width="5.05738" height="21.78562"></rect>
						<path fill="#33475B" d="M518.17584,272.50122h-5.05762c-0.82812,0-1.50003-0.67188-1.50003-1.5V249.2151
							c0-0.82812,0.67191-1.5,1.50003-1.5h5.05762c0.82812,0,1.5,0.67188,1.5,1.5v21.78612
							C519.67584,271.82935,519.00397,272.50122,518.17584,272.50122z M514.61823,269.50122h2.05762V250.7151h-2.05762V269.50122z"></path>
					</g>
				</g>
			</g>
		</g>
		<g data-svg-origin="266.5303039550781 -0.00022983551025390625" transform="matrix(1,0,0,1,0,0)">
			<g data-svg-origin="266.5303039550781 -0.00022983551025390625" transform="matrix(1,0,0,1,0,0)">
				<path fill="#FFFFFF" d="M357.50015,67.63492h-85.57272c-2.15231,0-3.89709-1.7448-3.89709-3.89711V5.39712
					c0-2.15232,1.74478-3.89712,3.89709-3.89712h85.57272c2.15231,0,3.89713,1.7448,3.89713,3.89712V63.7378
					C361.39728,65.89012,359.65247,67.63492,357.50015,67.63492z"></path>
				<path fill="#33475B" d="M357.50003,69.13502h-85.57275c-2.97607,0-5.39697-2.4209-5.39697-5.39697V5.39723
					c0-2.97607,2.4209-5.39746,5.39697-5.39746h85.57275c2.97607,0,5.39746,2.42139,5.39746,5.39746v58.34082
					C362.89749,66.71412,360.4761,69.13502,357.50003,69.13502z M271.92728,2.99977c-1.32178,0-2.39697,1.07568-2.39697,2.39746
					v58.34082c0,1.32177,1.0752,2.39697,2.39697,2.39697h85.57275c1.32178,0,2.39746-1.0752,2.39746-2.39697V5.39723
					c0-1.32178-1.07568-2.39746-2.39746-2.39746H271.92728z"></path>
			</g>
			<g data-svg-origin="293.7622375488281 13.61596965789795" transform="matrix(1,0,0,1,0,0)">
				<polygon fill="#ED537D" points="334.16525,27.1452 322.13608,27.1452 322.13608,15.11601 307.29153,15.11601 307.29153,27.1452 
					295.26236,27.1452 295.26236,41.98972 307.29153,41.98972 307.29153,54.01891 322.13608,54.01891 322.13608,41.98972 
					334.16525,41.98972 				"></polygon>
				<path fill="#33475B" d="M322.13626,55.51881h-14.84473c-0.82861,0-1.5-0.67139-1.5-1.5v-10.5293h-10.5293
					c-0.82861,0-1.5-0.67139-1.5-1.5V27.14527c0-0.82861,0.67139-1.5,1.5-1.5h10.5293v-10.5293c0-0.82861,0.67139-1.5,1.5-1.5
					h14.84473c0.82861,0,1.5,0.67139,1.5,1.5v10.5293h10.52881c0.82861,0,1.5,0.67139,1.5,1.5v14.84424
					c0,0.82861-0.67139,1.5-1.5,1.5h-10.52881v10.5293C323.63626,54.84742,322.96487,55.51881,322.13626,55.51881z
					 M308.79153,52.51881h11.84473v-10.5293c0-0.82861,0.67139-1.5,1.5-1.5h10.52881V28.64527h-10.52881
					c-0.82861,0-1.5-0.67139-1.5-1.5v-10.5293h-11.84473v10.5293c0,0.82861-0.67139,1.5-1.5,1.5h-10.5293v11.84424h10.5293
					c0.82861,0,1.5,0.67139,1.5,1.5V52.51881z"></path>
			</g>
		</g>
	</g>
</g>
</svg>