<svg version="1.1" id="Layer_1___eTLZZKOh" xmlns="http://www.w3.org/2000/svg" xmlns:xlink="http://www.w3.org/1999/xlink" x="0px" y="0px" viewBox="0 0 737.09912 261.875" enable-background="new 0 0 737.09912 261.875" xml:space="preserve">
<g data-svg-origin="0 0" transform="matrix(1,0,0,1,0,0)">
	<defs>
		<rect id="SVGID_1____eTLZZKOh" width="737.09998" height="261.87451"></rect>
	</defs>
	<clipPath id="SVGID_2____eTLZZKOh">
		<use xlink:href="#SVGID_1____eTLZZKOh" overflow="visible"></use>
	</clipPath>
	<g clip-path="url(#SVGID_2____eTLZZKOh)" data-svg-origin="0 0" transform="matrix(1,0,0,1,0,0)">
		<g data-svg-origin="83.298828125 72.25341796875" transform="matrix(1,0,0,1,0,0)">
			<path fill="#54BEA6" d="M121.33825,73.75321c-22.9762,53.35783-36.53921,119.11027-36.53921,190.2356h73.06749
				C157.86653,192.86348,144.30359,127.11105,121.33825,73.75321z"></path>
			<path fill="#33475B" d="M157.8667,265.48877H84.79883c-0.82861,0-1.5-0.67188-1.5-1.5
				c0-69.14355,12.67725-135.13086,36.66162-190.82812c0.2373-0.55078,0.77881-0.90723,1.37793-0.90723l0,0
				c0.59912,0,1.14111,0.35645,1.37793,0.90723c23.97705,55.70801,36.65039,121.69531,36.65039,190.82812
				C159.3667,264.81689,158.69531,265.48877,157.8667,265.48877z M86.30078,262.48877h70.06396
				c-0.17773-66.84668-12.27246-130.6582-35.02686-184.90039C98.57666,131.8208,86.479,195.63232,86.30078,262.48877z"></path>
		</g>
		<g data-svg-origin="18.50471305847168 157.48974609375" transform="matrix(1,0,0,1,0,0)">
			<path fill="#54BEA6" d="M20.00682,221.85115c0.13032,16.29329,6.51039,31.10132,16.86641,42.13762h178.70532
				c4.47752-6.83841,7.08014-15.00813,7.08226-23.79338c0.00577-23.8875-19.53394-43.47308-43.42137-43.52072
				c-5.44495-0.01086-10.6577,0.97868-15.4648,2.79517c-10.36848,3.918-21.99506-0.09605-27.60744-9.65416
				c-10.84051-18.46179-30.91199-30.84987-53.87179-30.82634C47.55398,159.02495,19.72896,187.11079,20.00682,221.85115z"></path>
			<path fill="#33475B" d="M215.57861,265.48877H36.87305c-0.41455,0-0.81006-0.17188-1.09375-0.47363
				c-11.00977-11.73242-17.14355-27.05762-17.27246-43.15234c-0.1377-17.20703,6.41504-33.37207,18.45117-45.5166
				c12.0332-12.14258,28.13379-18.83887,45.33594-18.85645c0.02197,0,0.04492,0,0.06689,0
				c22.55615,0,43.66406,12.09082,55.09961,31.56641c5.22217,8.89258,16.06543,12.68652,25.78369,9.01074
				c5.08057-1.91992,10.43213-2.89258,15.90723-2.89258c0.03027,0,0.06006,0,0.09082,0
				c24.77441,0.0498,44.92432,20.24609,44.91846,45.02148c-0.00195,8.78516-2.53564,17.2959-7.32715,24.61426
				C216.55664,265.23389,216.08447,265.48877,215.57861,265.48877z M37.52734,262.48877h177.23145
				c4.18896-6.67383,6.3999-14.36426,6.40186-22.29297c0.00586-23.125-18.80176-41.97559-41.92432-42.02148
				c-0.02832,0-0.05713,0-0.08545,0c-5.11133,0-10.10596,0.9082-14.84619,2.69922
				c-11.08936,4.18848-23.46631-0.1416-29.43115-10.29785c-10.89844-18.56152-31.01709-30.08594-52.5127-30.08594
				c-0.02197,0-0.0415,0-0.06396,0c-16.39697,0.0166-31.7417,6.39746-43.20801,17.96777
				c-11.46924,11.57324-17.71338,26.97949-17.58203,43.38184C21.62793,236.96143,27.31152,251.37061,37.52734,262.48877z"></path>
		</g>
		<g data-svg-origin="69.58349609375 184.63623046875" transform="matrix(1,0,0,1,0,0)">
			<path fill="#7FDED2" d="M221.34233,232.74568c-0.09662,12.08072-4.82715,23.0602-12.50566,31.24312H76.33491
				c-3.31989-5.07037-5.2496-11.12785-5.25118-17.64171c-0.00427-17.71147,14.48352-32.23329,32.19495-32.26862
				c4.03718-0.00806,7.9022,0.72565,11.46644,2.07249c7.68776,2.90501,16.30832-0.07121,20.46964-7.15811
				c8.03773-13.68858,22.91983-22.87376,39.94345-22.85631C200.91739,186.16295,221.54836,206.98732,221.34233,232.74568z"></path>
			<path fill="#33475B" d="M208.83643,265.48877H76.33496c-0.50586,0-0.97803-0.25488-1.25488-0.67871
				c-3.59375-5.48828-5.49463-11.87305-5.49658-18.46289c-0.00391-18.58301,15.11035-33.73145,33.69238-33.76855
				c4.16113-0.0459,8.16895,0.72168,11.99951,2.16895c7.0293,2.6582,14.87061-0.08398,18.646-6.51465
				c8.54834-14.55762,24.32812-23.59668,41.18945-23.59668c0.0166,0,0.03223,0,0.04883,0
				c12.85889,0.0127,24.89453,5.01953,33.88965,14.0957c8.99756,9.0791,13.896,21.16309,13.79297,34.02539
				c-0.09619,12.03125-4.68213,23.4873-12.91211,32.25781C209.64648,265.31689,209.25098,265.48877,208.83643,265.48877z
				 M77.1582,262.48877h131.02246c7.43701-8.15527,11.57324-18.69531,11.66162-29.75488l1.5,0.01172l-1.5-0.01172
				c0.09668-12.05762-4.49316-23.38281-12.92383-31.88965c-8.42871-8.50488-19.7085-13.19531-31.76172-13.20801
				c-0.01465,0-0.03125,0-0.0459,0c-15.80273,0-30.59033,8.4707-38.60254,22.11621
				c-4.51807,7.69531-13.89209,10.97559-22.29346,7.80176c-3.48877-1.31836-7.20508-2.01465-10.93311-1.97559
				c-16.93066,0.0332-30.70215,13.83594-30.69824,30.76855C72.58545,252.08154,74.16455,257.64502,77.1582,262.48877z"></path>
		</g>
		<g data-svg-origin="0 130.86962890625" transform="matrix(1,0,0,1,0,0)">
			<path fill="#54BEA6" d="M26.78069,132.36951C10.88403,169.28647,1.50012,214.77895,1.50012,263.9888h50.55359
				C52.05371,214.77895,42.66984,169.28647,26.78069,132.36951z"></path>
			<path fill="#33475B" d="M52.05371,265.48877H1.5c-0.82861,0-1.5-0.67188-1.5-1.5c0-47.90039,8.78418-93.61914,25.40283-132.21191
				c0.2373-0.55078,0.77881-0.90723,1.37793-0.90723l0,0c0.59912,0,1.14111,0.35645,1.37793,0.90723
				c16.61328,38.59961,25.39502,84.31836,25.39502,132.21191C53.55371,264.81689,52.88232,265.48877,52.05371,265.48877z
				 M3.00293,262.48877h47.54785c-0.17627-45.60059-8.37744-89.13965-23.77051-126.26562
				C11.38281,173.34229,3.1792,216.88135,3.00293,262.48877z"></path>
		</g>
		<g data-svg-origin="194.27392578125 34.393550872802734" transform="matrix(1,0,0,1,0,0)">
			<rect x="203.10403" y="50.18721" fill="#F8C7AC" width="215.50549" height="213.80156"></rect>
			<g data-svg-origin="417.10986328125 34.393550872802734" transform="matrix(1,0,0,1,0,0)">
				<path fill="#DFE3EB" d="M530.32874,50.18721H418.60953V35.89348h111.71921c1.85773,0,3.36365,1.50596,3.36365,3.36366v7.56641
					C533.69238,48.68125,532.18646,50.18721,530.32874,50.18721z"></path>
				<path fill="#33475B" d="M530.32861,51.68701H418.60986c-0.82812,0-1.5-0.67139-1.5-1.5V35.89355c0-0.82861,0.67188-1.5,1.5-1.5
					h111.71875c2.68262,0,4.86426,2.18164,4.86426,4.86377v7.56641C535.19287,49.50537,533.01123,51.68701,530.32861,51.68701z
					 M420.10986,48.68701h110.21875c1.02832,0,1.86426-0.83594,1.86426-1.86328v-7.56641c0-1.02783-0.83594-1.86377-1.86426-1.86377
					H420.10986V48.68701z"></path>
			</g>
			<g data-svg-origin="194.27392578125 34.39356231689453" transform="matrix(1,0,0,1,0,0)">
				<path fill="#F4F8FA" d="M422.19055,50.18721H199.15651c-1.86815,0-3.38258-1.51444-3.38258-3.3826v-7.52854
					c0-1.86816,1.51443-3.3826,3.38258-3.3826h223.03404c1.86816,0,3.3826,1.51444,3.3826,3.3826v7.52854
					C425.57315,48.67278,424.05872,50.18721,422.19055,50.18721z"></path>
				<path fill="#33475B" d="M422.19092,51.68701H199.15674c-2.69238,0-4.88281-2.19043-4.88281-4.88232v-7.52881
					c0-2.69189,2.19043-4.88232,4.88281-4.88232h223.03418c2.69141,0,4.88184,2.19043,4.88184,4.88232v7.52881
					C427.07275,49.49658,424.88232,51.68701,422.19092,51.68701z M199.15674,37.39355c-1.03809,0-1.88281,0.84424-1.88281,1.88232
					v7.52881c0,1.03809,0.84473,1.88232,1.88281,1.88232h223.03418c1.03809,0,1.88184-0.84424,1.88184-1.88232v-7.52881
					c0-1.03809-0.84375-1.88232-1.88184-1.88232H199.15674z"></path>
			</g>
			<rect x="418.60953" y="50.18721" fill="#F28D57" width="107.75275" height="213.80156"></rect>
			<rect x="203.10403" y="50.18721" fill="#F28D57" width="215.50549" height="18.3253"></rect>
			<rect x="418.60953" y="50.18721" fill="#E68250" width="107.75275" height="18.3253"></rect>
			<path fill="#33475B" d="M418.60986,265.48877H203.104c-0.82861,0-1.5-0.67188-1.5-1.5V50.18701c0-0.82861,0.67139-1.5,1.5-1.5
				h215.50586c0.82812,0,1.5,0.67139,1.5,1.5v213.80176C420.10986,264.81689,419.43799,265.48877,418.60986,265.48877z
				 M204.604,262.48877h212.50586V51.68701H204.604V262.48877z"></path>
			<path fill="#33475B" d="M526.36182,265.48877H418.60986c-0.82812,0-1.5-0.67188-1.5-1.5V50.18701c0-0.82861,0.67188-1.5,1.5-1.5
				h107.75195c0.82812,0,1.5,0.67139,1.5,1.5v213.80176C527.86182,264.81689,527.18994,265.48877,526.36182,265.48877z
				 M420.10986,262.48877h104.75195V51.68701H420.10986V262.48877z"></path>
			<g data-svg-origin="461.01416015625 81.23388671875" transform="matrix(1,0,0,1,0,0)">
				<path fill="#E68250" d="M504.9458,84.23389h-20.17383c-0.82812,0-1.5-0.67188-1.5-1.5s0.67188-1.5,1.5-1.5h20.17383
					c0.82812,0,1.5,0.67188,1.5,1.5S505.77393,84.23389,504.9458,84.23389z"></path>
				<path fill="#E68250" d="M488.5415,107.34619h-20.85742c-0.82812,0-1.5-0.67188-1.5-1.5s0.67188-1.5,1.5-1.5h20.85742
					c0.82812,0,1.5,0.67188,1.5,1.5S489.36963,107.34619,488.5415,107.34619z"></path>
				<path fill="#E68250" d="M511.60498,95.78955h-49.09082c-0.82812,0-1.5-0.67188-1.5-1.5s0.67188-1.5,1.5-1.5h49.09082
					c0.82812,0,1.5,0.67188,1.5,1.5S512.43311,95.78955,511.60498,95.78955z"></path>
			</g>
			<g data-svg-origin="436.32861328125 126.97119140625" transform="matrix(1,0,0,1,0,0)">
				<path fill="#E68250" d="M463.85693,141.52783h-20.85742c-0.82812,0-1.5-0.67188-1.5-1.5s0.67188-1.5,1.5-1.5h20.85742
					c0.82812,0,1.5,0.67188,1.5,1.5S464.68506,141.52783,463.85693,141.52783z"></path>
				<path fill="#E68250" d="M469.85693,129.97119h-32.02832c-0.82812,0-1.5-0.67188-1.5-1.5s0.67188-1.5,1.5-1.5h32.02832
					c0.82812,0,1.5,0.67188,1.5,1.5S470.68506,129.97119,469.85693,129.97119z"></path>
			</g>
			<g data-svg-origin="429.18994140625 229.35400390625" transform="matrix(1,0,0,1,0,0)">
				<path fill="#E68250" d="M457.54736,232.354h-20.85742c-0.82812,0-1.5-0.67188-1.5-1.5s0.67188-1.5,1.5-1.5h20.85742
					c0.82812,0,1.5,0.67188,1.5,1.5S458.37549,232.354,457.54736,232.354z"></path>
				<path fill="#E68250" d="M462.71826,243.91064h-32.02832c-0.82812,0-1.5-0.67188-1.5-1.5s0.67188-1.5,1.5-1.5h32.02832
					c0.82812,0,1.5,0.67188,1.5,1.5S463.54639,243.91064,462.71826,243.91064z"></path>
			</g>
		</g>
		<g data-svg-origin="220.7763671875 157.48974609375" transform="matrix(1,0,0,1,0,0)">
			<g data-svg-origin="220.7763671875 157.48974609375" transform="matrix(1,0,0,1,0,0)">
				<path fill="#FFFFFF" d="M280.83267,158.98929h-55.37241c-1.75836,0-3.18379,1.42543-3.18379,3.18379v101.81569h61.73997
					V162.17308C284.01645,160.41472,282.59103,158.98929,280.83267,158.98929z"></path>
				<path fill="#33475B" d="M284.0166,265.48877h-61.74023c-0.82861,0-1.5-0.67188-1.5-1.5V162.17334
					c0-2.58301,2.10107-4.68359,4.68408-4.68359h55.37207c2.58301,0,4.68408,2.10059,4.68408,4.68359v101.81543
					C285.5166,264.81689,284.84521,265.48877,284.0166,265.48877z M223.77637,262.48877h58.74023V162.17334
					c0-0.92871-0.75537-1.68359-1.68408-1.68359h-55.37207c-0.92871,0-1.68408,0.75488-1.68408,1.68359V262.48877z"></path>
			</g>
			<g data-svg-origin="234.927734375 171.91259765625" transform="matrix(1,0,0,1,0,0)">
				<rect x="236.42767" y="173.41299" fill="#516F90" width="33.4376" height="90.57578"></rect>
				<path fill="#33475B" d="M269.86523,265.48877h-33.4375c-0.82861,0-1.5-0.67188-1.5-1.5V173.4126c0-0.82812,0.67139-1.5,1.5-1.5
					h33.4375c0.82861,0,1.5,0.67188,1.5,1.5v90.57617C271.36523,264.81689,270.69385,265.48877,269.86523,265.48877z
					 M237.92773,262.48877h30.4375V174.9126h-30.4375V262.48877z"></path>
			</g>
		</g>
		<g data-svg-origin="295.8369140625 157.48974609375" transform="matrix(1,0,0,1,0,0)">
			<g data-svg-origin="295.8369140625 157.48974609375" transform="matrix(1,0,0,1,0,0)">
				<path fill="#FFFFFF" d="M396.42798,221.7951h-96.2868c-1.54868,0-2.80414-1.25545-2.80414-2.80414v-57.19754
					c0-1.54869,1.25546-2.80414,2.80414-2.80414h96.2868c1.54868,0,2.80411,1.25545,2.80411,2.80414v57.19754
					C399.23209,220.53966,397.97665,221.7951,396.42798,221.7951z"></path>
				<path fill="#33475B" d="M396.42822,223.29541h-96.28711c-2.37354,0-4.3042-1.93066-4.3042-4.30469v-57.19727
					c0-2.37305,1.93066-4.30371,4.3042-4.30371h96.28711c2.37305,0,4.30371,1.93066,4.30371,4.30371v57.19727
					C400.73193,221.36475,398.80127,223.29541,396.42822,223.29541z M300.14111,160.48975c-0.71924,0-1.3042,0.58496-1.3042,1.30371
					v57.19727c0,0.71973,0.58496,1.30469,1.3042,1.30469h96.28711c0.71875,0,1.30371-0.58496,1.30371-1.30469v-57.19727
					c0-0.71875-0.58496-1.30371-1.30371-1.30371H300.14111z"></path>
			</g>
			<g data-svg-origin="309.35693359375 171.91259765625" transform="matrix(1,0,0,1,0,0)">
				<rect x="310.85678" y="173.41299" fill="#516F90" width="74.85557" height="33.9584"></rect>
				<path fill="#33475B" d="M385.7124,208.87158h-74.85547c-0.82861,0-1.5-0.67188-1.5-1.5V173.4126c0-0.82812,0.67139-1.5,1.5-1.5
					h74.85547c0.82812,0,1.5,0.67188,1.5,1.5v33.95898C387.2124,208.19971,386.54053,208.87158,385.7124,208.87158z
					 M312.35693,205.87158h71.85547V174.9126h-71.85547V205.87158z"></path>
			</g>
		</g>
		<g data-svg-origin="442.06591796875 157.50537109375" transform="matrix(1,0,0,1,0,0)">
			<g data-svg-origin="442.06591796875 157.50537109375" transform="matrix(1,0,0,1,0,0)">
				<polygon fill="#FAE0B5" points="488.60931,159.0049 488.60931,218.52864 464.97516,218.52864 443.56555,197.11903 
					443.56555,159.0049 				"></polygon>
				<path fill="#33475B" d="M488.60889,220.02881H464.9751c-0.39746,0-0.7793-0.1582-1.06055-0.43945l-21.40918-21.41016
					c-0.28125-0.28125-0.43945-0.66309-0.43945-1.06055v-38.11328c0-0.82812,0.67188-1.5,1.5-1.5h45.04297
					c0.82812,0,1.5,0.67188,1.5,1.5v59.52344C490.10889,219.35693,489.43701,220.02881,488.60889,220.02881z M465.59619,217.02881
					h21.5127v-56.52344h-42.04297v35.99219L465.59619,217.02881z"></path>
			</g>
			<g data-svg-origin="442.06591796875 195.61865234375" transform="matrix(1,0,0,1,0,0)">
				<polygon fill="#F5C26B" points="464.97516,197.11903 464.97516,218.52864 443.56555,197.11903 				"></polygon>
				<path fill="#33475B" d="M464.9751,220.02881c-0.38965,0-0.77344-0.15234-1.06055-0.43945l-21.40918-21.41016
					c-0.42871-0.42871-0.55762-1.07422-0.3252-1.63477s0.7793-0.92578,1.38574-0.92578h21.40918c0.82812,0,1.5,0.67188,1.5,1.5
					v21.41016c0,0.60645-0.36523,1.15332-0.92578,1.38574C465.36377,219.9917,465.16846,220.02881,464.9751,220.02881z
					 M447.18701,198.61865l16.28809,16.28906v-16.28906H447.18701z"></path>
			</g>
		</g>
		<g data-svg-origin="230.10205078125 0" transform="matrix(1,0,0,1,0,0)">
			<g data-svg-origin="230.10205078125 0" transform="matrix(1,0,0,1,0,0)">
				<g data-svg-origin="230.10205078125 0" transform="matrix(1,0,0,1,0,0)">
					<path fill="#FFFFFF" d="M375.49921,1.50014h-137.0956c-3.75653,0-6.80179,3.04527-6.80179,6.8018v44.31927
						c0,3.75653,3.04526,6.8018,6.80179,6.8018h137.0956c3.75653,0,6.80182-3.04527,6.80182-6.8018V8.30194
						C382.30103,4.54541,379.25574,1.50014,375.49921,1.50014z"></path>
					<path fill="#33475B" d="M375.49951,60.92285h-137.0957c-4.57764,0-8.30176-3.72412-8.30176-8.30176V8.30176
						c0-4.57764,3.72412-8.30176,8.30176-8.30176h137.0957c4.57715,0,8.30176,3.72412,8.30176,8.30176v44.31934
						C383.80127,57.19873,380.07666,60.92285,375.49951,60.92285z M238.40381,3c-2.92334,0-5.30176,2.37842-5.30176,5.30176
						v44.31934c0,2.92334,2.37842,5.30176,5.30176,5.30176h137.0957c2.92383,0,5.30176-2.37842,5.30176-5.30176V8.30176
						c0-2.92334-2.37793-5.30176-5.30176-5.30176H238.40381z"></path>
				</g>
				<g data-svg-origin="243.947265625 14.998540878295898" transform="matrix(1,0,0,1,0,0)">
					<rect x="245.4471" y="16.49831" fill="#516F90" width="123.00864" height="27.92653"></rect>
					<path fill="#33475B" d="M368.45557,45.9248h-123.0083c-0.82861,0-1.5-0.67139-1.5-1.5V16.49854c0-0.82861,0.67139-1.5,1.5-1.5
						h123.0083c0.82861,0,1.5,0.67139,1.5,1.5V44.4248C369.95557,45.25342,369.28418,45.9248,368.45557,45.9248z M246.94727,42.9248
						h120.0083V17.99854h-120.0083V42.9248z"></path>
				</g>
			</g>
		</g>
		<rect x="206.16353" y="130.08551" fill="#F28D57" width="209.38651" height="17.28641"></rect>
		<g data-svg-origin="157.98963928222656 68.36799621582031" transform="matrix(1,0,0,1,0,0)">
			<polygon fill="#FFFFFF" points="418.24304,69.86883 203.10403,69.86883 159.48984,113.48303 374.62881,113.48303 			"></polygon>
			<rect x="159.48984" y="113.48303" fill="#F4F8FA" width="215.13899" height="17.95879"></rect>
			<polygon fill="#ED537D" points="374.62881,113.48303 374.62881,131.44182 418.24304,131.44182 418.24304,113.48303 
				418.24304,69.86883 			"></polygon>
			<g data-svg-origin="159.48983764648438 69.86882781982422" transform="matrix(1,0,0,1,0,0)">
				<polygon fill="#F3A9BD" points="203.10403,69.86883 159.48984,113.48303 179.04659,113.48303 222.6608,69.86883 				"></polygon>
				<polygon fill="#F3A9BD" points="242.22121,69.86883 198.60701,113.48303 218.16377,113.48303 261.77798,69.86883 				"></polygon>
				<polygon fill="#F3A9BD" points="281.33475,69.86883 237.72054,113.48303 257.28094,113.48303 300.89514,69.86883 				"></polygon>
				<polygon fill="#F3A9BD" points="320.4519,69.86883 276.83771,113.48303 296.39813,113.48303 340.01233,69.86883 				"></polygon>
				<polygon fill="#F3A9BD" points="359.56906,69.86883 315.95486,113.48303 335.51166,113.48303 379.12585,69.86883 				"></polygon>
				<polygon fill="#F3A9BD" points="398.68628,69.86883 355.07208,113.48303 374.62881,113.48303 418.24304,69.86883 				"></polygon>
			</g>
			<g data-svg-origin="159.48983764648438 113.4830322265625" transform="matrix(1,0,0,1,0,0)">
				<rect x="159.48984" y="113.48303" fill="#ED537D" width="19.56308" height="17.95879"></rect>
				<rect x="198.60701" y="113.48303" fill="#ED537D" width="19.56308" height="17.95879"></rect>
				<rect x="237.72418" y="113.48303" fill="#ED537D" width="19.56308" height="17.95879"></rect>
				<rect x="276.84134" y="113.48303" fill="#ED537D" width="19.56308" height="17.95879"></rect>
				<rect x="315.95853" y="113.48303" fill="#ED537D" width="19.56308" height="17.95879"></rect>
				<rect x="355.07568" y="113.48303" fill="#ED537D" width="19.56308" height="17.95879"></rect>
			</g>
			<path fill="#33475B" d="M374.62842,114.98291H159.48975c-0.60645,0-1.15381-0.36523-1.38574-0.92578
				c-0.23242-0.56055-0.104-1.20605,0.3252-1.63477l43.61426-43.61426c0.28125-0.28125,0.6626-0.43945,1.06055-0.43945h215.13867
				c0.60645,0,1.15332,0.36523,1.38574,0.92578s0.10352,1.20605-0.3252,1.63477l-43.61426,43.61426
				C375.40771,114.82471,375.02588,114.98291,374.62842,114.98291z M163.11084,111.98291h210.89648l40.61426-40.61426h-210.896
				L163.11084,111.98291z"></path>
			<path fill="#33475B" d="M374.62842,132.94189H159.48975c-0.82861,0-1.5-0.67188-1.5-1.5v-17.95898c0-0.82812,0.67139-1.5,1.5-1.5
				h215.13867c0.82812,0,1.5,0.67188,1.5,1.5v17.95898C376.12842,132.27002,375.45654,132.94189,374.62842,132.94189z
				 M160.98975,129.94189h212.13867v-14.95898H160.98975V129.94189z"></path>
			<path fill="#33475B" d="M418.24268,132.94189h-43.61426c-0.82812,0-1.5-0.67188-1.5-1.5v-17.95898
				c0-0.39746,0.1582-0.7793,0.43945-1.06055l43.61426-43.61426c0.42969-0.42969,1.0752-0.55859,1.63477-0.3252
				c0.56055,0.23242,0.92578,0.7793,0.92578,1.38574v61.57324C419.74268,132.27002,419.0708,132.94189,418.24268,132.94189z
				 M376.12842,129.94189h40.61426V73.48975L376.12842,114.104V129.94189z"></path>
		</g>
		<g data-svg-origin="632.77099609375 106.09912109375" transform="matrix(1,0,0,1,0,0)">
			<path fill="#54BEA6" d="M664.30902,107.59932c-18.88831,43.86458-30.03821,97.91853-30.03821,156.38945h60.0675
				C694.33832,205.51785,683.18848,151.4639,664.30902,107.59932z"></path>
			<path fill="#33475B" d="M694.33838,265.48877H634.271c-0.82812,0-1.5-0.67188-1.5-1.5
				c0-56.87793,10.42969-111.16113,30.16016-156.98242c0.2373-0.55078,0.7793-0.90723,1.37793-0.90723l0,0
				c0.59961,0,1.14062,0.35645,1.37793,0.90723c19.72559,45.83105,30.15137,100.11523,30.15137,156.98242
				C695.83838,264.81689,695.1665,265.48877,694.33838,265.48877z M635.77295,262.48877h57.06348
				c-0.17773-54.57812-10.02441-106.68359-28.52734-151.0459C645.80029,155.79541,635.95068,207.90186,635.77295,262.48877z"></path>
		</g>
		<g data-svg-origin="531.4426879882812 157.48974609375" transform="matrix(1,0,0,1,0,0)">
			<path fill="#7FDED2" d="M532.94482,221.85115c0.13031,16.29329,6.51038,31.10132,16.86639,42.13762h178.70532
				c4.47754-6.83841,7.08014-15.00813,7.08228-23.79338c0.00574-23.8875-19.53394-43.47308-43.42139-43.52072
				c-5.44495-0.01086-10.65771,0.97868-15.46478,2.79517c-10.36847,3.918-21.99506-0.09605-27.60742-9.65416
				c-10.84052-18.46179-30.91205-30.84987-53.87183-30.82634C560.492,159.02495,532.66693,187.11079,532.94482,221.85115z"></path>
			<path fill="#33475B" d="M728.51611,265.48877H549.81104c-0.41406,0-0.81055-0.17188-1.09375-0.47363
				c-11.00977-11.7334-17.14453-27.05859-17.27246-43.15234l0,0c-0.1377-17.20703,6.41504-33.37207,18.4502-45.5166
				c12.0332-12.14258,28.13477-18.83887,45.33691-18.85645c0.02246,0,0.0459,0,0.06738,0
				c22.55664,0,43.66406,12.09082,55.09961,31.56641c5.22168,8.89258,16.06543,12.68652,25.7832,9.01074
				c5.08105-1.91992,10.43262-2.89258,15.90723-2.89258c0.03027,0,0.06055,0,0.09082,0
				c24.77441,0.0498,44.9248,20.24609,44.91895,45.02148c-0.00195,8.78418-2.53613,17.29492-7.32812,24.61426
				C729.49365,265.23389,729.02197,265.48877,728.51611,265.48877z M550.46533,262.48877H727.6958
				c4.18945-6.6748,6.40137-14.36523,6.40332-22.29297c0.00586-23.125-18.80176-41.97559-41.9248-42.02148
				c-0.02832,0-0.05664,0-0.08496,0c-5.11133,0-10.10547,0.9082-14.84668,2.69922
				c-11.09082,4.18945-23.4668-0.14062-29.43164-10.29785c-10.89746-18.56152-31.0166-30.08594-52.51172-30.08594
				c-0.02246,0-0.04102,0-0.06348,0c-16.39844,0.0166-31.74316,6.39746-43.20996,17.96777
				c-11.46875,11.57324-17.71289,26.97949-17.58105,43.38184l0,0C534.56494,236.96045,540.24951,251.36963,550.46533,262.48877z"></path>
		</g>
		<g data-svg-origin="504.47802734375 83.05908203125" transform="matrix(1,0,0,1,0,0)">
			<path fill="#54BEA6" d="M540.44171,84.55936c-21.67102,50.3269-34.46362,112.34433-34.46362,179.42944h68.91699
				C574.89508,196.90369,562.10254,134.88626,540.44171,84.55936z"></path>
			<path fill="#33475B" d="M574.89502,265.48877h-68.91699c-0.82812,0-1.5-0.67188-1.5-1.5
				c0-65.22559,11.95996-127.47656,34.58594-180.02246c0.2373-0.55078,0.7793-0.90723,1.37793-0.90723l0,0
				c0.59961,0,1.14062,0.35645,1.37793,0.90723c22.61914,52.55371,34.5752,114.80371,34.5752,180.02246
				C576.39502,264.81689,575.72314,265.48877,574.89502,265.48877z M507.47998,262.48877h65.91309
				c-0.17773-62.93359-11.55273-123.00391-32.95117-174.09277C519.03662,139.47803,507.65771,199.54834,507.47998,262.48877z"></path>
		</g>
	</g>
</g>
</svg>