<svg version="1.1" id="Layer_1___Vuf9LtqJ" xmlns="http://www.w3.org/2000/svg" xmlns:xlink="http://www.w3.org/1999/xlink" x="0px" y="0px" viewBox="0 0 858.56 312.35596" enable-background="new 0 0 858.56 312.35596" xml:space="preserve">
<g data-svg-origin="-0.0000013382939414441353 0" transform="matrix(1,0,0,1,0,0)">
	<defs>
		<rect id="SVGID_1____Vuf9LtqJ" width="858.56" height="312.35596"></rect>
	</defs>
	<clipPath id="SVGID_2____Vuf9LtqJ">
		<use xlink:href="#SVGID_1____Vuf9LtqJ" overflow="visible"></use>
	</clipPath>
	<g clip-path="url(#SVGID_2____Vuf9LtqJ)" data-svg-origin="-0.0000013382939414441353 0" transform="matrix(1,0,0,1,0,0)">
		<g data-svg-origin="328.060546875 11.253409385681152" transform="matrix(1,0,0,1,0,0)">
			<g data-svg-origin="406.6396484375 78.71826171875" transform="matrix(1,0,0,1,0,0)">
				<rect x="408.13943" y="80.21803" fill="#7C98B6" width="11.62095" height="131.4418"></rect>
				<path fill="#33475B" d="M419.76025,213.15967h-11.62061c-0.82861,0-1.5-0.67188-1.5-1.5V80.21826c0-0.82812,0.67139-1.5,1.5-1.5
					h11.62061c0.82861,0,1.5,0.67188,1.5,1.5v131.44141C421.26025,212.48779,420.58887,213.15967,419.76025,213.15967z
					 M409.63965,210.15967h8.62061V81.71826h-8.62061V210.15967z"></path>
			</g>
			<g data-svg-origin="333.21533203125 11.253409385681152" transform="matrix(1,0,0,1,0,0)">
				<path fill="#DFE3EB" d="M493.18469,80.21803H334.71512V16.57874c0-2.11265,1.71265-3.8253,3.82532-3.8253h150.81894
					c2.11267,0,3.82532,1.71264,3.82532,3.8253V80.21803z"></path>
				<path fill="#33475B" d="M493.18457,81.71826H334.71533c-0.82861,0-1.5-0.67188-1.5-1.5V16.57861
					c0-2.93652,2.38867-5.3252,5.3252-5.3252h150.81885c2.93652,0,5.3252,2.38867,5.3252,5.3252v63.63965
					C494.68457,81.04639,494.0127,81.71826,493.18457,81.71826z M336.21533,78.71826h155.46924V16.57861
					c0-1.28223-1.04297-2.3252-2.3252-2.3252H338.54053c-1.28223,0-2.3252,1.04297-2.3252,2.3252V78.71826z"></path>
			</g>
			<g data-svg-origin="328.060546875 73.57763671875" transform="matrix(1,0,0,1,0,0)">
				<path fill="#7C98B6" d="M492.41052,86.93484H335.48929c-3.27423,0-5.92856-2.6543-5.92856-5.92855v-0.00001
					c0-3.27425,2.65433-5.92855,5.92856-5.92855h156.92123c3.27423,0,5.92856,2.6543,5.92856,5.92855v0.00001
					C498.33908,84.28054,495.68475,86.93484,492.41052,86.93484z"></path>
				<path fill="#33475B" d="M492.41016,88.43506h-156.9209c-4.09619,0-7.42871-3.33203-7.42871-7.42871
					s3.33252-7.42871,7.42871-7.42871h156.9209c4.09668,0,7.42871,3.33203,7.42871,7.42871S496.50684,88.43506,492.41016,88.43506z
					 M335.48926,76.57764c-2.44189,0-4.42871,1.98633-4.42871,4.42871s1.98682,4.42871,4.42871,4.42871h156.9209
					c2.44238,0,4.42871-1.98633,4.42871-4.42871s-1.98633-4.42871-4.42871-4.42871H335.48926z"></path>
			</g>
		</g>
		<g data-svg-origin="541.4599609375 0" transform="matrix(1,0,0,1,0,0)">
			<g data-svg-origin="541.4599609375 118.38427734375" transform="matrix(1,0,0,1,0,0)">
				<path fill="#CBD6E2" d="M656.80164,119.88432H546.771c-2.1048,0-3.81116,1.7063-3.81116,3.81113v187.84167h113.8418V119.88432z"></path>
				<path fill="#33475B" d="M656.80176,313.0376h-113.8418c-0.82812,0-1.5-0.67188-1.5-1.5V123.6958
					c0-2.92871,2.38281-5.31152,5.31152-5.31152h110.03027c0.82812,0,1.5,0.67188,1.5,1.5V311.5376
					C658.30176,312.36572,657.62988,313.0376,656.80176,313.0376z M544.45996,310.0376h110.8418V121.38428H546.77148
					c-1.27441,0-2.31152,1.03711-2.31152,2.31152V310.0376z"></path>
			</g>
			<g data-svg-origin="655.3017578125 118.38427734375" transform="matrix(1,0,0,1,0,0)">
				<path fill="#9AACC2" d="M706.69708,119.88432h-49.89545v191.65282h53.92816V123.91705
					C710.7298,121.68983,708.92432,119.88432,706.69708,119.88432z"></path>
				<path fill="#33475B" d="M710.72949,313.0376h-53.92773c-0.82812,0-1.5-0.67188-1.5-1.5V119.88428c0-0.82812,0.67188-1.5,1.5-1.5
					h49.89551c3.05078,0,5.53223,2.48242,5.53223,5.5332V311.5376C712.22949,312.36572,711.55762,313.0376,710.72949,313.0376z
					 M658.30176,310.0376h50.92773V123.91748c0-1.39648-1.13574-2.5332-2.53223-2.5332h-48.39551V310.0376z"></path>
			</g>
			<g data-svg-origin="541.4599609375 67.40478515625" transform="matrix(1,0,0,1,0,0)">
				<path fill="#CBD6E2" d="M656.80164,68.9047H546.85815c-2.15295,0-3.89832,1.74532-3.89832,3.89828v31.68391
					c0,2.15296,1.74536,3.89828,3.89832,3.89828h109.94348V68.9047z"></path>
				<path fill="#33475B" d="M656.80176,109.88525H546.8584c-2.97656,0-5.39844-2.42188-5.39844-5.39844V72.80322
					c0-2.97656,2.42188-5.39844,5.39844-5.39844h109.94336c0.82812,0,1.5,0.67139,1.5,1.5v39.48047
					C658.30176,109.21338,657.62988,109.88525,656.80176,109.88525z M546.8584,70.40479c-1.32227,0-2.39844,1.07617-2.39844,2.39844
					v31.68359c0,1.32227,1.07617,2.39844,2.39844,2.39844h108.44336V70.40479H546.8584z"></path>
			</g>
			<g data-svg-origin="655.3017578125 67.40479278564453" transform="matrix(1,0,0,1,0,0)">
				<path fill="#9AACC2" d="M706.60486,68.9047h-49.80322v39.48048h49.80322c2.27814,0,4.12494-1.8468,4.12494-4.12495v-31.2306
					C710.7298,70.7515,708.883,68.9047,706.60486,68.9047z"></path>
				<path fill="#33475B" d="M706.60449,109.88525h-49.80273c-0.82812,0-1.5-0.67188-1.5-1.5V68.90479c0-0.82861,0.67188-1.5,1.5-1.5
					h49.80273c3.10156,0,5.625,2.52344,5.625,5.625v31.23047C712.22949,107.36182,709.70605,109.88525,706.60449,109.88525z
					 M658.30176,106.88525h48.30273c1.44727,0,2.625-1.17773,2.625-2.625V73.02979c0-1.44727-1.17773-2.625-2.625-2.625h-48.30273
					V106.88525z"></path>
			</g>
			<polygon fill="#DFE3EB" points="542.95984,246.65134 655.96326,133.64792 655.96326,230.34833 574.80212,311.50949 
				542.95984,311.50949 			"></polygon>
			<g data-svg-origin="610.8701171875 0" transform="matrix(1,0,0,1,0,0)">
				<g data-svg-origin="610.8701171875 0" transform="matrix(1,0,0,1,0,0)">
					<path fill="#F4F8FA" d="M617.56268,1.49982L617.56268,1.49982c2.86798,0,5.19287,2.32493,5.19287,5.19287V68.9047h-10.38574
						V6.69269C612.36981,3.82474,614.69476,1.49982,617.56268,1.49982z"></path>
					<path fill="#33475B" d="M622.75586,70.40479h-10.38574c-0.82812,0-1.5-0.67139-1.5-1.5V6.69287
						C610.87012,3.00244,613.87207,0,617.5625,0s6.69336,3.00244,6.69336,6.69287v62.21191
						C624.25586,69.7334,623.58398,70.40479,622.75586,70.40479z M613.87012,67.40479h7.38574V6.69287
						C621.25586,4.65674,619.59863,3,617.5625,3s-3.69238,1.65674-3.69238,3.69287V67.40479z"></path>
				</g>
				<g data-svg-origin="629.4345703125 39.11962890625" transform="matrix(1,0,0,1,0,0)">
					<path fill="#F4F8FA" d="M636.12695,40.61946h0.00006c2.86792,0,5.19287,2.32492,5.19287,5.19287V68.9047h-10.3858V45.81232
						C630.93408,42.94438,633.25903,40.61946,636.12695,40.61946z"></path>
					<path fill="#33475B" d="M641.32031,70.40479h-10.38574c-0.82812,0-1.5-0.67139-1.5-1.5V45.8125
						c0-3.69043,3.00195-6.69287,6.69238-6.69287s6.69336,3.00244,6.69336,6.69287v23.09229
						C642.82031,69.7334,642.14844,70.40479,641.32031,70.40479z M632.43457,67.40479h7.38574V45.8125
						c0-2.03613-1.65723-3.69287-3.69336-3.69287s-3.69238,1.65674-3.69238,3.69287V67.40479z"></path>
				</g>
			</g>
			<path fill="#DFE3EB" d="M599.16241,68.90497l-39.48444,39.48023h-12.81799c-2.15234,0-3.90015-1.74355-3.90015-3.90005V72.80501
				c0-2.15649,1.7478-3.90004,3.90015-3.90004H599.16241z"></path>
			<g data-svg-origin="555.171875 81.92138671875" transform="matrix(1,0,0,1,0,0)">
				<g data-svg-origin="555.171875 132.98583984375" transform="matrix(1,0,0,1,0,0)">
					<path fill="#9AACC2" d="M556.67188,146.43213c-0.82812,0-1.5-0.67188-1.5-1.5v-10.44629c0-0.82812,0.67188-1.5,1.5-1.5
						s1.5,0.67188,1.5,1.5v10.44629C558.17188,145.76025,557.5,146.43213,556.67188,146.43213z"></path>
					<path fill="#9AACC2" d="M569.01758,146.43213c-0.82812,0-1.5-0.67188-1.5-1.5v-10.44629c0-0.82812,0.67188-1.5,1.5-1.5
						s1.5,0.67188,1.5,1.5v10.44629C570.51758,145.76025,569.8457,146.43213,569.01758,146.43213z"></path>
					<path fill="#9AACC2" d="M581.3623,146.43213c-0.82812,0-1.5-0.67188-1.5-1.5v-10.44629c0-0.82812,0.67188-1.5,1.5-1.5
						s1.5,0.67188,1.5,1.5v10.44629C582.8623,145.76025,582.19043,146.43213,581.3623,146.43213z"></path>
					<path fill="#9AACC2" d="M593.70801,146.43213c-0.82812,0-1.5-0.67188-1.5-1.5v-10.44629c0-0.82812,0.67188-1.5,1.5-1.5
						s1.5,0.67188,1.5,1.5v10.44629C595.20801,145.76025,594.53613,146.43213,593.70801,146.43213z"></path>
					<path fill="#9AACC2" d="M606.05371,146.43213c-0.82812,0-1.5-0.67188-1.5-1.5v-10.44629c0-0.82812,0.67188-1.5,1.5-1.5
						s1.5,0.67188,1.5,1.5v10.44629C607.55371,145.76025,606.88184,146.43213,606.05371,146.43213z"></path>
					<path fill="#9AACC2" d="M618.39941,146.43213c-0.82812,0-1.5-0.67188-1.5-1.5v-10.44629c0-0.82812,0.67188-1.5,1.5-1.5
						s1.5,0.67188,1.5,1.5v10.44629C619.89941,145.76025,619.22754,146.43213,618.39941,146.43213z"></path>
					<path fill="#9AACC2" d="M630.74414,146.43213c-0.82812,0-1.5-0.67188-1.5-1.5v-10.44629c0-0.82812,0.67188-1.5,1.5-1.5
						s1.5,0.67188,1.5,1.5v10.44629C632.24414,145.76025,631.57227,146.43213,630.74414,146.43213z"></path>
					<path fill="#9AACC2" d="M643.08984,146.43213c-0.82812,0-1.5-0.67188-1.5-1.5v-10.44629c0-0.82812,0.67188-1.5,1.5-1.5
						s1.5,0.67188,1.5,1.5v10.44629C644.58984,145.76025,643.91797,146.43213,643.08984,146.43213z"></path>
				</g>
				<g data-svg-origin="555.171875 81.92138671875" transform="matrix(1,0,0,1,0,0)">
					<path fill="#9AACC2" d="M556.67188,95.36768c-0.82812,0-1.5-0.67188-1.5-1.5V83.42139c0-0.82812,0.67188-1.5,1.5-1.5
						s1.5,0.67188,1.5,1.5v10.44629C558.17188,94.6958,557.5,95.36768,556.67188,95.36768z"></path>
					<path fill="#9AACC2" d="M569.01758,95.36768c-0.82812,0-1.5-0.67188-1.5-1.5V83.42139c0-0.82812,0.67188-1.5,1.5-1.5
						s1.5,0.67188,1.5,1.5v10.44629C570.51758,94.6958,569.8457,95.36768,569.01758,95.36768z"></path>
					<path fill="#9AACC2" d="M581.3623,95.36768c-0.82812,0-1.5-0.67188-1.5-1.5V83.42139c0-0.82812,0.67188-1.5,1.5-1.5
						s1.5,0.67188,1.5,1.5v10.44629C582.8623,94.6958,582.19043,95.36768,581.3623,95.36768z"></path>
					<path fill="#9AACC2" d="M593.70801,95.36768c-0.82812,0-1.5-0.67188-1.5-1.5V83.42139c0-0.82812,0.67188-1.5,1.5-1.5
						s1.5,0.67188,1.5,1.5v10.44629C595.20801,94.6958,594.53613,95.36768,593.70801,95.36768z"></path>
					<path fill="#9AACC2" d="M606.05371,95.36768c-0.82812,0-1.5-0.67188-1.5-1.5V83.42139c0-0.82812,0.67188-1.5,1.5-1.5
						s1.5,0.67188,1.5,1.5v10.44629C607.55371,94.6958,606.88184,95.36768,606.05371,95.36768z"></path>
					<path fill="#9AACC2" d="M618.39941,95.36768c-0.82812,0-1.5-0.67188-1.5-1.5V83.42139c0-0.82812,0.67188-1.5,1.5-1.5
						s1.5,0.67188,1.5,1.5v10.44629C619.89941,94.6958,619.22754,95.36768,618.39941,95.36768z"></path>
					<path fill="#9AACC2" d="M630.74414,95.36768c-0.82812,0-1.5-0.67188-1.5-1.5V83.42139c0-0.82812,0.67188-1.5,1.5-1.5
						s1.5,0.67188,1.5,1.5v10.44629C632.24414,94.6958,631.57227,95.36768,630.74414,95.36768z"></path>
					<path fill="#9AACC2" d="M643.08984,95.36768c-0.82812,0-1.5-0.67188-1.5-1.5V83.42139c0-0.82812,0.67188-1.5,1.5-1.5
						s1.5,0.67188,1.5,1.5v10.44629C644.58984,94.6958,643.91797,95.36768,643.08984,95.36768z"></path>
				</g>
				<g data-svg-origin="555.171875 156.04248046875" transform="matrix(1,0,0,1,0,0)">
					<path fill="#9AACC2" d="M556.67188,169.48877c-0.82812,0-1.5-0.67188-1.5-1.5v-10.44629c0-0.82812,0.67188-1.5,1.5-1.5
						s1.5,0.67188,1.5,1.5v10.44629C558.17188,168.81689,557.5,169.48877,556.67188,169.48877z"></path>
					<path fill="#9AACC2" d="M569.01758,169.48877c-0.82812,0-1.5-0.67188-1.5-1.5v-10.44629c0-0.82812,0.67188-1.5,1.5-1.5
						s1.5,0.67188,1.5,1.5v10.44629C570.51758,168.81689,569.8457,169.48877,569.01758,169.48877z"></path>
					<path fill="#9AACC2" d="M581.3623,169.48877c-0.82812,0-1.5-0.67188-1.5-1.5v-10.44629c0-0.82812,0.67188-1.5,1.5-1.5
						s1.5,0.67188,1.5,1.5v10.44629C582.8623,168.81689,582.19043,169.48877,581.3623,169.48877z"></path>
					<path fill="#9AACC2" d="M593.70801,169.48877c-0.82812,0-1.5-0.67188-1.5-1.5v-10.44629c0-0.82812,0.67188-1.5,1.5-1.5
						s1.5,0.67188,1.5,1.5v10.44629C595.20801,168.81689,594.53613,169.48877,593.70801,169.48877z"></path>
					<path fill="#9AACC2" d="M606.05371,169.48877c-0.82812,0-1.5-0.67188-1.5-1.5v-10.44629c0-0.82812,0.67188-1.5,1.5-1.5
						s1.5,0.67188,1.5,1.5v10.44629C607.55371,168.81689,606.88184,169.48877,606.05371,169.48877z"></path>
					<path fill="#9AACC2" d="M618.39941,169.48877c-0.82812,0-1.5-0.67188-1.5-1.5v-10.44629c0-0.82812,0.67188-1.5,1.5-1.5
						s1.5,0.67188,1.5,1.5v10.44629C619.89941,168.81689,619.22754,169.48877,618.39941,169.48877z"></path>
					<path fill="#9AACC2" d="M630.74414,169.48877c-0.82812,0-1.5-0.67188-1.5-1.5v-10.44629c0-0.82812,0.67188-1.5,1.5-1.5
						s1.5,0.67188,1.5,1.5v10.44629C632.24414,168.81689,631.57227,169.48877,630.74414,169.48877z"></path>
					<path fill="#9AACC2" d="M643.08984,169.48877c-0.82812,0-1.5-0.67188-1.5-1.5v-10.44629c0-0.82812,0.67188-1.5,1.5-1.5
						s1.5,0.67188,1.5,1.5v10.44629C644.58984,168.81689,643.91797,169.48877,643.08984,169.48877z"></path>
				</g>
				<g data-svg-origin="555.171875 179.10009765625" transform="matrix(1,0,0,1,0,0)">
					<path fill="#9AACC2" d="M556.67188,192.54541c-0.82812,0-1.5-0.67188-1.5-1.5V180.6001c0-0.82812,0.67188-1.5,1.5-1.5
						s1.5,0.67188,1.5,1.5v10.44531C558.17188,191.87354,557.5,192.54541,556.67188,192.54541z"></path>
					<path fill="#9AACC2" d="M569.01758,192.54541c-0.82812,0-1.5-0.67188-1.5-1.5V180.6001c0-0.82812,0.67188-1.5,1.5-1.5
						s1.5,0.67188,1.5,1.5v10.44531C570.51758,191.87354,569.8457,192.54541,569.01758,192.54541z"></path>
					<path fill="#9AACC2" d="M581.3623,192.54541c-0.82812,0-1.5-0.67188-1.5-1.5V180.6001c0-0.82812,0.67188-1.5,1.5-1.5
						s1.5,0.67188,1.5,1.5v10.44531C582.8623,191.87354,582.19043,192.54541,581.3623,192.54541z"></path>
					<path fill="#9AACC2" d="M593.70801,192.54541c-0.82812,0-1.5-0.67188-1.5-1.5V180.6001c0-0.82812,0.67188-1.5,1.5-1.5
						s1.5,0.67188,1.5,1.5v10.44531C595.20801,191.87354,594.53613,192.54541,593.70801,192.54541z"></path>
					<path fill="#9AACC2" d="M606.05371,192.54541c-0.82812,0-1.5-0.67188-1.5-1.5V180.6001c0-0.82812,0.67188-1.5,1.5-1.5
						s1.5,0.67188,1.5,1.5v10.44531C607.55371,191.87354,606.88184,192.54541,606.05371,192.54541z"></path>
					<path fill="#9AACC2" d="M618.39941,192.54541c-0.82812,0-1.5-0.67188-1.5-1.5V180.6001c0-0.82812,0.67188-1.5,1.5-1.5
						s1.5,0.67188,1.5,1.5v10.44531C619.89941,191.87354,619.22754,192.54541,618.39941,192.54541z"></path>
					<path fill="#9AACC2" d="M630.74414,192.54541c-0.82812,0-1.5-0.67188-1.5-1.5V180.6001c0-0.82812,0.67188-1.5,1.5-1.5
						s1.5,0.67188,1.5,1.5v10.44531C632.24414,191.87354,631.57227,192.54541,630.74414,192.54541z"></path>
					<path fill="#9AACC2" d="M643.08984,192.54541c-0.82812,0-1.5-0.67188-1.5-1.5V180.6001c0-0.82812,0.67188-1.5,1.5-1.5
						s1.5,0.67188,1.5,1.5v10.44531C644.58984,191.87354,643.91797,192.54541,643.08984,192.54541z"></path>
				</g>
				<g data-svg-origin="555.171875 202.15673828125" transform="matrix(1,0,0,1,0,0)">
					<path fill="#9AACC2" d="M556.67188,215.60205c-0.82812,0-1.5-0.67188-1.5-1.5v-10.44531c0-0.82812,0.67188-1.5,1.5-1.5
						s1.5,0.67188,1.5,1.5v10.44531C558.17188,214.93018,557.5,215.60205,556.67188,215.60205z"></path>
					<path fill="#9AACC2" d="M569.01758,215.60205c-0.82812,0-1.5-0.67188-1.5-1.5v-10.44531c0-0.82812,0.67188-1.5,1.5-1.5
						s1.5,0.67188,1.5,1.5v10.44531C570.51758,214.93018,569.8457,215.60205,569.01758,215.60205z"></path>
					<path fill="#9AACC2" d="M581.3623,215.60205c-0.82812,0-1.5-0.67188-1.5-1.5v-10.44531c0-0.82812,0.67188-1.5,1.5-1.5
						s1.5,0.67188,1.5,1.5v10.44531C582.8623,214.93018,582.19043,215.60205,581.3623,215.60205z"></path>
					<path fill="#9AACC2" d="M593.70801,215.60205c-0.82812,0-1.5-0.67188-1.5-1.5v-10.44531c0-0.82812,0.67188-1.5,1.5-1.5
						s1.5,0.67188,1.5,1.5v10.44531C595.20801,214.93018,594.53613,215.60205,593.70801,215.60205z"></path>
					<path fill="#9AACC2" d="M606.05371,215.60205c-0.82812,0-1.5-0.67188-1.5-1.5v-10.44531c0-0.82812,0.67188-1.5,1.5-1.5
						s1.5,0.67188,1.5,1.5v10.44531C607.55371,214.93018,606.88184,215.60205,606.05371,215.60205z"></path>
					<path fill="#9AACC2" d="M618.39941,215.60205c-0.82812,0-1.5-0.67188-1.5-1.5v-10.44531c0-0.82812,0.67188-1.5,1.5-1.5
						s1.5,0.67188,1.5,1.5v10.44531C619.89941,214.93018,619.22754,215.60205,618.39941,215.60205z"></path>
					<path fill="#9AACC2" d="M630.74414,215.60205c-0.82812,0-1.5-0.67188-1.5-1.5v-10.44531c0-0.82812,0.67188-1.5,1.5-1.5
						s1.5,0.67188,1.5,1.5v10.44531C632.24414,214.93018,631.57227,215.60205,630.74414,215.60205z"></path>
					<path fill="#9AACC2" d="M643.08984,215.60205c-0.82812,0-1.5-0.67188-1.5-1.5v-10.44531c0-0.82812,0.67188-1.5,1.5-1.5
						s1.5,0.67188,1.5,1.5v10.44531C644.58984,214.93018,643.91797,215.60205,643.08984,215.60205z"></path>
				</g>
				<g data-svg-origin="555.171875 225.21337890625" transform="matrix(1,0,0,1,0,0)">
					<path fill="#9AACC2" d="M556.67188,238.65869c-0.82812,0-1.5-0.67188-1.5-1.5v-10.44531c0-0.82812,0.67188-1.5,1.5-1.5
						s1.5,0.67188,1.5,1.5v10.44531C558.17188,237.98682,557.5,238.65869,556.67188,238.65869z"></path>
					<path fill="#9AACC2" d="M569.01758,238.65869c-0.82812,0-1.5-0.67188-1.5-1.5v-10.44531c0-0.82812,0.67188-1.5,1.5-1.5
						s1.5,0.67188,1.5,1.5v10.44531C570.51758,237.98682,569.8457,238.65869,569.01758,238.65869z"></path>
					<path fill="#9AACC2" d="M581.3623,238.65869c-0.82812,0-1.5-0.67188-1.5-1.5v-10.44531c0-0.82812,0.67188-1.5,1.5-1.5
						s1.5,0.67188,1.5,1.5v10.44531C582.8623,237.98682,582.19043,238.65869,581.3623,238.65869z"></path>
					<path fill="#9AACC2" d="M593.70801,238.65869c-0.82812,0-1.5-0.67188-1.5-1.5v-10.44531c0-0.82812,0.67188-1.5,1.5-1.5
						s1.5,0.67188,1.5,1.5v10.44531C595.20801,237.98682,594.53613,238.65869,593.70801,238.65869z"></path>
					<path fill="#9AACC2" d="M606.05371,238.65869c-0.82812,0-1.5-0.67188-1.5-1.5v-10.44531c0-0.82812,0.67188-1.5,1.5-1.5
						s1.5,0.67188,1.5,1.5v10.44531C607.55371,237.98682,606.88184,238.65869,606.05371,238.65869z"></path>
					<path fill="#9AACC2" d="M618.39941,238.65869c-0.82812,0-1.5-0.67188-1.5-1.5v-10.44531c0-0.82812,0.67188-1.5,1.5-1.5
						s1.5,0.67188,1.5,1.5v10.44531C619.89941,237.98682,619.22754,238.65869,618.39941,238.65869z"></path>
					<path fill="#9AACC2" d="M630.74414,238.65869c-0.82812,0-1.5-0.67188-1.5-1.5v-10.44531c0-0.82812,0.67188-1.5,1.5-1.5
						s1.5,0.67188,1.5,1.5v10.44531C632.24414,237.98682,631.57227,238.65869,630.74414,238.65869z"></path>
					<path fill="#9AACC2" d="M643.08984,238.65869c-0.82812,0-1.5-0.67188-1.5-1.5v-10.44531c0-0.82812,0.67188-1.5,1.5-1.5
						s1.5,0.67188,1.5,1.5v10.44531C644.58984,237.98682,643.91797,238.65869,643.08984,238.65869z"></path>
				</g>
				<g data-svg-origin="555.171875 248.27001953125" transform="matrix(1,0,0,1,0,0)">
					<path fill="#9AACC2" d="M556.67188,261.71533c-0.82812,0-1.5-0.67188-1.5-1.5v-10.44531c0-0.82812,0.67188-1.5,1.5-1.5
						s1.5,0.67188,1.5,1.5v10.44531C558.17188,261.04346,557.5,261.71533,556.67188,261.71533z"></path>
					<path fill="#9AACC2" d="M569.01758,261.71533c-0.82812,0-1.5-0.67188-1.5-1.5v-10.44531c0-0.82812,0.67188-1.5,1.5-1.5
						s1.5,0.67188,1.5,1.5v10.44531C570.51758,261.04346,569.8457,261.71533,569.01758,261.71533z"></path>
					<path fill="#9AACC2" d="M581.3623,261.71533c-0.82812,0-1.5-0.67188-1.5-1.5v-10.44531c0-0.82812,0.67188-1.5,1.5-1.5
						s1.5,0.67188,1.5,1.5v10.44531C582.8623,261.04346,582.19043,261.71533,581.3623,261.71533z"></path>
					<path fill="#9AACC2" d="M593.70801,261.71533c-0.82812,0-1.5-0.67188-1.5-1.5v-10.44531c0-0.82812,0.67188-1.5,1.5-1.5
						s1.5,0.67188,1.5,1.5v10.44531C595.20801,261.04346,594.53613,261.71533,593.70801,261.71533z"></path>
					<path fill="#9AACC2" d="M606.05371,261.71533c-0.82812,0-1.5-0.67188-1.5-1.5v-10.44531c0-0.82812,0.67188-1.5,1.5-1.5
						s1.5,0.67188,1.5,1.5v10.44531C607.55371,261.04346,606.88184,261.71533,606.05371,261.71533z"></path>
					<path fill="#9AACC2" d="M618.39941,261.71533c-0.82812,0-1.5-0.67188-1.5-1.5v-10.44531c0-0.82812,0.67188-1.5,1.5-1.5
						s1.5,0.67188,1.5,1.5v10.44531C619.89941,261.04346,619.22754,261.71533,618.39941,261.71533z"></path>
					<path fill="#9AACC2" d="M630.74414,261.71533c-0.82812,0-1.5-0.67188-1.5-1.5v-10.44531c0-0.82812,0.67188-1.5,1.5-1.5
						s1.5,0.67188,1.5,1.5v10.44531C632.24414,261.04346,631.57227,261.71533,630.74414,261.71533z"></path>
					<path fill="#9AACC2" d="M643.08984,261.71533c-0.82812,0-1.5-0.67188-1.5-1.5v-10.44531c0-0.82812,0.67188-1.5,1.5-1.5
						s1.5,0.67188,1.5,1.5v10.44531C644.58984,261.04346,643.91797,261.71533,643.08984,261.71533z"></path>
				</g>
				<g data-svg-origin="555.171875 271.32666015625" transform="matrix(1,0,0,1,0,0)">
					<path fill="#9AACC2" d="M556.67188,284.77197c-0.82812,0-1.5-0.67188-1.5-1.5v-10.44531c0-0.82812,0.67188-1.5,1.5-1.5
						s1.5,0.67188,1.5,1.5v10.44531C558.17188,284.1001,557.5,284.77197,556.67188,284.77197z"></path>
					<path fill="#9AACC2" d="M569.01758,284.77197c-0.82812,0-1.5-0.67188-1.5-1.5v-10.44531c0-0.82812,0.67188-1.5,1.5-1.5
						s1.5,0.67188,1.5,1.5v10.44531C570.51758,284.1001,569.8457,284.77197,569.01758,284.77197z"></path>
					<path fill="#9AACC2" d="M581.3623,284.77197c-0.82812,0-1.5-0.67188-1.5-1.5v-10.44531c0-0.82812,0.67188-1.5,1.5-1.5
						s1.5,0.67188,1.5,1.5v10.44531C582.8623,284.1001,582.19043,284.77197,581.3623,284.77197z"></path>
					<path fill="#9AACC2" d="M593.70801,284.77197c-0.82812,0-1.5-0.67188-1.5-1.5v-10.44531c0-0.82812,0.67188-1.5,1.5-1.5
						s1.5,0.67188,1.5,1.5v10.44531C595.20801,284.1001,594.53613,284.77197,593.70801,284.77197z"></path>
					<path fill="#9AACC2" d="M606.05371,284.77197c-0.82812,0-1.5-0.67188-1.5-1.5v-10.44531c0-0.82812,0.67188-1.5,1.5-1.5
						s1.5,0.67188,1.5,1.5v10.44531C607.55371,284.1001,606.88184,284.77197,606.05371,284.77197z"></path>
					<path fill="#9AACC2" d="M618.39941,284.77197c-0.82812,0-1.5-0.67188-1.5-1.5v-10.44531c0-0.82812,0.67188-1.5,1.5-1.5
						s1.5,0.67188,1.5,1.5v10.44531C619.89941,284.1001,619.22754,284.77197,618.39941,284.77197z"></path>
					<path fill="#9AACC2" d="M630.74414,284.77197c-0.82812,0-1.5-0.67188-1.5-1.5v-10.44531c0-0.82812,0.67188-1.5,1.5-1.5
						s1.5,0.67188,1.5,1.5v10.44531C632.24414,284.1001,631.57227,284.77197,630.74414,284.77197z"></path>
					<path fill="#9AACC2" d="M643.08984,284.77197c-0.82812,0-1.5-0.67188-1.5-1.5v-10.44531c0-0.82812,0.67188-1.5,1.5-1.5
						s1.5,0.67188,1.5,1.5v10.44531C644.58984,284.1001,643.91797,284.77197,643.08984,284.77197z"></path>
				</g>
				<g data-svg-origin="555.171875 294.38330078125" transform="matrix(1,0,0,1,0,0)">
					<path fill="#9AACC2" d="M556.67188,307.82861c-0.82812,0-1.5-0.67188-1.5-1.5V295.8833c0-0.82812,0.67188-1.5,1.5-1.5
						s1.5,0.67188,1.5,1.5v10.44531C558.17188,307.15674,557.5,307.82861,556.67188,307.82861z"></path>
					<path fill="#9AACC2" d="M569.01758,307.82861c-0.82812,0-1.5-0.67188-1.5-1.5V295.8833c0-0.82812,0.67188-1.5,1.5-1.5
						s1.5,0.67188,1.5,1.5v10.44531C570.51758,307.15674,569.8457,307.82861,569.01758,307.82861z"></path>
					<path fill="#9AACC2" d="M581.3623,307.82861c-0.82812,0-1.5-0.67188-1.5-1.5V295.8833c0-0.82812,0.67188-1.5,1.5-1.5
						s1.5,0.67188,1.5,1.5v10.44531C582.8623,307.15674,582.19043,307.82861,581.3623,307.82861z"></path>
					<path fill="#9AACC2" d="M593.70801,307.82861c-0.82812,0-1.5-0.67188-1.5-1.5V295.8833c0-0.82812,0.67188-1.5,1.5-1.5
						s1.5,0.67188,1.5,1.5v10.44531C595.20801,307.15674,594.53613,307.82861,593.70801,307.82861z"></path>
					<path fill="#9AACC2" d="M606.05371,307.82861c-0.82812,0-1.5-0.67188-1.5-1.5V295.8833c0-0.82812,0.67188-1.5,1.5-1.5
						s1.5,0.67188,1.5,1.5v10.44531C607.55371,307.15674,606.88184,307.82861,606.05371,307.82861z"></path>
					<path fill="#9AACC2" d="M618.39941,307.82861c-0.82812,0-1.5-0.67188-1.5-1.5V295.8833c0-0.82812,0.67188-1.5,1.5-1.5
						s1.5,0.67188,1.5,1.5v10.44531C619.89941,307.15674,619.22754,307.82861,618.39941,307.82861z"></path>
					<path fill="#9AACC2" d="M630.74414,307.82861c-0.82812,0-1.5-0.67188-1.5-1.5V295.8833c0-0.82812,0.67188-1.5,1.5-1.5
						s1.5,0.67188,1.5,1.5v10.44531C632.24414,307.15674,631.57227,307.82861,630.74414,307.82861z"></path>
					<path fill="#9AACC2" d="M643.08984,307.82861c-0.82812,0-1.5-0.67188-1.5-1.5V295.8833c0-0.82812,0.67188-1.5,1.5-1.5
						s1.5,0.67188,1.5,1.5v10.44531C644.58984,307.15674,643.91797,307.82861,643.08984,307.82861z"></path>
				</g>
			</g>
			<g data-svg-origin="669.919921875 81.92138671875" transform="matrix(1,0,0,1,0,0)">
				<g data-svg-origin="669.919921875 132.98583984375" transform="matrix(1,0,0,1,0,0)">
					<path fill="#33475B" d="M671.41992,146.43213c-0.82812,0-1.5-0.67188-1.5-1.5v-10.44629c0-0.82812,0.67188-1.5,1.5-1.5
						s1.5,0.67188,1.5,1.5v10.44629C672.91992,145.76025,672.24805,146.43213,671.41992,146.43213z"></path>
					<path fill="#33475B" d="M683.76562,146.43213c-0.82812,0-1.5-0.67188-1.5-1.5v-10.44629c0-0.82812,0.67188-1.5,1.5-1.5
						s1.5,0.67188,1.5,1.5v10.44629C685.26562,145.76025,684.59375,146.43213,683.76562,146.43213z"></path>
					<path fill="#33475B" d="M696.11133,146.43213c-0.82812,0-1.5-0.67188-1.5-1.5v-10.44629c0-0.82812,0.67188-1.5,1.5-1.5
						s1.5,0.67188,1.5,1.5v10.44629C697.61133,145.76025,696.93945,146.43213,696.11133,146.43213z"></path>
				</g>
				<g data-svg-origin="669.919921875 81.92138671875" transform="matrix(1,0,0,1,0,0)">
					<path fill="#33475B" d="M671.41992,95.36768c-0.82812,0-1.5-0.67188-1.5-1.5V83.42139c0-0.82812,0.67188-1.5,1.5-1.5
						s1.5,0.67188,1.5,1.5v10.44629C672.91992,94.6958,672.24805,95.36768,671.41992,95.36768z"></path>
					<path fill="#33475B" d="M683.76562,95.36768c-0.82812,0-1.5-0.67188-1.5-1.5V83.42139c0-0.82812,0.67188-1.5,1.5-1.5
						s1.5,0.67188,1.5,1.5v10.44629C685.26562,94.6958,684.59375,95.36768,683.76562,95.36768z"></path>
					<path fill="#33475B" d="M696.11133,95.36768c-0.82812,0-1.5-0.67188-1.5-1.5V83.42139c0-0.82812,0.67188-1.5,1.5-1.5
						s1.5,0.67188,1.5,1.5v10.44629C697.61133,94.6958,696.93945,95.36768,696.11133,95.36768z"></path>
				</g>
				<g data-svg-origin="669.919921875 156.04248046875" transform="matrix(1,0,0,1,0,0)">
					<path fill="#33475B" d="M671.41992,169.48877c-0.82812,0-1.5-0.67188-1.5-1.5v-10.44629c0-0.82812,0.67188-1.5,1.5-1.5
						s1.5,0.67188,1.5,1.5v10.44629C672.91992,168.81689,672.24805,169.48877,671.41992,169.48877z"></path>
					<path fill="#33475B" d="M683.76562,169.48877c-0.82812,0-1.5-0.67188-1.5-1.5v-10.44629c0-0.82812,0.67188-1.5,1.5-1.5
						s1.5,0.67188,1.5,1.5v10.44629C685.26562,168.81689,684.59375,169.48877,683.76562,169.48877z"></path>
					<path fill="#33475B" d="M696.11133,169.48877c-0.82812,0-1.5-0.67188-1.5-1.5v-10.44629c0-0.82812,0.67188-1.5,1.5-1.5
						s1.5,0.67188,1.5,1.5v10.44629C697.61133,168.81689,696.93945,169.48877,696.11133,169.48877z"></path>
				</g>
				<g data-svg-origin="669.919921875 179.10009765625" transform="matrix(1,0,0,1,0,0)">
					<path fill="#33475B" d="M671.41992,192.54541c-0.82812,0-1.5-0.67188-1.5-1.5V180.6001c0-0.82812,0.67188-1.5,1.5-1.5
						s1.5,0.67188,1.5,1.5v10.44531C672.91992,191.87354,672.24805,192.54541,671.41992,192.54541z"></path>
					<path fill="#33475B" d="M683.76562,192.54541c-0.82812,0-1.5-0.67188-1.5-1.5V180.6001c0-0.82812,0.67188-1.5,1.5-1.5
						s1.5,0.67188,1.5,1.5v10.44531C685.26562,191.87354,684.59375,192.54541,683.76562,192.54541z"></path>
					<path fill="#33475B" d="M696.11133,192.54541c-0.82812,0-1.5-0.67188-1.5-1.5V180.6001c0-0.82812,0.67188-1.5,1.5-1.5
						s1.5,0.67188,1.5,1.5v10.44531C697.61133,191.87354,696.93945,192.54541,696.11133,192.54541z"></path>
				</g>
				<g data-svg-origin="669.919921875 202.15673828125" transform="matrix(1,0,0,1,0,0)">
					<path fill="#33475B" d="M671.41992,215.60205c-0.82812,0-1.5-0.67188-1.5-1.5v-10.44531c0-0.82812,0.67188-1.5,1.5-1.5
						s1.5,0.67188,1.5,1.5v10.44531C672.91992,214.93018,672.24805,215.60205,671.41992,215.60205z"></path>
					<path fill="#33475B" d="M683.76562,215.60205c-0.82812,0-1.5-0.67188-1.5-1.5v-10.44531c0-0.82812,0.67188-1.5,1.5-1.5
						s1.5,0.67188,1.5,1.5v10.44531C685.26562,214.93018,684.59375,215.60205,683.76562,215.60205z"></path>
					<path fill="#33475B" d="M696.11133,215.60205c-0.82812,0-1.5-0.67188-1.5-1.5v-10.44531c0-0.82812,0.67188-1.5,1.5-1.5
						s1.5,0.67188,1.5,1.5v10.44531C697.61133,214.93018,696.93945,215.60205,696.11133,215.60205z"></path>
				</g>
				<g data-svg-origin="669.919921875 225.21337890625" transform="matrix(1,0,0,1,0,0)">
					<path fill="#33475B" d="M671.41992,238.65869c-0.82812,0-1.5-0.67188-1.5-1.5v-10.44531c0-0.82812,0.67188-1.5,1.5-1.5
						s1.5,0.67188,1.5,1.5v10.44531C672.91992,237.98682,672.24805,238.65869,671.41992,238.65869z"></path>
					<path fill="#33475B" d="M683.76562,238.65869c-0.82812,0-1.5-0.67188-1.5-1.5v-10.44531c0-0.82812,0.67188-1.5,1.5-1.5
						s1.5,0.67188,1.5,1.5v10.44531C685.26562,237.98682,684.59375,238.65869,683.76562,238.65869z"></path>
					<path fill="#33475B" d="M696.11133,238.65869c-0.82812,0-1.5-0.67188-1.5-1.5v-10.44531c0-0.82812,0.67188-1.5,1.5-1.5
						s1.5,0.67188,1.5,1.5v10.44531C697.61133,237.98682,696.93945,238.65869,696.11133,238.65869z"></path>
				</g>
				<g data-svg-origin="669.919921875 248.27001953125" transform="matrix(1,0,0,1,0,0)">
					<path fill="#33475B" d="M671.41992,261.71533c-0.82812,0-1.5-0.67188-1.5-1.5v-10.44531c0-0.82812,0.67188-1.5,1.5-1.5
						s1.5,0.67188,1.5,1.5v10.44531C672.91992,261.04346,672.24805,261.71533,671.41992,261.71533z"></path>
					<path fill="#33475B" d="M683.76562,261.71533c-0.82812,0-1.5-0.67188-1.5-1.5v-10.44531c0-0.82812,0.67188-1.5,1.5-1.5
						s1.5,0.67188,1.5,1.5v10.44531C685.26562,261.04346,684.59375,261.71533,683.76562,261.71533z"></path>
					<path fill="#33475B" d="M696.11133,261.71533c-0.82812,0-1.5-0.67188-1.5-1.5v-10.44531c0-0.82812,0.67188-1.5,1.5-1.5
						s1.5,0.67188,1.5,1.5v10.44531C697.61133,261.04346,696.93945,261.71533,696.11133,261.71533z"></path>
				</g>
				<g data-svg-origin="669.919921875 271.32666015625" transform="matrix(1,0,0,1,0,0)">
					<path fill="#33475B" d="M671.41992,284.77197c-0.82812,0-1.5-0.67188-1.5-1.5v-10.44531c0-0.82812,0.67188-1.5,1.5-1.5
						s1.5,0.67188,1.5,1.5v10.44531C672.91992,284.1001,672.24805,284.77197,671.41992,284.77197z"></path>
					<path fill="#33475B" d="M683.76562,284.77197c-0.82812,0-1.5-0.67188-1.5-1.5v-10.44531c0-0.82812,0.67188-1.5,1.5-1.5
						s1.5,0.67188,1.5,1.5v10.44531C685.26562,284.1001,684.59375,284.77197,683.76562,284.77197z"></path>
					<path fill="#33475B" d="M696.11133,284.77197c-0.82812,0-1.5-0.67188-1.5-1.5v-10.44531c0-0.82812,0.67188-1.5,1.5-1.5
						s1.5,0.67188,1.5,1.5v10.44531C697.61133,284.1001,696.93945,284.77197,696.11133,284.77197z"></path>
				</g>
				<g data-svg-origin="669.919921875 294.38330078125" transform="matrix(1,0,0,1,0,0)">
					<path fill="#33475B" d="M671.41992,307.82861c-0.82812,0-1.5-0.67188-1.5-1.5V295.8833c0-0.82812,0.67188-1.5,1.5-1.5
						s1.5,0.67188,1.5,1.5v10.44531C672.91992,307.15674,672.24805,307.82861,671.41992,307.82861z"></path>
					<path fill="#33475B" d="M683.76562,307.82861c-0.82812,0-1.5-0.67188-1.5-1.5V295.8833c0-0.82812,0.67188-1.5,1.5-1.5
						s1.5,0.67188,1.5,1.5v10.44531C685.26562,307.15674,684.59375,307.82861,683.76562,307.82861z"></path>
					<path fill="#33475B" d="M696.11133,307.82861c-0.82812,0-1.5-0.67188-1.5-1.5V295.8833c0-0.82812,0.67188-1.5,1.5-1.5
						s1.5,0.67188,1.5,1.5v10.44531C697.61133,307.15674,696.93945,307.82861,696.11133,307.82861z"></path>
				</g>
			</g>
			<g data-svg-origin="555.171875 106.88525390625" transform="matrix(1,0,0,1,0,0)">
				<rect x="556.67163" y="108.38519" fill="#7C98B6" width="139.43954" height="11.49914"></rect>
				<path fill="#33475B" d="M696.11133,121.38428H556.67188c-0.82812,0-1.5-0.67188-1.5-1.5v-11.49902
					c0-0.82812,0.67188-1.5,1.5-1.5h139.43945c0.82812,0,1.5,0.67188,1.5,1.5v11.49902
					C697.61133,120.7124,696.93945,121.38428,696.11133,121.38428z M558.17188,118.38428h136.43945v-8.49902H558.17188V118.38428z"></path>
			</g>
			<path fill="#33475B" d="M656.80176,313.0376h-113.8418c-0.82812,0-1.5-0.67188-1.5-1.5V123.6958
				c0-2.92871,2.38281-5.31152,5.31152-5.31152h110.03027c0.82812,0,1.5,0.67188,1.5,1.5V311.5376
				C658.30176,312.36572,657.62988,313.0376,656.80176,313.0376z M544.45996,310.0376h110.8418V121.38428H546.77148
				c-1.27441,0-2.31152,1.03711-2.31152,2.31152V310.0376z"></path>
			<path fill="#33475B" d="M710.72949,313.0376h-53.92773c-0.82812,0-1.5-0.67188-1.5-1.5V119.88428c0-0.82812,0.67188-1.5,1.5-1.5
				h49.89551c3.05078,0,5.53223,2.48242,5.53223,5.5332V311.5376C712.22949,312.36572,711.55762,313.0376,710.72949,313.0376z
				 M658.30176,310.0376h50.92773V123.91748c0-1.39648-1.13574-2.5332-2.53223-2.5332h-48.39551V310.0376z"></path>
			<path fill="#33475B" d="M656.80176,109.88525H546.8584c-2.97656,0-5.39844-2.42188-5.39844-5.39844V72.80322
				c0-2.97656,2.42188-5.39844,5.39844-5.39844h109.94336c0.82812,0,1.5,0.67139,1.5,1.5v39.48047
				C658.30176,109.21338,657.62988,109.88525,656.80176,109.88525z M546.8584,70.40479c-1.32227,0-2.39844,1.07617-2.39844,2.39844
				v31.68359c0,1.32227,1.07617,2.39844,2.39844,2.39844h108.44336V70.40479H546.8584z"></path>
		</g>
		<g data-svg-origin="115.669921875 11.441889762878418" transform="matrix(1,0,0,1,0,0)">
			<g data-svg-origin="115.669921875 11.441899299621582" transform="matrix(1,0,0,1,0,0)">
				<path fill="#9AACC2" d="M153.07118,12.94204H121.3132c-2.28822,0-4.1432,1.85497-4.1432,4.14319v294.4519h40.04436V17.08523
					C157.21437,14.79701,155.35941,12.94204,153.07118,12.94204z"></path>
				<path fill="#33475B" d="M157.21436,313.0376h-40.04443c-0.82861,0-1.5-0.67188-1.5-1.5V17.08545
					c0-3.11182,2.53125-5.64355,5.64307-5.64355h31.7583c3.11182,0,5.64307,2.53174,5.64307,5.64355V311.5376
					C158.71436,312.36572,158.04297,313.0376,157.21436,313.0376z M118.66992,310.0376h37.04443V17.08545
					c0-1.45752-1.18555-2.64355-2.64307-2.64355h-31.7583c-1.45752,0-2.64307,1.18604-2.64307,2.64355V310.0376z"></path>
			</g>
			<g data-svg-origin="172.1962890625 11.441899299621582" transform="matrix(1,0,0,1,0,0)">
				<path fill="#9AACC2" d="M213.74089,12.94204h-35.90118c-2.28822,0-4.14319,1.85497-4.14319,4.14319v294.4519h40.04437V12.94204z
					"></path>
				<path fill="#33475B" d="M213.74072,313.0376h-40.04443c-0.82861,0-1.5-0.67188-1.5-1.5V17.08545
					c0-3.11182,2.53174-5.64355,5.64355-5.64355h35.90088c0.82861,0,1.5,0.67139,1.5,1.5v298.5957
					C215.24072,312.36572,214.56934,313.0376,213.74072,313.0376z M175.19629,310.0376h37.04443V14.44189h-34.40088
					c-1.45752,0-2.64355,1.18604-2.64355,2.64355V310.0376z"></path>
			</g>
			<g data-svg-origin="212.24072265625 11.441889762878418" transform="matrix(1,0,0,1,0,0)">
				<path fill="#7C98B6" d="M213.74089,311.53714h36.66371V17.08523c0-2.28822-1.85498-4.14319-4.14319-4.14319h-32.52052V311.53714
					z"></path>
				<path fill="#33475B" d="M250.40479,313.0376h-36.66406c-0.82861,0-1.5-0.67188-1.5-1.5V12.94189c0-0.82861,0.67139-1.5,1.5-1.5
					h32.52051c3.11182,0,5.64355,2.53174,5.64355,5.64355V311.5376C251.90479,312.36572,251.2334,313.0376,250.40479,313.0376z
					 M215.24072,310.0376h33.66406V17.08545c0-1.45752-1.18604-2.64355-2.64355-2.64355h-31.02051V310.0376z"></path>
			</g>
			<g data-svg-origin="155.71435546875 23.186519622802734" transform="matrix(1,0,0,1,0,0)">
				<rect x="157.21437" y="24.68661" fill="#516F90" width="16.48214" height="286.85052"></rect>
				<path fill="#33475B" d="M173.69629,313.0376h-16.48193c-0.82861,0-1.5-0.67188-1.5-1.5V24.68652c0-0.82861,0.67139-1.5,1.5-1.5
					h16.48193c0.82861,0,1.5,0.67139,1.5,1.5V311.5376C175.19629,312.36572,174.5249,313.0376,173.69629,313.0376z
					 M158.71436,310.0376h13.48193V26.18652h-13.48193V310.0376z"></path>
			</g>
			<g data-svg-origin="117.17019653320312 12.942039489746094" transform="matrix(1,0,0,1,0,0)">
				<path fill="#7C98B6" d="M157.21356,17.084v49.11568l-40.04336,40.04337V17.084c0-2.28998,1.85619-4.14196,4.14198-4.14196
					h31.75939C155.35741,12.94204,157.21356,14.79402,157.21356,17.084z"></path>
				<path fill="#7C98B6" d="M210.47124,12.94204l-36.77315,36.77312V17.084c0-2.28998,1.85201-4.14196,4.14198-4.14196H210.47124z"></path>
				<polygon fill="#7C98B6" points="213.74146,68.97353 213.74146,177.73714 173.69809,217.7805 173.69809,109.01689 				"></polygon>
				<polygon fill="#7C98B6" points="117.1702,165.5406 157.21356,125.49725 157.21356,234.26503 117.1702,274.30838 				"></polygon>
			</g>
			<g data-svg-origin="127.8310546875 27.567380905151367" transform="matrix(1,0,0,1,0,0)">
				<path fill="#33475B" d="M145.05322,30.56738h-15.72217c-0.82861,0-1.5-0.67139-1.5-1.5s0.67139-1.5,1.5-1.5h15.72217
					c0.82861,0,1.5,0.67139,1.5,1.5S145.88184,30.56738,145.05322,30.56738z"></path>
				<path fill="#33475B" d="M145.05322,43.82764h-15.72217c-0.82861,0-1.5-0.67139-1.5-1.5s0.67139-1.5,1.5-1.5h15.72217
					c0.82861,0,1.5,0.67139,1.5,1.5S145.88184,43.82764,145.05322,43.82764z"></path>
				<path fill="#33475B" d="M145.05322,57.08838h-15.72217c-0.82861,0-1.5-0.67139-1.5-1.5s0.67139-1.5,1.5-1.5h15.72217
					c0.82861,0,1.5,0.67139,1.5,1.5S145.88184,57.08838,145.05322,57.08838z"></path>
				<path fill="#33475B" d="M145.05322,70.34863h-15.72217c-0.82861,0-1.5-0.67139-1.5-1.5s0.67139-1.5,1.5-1.5h15.72217
					c0.82861,0,1.5,0.67139,1.5,1.5S145.88184,70.34863,145.05322,70.34863z"></path>
				<path fill="#33475B" d="M145.05322,83.60889h-15.72217c-0.82861,0-1.5-0.67188-1.5-1.5s0.67139-1.5,1.5-1.5h15.72217
					c0.82861,0,1.5,0.67188,1.5,1.5S145.88184,83.60889,145.05322,83.60889z"></path>
				<path fill="#33475B" d="M145.05322,96.86963h-15.72217c-0.82861,0-1.5-0.67188-1.5-1.5s0.67139-1.5,1.5-1.5h15.72217
					c0.82861,0,1.5,0.67188,1.5,1.5S145.88184,96.86963,145.05322,96.86963z"></path>
				<path fill="#33475B" d="M145.05322,110.12939h-15.72217c-0.82861,0-1.5-0.67188-1.5-1.5s0.67139-1.5,1.5-1.5h15.72217
					c0.82861,0,1.5,0.67188,1.5,1.5S145.88184,110.12939,145.05322,110.12939z"></path>
				<path fill="#33475B" d="M145.05322,123.39014h-15.72217c-0.82861,0-1.5-0.67188-1.5-1.5s0.67139-1.5,1.5-1.5h15.72217
					c0.82861,0,1.5,0.67188,1.5,1.5S145.88184,123.39014,145.05322,123.39014z"></path>
				<path fill="#33475B" d="M145.05322,136.6499h-15.72217c-0.82861,0-1.5-0.67188-1.5-1.5s0.67139-1.5,1.5-1.5h15.72217
					c0.82861,0,1.5,0.67188,1.5,1.5S145.88184,136.6499,145.05322,136.6499z"></path>
				<path fill="#33475B" d="M145.05322,149.91064h-15.72217c-0.82861,0-1.5-0.67188-1.5-1.5s0.67139-1.5,1.5-1.5h15.72217
					c0.82861,0,1.5,0.67188,1.5,1.5S145.88184,149.91064,145.05322,149.91064z"></path>
				<path fill="#33475B" d="M145.05322,163.17139h-15.72217c-0.82861,0-1.5-0.67188-1.5-1.5s0.67139-1.5,1.5-1.5h15.72217
					c0.82861,0,1.5,0.67188,1.5,1.5S145.88184,163.17139,145.05322,163.17139z"></path>
				<path fill="#33475B" d="M145.05322,176.43115h-15.72217c-0.82861,0-1.5-0.67188-1.5-1.5s0.67139-1.5,1.5-1.5h15.72217
					c0.82861,0,1.5,0.67188,1.5,1.5S145.88184,176.43115,145.05322,176.43115z"></path>
				<path fill="#33475B" d="M145.05322,189.69189h-15.72217c-0.82861,0-1.5-0.67188-1.5-1.5s0.67139-1.5,1.5-1.5h15.72217
					c0.82861,0,1.5,0.67188,1.5,1.5S145.88184,189.69189,145.05322,189.69189z"></path>
				<path fill="#33475B" d="M145.05322,202.95264h-15.72217c-0.82861,0-1.5-0.67188-1.5-1.5s0.67139-1.5,1.5-1.5h15.72217
					c0.82861,0,1.5,0.67188,1.5,1.5S145.88184,202.95264,145.05322,202.95264z"></path>
				<path fill="#33475B" d="M145.05322,216.2124h-15.72217c-0.82861,0-1.5-0.67188-1.5-1.5s0.67139-1.5,1.5-1.5h15.72217
					c0.82861,0,1.5,0.67188,1.5,1.5S145.88184,216.2124,145.05322,216.2124z"></path>
				<path fill="#33475B" d="M145.05322,229.47314h-15.72217c-0.82861,0-1.5-0.67188-1.5-1.5s0.67139-1.5,1.5-1.5h15.72217
					c0.82861,0,1.5,0.67188,1.5,1.5S145.88184,229.47314,145.05322,229.47314z"></path>
				<path fill="#33475B" d="M145.05322,242.73291h-15.72217c-0.82861,0-1.5-0.67188-1.5-1.5s0.67139-1.5,1.5-1.5h15.72217
					c0.82861,0,1.5,0.67188,1.5,1.5S145.88184,242.73291,145.05322,242.73291z"></path>
				<path fill="#33475B" d="M145.05322,255.99365h-15.72217c-0.82861,0-1.5-0.67188-1.5-1.5s0.67139-1.5,1.5-1.5h15.72217
					c0.82861,0,1.5,0.67188,1.5,1.5S145.88184,255.99365,145.05322,255.99365z"></path>
				<path fill="#33475B" d="M145.05322,269.25439h-15.72217c-0.82861,0-1.5-0.67188-1.5-1.5s0.67139-1.5,1.5-1.5h15.72217
					c0.82861,0,1.5,0.67188,1.5,1.5S145.88184,269.25439,145.05322,269.25439z"></path>
				<path fill="#33475B" d="M145.05322,282.51416h-15.72217c-0.82861,0-1.5-0.67188-1.5-1.5s0.67139-1.5,1.5-1.5h15.72217
					c0.82861,0,1.5,0.67188,1.5,1.5S145.88184,282.51416,145.05322,282.51416z"></path>
				<path fill="#33475B" d="M145.05322,295.7749h-15.72217c-0.82861,0-1.5-0.67188-1.5-1.5s0.67139-1.5,1.5-1.5h15.72217
					c0.82861,0,1.5,0.67188,1.5,1.5S145.88184,295.7749,145.05322,295.7749z"></path>
			</g>
			<g data-svg-origin="184.35888671875 27.567380905151367" transform="matrix(1,0,0,1,0,0)">
				<path fill="#33475B" d="M201.58105,30.56738h-15.72217c-0.82861,0-1.5-0.67139-1.5-1.5s0.67139-1.5,1.5-1.5h15.72217
					c0.82861,0,1.5,0.67139,1.5,1.5S202.40967,30.56738,201.58105,30.56738z"></path>
				<path fill="#33475B" d="M201.58105,43.82764h-15.72217c-0.82861,0-1.5-0.67139-1.5-1.5s0.67139-1.5,1.5-1.5h15.72217
					c0.82861,0,1.5,0.67139,1.5,1.5S202.40967,43.82764,201.58105,43.82764z"></path>
				<path fill="#33475B" d="M201.58105,57.08838h-15.72217c-0.82861,0-1.5-0.67139-1.5-1.5s0.67139-1.5,1.5-1.5h15.72217
					c0.82861,0,1.5,0.67139,1.5,1.5S202.40967,57.08838,201.58105,57.08838z"></path>
				<path fill="#33475B" d="M201.58105,70.34863h-15.72217c-0.82861,0-1.5-0.67139-1.5-1.5s0.67139-1.5,1.5-1.5h15.72217
					c0.82861,0,1.5,0.67139,1.5,1.5S202.40967,70.34863,201.58105,70.34863z"></path>
				<path fill="#33475B" d="M201.58105,83.60889h-15.72217c-0.82861,0-1.5-0.67188-1.5-1.5s0.67139-1.5,1.5-1.5h15.72217
					c0.82861,0,1.5,0.67188,1.5,1.5S202.40967,83.60889,201.58105,83.60889z"></path>
				<path fill="#33475B" d="M201.58105,96.86963h-15.72217c-0.82861,0-1.5-0.67188-1.5-1.5s0.67139-1.5,1.5-1.5h15.72217
					c0.82861,0,1.5,0.67188,1.5,1.5S202.40967,96.86963,201.58105,96.86963z"></path>
				<path fill="#33475B" d="M201.58105,110.12939h-15.72217c-0.82861,0-1.5-0.67188-1.5-1.5s0.67139-1.5,1.5-1.5h15.72217
					c0.82861,0,1.5,0.67188,1.5,1.5S202.40967,110.12939,201.58105,110.12939z"></path>
				<path fill="#33475B" d="M201.58105,123.39014h-15.72217c-0.82861,0-1.5-0.67188-1.5-1.5s0.67139-1.5,1.5-1.5h15.72217
					c0.82861,0,1.5,0.67188,1.5,1.5S202.40967,123.39014,201.58105,123.39014z"></path>
				<path fill="#33475B" d="M201.58105,136.6499h-15.72217c-0.82861,0-1.5-0.67188-1.5-1.5s0.67139-1.5,1.5-1.5h15.72217
					c0.82861,0,1.5,0.67188,1.5,1.5S202.40967,136.6499,201.58105,136.6499z"></path>
				<path fill="#33475B" d="M201.58105,149.91064h-15.72217c-0.82861,0-1.5-0.67188-1.5-1.5s0.67139-1.5,1.5-1.5h15.72217
					c0.82861,0,1.5,0.67188,1.5,1.5S202.40967,149.91064,201.58105,149.91064z"></path>
				<path fill="#33475B" d="M201.58105,163.17139h-15.72217c-0.82861,0-1.5-0.67188-1.5-1.5s0.67139-1.5,1.5-1.5h15.72217
					c0.82861,0,1.5,0.67188,1.5,1.5S202.40967,163.17139,201.58105,163.17139z"></path>
				<path fill="#33475B" d="M201.58105,176.43115h-15.72217c-0.82861,0-1.5-0.67188-1.5-1.5s0.67139-1.5,1.5-1.5h15.72217
					c0.82861,0,1.5,0.67188,1.5,1.5S202.40967,176.43115,201.58105,176.43115z"></path>
				<path fill="#33475B" d="M201.58105,189.69189h-15.72217c-0.82861,0-1.5-0.67188-1.5-1.5s0.67139-1.5,1.5-1.5h15.72217
					c0.82861,0,1.5,0.67188,1.5,1.5S202.40967,189.69189,201.58105,189.69189z"></path>
				<path fill="#33475B" d="M201.58105,202.95264h-15.72217c-0.82861,0-1.5-0.67188-1.5-1.5s0.67139-1.5,1.5-1.5h15.72217
					c0.82861,0,1.5,0.67188,1.5,1.5S202.40967,202.95264,201.58105,202.95264z"></path>
				<path fill="#33475B" d="M201.58105,216.2124h-15.72217c-0.82861,0-1.5-0.67188-1.5-1.5s0.67139-1.5,1.5-1.5h15.72217
					c0.82861,0,1.5,0.67188,1.5,1.5S202.40967,216.2124,201.58105,216.2124z"></path>
				<path fill="#33475B" d="M201.58105,229.47314h-15.72217c-0.82861,0-1.5-0.67188-1.5-1.5s0.67139-1.5,1.5-1.5h15.72217
					c0.82861,0,1.5,0.67188,1.5,1.5S202.40967,229.47314,201.58105,229.47314z"></path>
				<path fill="#33475B" d="M201.58105,242.73291h-15.72217c-0.82861,0-1.5-0.67188-1.5-1.5s0.67139-1.5,1.5-1.5h15.72217
					c0.82861,0,1.5,0.67188,1.5,1.5S202.40967,242.73291,201.58105,242.73291z"></path>
				<path fill="#33475B" d="M201.58105,255.99365h-15.72217c-0.82861,0-1.5-0.67188-1.5-1.5s0.67139-1.5,1.5-1.5h15.72217
					c0.82861,0,1.5,0.67188,1.5,1.5S202.40967,255.99365,201.58105,255.99365z"></path>
				<path fill="#33475B" d="M201.58105,269.25439h-15.72217c-0.82861,0-1.5-0.67188-1.5-1.5s0.67139-1.5,1.5-1.5h15.72217
					c0.82861,0,1.5,0.67188,1.5,1.5S202.40967,269.25439,201.58105,269.25439z"></path>
				<path fill="#33475B" d="M201.58105,282.51416h-15.72217c-0.82861,0-1.5-0.67188-1.5-1.5s0.67139-1.5,1.5-1.5h15.72217
					c0.82861,0,1.5,0.67188,1.5,1.5S202.40967,282.51416,201.58105,282.51416z"></path>
				<path fill="#33475B" d="M201.58105,295.7749h-15.72217c-0.82861,0-1.5-0.67188-1.5-1.5s0.67139-1.5,1.5-1.5h15.72217
					c0.82861,0,1.5,0.67188,1.5,1.5S202.40967,295.7749,201.58105,295.7749z"></path>
			</g>
			<path fill="#33475B" d="M157.21436,313.0376h-40.04443c-0.82861,0-1.5-0.67188-1.5-1.5V17.08545
				c0-3.11182,2.53125-5.64355,5.64307-5.64355h31.7583c3.11182,0,5.64307,2.53174,5.64307,5.64355V311.5376
				C158.71436,312.36572,158.04297,313.0376,157.21436,313.0376z M118.66992,310.0376h37.04443V17.08545
				c0-1.45752-1.18555-2.64355-2.64307-2.64355h-31.7583c-1.45752,0-2.64307,1.18604-2.64307,2.64355V310.0376z"></path>
			<path fill="#33475B" d="M213.74072,313.0376h-40.04443c-0.82861,0-1.5-0.67188-1.5-1.5V17.08545
				c0-3.11182,2.53174-5.64355,5.64355-5.64355h35.90088c0.82861,0,1.5,0.67139,1.5,1.5v298.5957
				C215.24072,312.36572,214.56934,313.0376,213.74072,313.0376z M175.19629,310.0376h37.04443V14.44189h-34.40088
				c-1.45752,0-2.64355,1.18604-2.64355,2.64355V310.0376z"></path>
		</g>
		<g data-svg-origin="288.87744140625 143.27294921875" transform="matrix(1,0,0,1,0,0)">
			<g data-svg-origin="382.02099609375 143.27294921875" transform="matrix(1,0,0,1,0,0)">
				<g data-svg-origin="462.0362854003906 185.43701171875" transform="matrix(1,0,0,1,0,0)">
					<path fill="#9AACC2" d="M525.38226,191.12703v87.41963h-48.71814l-13.12756-91.61005h57.65527
						C523.50616,186.93661,525.38226,188.81271,525.38226,191.12703z"></path>
					<path fill="#33475B" d="M525.38184,280.04639h-48.71777c-0.74609,0-1.37891-0.54883-1.48438-1.28711l-13.12793-91.60938
						c-0.0625-0.43066,0.06641-0.86719,0.35059-1.19531c0.28516-0.3291,0.69922-0.51758,1.13379-0.51758h57.65527
						c3.1377,0,5.69043,2.55273,5.69043,5.69043v87.41895C526.88184,279.37451,526.20996,280.04639,525.38184,280.04639z
						 M477.96484,277.04639h45.91699v-85.91895c0-1.4834-1.20703-2.69043-2.69043-2.69043h-55.9248L477.96484,277.04639z"></path>
				</g>
				<g data-svg-origin="382.02099609375 143.27294921875" transform="matrix(1,0,0,1,0,0)">
					<path fill="#516F90" d="M474.40262,186.93661h-48.71814c0-14.21301-7.02988-26.78157-17.80453-34.42087
						c-6.87653-4.87564-15.28244-7.74277-24.3591-7.74277h48.71814C455.52481,144.77298,474.40262,163.65079,474.40262,186.93661z"></path>
					<path fill="#33475B" d="M474.40234,188.43701h-48.71777c-0.82861,0-1.5-0.67188-1.5-1.5
						c0-13.16406-6.41943-25.57422-17.17236-33.19727c-6.88867-4.88477-15.01221-7.4668-23.49121-7.4668
						c-0.82861,0-1.5-0.67188-1.5-1.5s0.67139-1.5,1.5-1.5h48.71826c24.07617,0,43.66309,19.58789,43.66309,43.66406
						C475.90234,187.76514,475.23047,188.43701,474.40234,188.43701z M427.15869,185.43701H472.875
						c-0.79199-21.73047-18.71582-39.16406-40.63574-39.16406h-32.76709c3.2583,1.2793,6.36865,2.95898,9.27539,5.01953
						C419.88281,159.18701,426.68994,171.86377,427.15869,185.43701z"></path>
				</g>
			</g>
			<g data-svg-origin="288.87744140625 143.27294921875" transform="matrix(1,0,0,1,0,0)">
				<path fill="#DFE3EB" d="M425.68448,186.93661c0-23.28635-18.87729-42.16364-42.16364-42.16364
					c-23.28632,0-42.1636,18.87729-42.1636,42.16364h-46.78925c-2.3143,0-4.19043,1.8761-4.19043,4.19041v87.41963h186.28656
					v-87.41963c0-2.31432-1.8761-4.19041-4.1904-4.19041H425.68448z"></path>
				<path fill="#33475B" d="M476.66406,280.04639H290.37744c-0.82861,0-1.5-0.67188-1.5-1.5v-87.41895
					c0-3.1377,2.55273-5.69043,5.69043-5.69043h45.31494c0.79443-23.38379,20.06445-42.16406,43.63818-42.16406
					s42.84375,18.78027,43.63818,42.16406h45.31445c3.1377,0,5.69043,2.55273,5.69043,5.69043v87.41895
					C478.16406,279.37451,477.49219,280.04639,476.66406,280.04639z M291.87744,277.04639h183.28662v-85.91895
					c0-1.4834-1.20703-2.69043-2.69043-2.69043h-46.78906c-0.82861,0-1.5-0.67188-1.5-1.5
					c0-22.42188-18.2417-40.66406-40.66357-40.66406s-40.66357,18.24219-40.66357,40.66406c0,0.82812-0.67139,1.5-1.5,1.5h-46.78955
					c-1.4834,0-2.69043,1.20703-2.69043,2.69043V277.04639z M427.18457,186.93701h0.00977H427.18457z"></path>
			</g>
			<g data-svg-origin="352.17822265625 155.59423828125" transform="matrix(1,0,0,1,0,0)">
				<path fill="#9AACC2" d="M383.52084,157.09409c-16.48157,0-29.8425,13.36095-29.8425,29.84251h59.68503
					C413.36337,170.45503,400.00241,157.09409,383.52084,157.09409z"></path>
				<path fill="#33475B" d="M413.36328,188.43701h-59.68506c-0.82861,0-1.5-0.67188-1.5-1.5
					c0-17.28223,14.06055-31.34277,31.34277-31.34277s31.34229,14.06055,31.34229,31.34277
					C414.86328,187.76514,414.19189,188.43701,413.36328,188.43701z M355.21729,185.43701h56.60693
					c-0.78174-14.93457-13.17773-26.84277-28.30322-26.84277S355.99902,170.50244,355.21729,185.43701z"></path>
			</g>
			<g data-svg-origin="304.57666015625 202.47828674316406" transform="matrix(1,0,0,1,0,0)">
				<path fill="#9AACC2" d="M312.31808,214.59291h-5.63974c-1.16074,0-2.10168-0.94096-2.10168-2.1017V204.58
					c0-1.16075,0.94095-2.10172,2.10168-2.10172h5.63974c1.16074,0,2.10168,0.94096,2.10168,2.10172v7.91121
					C314.41977,213.65195,313.47882,214.59291,312.31808,214.59291z"></path>
				<path fill="#9AACC2" d="M333.46741,214.59291h-5.63974c-1.16074,0-2.10168-0.94096-2.10168-2.1017V204.58
					c0-1.16075,0.94095-2.10172,2.10168-2.10172h5.63974c1.16074,0,2.10168,0.94096,2.10168,2.10172v7.91121
					C335.56909,213.65195,334.62814,214.59291,333.46741,214.59291z"></path>
				<path fill="#9AACC2" d="M354.61673,214.59291h-5.63971c-1.16077,0-2.10172-0.94096-2.10172-2.1017V204.58
					c0-1.16075,0.94095-2.10172,2.10172-2.10172h5.63971c1.16074,0,2.10172,0.94096,2.10172,2.10172v7.91121
					C356.71844,213.65195,355.77747,214.59291,354.61673,214.59291z"></path>
				<path fill="#9AACC2" d="M375.76605,214.59291h-5.63971c-1.16077,0-2.10172-0.94096-2.10172-2.1017V204.58
					c0-1.16075,0.94095-2.10172,2.10172-2.10172h5.63971c1.16074,0,2.10172,0.94096,2.10172,2.10172v7.91121
					C377.86777,213.65195,376.92679,214.59291,375.76605,214.59291z"></path>
				<path fill="#9AACC2" d="M396.91537,214.59291h-5.63971c-1.16074,0-2.10172-0.94096-2.10172-2.1017V204.58
					c0-1.16075,0.94098-2.10172,2.10172-2.10172h5.63971c1.16074,0,2.10172,0.94096,2.10172,2.10172v7.91121
					C399.01709,213.65195,398.07611,214.59291,396.91537,214.59291z"></path>
				<path fill="#9AACC2" d="M418.0647,214.59291h-5.63971c-1.16074,0-2.10172-0.94096-2.10172-2.1017V204.58
					c0-1.16075,0.94098-2.10172,2.10172-2.10172h5.63971c1.16074,0,2.10172,0.94096,2.10172,2.10172v7.91121
					C420.16641,213.65195,419.22543,214.59291,418.0647,214.59291z"></path>
				<path fill="#9AACC2" d="M439.21402,214.59291h-5.63971c-1.16074,0-2.10172-0.94096-2.10172-2.1017V204.58
					c0-1.16075,0.94098-2.10172,2.10172-2.10172h5.63971c1.16074,0,2.10172,0.94096,2.10172,2.10172v7.91121
					C441.31573,213.65195,440.37476,214.59291,439.21402,214.59291z"></path>
				<path fill="#9AACC2" d="M460.36334,214.59291h-5.63971c-1.16074,0-2.10172-0.94096-2.10172-2.1017V204.58
					c0-1.16075,0.94098-2.10172,2.10172-2.10172h5.63971c1.16074,0,2.10172,0.94096,2.10172,2.10172v7.91121
					C462.46506,213.65195,461.52408,214.59291,460.36334,214.59291z"></path>
			</g>
			<g data-svg-origin="304.57666015625 224.23587036132812" transform="matrix(1,0,0,1,0,0)">
				<path fill="#9AACC2" d="M312.41589,236.35049h-5.83536c-1.10672,0-2.00388-0.89717-2.00388-2.00388v-8.10687
					c0-1.10672,0.89716-2.00388,2.00388-2.00388h5.83536c1.10672,0,2.00388,0.89716,2.00388,2.00388v8.10687
					C314.41977,235.45332,313.52261,236.35049,312.41589,236.35049z"></path>
				<path fill="#9AACC2" d="M333.56522,236.35049h-5.83536c-1.10672,0-2.00388-0.89717-2.00388-2.00388v-8.10687
					c0-1.10672,0.89716-2.00388,2.00388-2.00388h5.83536c1.10672,0,2.00388,0.89716,2.00388,2.00388v8.10687
					C335.56909,235.45332,334.67194,236.35049,333.56522,236.35049z"></path>
				<path fill="#9AACC2" d="M354.61673,236.35049h-5.63971c-1.16077,0-2.10172-0.94096-2.10172-2.10172v-7.91119
					c0-1.16075,0.94095-2.10172,2.10172-2.10172h5.63971c1.16074,0,2.10172,0.94096,2.10172,2.10172v7.91119
					C356.71844,235.40953,355.77747,236.35049,354.61673,236.35049z"></path>
				<path fill="#9AACC2" d="M375.76605,236.35049h-5.63971c-1.16077,0-2.10172-0.94096-2.10172-2.10172v-7.91119
					c0-1.16075,0.94095-2.10172,2.10172-2.10172h5.63971c1.16074,0,2.10172,0.94096,2.10172,2.10172v7.91119
					C377.86777,235.40953,376.92679,236.35049,375.76605,236.35049z"></path>
				<path fill="#9AACC2" d="M396.91537,236.35049h-5.63971c-1.16074,0-2.10172-0.94096-2.10172-2.10172v-7.91119
					c0-1.16075,0.94098-2.10172,2.10172-2.10172h5.63971c1.16074,0,2.10172,0.94096,2.10172,2.10172v7.91119
					C399.01709,235.40953,398.07611,236.35049,396.91537,236.35049z"></path>
				<path fill="#9AACC2" d="M418.0647,236.35049h-5.63971c-1.16074,0-2.10172-0.94096-2.10172-2.10172v-7.91119
					c0-1.16075,0.94098-2.10172,2.10172-2.10172h5.63971c1.16074,0,2.10172,0.94096,2.10172,2.10172v7.91119
					C420.16641,235.40953,419.22543,236.35049,418.0647,236.35049z"></path>
				<path fill="#9AACC2" d="M439.21402,236.35049h-5.63971c-1.16074,0-2.10172-0.94096-2.10172-2.10172v-7.91119
					c0-1.16075,0.94098-2.10172,2.10172-2.10172h5.63971c1.16074,0,2.10172,0.94096,2.10172,2.10172v7.91119
					C441.31573,235.40953,440.37476,236.35049,439.21402,236.35049z"></path>
				<path fill="#9AACC2" d="M460.36334,236.35049h-5.63971c-1.16074,0-2.10172-0.94096-2.10172-2.10172v-7.91119
					c0-1.16075,0.94098-2.10172,2.10172-2.10172h5.63971c1.16074,0,2.10172,0.94096,2.10172,2.10172v7.91119
					C462.46506,235.40953,461.52408,236.35049,460.36334,236.35049z"></path>
			</g>
			<g data-svg-origin="304.57666015625 245.99343872070312" transform="matrix(1,0,0,1,0,0)">
				<path fill="#9AACC2" d="M312.41589,258.10806h-5.83536c-1.10672,0-2.00388-0.89716-2.00388-2.00388v-8.10687
					c0-1.1067,0.89716-2.00388,2.00388-2.00388h5.83536c1.10672,0,2.00388,0.89717,2.00388,2.00388v8.10687
					C314.41977,257.21091,313.52261,258.10806,312.41589,258.10806z"></path>
				<path fill="#9AACC2" d="M333.56522,258.10806h-5.83536c-1.10672,0-2.00388-0.89716-2.00388-2.00388v-8.10687
					c0-1.1067,0.89716-2.00388,2.00388-2.00388h5.83536c1.10672,0,2.00388,0.89717,2.00388,2.00388v8.10687
					C335.56909,257.21091,334.67194,258.10806,333.56522,258.10806z"></path>
				<path fill="#9AACC2" d="M354.61673,258.10806h-5.63971c-1.16077,0-2.10172-0.94095-2.10172-2.10172v-7.91119
					c0-1.16074,0.94095-2.10172,2.10172-2.10172h5.63971c1.16074,0,2.10172,0.94098,2.10172,2.10172v7.91119
					C356.71844,257.16711,355.77747,258.10806,354.61673,258.10806z"></path>
				<path fill="#9AACC2" d="M375.76605,258.10806h-5.63971c-1.16077,0-2.10172-0.94095-2.10172-2.10172v-7.91119
					c0-1.16074,0.94095-2.10172,2.10172-2.10172h5.63971c1.16074,0,2.10172,0.94098,2.10172,2.10172v7.91119
					C377.86777,257.16711,376.92679,258.10806,375.76605,258.10806z"></path>
				<path fill="#9AACC2" d="M396.91537,258.10806h-5.63971c-1.16074,0-2.10172-0.94095-2.10172-2.10172v-7.91119
					c0-1.16074,0.94098-2.10172,2.10172-2.10172h5.63971c1.16074,0,2.10172,0.94098,2.10172,2.10172v7.91119
					C399.01709,257.16711,398.07611,258.10806,396.91537,258.10806z"></path>
				<path fill="#9AACC2" d="M418.0647,258.10806h-5.63971c-1.16074,0-2.10172-0.94095-2.10172-2.10172v-7.91119
					c0-1.16074,0.94098-2.10172,2.10172-2.10172h5.63971c1.16074,0,2.10172,0.94098,2.10172,2.10172v7.91119
					C420.16641,257.16711,419.22543,258.10806,418.0647,258.10806z"></path>
				<path fill="#9AACC2" d="M439.21402,258.10806h-5.63971c-1.16074,0-2.10172-0.94095-2.10172-2.10172v-7.91119
					c0-1.16074,0.94098-2.10172,2.10172-2.10172h5.63971c1.16074,0,2.10172,0.94098,2.10172,2.10172v7.91119
					C441.31573,257.16711,440.37476,258.10806,439.21402,258.10806z"></path>
				<path fill="#9AACC2" d="M460.36334,258.10806h-5.63971c-1.16074,0-2.10172-0.94095-2.10172-2.10172v-7.91119
					c0-1.16074,0.94098-2.10172,2.10172-2.10172h5.63971c1.16074,0,2.10172,0.94098,2.10172,2.10172v7.91119
					C462.46506,257.16711,461.52408,258.10806,460.36334,258.10806z"></path>
			</g>
		</g>
		<g data-svg-origin="28.462890625 179.59716796875" transform="matrix(1,0,0,1,0,0)">
			<path fill="#54BEA6" d="M55.56453,181.09756c-16.0985,37.3857-25.60156,83.45578-25.60156,133.29044h51.19547
				C81.15843,264.55334,71.65542,218.48326,55.56453,181.09756z"></path>
			<path fill="#33475B" d="M81.1582,315.88818H29.96289c-0.82861,0-1.5-0.67188-1.5-1.5
				c0-48.50684,8.89502-94.80273,25.72363-133.88379c0.2373-0.55078,0.77881-0.90723,1.37793-0.90723l0,0
				c0.59912,0,1.14111,0.35645,1.37793,0.90723c16.82324,39.08789,25.71582,85.38379,25.71582,133.88379
				C82.6582,315.21631,81.98682,315.88818,81.1582,315.88818z M31.46582,312.88818h48.18945
				c-0.17578-46.20996-8.4873-90.32227-24.09131-127.93848C39.95752,222.55811,31.6416,266.67432,31.46582,312.88818z"></path>
		</g>
		<g data-svg-origin="663.5038452148438 213.45947265625" transform="matrix(1,0,0,1,0,0)">
			<path fill="#7FDED2" d="M665.00543,274.53467c0.12354,15.44147,6.17004,29.47534,15.98462,39.93469h169.36267
				c4.24347-6.48093,6.71002-14.22354,6.71204-22.5495c0.00543-22.63864-18.5127-41.20032-41.15131-41.24547
				c-5.16028-0.0103-10.10052,0.92752-14.65631,2.64903c-9.82642,3.71317-20.84515-0.09102-26.16412-9.14943
				c-10.2738-17.49663-29.29596-29.23706-51.05542-29.21475C691.11243,214.993,664.74213,241.61052,665.00543,274.53467z"></path>
			<path fill="#33475B" d="M850.35254,315.96924h-169.3623c-0.41406,0-0.81055-0.17188-1.09375-0.47363
				c-10.44824-11.13379-16.26855-25.67676-16.39062-40.94922l0,0c-0.13086-16.3291,6.08691-31.66895,17.50879-43.19336
				c11.41895-11.52246,26.69824-17.87695,43.02148-17.89355c0.02051,0,0.04297,0,0.0625,0
				c21.40625,0,41.43555,11.47266,52.28809,29.95508c4.92871,8.39551,15.16602,11.9707,24.33984,8.50586
				c4.82227-1.82227,9.9043-2.74609,15.10645-2.74609c0.02734,0,0.05469,0,0.08301,0
				c23.52246,0.04688,42.6543,19.22266,42.64844,42.74512c-0.00195,8.34375-2.40723,16.4248-6.95703,23.37207
				C851.33008,315.71436,850.8584,315.96924,850.35254,315.96924z M681.64453,312.96924h167.8877
				c3.94727-6.30273,6.03027-13.5625,6.03223-21.0498c0.00586-21.87207-17.7832-39.70215-39.6543-39.74512
				c-0.02539,0-0.05176,0-0.07715,0c-4.83887,0-9.56348,0.8584-14.0459,2.55273c-10.54297,3.98145-22.31445-0.13379-27.9873-9.79297
				c-10.31543-17.56738-29.35547-28.47461-49.70117-28.47461c-0.02051,0-0.03906,0-0.05859,0
				c-15.51953,0.01562-30.04199,6.05469-40.89453,17.00488c-10.85449,10.95312-16.76367,25.53418-16.63965,41.05859l0,0
				C666.62012,288.82275,671.99023,302.44971,681.64453,312.96924z"></path>
		</g>
		<g data-svg-origin="-0.0000013382939414441353 194.72509765625" transform="matrix(1,0,0,1,0,0)">
			<path fill="#7FDED2" d="M229.55951,266.9678c-0.14667,18.33591-7.32657,35.00031-18.98087,47.4202H9.47014
				C4.43128,306.69229,1.50239,297.49835,1.5,287.61176c-0.00649-26.88211,21.98279-48.92303,48.86485-48.97664
				c6.12755-0.01222,11.9938,1.10136,17.40353,3.14558c11.66832,4.40916,24.75243-0.10809,31.0684-10.86444
				c12.19952-20.77625,34.78725-34.71733,60.62537-34.69086C198.55891,196.26549,229.87219,227.87228,229.55951,266.9678z"></path>
			<path fill="#33475B" d="M210.57861,315.88818H9.47022c-0.50586,0-0.97803-0.25488-1.25488-0.67871
				C2.84326,307.00537,0.00244,297.46143,0,287.61182c-0.00635-27.77734,22.58545-50.4209,50.36182-50.47656
				c0.03564,0,0.07178,0,0.10742,0c6.13672,0,12.13477,1.09082,17.82959,3.24219c11.02148,4.16699,23.3208-0.13281,29.24463-10.2207
				c12.83545-21.85938,36.52979-35.43164,61.84766-35.43164c0.0249,0,0.04736,0,0.07227,0
				c19.30859,0.01953,37.38037,7.53613,50.88623,21.16504c13.50928,13.63086,20.86426,31.77539,20.70996,51.08984l-1.5-0.01172
				l1.5,0.01172c-0.14453,18.06445-7.0293,35.26562-19.38721,48.43457C211.38867,315.71631,210.99316,315.88818,210.57861,315.88818
				z M10.28906,312.88818H209.9248c11.56348-12.55469,17.99805-28.83984,18.13477-45.93164
				c0.14795-18.50977-6.89844-35.89551-19.84082-48.95508c-12.93945-13.05664-30.25537-20.25781-48.7583-20.27637
				c-0.02246,0-0.04688,0-0.06934,0c-24.26025,0-46.96094,13.00391-59.26074,33.95117
				c-6.66553,11.35156-20.49854,16.19141-32.89209,11.50781c-5.35449-2.02344-10.99609-3.04883-16.76953-3.04883
				c-0.03369,0-0.06738,0-0.10107,0C24.24268,240.18701,2.99365,261.48486,3,287.61182
				C3.00244,296.60596,5.52002,305.32764,10.28906,312.88818z"></path>
		</g>
		<g data-svg-origin="568.0987548828125 222.60693359375" transform="matrix(1,0,0,1,0,0)">
			<path fill="#7FDED2" d="M569.60034,278.20563c0.11218,14.02203,5.60284,26.76584,14.51526,36.26373h153.79413
				c3.85333-5.88516,6.09314-12.91605,6.09497-20.47665c0.005-20.55762-16.81091-37.41299-37.36847-37.45401
				c-4.68597-0.00934-9.17206,0.84229-13.30908,2.40555c-8.9231,3.37183-18.92896-0.08267-23.75897-8.3084
				c-9.32935-15.88824-26.60291-26.54945-46.36218-26.52919C593.3075,224.1373,569.36121,248.30803,569.60034,278.20563z"></path>
			<path fill="#33475B" d="M737.91016,315.96924H584.11523c-0.41406,0-0.81055-0.17188-1.09375-0.47363
				c-9.51074-10.13574-14.80957-23.375-14.9209-37.27832c-0.11914-14.86426,5.54199-28.8291,15.93945-39.32129
				c10.39551-10.48926,24.30371-16.27441,39.16406-16.28906c0.01855,0,0.03906,0,0.05664,0
				c19.48828,0,37.72168,10.44434,47.60156,27.26953c4.44141,7.56445,13.66309,10.78809,21.93457,7.66406
				c4.39551-1.66016,9.02734-2.50195,13.7666-2.50195c0.02539,0,0.0498,0,0.0752,0
				c21.43555,0.04297,38.87109,17.51758,38.86621,38.9541c-0.00195,7.60156-2.19434,14.96582-6.33984,21.29785
				C738.8877,315.71436,738.41602,315.96924,737.91016,315.96924z M584.77051,312.96924h152.31836
				c3.54395-5.6875,5.41406-12.23047,5.41602-18.97656c0.00488-19.78613-16.08789-35.91504-35.87207-35.9541
				c-0.02344,0-0.04688,0-0.06934,0c-4.37598,0-8.65039,0.77637-12.70605,2.30859
				c-9.64062,3.64355-20.39844-0.12305-25.58301-8.95117c-9.3418-15.91113-26.58594-25.78906-45.01367-25.78906
				c-0.01758,0-0.03516,0-0.05273,0c-14.05566,0.01465-27.20898,5.4834-37.03711,15.40137
				c-9.83105,9.91992-15.18262,23.12598-15.07031,37.18555C571.2041,291.12451,576.05371,303.44873,584.77051,312.96924z"></path>
		</g>
		<g data-svg-origin="526.2392578125 144.43896484375" transform="matrix(1,0,0,1,0,0)">
			<path fill="#54BEA6" d="M560.10944,145.93892c-20.3548,47.27017-32.37042,105.5208-32.37042,168.53133h64.73114
				C592.47015,251.45972,580.45459,193.20909,560.10944,145.93892z"></path>
			<path fill="#33475B" d="M592.46973,315.97021h-64.73047c-0.82812,0-1.5-0.67188-1.5-1.5
				c0-61.27637,11.23535-119.75879,32.49219-169.12402c0.2373-0.55078,0.7793-0.90723,1.37793-0.90723l0,0
				c0.59961,0,1.14062,0.35645,1.37793,0.90723c21.25,49.37207,32.48242,107.85449,32.48242,169.12402
				C593.96973,315.29834,593.29785,315.97021,592.46973,315.97021z M529.24121,312.97021h61.72656
				c-0.17871-58.98145-10.83008-115.28711-30.8584-163.19141C540.07422,197.67725,529.41992,253.98291,529.24121,312.97021z"></path>
		</g>
		<g data-svg-origin="179.82284545898438 221.35986328125" transform="matrix(1,0,0,1,0,0)">
			<path fill="#7FDED2" d="M181.32462,277.70541c0.11369,14.21545,5.68013,27.13507,14.71547,36.76395h155.91548
				c3.90652-5.96634,6.17722-13.09421,6.17908-20.75909c0.00504-20.84116-17.04282-37.92906-37.88394-37.97063
				c-4.75058-0.00948-9.29855,0.85387-13.49261,2.43871c-9.04623,3.41833-19.19009-0.0838-24.08673-8.42297
				c-9.45804-16.10742-26.96986-26.91566-47.00165-26.89514C205.35875,222.8913,181.08218,247.39543,181.32462,277.70541z"></path>
			<path fill="#33475B" d="M351.95557,315.96924H196.04004c-0.41455,0-0.81006-0.17188-1.09375-0.47363
				c-9.63867-10.27148-15.00879-23.68848-15.12158-37.77832l0,0c-0.12061-15.06445,5.61572-29.21582,16.15283-39.84863
				c10.53467-10.62988,24.63037-16.49316,39.69092-16.50879c0.01807,0,0.03857,0,0.05664,0
				c19.74854,0,38.22754,10.58496,48.23975,27.63574c4.50928,7.67871,13.87158,10.94824,22.26318,7.7793
				c4.45166-1.68262,9.14258-2.53516,13.94189-2.53516c0.02832,0,0.05566,0,0.0835,0
				c21.72021,0.04297,39.38623,17.74902,39.38135,39.4707c-0.00195,7.70312-2.22363,15.16602-6.42432,21.58008
				C352.93311,315.71436,352.46143,315.96924,351.95557,315.96924z M196.69482,312.96924h154.43945
				c3.59961-5.77051,5.49854-12.41113,5.50049-19.25879c0.00488-20.07031-16.31836-36.43164-36.38721-36.4707
				c-0.02539,0-0.05127,0-0.07715,0c-4.43652,0-8.77002,0.78809-12.88184,2.3418c-9.7627,3.69043-20.65967-0.12402-25.91064-9.06641
				c-9.4751-16.13672-26.96484-26.15527-45.65283-26.15527c-0.01855,0-0.03516,0-0.05371,0
				c-14.25488,0.01465-27.59521,5.5625-37.56299,15.62109c-9.97021,10.06055-15.39795,23.45312-15.28369,37.71289
				C182.92969,290.81104,187.85059,303.31201,196.69482,312.96924z"></path>
		</g>
		<g data-svg-origin="353.8037109375 206.85888671875" transform="matrix(1,0,0,1,0,0)">
			<path fill="#7FDED2" d="M560.10248,271.88571c-0.13165,16.46576-6.57928,31.43051-17.04492,42.58365H362.46072
				c-4.52493-6.9108-7.15509-15.16702-7.15723-24.04526c-0.00583-24.14032,19.74069-43.93321,43.88098-43.98135
				c5.50256-0.01099,10.77051,0.98904,15.62848,2.82475c10.47824,3.95946,22.22784-0.09708,27.89966-9.75635
				c10.95523-18.65721,31.23917-31.17641,54.44199-31.15262C532.26379,208.39453,560.3833,236.77765,560.10248,271.88571z"></path>
			<path fill="#33475B" d="M543.05762,315.96924H362.46094c-0.50586,0-0.97803-0.25488-1.25488-0.67871
				c-4.84082-7.39258-7.40039-15.99121-7.40234-24.86621c-0.00586-25.02832,20.35059-45.43164,45.37793-45.48145
				c0.03027,0,0.06104,0,0.09131,0c5.53223,0,10.93799,0.98242,16.07031,2.9209c9.82764,3.7168,20.79443-0.11816,26.07568-9.1123
				c11.55371-19.67578,32.88184-31.89258,55.66992-31.89258c0.02344,0,0.04297,0,0.06738,0
				c17.37988,0.01758,33.64746,6.7832,45.80469,19.05078c12.16016,12.27051,18.78125,28.60254,18.6416,45.9873l-1.5-0.01172
				l1.5,0.01172c-0.12988,16.26074-6.32812,31.74512-17.45117,43.59863
				C543.86816,315.79736,543.47168,315.96924,543.05762,315.96924z M363.28076,312.96924h179.12256
				c10.3291-11.23926,16.07715-25.80762,16.19922-41.0957c0.13281-16.58008-6.17871-32.15332-17.77246-43.85156
				c-11.59082-11.69629-27.10254-18.14648-43.67773-18.16309c-0.02051,0-0.04199,0-0.06348,0
				c-21.72949,0-42.06543,11.64844-53.08203,30.41211c-6.02441,10.25977-18.52441,14.63184-29.72412,10.39941
				c-4.7915-1.80957-9.84131-2.72754-15.00977-2.72754c-0.02881,0-0.05713,0-0.08545,0
				c-23.37598,0.0459-42.38965,19.10352-42.38379,42.48145C356.80566,298.44287,359.04248,306.22021,363.28076,312.96924z"></path>
		</g>
		<g data-svg-origin="334.46240234375 230.43603515625" transform="matrix(1,0,0,1,0,0)">
			<path fill="#54BEA6" d="M351.79922,231.93604c-9.95834,23.12637-15.83682,51.62482-15.83682,82.45197h31.66895
				C367.63135,283.56085,361.75287,255.06241,351.79922,231.93604z"></path>
			<path fill="#33475B" d="M367.63135,315.88818H335.9624c-0.82861,0-1.5-0.67188-1.5-1.5
				c0-30.08301,5.51855-58.7998,15.95898-83.0459c0.2373-0.5498,0.77881-0.90625,1.37793-0.90625l0,0
				c0.59912,0,1.14111,0.35645,1.37793,0.90723c10.43701,24.25,15.9541,52.96582,15.9541,83.04492
				C369.13135,315.21631,368.45996,315.88818,367.63135,315.88818z M337.4668,312.88818h28.66016
				c-0.17188-27.77539-5.10889-54.30176-14.32812-77.06055C342.57715,258.58252,337.63867,285.10889,337.4668,312.88818z"></path>
		</g>
		<g data-svg-origin="164.494140625 144.43896484375" transform="matrix(1,0,0,1,0,0)">
			<path fill="#54BEA6" d="M198.36476,145.93892c-20.35481,47.27017-32.37041,105.5208-32.37041,168.53133h64.73111
				C230.72546,251.45972,218.70995,193.20909,198.36476,145.93892z"></path>
			<path fill="#33475B" d="M230.72559,315.97021h-64.73145c-0.82861,0-1.5-0.67188-1.5-1.5
				c0-61.27637,11.23584-119.75879,32.49268-169.12402c0.2373-0.55078,0.77881-0.90723,1.37793-0.90723l0,0
				c0.59912,0,1.14111,0.35645,1.37793,0.90723c21.25049,49.37402,32.48291,107.85645,32.48291,169.12402
				C232.22559,315.29834,231.5542,315.97021,230.72559,315.97021z M167.49658,312.97021h61.72656
				c-0.17773-58.97949-10.82959-115.28516-30.85889-163.19141C178.3291,197.67627,167.67432,253.98193,167.49658,312.97021z"></path>
		</g>
		<g data-svg-origin="770.1005859375 173.26220703125" transform="matrix(1,0,0,1,0,0)">
			<path fill="#54BEA6" d="M798.43512,174.76251c-16.87354,39.18564-26.83411,87.47379-26.83411,139.70773h53.66028
				C825.26129,262.2363,815.30072,213.94815,798.43512,174.76251z"></path>
			<path fill="#33475B" d="M825.26172,315.97021h-53.66113c-0.82812,0-1.5-0.67188-1.5-1.5
				c0-50.83203,9.32129-99.34668,26.95703-140.30078c0.2373-0.55078,0.7793-0.90723,1.37793-0.90723l0,0
				c0.59961,0,1.14062,0.35645,1.37793,0.90723c17.62988,40.96191,26.94824,89.47656,26.94824,140.30078
				C826.76172,315.29834,826.08984,315.97021,825.26172,315.97021z M773.10352,312.97021h50.65527
				c-0.17676-48.53125-8.91504-94.87012-25.32324-134.3584C782.02148,218.09326,773.28027,264.43213,773.10352,312.97021z"></path>
		</g>
	</g>
</g>
</svg>